<svg width="20" height="20" viewBox="0 0 20 20" fill="none" xmlns="http://www.w3.org/2000/svg">
<g clip-path="url(#clip0_1189_8877)">
<path fill-rule="evenodd" clip-rule="evenodd" d="M15.3093 17.7307H4.98014C4.2426 17.7307 3.53526 17.4377 3.01373 16.9162C2.49221 16.3947 2.19922 15.6873 2.19922 14.9498V4.57535C2.19922 3.72756 3.03826 3.18965 3.7764 3.4455C3.88208 3.48205 3.98537 3.53528 4.08389 3.606L4.22294 3.70531C4.56114 3.94529 4.96574 4.07387 5.38044 4.07316C5.79513 4.07244 6.19929 3.94248 6.53667 3.70134C7.01025 3.3643 7.57707 3.1832 8.15834 3.1832C8.73961 3.1832 9.30644 3.3643 9.78002 3.70134C10.1174 3.94248 10.5216 4.07244 10.9362 4.07316C11.3509 4.07387 11.7555 3.94529 12.0937 3.70531L12.2328 3.606C13.0218 3.04186 14.1175 3.606 14.1175 4.57535V10.5798H16.8984C17.0564 10.5798 17.208 10.6425 17.3198 10.7543C17.4315 10.8661 17.4943 11.0176 17.4943 11.1757V15.5457C17.4943 16.1252 17.2641 16.681 16.8543 17.0907C16.4446 17.5005 15.8888 17.7307 15.3093 17.7307ZM14.3161 11.7716V15.5457C14.3161 15.8091 14.4207 16.0617 14.607 16.248C14.7933 16.4342 15.0459 16.5389 15.3093 16.5389C15.5727 16.5389 15.8253 16.4342 16.0116 16.248C16.1978 16.0617 16.3025 15.8091 16.3025 15.5457V11.7716H14.3161ZM10.9393 8.39475C10.9393 8.2367 10.8765 8.08513 10.7647 7.97337C10.653 7.86162 10.5014 7.79884 10.3434 7.79884H5.57606C5.41801 7.79884 5.26644 7.86162 5.15468 7.97337C5.04293 8.08513 4.98014 8.2367 4.98014 8.39475C4.98014 8.55279 5.04293 8.70437 5.15468 8.81612C5.26644 8.92788 5.41801 8.99066 5.57606 8.99066H10.3434C10.5014 8.99066 10.653 8.92788 10.7647 8.81612C10.8765 8.70437 10.9393 8.55279 10.9393 8.39475ZM10.1447 10.7784C10.1447 10.6204 10.0819 10.4688 9.97018 10.357C9.85842 10.2453 9.70685 10.1825 9.54881 10.1825H5.57606C5.41801 10.1825 5.26644 10.2453 5.15468 10.357C5.04293 10.4688 4.98014 10.6204 4.98014 10.7784C4.98014 10.9364 5.04293 11.088 5.15468 11.1998C5.26644 11.3115 5.41801 11.3743 5.57606 11.3743H9.54881C9.70685 11.3743 9.85842 11.3115 9.97018 11.1998C10.0819 11.088 10.1447 10.9364 10.1447 10.7784ZM10.3434 12.5661C10.5014 12.5661 10.653 12.6289 10.7647 12.7407C10.8765 12.8524 10.9393 13.004 10.9393 13.162C10.9393 13.3201 10.8765 13.4717 10.7647 13.5834C10.653 13.6952 10.5014 13.758 10.3434 13.758H5.57606C5.41801 13.758 5.26644 13.6952 5.15468 13.5834C5.04293 13.4717 4.98014 13.3201 4.98014 13.162C4.98014 13.004 5.04293 12.8524 5.15468 12.7407C5.26644 12.6289 5.41801 12.5661 5.57606 12.5661H10.3434Z" fill="#DC2626"/>
<g clip-path="url(#clip1_1189_8877)">
<path d="M15.9279 4.88546C15.9279 6.83581 14.3469 8.41679 12.3966 8.41679C10.4462 8.41679 8.86523 6.83581 8.86523 4.88546C8.86523 2.9351 10.4462 1.35413 12.3966 1.35413C14.3469 1.35413 15.9279 2.9351 15.9279 4.88546Z" fill="#121139"/>
<path d="M12.6614 3.82607C12.6614 3.75583 12.6335 3.68846 12.5838 3.63879C12.5341 3.58912 12.4668 3.56122 12.3965 3.56122C12.3263 3.56122 12.2589 3.58912 12.2092 3.63879C12.1596 3.68846 12.1317 3.75583 12.1317 3.82607V4.62062H11.3371C11.2669 4.62062 11.1995 4.64852 11.1498 4.69819C11.1002 4.74786 11.0723 4.81523 11.0723 4.88547C11.0723 4.95571 11.1002 5.02308 11.1498 5.07275C11.1995 5.12241 11.2669 5.15032 11.3371 5.15032H12.1317V5.94487C12.1317 6.01511 12.1596 6.08248 12.2092 6.13215C12.2589 6.18181 12.3263 6.20972 12.3965 6.20972C12.4668 6.20972 12.5341 6.18181 12.5838 6.13215C12.6335 6.08248 12.6614 6.01511 12.6614 5.94487V5.15032H13.4559C13.5262 5.15032 13.5935 5.12241 13.6432 5.07275C13.6929 5.02308 13.7208 4.95571 13.7208 4.88547C13.7208 4.81523 13.6929 4.74786 13.6432 4.69819C13.5935 4.64852 13.5262 4.62062 13.4559 4.62062H12.6614V3.82607Z" fill="#DC2626"/>
</g>
</g>
<defs>
<clipPath id="clip0_1189_8877">
<rect width="19.0692" height="19.0692" fill="white" transform="translate(0.212891 0.647888)"/>
</clipPath>
<clipPath id="clip1_1189_8877">
<rect width="8.4752" height="8.4752" fill="white" transform="translate(8.1582 0.647888)"/>
</clipPath>
</defs>
</svg>
