<svg width="10" height="10" viewBox="0 0 10 10" fill="none" xmlns="http://www.w3.org/2000/svg">
<path d="M4.04771 5.02974L5.43218 6.41421L5.43221 6.41423C5.46343 6.4454 5.50084 6.46969 5.54201 6.48553C5.58319 6.50137 5.62723 6.50842 5.67129 6.50621C5.71535 6.50401 5.75847 6.49261 5.79786 6.47274C5.83725 6.45287 5.87205 6.42497 5.90001 6.39084L5.90003 6.39082L7.80772 4.05861V5.36765C7.80772 5.45148 7.84102 5.53188 7.9003 5.59115C7.95958 5.65043 8.03997 5.68373 8.1238 5.68373C8.20763 5.68373 8.28803 5.65043 8.3473 5.59115C8.40658 5.53188 8.43988 5.45148 8.43988 5.36765V3.1735C8.43988 3.08967 8.40658 3.00927 8.3473 2.95C8.28803 2.89072 8.20763 2.85742 8.1238 2.85742L5.92965 2.85742C5.84582 2.85742 5.76542 2.89072 5.70615 2.95C5.64687 3.00927 5.61357 3.08967 5.61357 3.1735C5.61357 3.25733 5.64687 3.33773 5.70615 3.397C5.76542 3.45628 5.84582 3.48958 5.92965 3.48958L7.45686 3.48958L5.63198 5.72011L4.23352 4.3211L4.2335 4.32108C4.20118 4.28879 4.16224 4.26389 4.11937 4.2481C4.0765 4.23231 4.03071 4.226 3.98517 4.2296C3.93962 4.23321 3.8954 4.24664 3.85555 4.26899C3.81571 4.29132 3.78118 4.32202 3.75434 4.35898L4.04771 5.02974ZM4.04771 5.02974L2.07104 7.74767L2.07011 7.74894L2.07009 7.74892C2.01953 7.81321 1.94602 7.8554 1.865 7.86662C1.78399 7.87784 1.70178 7.85723 1.63565 7.8091C1.56952 7.76098 1.52462 7.68909 1.51038 7.60855C1.49614 7.52801 1.51368 7.44509 1.5593 7.37721L1.56017 7.37593L1.56019 7.37594L3.75432 4.35901L4.04771 5.02974Z" fill="#21A90B" stroke="#21A90B" stroke-width="0.0836216"/>
</svg>
