<svg width="438" height="438" viewBox="0 0 438 438" fill="none" xmlns="http://www.w3.org/2000/svg">
<path d="M108.755 381.34C108.755 381.34 154.439 405.089 206.648 380.053C258.858 355.017 275.852 306.469 302.903 270.045C317.095 250.957 340.309 240.322 358.021 224.274C414.646 172.949 394.2 87.1445 342.411 63.5976C297.551 43.2131 245.736 50.519 181.534 85.0246C117.331 119.53 71.0699 141.807 37.3615 210.573C3.65298 279.339 51.9556 348.061 108.755 381.34Z" fill="#8ACFF5"/>
<path opacity="0.8" d="M108.755 381.34C108.755 381.34 154.439 405.089 206.648 380.053C258.858 355.017 275.852 306.469 302.903 270.045C317.095 250.957 340.309 240.322 358.021 224.274C414.646 172.949 394.2 87.1445 342.411 63.5976C297.551 43.2131 245.736 50.519 181.534 85.0246C117.331 119.53 71.0699 141.807 37.3615 210.573C3.65298 279.339 51.9556 348.061 108.755 381.34Z" fill="white"/>
<path d="M32.1143 322.596H385.186" stroke="#263238" stroke-miterlimit="10"/>
<path d="M32.1143 255.748H385.186" stroke="#263238" stroke-miterlimit="10"/>
<path d="M32.1143 188.901H385.186" stroke="#263238" stroke-miterlimit="10"/>
<path d="M32.1143 122.053H385.186" stroke="#263238" stroke-miterlimit="10"/>
<path d="M112.391 84.0959V322.753" stroke="#263238" stroke-miterlimit="10"/>
<path d="M324.611 84.0959V322.753" stroke="#263238" stroke-miterlimit="10"/>
<path d="M120.275 172.563L117.647 175.331" stroke="#263238" stroke-miterlimit="10"/>
<path d="M165.03 125.364L123.438 169.226" stroke="#263238" stroke-miterlimit="10"/>
<path d="M167.623 132.504L144.26 156.515" stroke="#263238" stroke-miterlimit="10"/>
<path d="M333.695 172.563L331.067 175.331" stroke="#263238" stroke-miterlimit="10"/>
<path d="M378.441 125.364L336.857 169.226" stroke="#263238" stroke-miterlimit="10"/>
<path d="M381.043 132.504L357.68 156.515" stroke="#263238" stroke-miterlimit="10"/>
<path d="M26.8233 307.555L24.1953 310.323" stroke="#263238" stroke-miterlimit="10"/>
<path d="M71.5696 260.347L29.9858 304.217" stroke="#263238" stroke-miterlimit="10"/>
<path d="M74.171 267.487L50.7993 291.506" stroke="#263238" stroke-miterlimit="10"/>
<path d="M61.2149 115.457L58.5957 118.225" stroke="#263238" stroke-miterlimit="10"/>
<path d="M105.97 68.2491L64.3862 112.11" stroke="#263238" stroke-miterlimit="10"/>
<path d="M108.563 75.3885L85.2002 99.3997" stroke="#263238" stroke-miterlimit="10"/>
<path d="M255.687 115.457L253.068 118.225" stroke="#263238" stroke-miterlimit="10"/>
<path d="M300.442 68.2491L258.858 112.11" stroke="#263238" stroke-miterlimit="10"/>
<path d="M303.035 75.3885L279.672 99.3997" stroke="#263238" stroke-miterlimit="10"/>
<path d="M195.559 242.004L192.931 244.772" stroke="#263238" stroke-miterlimit="10"/>
<path d="M240.304 194.805L198.721 238.666" stroke="#263238" stroke-miterlimit="10"/>
<path d="M242.906 201.944L219.543 225.955" stroke="#263238" stroke-miterlimit="10"/>
<path d="M374.858 371.993C374.858 371.993 353.168 325.776 357.881 324.444C362.594 323.113 372.475 330.471 372.475 330.471C372.475 330.471 343.48 252.77 350.987 246.743C358.494 240.716 372.51 271.56 372.51 271.56C372.51 271.56 357.539 223.967 359.3 205.86C361.061 187.753 380.079 205.194 380.079 205.194C380.079 205.194 364.845 140.221 378.993 136.866C393.14 133.511 392.667 211.212 392.667 211.212C392.667 211.212 397.31 155.613 402.978 171.021C408.645 186.43 396.732 238 396.732 238C396.732 238 404.502 220.586 408.821 236.66C413.139 252.735 400.236 317.708 400.236 317.708C400.236 317.708 411.203 306.994 412.228 320.388C413.253 333.782 389.522 375.313 389.522 375.313L376.093 376.68L374.858 371.993Z" fill="#8ACFF5"/>
<path opacity="0.6" d="M374.858 371.993C374.858 371.993 353.168 325.776 357.881 324.444C362.594 323.113 372.475 330.471 372.475 330.471C372.475 330.471 343.48 252.77 350.987 246.743C358.494 240.716 372.51 271.56 372.51 271.56C372.51 271.56 357.539 223.967 359.3 205.86C361.061 187.753 380.079 205.194 380.079 205.194C380.079 205.194 364.845 140.221 378.993 136.866C393.14 133.511 392.667 211.212 392.667 211.212C392.667 211.212 397.31 155.613 402.978 171.021C408.645 186.43 396.732 238 396.732 238C396.732 238 404.502 220.586 408.821 236.66C413.139 252.735 400.236 317.708 400.236 317.708C400.236 317.708 411.203 306.994 412.228 320.388C413.253 333.782 389.522 375.313 389.522 375.313L376.093 376.68L374.858 371.993Z" fill="white"/>
<path d="M379.492 374.052C379.492 374.052 361.411 341.903 364.758 335.867C368.104 329.832 378.152 343.909 378.152 343.909C378.152 343.909 355.376 286.969 358.731 281.616C362.086 276.264 372.799 299.706 372.799 299.706C372.799 299.706 368.779 221.339 375.471 224.011C382.164 226.683 382.812 264.158 382.812 264.158C382.812 264.158 378.8 175.077 384.827 177.758C390.854 180.438 390.188 279.567 390.188 279.567C390.188 279.567 402.242 241.382 404.248 258.797C406.254 276.212 388.848 323.104 388.848 323.104C388.848 323.104 405.588 286.259 407.629 305.724C409.67 325.189 394.2 361.28 394.2 361.28C394.2 361.28 400.227 346.546 400.227 354.579C400.227 362.611 395.54 372.668 395.54 372.668" stroke="#263238" stroke-linecap="round" stroke-linejoin="round"/>
<path d="M329.744 274.398L354.14 327.642L338.793 331.969L320.695 309.438L329.744 274.398Z" fill="#8ACFF5"/>
<mask id="mask0_1184_5471" style="mask-type:luminance" maskUnits="userSpaceOnUse" x="320" y="274" width="35" height="58">
<path d="M329.744 274.398L354.14 327.642L338.793 331.969L320.695 309.438L329.744 274.398Z" fill="white"/>
</mask>
<g mask="url(#mask0_1184_5471)">
<g opacity="0.1">
<path d="M325.337 291.445L324.304 295.466L344.566 330.34L347.474 329.525L325.337 291.445Z" fill="black"/>
<path d="M338.907 331.943L341.833 331.119L322.981 300.573L321.974 304.489L338.907 331.943Z" fill="black"/>
<path d="M327.843 281.748L326.774 285.9L350.04 328.798L352.914 327.983L327.843 281.748Z" fill="black"/>
</g>
</g>
<path d="M329.744 274.398L354.14 327.642L338.793 331.969L320.695 309.438L329.744 274.398Z" stroke="#263238" stroke-linecap="round" stroke-linejoin="round"/>
<path d="M281.222 259.568L249.45 274.206L266.392 342.945L260.995 371.862H321.273L315.307 340.44L329.937 274.398L296.622 260.724L281.222 259.568Z" fill="#8ACFF5"/>
<mask id="mask1_1184_5471" style="mask-type:luminance" maskUnits="userSpaceOnUse" x="249" y="259" width="81" height="113">
<path d="M281.222 259.568L249.45 274.206L266.392 342.945L260.995 371.862H321.273L315.307 340.44L329.937 274.398L296.622 260.724L281.222 259.568Z" fill="white"/>
</mask>
<g mask="url(#mask1_1184_5471)">
<g opacity="0.1">
<path d="M281.511 371.862L282.729 344.478C282.742 344.35 282.742 344.221 282.729 344.093L270.246 264.631L266.567 266.322L278.831 344.505L277.613 371.862H281.511Z" fill="black"/>
<path d="M288.817 337.926C288.817 337.926 288.817 337.856 288.817 337.821L278.918 260.628L275.213 262.38L284.936 338.302L287.442 371.906H291.349L288.817 337.926Z" fill="black"/>
<path d="M270.491 371.862L273.995 345.135C274.026 344.938 274.026 344.737 273.995 344.54L260.636 269.072L256.983 270.754L270.123 344.925L266.619 371.862H270.491Z" fill="black"/>
<path d="M328.553 273.829L324.882 272.322L311.488 341.587C311.449 341.814 311.449 342.045 311.488 342.271L316.306 371.862H320.257L315.36 341.99L315.474 341.421L315.281 340.44L318.216 327.221L328.553 273.829Z" fill="black"/>
<path d="M293.443 267.434L289.553 267.548L292.786 371.862H296.675L293.443 267.434Z" fill="black"/>
<path d="M307.099 341.482L320.038 270.334L316.359 268.818L303.219 341.123C303.175 341.346 303.175 341.575 303.219 341.798L308.352 371.862H312.303L307.099 341.482Z" fill="black"/>
<path d="M300.03 339.065L309.867 266.155L306.144 264.631L296.141 338.784C296.119 338.941 296.119 339.1 296.141 339.257L299.767 371.862H303.683L300.03 339.065Z" fill="black"/>
</g>
</g>
<path d="M281.222 259.568L249.45 274.206L266.392 342.945L260.995 371.862H321.273L315.307 340.44L329.937 274.398L296.622 260.724L281.222 259.568Z" stroke="#263238" stroke-linecap="round" stroke-linejoin="round"/>
<path d="M249.45 274.206L224.422 328.404L240.401 331.776L258.499 309.246L249.45 274.206Z" fill="#8ACFF5"/>
<mask id="mask2_1184_5471" style="mask-type:luminance" maskUnits="userSpaceOnUse" x="224" y="274" width="35" height="58">
<path d="M249.45 274.206L224.422 328.404L240.401 331.776L258.499 309.246L249.45 274.206Z" fill="white"/>
</mask>
<g mask="url(#mask2_1184_5471)">
<g opacity="0.1">
<path d="M256.029 299.68L238.596 331.4L240.401 331.776L244.571 326.582L257.089 303.806L256.029 299.68Z" fill="black"/>
<path d="M254.46 293.618L253.322 289.203L233.866 330.401L236.8 331.023L254.46 293.618Z" fill="black"/>
<path d="M227.515 329.052L230.449 329.674L251.973 283.973L250.825 279.54L227.515 329.052Z" fill="black"/>
</g>
<path d="M248.793 283.228L257.623 306.924L248.758 293.355" stroke="#263238" stroke-miterlimit="10"/>
</g>
<path d="M249.45 274.206L224.422 328.404L240.401 331.776L258.499 309.246L249.45 274.206Z" stroke="#263238" stroke-linecap="round" stroke-linejoin="round"/>
<path d="M241.548 323.691L273.128 359.703L266.996 366.632L227.199 334.939C227.199 334.939 221.742 332.311 225.018 326.967" fill="#8ACFF5"/>
<mask id="mask3_1184_5471" style="mask-type:luminance" maskUnits="userSpaceOnUse" x="223" y="323" width="51" height="44">
<path d="M241.548 323.691L273.128 359.703L266.996 366.632L227.199 334.939C227.199 334.939 221.742 332.311 225.018 326.967" fill="white"/>
</mask>
<g mask="url(#mask3_1184_5471)">
<g opacity="0.1">
<path d="M269.817 362.209L272.778 359.677L256.852 341.141L241.548 323.691L237.431 324.505L269.817 362.209Z" fill="black"/>
<path d="M263.509 363.873L266.146 365.975L268.625 363.794L234.566 325.075L230.151 325.942L263.509 363.873Z" fill="black"/>
</g>
</g>
<path d="M241.548 323.691L273.128 359.703L266.996 366.632L227.199 334.939C227.199 334.939 221.742 332.311 225.018 326.967" stroke="#263238" stroke-linecap="round" stroke-linejoin="round"/>
<path d="M268.056 358.345C268.932 357.855 284.165 354.211 284.376 356.077C284.586 357.942 289.123 360.001 291.191 360.001C293.258 360.001 295.326 358.345 295.737 360.825C296.149 363.304 293.88 363.514 292.023 363.715C290.166 363.917 283.754 361.858 283.754 361.858C283.754 361.858 277.762 366.816 275.283 368.052C272.804 369.287 268.275 368.928 266.61 367.64C264.946 366.352 262.695 361.236 268.056 358.345Z" fill="white" stroke="#263238" stroke-linecap="round" stroke-linejoin="round"/>
<path d="M282.116 355.866C282.116 355.866 287.897 354.211 289.124 354.833C290.35 355.455 290.99 367.85 290.99 367.85C290.99 367.85 290.368 369.085 289.124 367.85C287.88 366.615 283.754 357.338 283.754 357.338" fill="white"/>
<path d="M282.116 355.866C282.116 355.866 287.897 354.211 289.124 354.833C290.35 355.455 290.99 367.85 290.99 367.85C290.99 367.85 290.368 369.085 289.124 367.85C287.88 366.615 283.754 357.338 283.754 357.338" stroke="#263238" stroke-linecap="round" stroke-linejoin="round"/>
<path d="M279.216 356.278C279.216 356.278 285.208 354.833 286.452 357.101C287.696 359.37 290.788 369.497 288.309 369.917C285.83 370.338 285.006 367.018 285.006 367.018L281.082 359.791L278.393 359.379" fill="white"/>
<path d="M279.216 356.278C279.216 356.278 285.208 354.833 286.452 357.101C287.696 359.37 290.788 369.497 288.309 369.917C285.83 370.338 285.006 367.018 285.006 367.018L281.082 359.791L278.393 359.379" stroke="#263238" stroke-linecap="round" stroke-linejoin="round"/>
<path d="M277.158 358.135C277.158 358.135 280.048 356.9 281.494 357.934C282.939 358.967 289.553 369.497 288.309 369.917C287.065 370.338 284.174 370.119 283.763 369.295C283.351 368.472 277.981 361.411 277.981 361.411" fill="white"/>
<path d="M277.158 358.135C277.158 358.135 280.048 356.9 281.494 357.934C282.939 358.967 289.553 369.497 288.309 369.917C287.065 370.338 284.174 370.119 283.763 369.295C283.351 368.472 277.981 361.411 277.981 361.411" stroke="#263238" stroke-linecap="round" stroke-linejoin="round"/>
<path d="M275.064 361.648C275.064 361.648 277.745 359.169 279.19 360.001C280.635 360.833 286.627 368.673 285.392 369.497C284.157 370.32 283.325 369.497 282.089 367.85C281.203 366.739 280.159 365.765 278.988 364.959L276.509 365.783" fill="white"/>
<path d="M275.064 361.648C275.064 361.648 277.745 359.169 279.19 360.001C280.635 360.833 286.627 368.673 285.392 369.497C284.157 370.32 283.325 369.497 282.089 367.85C281.203 366.739 280.159 365.765 278.988 364.959L276.509 365.783" stroke="#263238" stroke-linecap="round" stroke-linejoin="round"/>
<path d="M336.103 324.847L325.591 360.614L333.195 365.923L350.373 338.311C350.373 338.311 357.434 330.34 353.001 325.855" fill="#8ACFF5"/>
<mask id="mask4_1184_5471" style="mask-type:luminance" maskUnits="userSpaceOnUse" x="325" y="324" width="30" height="42">
<path d="M336.103 324.847L325.591 360.614L333.195 365.923L350.373 338.311C350.373 338.311 357.434 330.34 353.001 325.855" fill="white"/>
</mask>
<g mask="url(#mask4_1184_5471)">
<g opacity="0.1">
<path d="M333.431 365.494L333.563 365.275L348.113 325.565L344.049 325.32L329.989 363.707L331.566 364.802L333.431 365.494Z" fill="black"/>
<path d="M325.609 360.641L328.911 362.953L342.489 325.338L342.113 325.206L338.477 324.987L325.609 360.641Z" fill="black"/>
<path d="M354.202 327.948C353.969 327.157 353.541 326.437 352.958 325.855L350.873 325.732L339.888 355.157L350.33 338.355L354.202 327.948Z" fill="black"/>
</g>
</g>
<path d="M336.103 324.847L325.591 360.614L333.195 365.923L350.373 338.311C350.373 338.311 357.434 330.34 353.001 325.855" stroke="#263238" stroke-linecap="round" stroke-linejoin="round"/>
<path d="M330.882 358.345C330.006 357.855 314.764 354.211 314.563 356.077C314.361 357.942 309.806 360.001 307.747 360.001C305.689 360.001 303.613 358.345 303.201 360.825C302.789 363.304 305.058 363.514 306.915 363.715C308.772 363.917 315.184 361.858 315.184 361.858C315.184 361.858 321.176 366.816 323.655 368.052C326.134 369.287 330.663 368.928 332.328 367.64C333.992 366.352 336.252 361.236 330.882 358.345Z" fill="white" stroke="#263238" stroke-linecap="round" stroke-linejoin="round"/>
<path d="M316.831 355.866C316.831 355.866 311.05 354.211 309.823 354.833C308.597 355.455 307.966 367.85 307.966 367.85C307.966 367.85 308.588 369.085 309.823 367.85C311.059 366.615 315.202 357.338 315.202 357.338" fill="white"/>
<path d="M316.831 355.866C316.831 355.866 311.05 354.211 309.823 354.833C308.597 355.455 307.966 367.85 307.966 367.85C307.966 367.85 308.588 369.085 309.823 367.85C311.059 366.615 315.202 357.338 315.202 357.338" stroke="#263238" stroke-linecap="round" stroke-linejoin="round"/>
<path d="M319.74 356.278C319.74 356.278 313.757 354.833 312.513 357.101C311.269 359.37 308.133 369.497 310.656 369.917C313.179 370.338 313.958 367.018 313.958 367.018L317.883 359.791L320.572 359.379" fill="white"/>
<path d="M319.74 356.278C319.74 356.278 313.757 354.833 312.513 357.101C311.269 359.37 308.133 369.497 310.656 369.917C313.179 370.338 313.958 367.018 313.958 367.018L317.883 359.791L320.572 359.379" stroke="#263238" stroke-linecap="round" stroke-linejoin="round"/>
<path d="M321.79 358.135C321.79 358.135 318.899 356.9 317.454 357.934C316.008 358.967 309.394 369.497 310.638 369.917C311.882 370.338 314.764 370.119 315.185 369.295C315.605 368.472 320.966 361.411 320.966 361.411" fill="white"/>
<path d="M321.79 358.135C321.79 358.135 318.899 356.9 317.454 357.934C316.008 358.967 309.394 369.497 310.638 369.917C311.882 370.338 314.764 370.119 315.185 369.295C315.605 368.472 320.966 361.411 320.966 361.411" stroke="#263238" stroke-linecap="round" stroke-linejoin="round"/>
<path d="M323.857 361.648C323.857 361.648 321.176 359.16 319.74 360.036C318.303 360.912 312.303 368.708 313.547 369.532C314.79 370.355 315.614 369.532 316.849 367.885C317.735 366.774 318.78 365.8 319.95 364.994L322.429 365.818" fill="white"/>
<path d="M323.857 361.648C323.857 361.648 321.176 359.16 319.74 360.036C318.303 360.912 312.303 368.708 313.547 369.532C314.79 370.355 315.614 369.532 316.849 367.885C317.735 366.774 318.78 365.8 319.95 364.994L322.429 365.818" stroke="#263238" stroke-linecap="round" stroke-linejoin="round"/>
<path d="M283.526 255.906C283.526 255.906 278.524 257.448 276.404 260.531C274.284 263.615 276.789 287.486 276.789 287.486L292.776 278.629L309.525 289.22C309.525 289.22 307.984 264.771 306.635 261.302C305.286 257.833 296.815 253.795 293.924 254.18C291.033 254.566 283.526 255.906 283.526 255.906Z" fill="#8ACFF5" stroke="#263238" stroke-linecap="round" stroke-linejoin="round"/>
<path d="M281.222 242.626V264.771L291.813 293.267L300.862 264.193V242.433L281.222 242.626Z" fill="white" stroke="#263238" stroke-linecap="round" stroke-linejoin="round"/>
<path d="M281.196 250.58C284.185 252.677 287.749 253.8 291.401 253.795C294.739 253.798 298.01 252.856 300.836 251.079V242.433L281.196 242.652V250.58Z" fill="#263238" stroke="#263238" stroke-linecap="round" stroke-linejoin="round"/>
<path d="M291.427 248.784C286.696 248.784 282.159 246.905 278.813 243.561C275.467 240.216 273.586 235.68 273.583 230.949L270.438 205.86C270.438 200.284 272.654 194.937 276.596 190.994C280.539 187.051 285.887 184.836 291.462 184.836C297.038 184.836 302.386 187.051 306.329 190.994C310.271 194.937 312.486 200.284 312.486 205.86L309.228 230.914C309.232 233.256 308.776 235.576 307.884 237.742C306.991 239.907 305.682 241.876 304.029 243.535C302.376 245.195 300.412 246.512 298.25 247.413C296.088 248.314 293.77 248.779 291.427 248.784Z" fill="white" stroke="#263238" stroke-linecap="round" stroke-linejoin="round"/>
<path d="M296.009 224.081C296.009 224.081 300.555 220.27 305.986 224.379" stroke="#263238" stroke-linecap="round" stroke-linejoin="round"/>
<path d="M287.792 223.643C286.442 222.783 284.834 222.421 283.246 222.618" stroke="#263238" stroke-linecap="round" stroke-linejoin="round"/>
<path d="M297.77 214.988C297.77 214.988 302.614 212.64 305.548 217.187" stroke="#263238" stroke-linecap="round" stroke-linejoin="round"/>
<path d="M289.956 234.207C289.956 234.207 292.015 235.819 293.775 234.207" stroke="#263238" stroke-linecap="round" stroke-linejoin="round"/>
<path d="M287.941 237.729C287.941 237.729 292.198 240.357 294.686 237.729" stroke="#263238" stroke-linecap="round" stroke-linejoin="round"/>
<path d="M300.398 203.232C300.398 203.232 282.808 219.473 277.902 231.308C272.997 243.143 277.394 255.503 280.101 259.06C282.808 262.616 284.481 263.115 284.481 263.115C284.481 263.115 275.178 266.672 269.09 257.369C263.001 248.066 264.517 237.571 266.383 230.3C268.249 223.03 267.732 201.708 271.963 194.603C276.194 187.499 282.282 182.252 292.435 183.434C302.588 184.617 307.993 189.864 311.208 196.461C314.423 203.057 312.898 214.226 313.915 219.131C314.931 224.037 319.328 238.754 320.344 247.549C321.361 256.344 309.368 262.607 307.476 263.457C306.19 263.998 304.815 264.295 303.42 264.333C303.42 264.333 307.476 244.036 308.326 232.359C309.175 220.682 309.228 213.744 309.228 213.744C309.228 213.744 301.248 203.74 300.398 203.232Z" fill="#263238"/>
<mask id="mask5_1184_5471" style="mask-type:luminance" maskUnits="userSpaceOnUse" x="264" y="183" width="57" height="82">
<path d="M300.398 203.232C300.398 203.232 282.808 219.473 277.902 231.308C272.997 243.143 277.394 255.503 280.101 259.06C282.808 262.616 284.481 263.115 284.481 263.115C284.481 263.115 275.178 266.672 269.09 257.369C263.001 248.066 264.517 237.571 266.383 230.3C268.249 223.03 267.732 201.708 271.963 194.603C276.194 187.499 282.282 182.252 292.435 183.434C302.588 184.617 307.993 189.864 311.208 196.461C314.423 203.057 312.898 214.226 313.915 219.131C314.931 224.037 319.328 238.754 320.344 247.549C321.361 256.344 309.368 262.607 307.476 263.457C306.19 263.998 304.815 264.295 303.42 264.333C303.42 264.333 307.476 244.036 308.326 232.359C309.175 220.682 309.228 213.744 309.228 213.744C309.228 213.744 301.248 203.74 300.398 203.232Z" fill="white"/>
</mask>
<g mask="url(#mask5_1184_5471)">
<path d="M298.34 191.844C298.34 191.844 296.264 197.564 281.328 213.954C266.392 230.344 262.336 245.981 266.874 261.258" stroke="#707070" stroke-miterlimit="10"/>
<path d="M294.651 186.132C294.651 186.132 286.435 192.939 276.255 203.136C269.999 209.448 264.656 216.604 260.382 224.396" stroke="#707070" stroke-miterlimit="10"/>
<path d="M302.019 193.219C302.019 193.219 308.256 204.555 311.655 211.361C315.053 218.168 319.03 256.423 307.126 270.053" stroke="#707070" stroke-miterlimit="10"/>
<path d="M297.77 183.864L300.398 203.232" stroke="#707070" stroke-miterlimit="10"/>
</g>
<path d="M300.398 203.232C300.398 203.232 282.808 219.473 277.902 231.308C272.997 243.143 277.394 255.503 280.101 259.06C282.808 262.616 284.481 263.115 284.481 263.115C284.481 263.115 275.178 266.672 269.09 257.369C263.001 248.066 264.517 237.571 266.383 230.3C268.249 223.03 267.732 201.708 271.963 194.603C276.194 187.499 282.282 182.252 292.435 183.434C302.588 184.617 307.993 189.864 311.208 196.461C314.423 203.057 312.898 214.226 313.915 219.131C314.931 224.037 319.328 238.754 320.344 247.549C321.361 256.344 309.368 262.607 307.476 263.457C306.19 263.998 304.815 264.295 303.42 264.333C303.42 264.333 307.476 244.036 308.326 232.359C309.175 220.682 309.228 213.744 309.228 213.744C309.228 213.744 301.248 203.74 300.398 203.232Z" stroke="#263238" stroke-linecap="round" stroke-linejoin="round"/>
<path d="M268.704 214.568H266.111C264.679 214.568 263.518 215.728 263.518 217.16V227.541C263.518 228.973 264.679 230.134 266.111 230.134H268.704C270.136 230.134 271.297 228.973 271.297 227.541V217.16C271.297 215.728 270.136 214.568 268.704 214.568Z" fill="white" stroke="#263238" stroke-linecap="round" stroke-linejoin="round"/>
<path d="M316.245 214.568H313.652C312.219 214.568 311.059 215.728 311.059 217.16V227.541C311.059 228.973 312.219 230.134 313.652 230.134H316.245C317.677 230.134 318.837 228.973 318.837 227.541V217.16C318.837 215.728 317.677 214.568 316.245 214.568Z" fill="white" stroke="#263238" stroke-linecap="round" stroke-linejoin="round"/>
<path d="M315.623 214.567V206.105C315.623 199.556 313.021 193.275 308.39 188.644C303.759 184.013 297.478 181.411 290.928 181.411C284.378 181.411 278.096 184.012 273.464 188.643C268.831 193.274 266.227 199.555 266.225 206.105V214.567" stroke="#263238" stroke-width="2" stroke-linejoin="round"/>
<path d="M314.948 230.055C314.948 230.055 313.853 238.526 303.49 241.978" stroke="#263238" stroke-linecap="round" stroke-linejoin="round"/>
<path d="M303.096 241.61C303.534 242.88 302.299 244.457 300.328 245.114C298.357 245.771 296.421 245.324 295.948 244.054C295.475 242.783 296.745 241.207 298.707 240.55C300.669 239.893 302.684 240.339 303.096 241.61Z" stroke="#263238" stroke-linecap="round" stroke-linejoin="round"/>
<path d="M125.793 252.533L89.5972 269.782L100.039 372.072H172.195L182.401 268.082L148.386 252.288L125.793 252.533Z" fill="#8ACFF5" stroke="#263238" stroke-linecap="round" stroke-linejoin="round"/>
<path d="M140.3 283.745C140.977 283.745 141.527 283.196 141.527 282.519C141.527 281.841 140.977 281.292 140.3 281.292C139.623 281.292 139.074 281.841 139.074 282.519C139.074 283.196 139.623 283.745 140.3 283.745Z" fill="#263238"/>
<path d="M141.527 289.877C141.527 290.12 141.455 290.357 141.32 290.559C141.185 290.76 140.994 290.917 140.769 291.01C140.545 291.103 140.299 291.127 140.061 291.08C139.823 291.033 139.604 290.916 139.433 290.744C139.261 290.573 139.145 290.354 139.097 290.116C139.05 289.879 139.074 289.632 139.167 289.408C139.26 289.184 139.417 288.992 139.619 288.857C139.82 288.723 140.058 288.651 140.3 288.651C140.625 288.651 140.937 288.78 141.167 289.01C141.397 289.24 141.527 289.552 141.527 289.877Z" fill="#263238"/>
<path d="M152.853 257.754L142.963 268.783L138.741 279.496L134.194 268.625L124.628 257.754V238.447H152.853V257.754Z" fill="white" stroke="#263238" stroke-linecap="round" stroke-linejoin="round"/>
<path d="M124.628 247.032C126.49 249.295 128.831 251.117 131.482 252.367C134.133 253.617 137.028 254.263 139.958 254.259C144.688 254.265 149.264 252.574 152.853 249.493V238.447H124.628V247.032Z" fill="#263238" stroke="#263238" stroke-linecap="round" stroke-linejoin="round"/>
<path d="M141.947 184.416H137.97C128.091 184.416 120.082 192.424 120.082 202.303V230.94C120.082 240.819 128.091 248.828 137.97 248.828H141.947C151.826 248.828 159.835 240.819 159.835 230.94V202.303C159.835 192.424 151.826 184.416 141.947 184.416Z" fill="white" stroke="#263238" stroke-linecap="round" stroke-linejoin="round"/>
<path d="M143.769 212.973L143.182 227.05C143.17 227.661 142.972 228.252 142.613 228.746C142.254 229.239 141.753 229.611 141.176 229.81C140.116 230.134 138.907 229.81 138.25 227.418" stroke="#263238" stroke-linecap="round" stroke-linejoin="round"/>
<path d="M132.276 232.604H148.044C148.044 232.604 145.284 238.614 139.932 238.614C134.58 238.614 132.276 232.604 132.276 232.604Z" fill="#263238" stroke="#263238" stroke-linecap="round" stroke-linejoin="round"/>
<path d="M133.397 234.715H146.677C147.182 234.056 147.622 233.349 147.991 232.604H132.276C132.575 233.345 132.951 234.053 133.397 234.715Z" fill="white" stroke="#263238" stroke-linecap="round" stroke-linejoin="round"/>
<path d="M132.092 219.307C132.721 219.307 133.231 218.106 133.231 216.626C133.231 215.146 132.721 213.945 132.092 213.945C131.463 213.945 130.953 215.146 130.953 216.626C130.953 218.106 131.463 219.307 132.092 219.307Z" fill="#263238"/>
<path d="M149.121 219.307C149.75 219.307 150.26 218.106 150.26 216.626C150.26 215.146 149.75 213.945 149.121 213.945C148.492 213.945 147.982 215.146 147.982 216.626C147.982 218.106 148.492 219.307 149.121 219.307Z" fill="#263238"/>
<path d="M145.556 209.565C145.556 209.565 149.446 207.13 153.834 211.028" stroke="#263238" stroke-linecap="round" stroke-linejoin="round"/>
<path d="M139.958 184.416C134.687 184.416 129.631 186.51 125.904 190.237C122.176 193.965 120.082 199.02 120.082 204.292V222.399H120.248H121.869V214.935C121.869 214.935 129.981 214.935 139.556 209.749C149.13 204.564 151.548 196.101 151.548 196.101C151.548 196.101 153.659 206.324 155.928 208.269L158.206 210.214V222.548H159.826V204.292C159.826 199.022 157.733 193.968 154.008 190.24C150.282 186.513 145.229 184.418 139.958 184.416Z" fill="#263238" stroke="#263238" stroke-linecap="round" stroke-linejoin="round"/>
<path d="M116.359 212.815H120.082V227.576H116.359C115.411 227.576 114.502 227.199 113.831 226.529C113.161 225.859 112.785 224.95 112.785 224.002V216.372C112.789 215.427 113.168 214.523 113.838 213.856C114.507 213.19 115.414 212.815 116.359 212.815Z" fill="white" stroke="#263238" stroke-linecap="round" stroke-linejoin="round"/>
<path d="M163.321 227.576H159.598V212.815H163.321C163.791 212.815 164.256 212.908 164.689 213.088C165.123 213.267 165.517 213.53 165.849 213.862C166.181 214.194 166.444 214.588 166.623 215.022C166.803 215.455 166.896 215.92 166.896 216.39V224.019C166.891 224.964 166.512 225.869 165.843 226.535C165.173 227.202 164.266 227.576 163.321 227.576Z" fill="white" stroke="#263238" stroke-linecap="round" stroke-linejoin="round"/>
<path d="M116.841 212.815V203.398C116.841 197.288 119.268 191.428 123.589 187.108C127.909 182.787 133.769 180.36 139.88 180.36C145.989 180.362 151.848 182.79 156.168 187.11C160.488 191.43 162.916 197.289 162.918 203.398V212.815" stroke="#263238" stroke-width="2" stroke-linejoin="round"/>
<path d="M162.936 227.576C162.936 227.576 161.797 236.336 151.092 239.91" stroke="#263238" stroke-linecap="round" stroke-linejoin="round"/>
<path d="M150.672 239.525C151.127 240.839 149.848 242.468 147.816 243.178C145.784 243.887 143.769 243.388 143.313 242.074C142.858 240.76 144.137 239.13 146.169 238.421C148.201 237.711 150.242 238.211 150.672 239.525Z" stroke="#263238" stroke-linecap="round" stroke-linejoin="round"/>
<path d="M89.5972 269.782L58.981 334.562L71.6129 345.582L94.4502 316.919L89.5972 269.782Z" fill="#8ACFF5" stroke="#263238" stroke-linecap="round" stroke-linejoin="round"/>
<path d="M87.0828 289.641L94.52 314.729L85.6899 300.319" stroke="#263238" stroke-miterlimit="10"/>
<path d="M182.4 268.082L211.554 333.195L193.578 340.974L177.539 315.22L182.4 268.082Z" fill="#8ACFF5" stroke="#263238" stroke-linecap="round" stroke-linejoin="round"/>
<path d="M75.5022 332.95L101.738 357.487L94.4501 365.993L56.3091 342.332L60.6891 330.672" fill="#8ACFF5"/>
<path d="M75.5022 332.95L101.738 357.487L94.4501 365.993L56.3091 342.332L60.6891 330.672" stroke="#263238" stroke-linecap="round" stroke-linejoin="round"/>
<path d="M97.3673 356.033C98.436 355.454 116.315 351.171 116.56 353.361C116.806 355.551 122.149 357.977 124.576 357.977C127.002 357.977 129.438 356.033 129.919 358.95C130.401 361.867 127.738 362.103 125.539 362.349C123.341 362.594 115.825 360.159 115.825 360.159C115.825 360.159 108.817 365.993 105.864 367.456C102.912 368.919 97.6038 368.419 95.6591 366.965C93.7143 365.511 91.0513 359.431 97.3673 356.033Z" fill="white" stroke="#263238" stroke-linecap="round" stroke-linejoin="round"/>
<path d="M113.88 353.116C113.88 353.116 120.686 351.171 122.141 351.907C123.595 352.643 124.331 367.21 124.331 367.21C124.331 367.21 123.595 368.665 122.141 367.21C120.686 365.756 115.833 354.78 115.833 354.78" fill="white"/>
<path d="M113.88 353.116C113.88 353.116 120.686 351.171 122.141 351.907C123.595 352.643 124.331 367.21 124.331 367.21C124.331 367.21 123.595 368.665 122.141 367.21C120.686 365.756 115.833 354.78 115.833 354.78" stroke="#263238" stroke-linecap="round" stroke-linejoin="round"/>
<path d="M110.489 353.606C110.489 353.606 117.497 351.907 118.987 354.578C120.476 357.25 124.094 369.155 121.177 369.637C118.26 370.119 117.287 366.238 117.287 366.238L112.671 357.732L109.517 357.25" fill="white"/>
<path d="M110.489 353.606C110.489 353.606 117.497 351.907 118.987 354.578C120.476 357.25 124.094 369.155 121.177 369.637C118.26 370.119 117.287 366.238 117.287 366.238L112.671 357.732L109.517 357.25" stroke="#263238" stroke-linecap="round" stroke-linejoin="round"/>
<path d="M108.054 355.787C108.054 355.787 111.462 354.333 113.161 355.551C114.861 356.769 122.64 369.155 121.177 369.672C119.714 370.189 116.315 369.917 115.833 368.945C115.351 367.973 109.027 359.712 109.027 359.712" fill="white"/>
<path d="M108.054 355.787C108.054 355.787 111.462 354.333 113.161 355.551C114.861 356.769 122.64 369.155 121.177 369.672C119.714 370.189 116.315 369.917 115.833 368.945C115.351 367.973 109.027 359.712 109.027 359.712" stroke="#263238" stroke-linecap="round" stroke-linejoin="round"/>
<path d="M105.628 359.922C105.628 359.922 108.79 357.005 110.49 357.977C112.189 358.95 119.25 368.183 117.778 369.155C116.306 370.127 115.343 369.155 113.889 367.21C112.848 365.902 111.62 364.753 110.244 363.803L107.327 364.775" fill="white"/>
<path d="M105.628 359.922C105.628 359.922 108.79 357.005 110.49 357.977C112.189 358.95 119.25 368.183 117.778 369.155C116.306 370.127 115.343 369.155 113.889 367.21C112.848 365.902 111.62 364.753 110.244 363.803L107.327 364.775" stroke="#263238" stroke-linecap="round" stroke-linejoin="round"/>
<path d="M189.172 326.748L173.79 359.213L183.688 364.442L212.78 333.616L204.432 324.374" fill="#8ACFF5"/>
<path d="M189.172 326.748L173.79 359.213L183.688 364.442L212.78 333.616L204.432 324.374" stroke="#263238" stroke-linecap="round" stroke-linejoin="round"/>
<path d="M181.489 356.033C180.421 355.454 162.533 351.171 162.296 353.361C162.06 355.551 156.707 357.977 154.272 357.977C151.837 357.977 149.419 356.033 148.928 358.95C148.438 361.867 151.118 362.103 153.308 362.349C155.498 362.594 163.023 360.159 163.023 360.159C163.023 360.159 170.031 365.993 172.983 367.456C175.935 368.919 181.244 368.419 183.189 366.965C185.133 365.511 187.805 359.431 181.489 356.033Z" fill="white" stroke="#263238" stroke-linecap="round" stroke-linejoin="round"/>
<path d="M164.968 353.116C164.968 353.116 158.162 351.171 156.708 351.907C155.253 352.643 154.518 367.21 154.518 367.21C154.518 367.21 155.245 368.665 156.708 367.21C158.17 365.756 163.024 354.78 163.024 354.78" fill="white"/>
<path d="M164.968 353.116C164.968 353.116 158.162 351.171 156.708 351.907C155.253 352.643 154.518 367.21 154.518 367.21C154.518 367.21 155.245 368.665 156.708 367.21C158.17 365.756 163.024 354.78 163.024 354.78" stroke="#263238" stroke-linecap="round" stroke-linejoin="round"/>
<path d="M168.367 353.606C168.367 353.606 161.359 351.907 159.861 354.578C158.363 357.25 154.763 369.155 157.68 369.672C160.597 370.189 161.561 366.273 161.561 366.273L166.177 357.767L169.34 357.285" fill="white"/>
<path d="M168.367 353.606C168.367 353.606 161.359 351.907 159.861 354.578C158.363 357.25 154.763 369.155 157.68 369.672C160.597 370.189 161.561 366.273 161.561 366.273L166.177 357.767L169.34 357.285" stroke="#263238" stroke-linecap="round" stroke-linejoin="round"/>
<path d="M170.82 355.787C170.82 355.787 167.421 354.333 165.721 355.551C164.022 356.769 156.217 369.155 157.68 369.672C159.143 370.189 162.533 369.917 163.023 368.945C163.514 367.973 169.821 359.712 169.821 359.712" fill="white"/>
<path d="M170.82 355.787C170.82 355.787 167.421 354.333 165.721 355.551C164.022 356.769 156.217 369.155 157.68 369.672C159.143 370.189 162.533 369.917 163.023 368.945C163.514 367.973 169.821 359.712 169.821 359.712" stroke="#263238" stroke-linecap="round" stroke-linejoin="round"/>
<path d="M173.229 359.922C173.229 359.922 170.067 357.005 168.367 357.977C166.668 358.95 159.607 368.183 161.079 369.155C162.55 370.127 163.505 369.155 164.968 367.21C166.009 365.902 167.237 364.753 168.612 363.803L171.529 364.775" fill="white"/>
<path d="M173.229 359.922C173.229 359.922 170.067 357.005 168.367 357.977C166.668 358.95 159.607 368.183 161.079 369.155C162.55 370.127 163.505 369.155 164.968 367.21C166.009 365.902 167.237 364.753 168.612 363.803L171.529 364.775" stroke="#263238" stroke-linecap="round" stroke-linejoin="round"/>
<path d="M227.462 147.352H170.522C167.882 147.352 165.35 148.4 163.483 150.266C161.615 152.132 160.564 154.663 160.562 157.303V173.947C160.555 175.258 160.807 176.558 161.304 177.771C161.8 178.984 162.531 180.088 163.455 181.018C164.378 181.948 165.477 182.687 166.686 183.192C167.896 183.697 169.194 183.958 170.505 183.96H177.513L167.956 196.46L189.444 183.96H227.462C228.77 183.957 230.065 183.695 231.272 183.192C232.479 182.688 233.575 181.951 234.497 181.024C235.42 180.097 236.151 178.997 236.648 177.787C237.145 176.577 237.4 175.282 237.396 173.974V157.33C237.401 154.689 236.357 152.156 234.494 150.285C232.632 148.414 230.102 147.359 227.462 147.352Z" fill="white" stroke="#263238" stroke-miterlimit="10"/>
<path d="M191.17 166.799C191.171 167.259 191.037 167.708 190.783 168.091C190.529 168.474 190.167 168.773 189.743 168.95C189.319 169.127 188.852 169.174 188.401 169.086C187.95 168.997 187.535 168.777 187.21 168.452C186.884 168.128 186.662 167.715 186.572 167.264C186.482 166.813 186.527 166.346 186.703 165.922C186.878 165.497 187.176 165.134 187.558 164.878C187.94 164.623 188.389 164.486 188.848 164.486C189.462 164.486 190.052 164.73 190.487 165.163C190.922 165.597 191.167 166.185 191.17 166.799Z" fill="#263238"/>
<path d="M201.296 166.799C201.298 167.259 201.163 167.709 200.909 168.092C200.654 168.475 200.292 168.774 199.867 168.951C199.443 169.128 198.975 169.174 198.524 169.085C198.073 168.996 197.658 168.774 197.333 168.449C197.008 168.124 196.787 167.71 196.698 167.259C196.608 166.807 196.655 166.34 196.832 165.915C197.008 165.491 197.307 165.128 197.69 164.874C198.074 164.62 198.524 164.485 198.983 164.486C199.597 164.486 200.185 164.73 200.619 165.164C201.052 165.598 201.296 166.186 201.296 166.799Z" fill="#263238"/>
<path d="M211.423 166.799C211.423 167.256 211.287 167.704 211.033 168.084C210.779 168.464 210.418 168.761 209.995 168.936C209.572 169.111 209.107 169.157 208.659 169.067C208.21 168.978 207.798 168.758 207.475 168.434C207.151 168.111 206.931 167.699 206.842 167.25C206.753 166.802 206.798 166.337 206.973 165.914C207.148 165.492 207.445 165.13 207.825 164.876C208.205 164.622 208.653 164.486 209.11 164.486C209.723 164.486 210.312 164.73 210.745 165.164C211.179 165.598 211.423 166.186 211.423 166.799Z" fill="#263238"/>
<path d="M343.786 369.436H237.667V373.719H343.786V369.436Z" fill="white" stroke="#263238" stroke-linecap="round" stroke-linejoin="round"/>
<path d="M360.089 369.436H267.592V373.719H360.089V369.436Z" fill="white" stroke="#263238" stroke-linecap="round" stroke-linejoin="round"/>
<path d="M361.884 361.823H273.391L282.93 294.257H371.424L361.884 361.823Z" fill="white" stroke="#263238" stroke-linecap="round" stroke-linejoin="round"/>
<path d="M365.546 361.823H277.052L286.592 294.257H375.085L365.546 361.823Z" fill="#263238" stroke="#263238" stroke-linecap="round" stroke-linejoin="round"/>
<path d="M338.425 330.418L347.307 373.71H324.47L315.596 330.418H338.425ZM322.937 343.269C322.98 343.445 323.082 343.602 323.225 343.713C323.368 343.824 323.544 343.884 323.725 343.883L336.664 343.76C336.785 343.758 336.905 343.729 337.013 343.675C337.121 343.621 337.216 343.543 337.29 343.447C337.364 343.351 337.416 343.239 337.441 343.12C337.466 343.002 337.464 342.879 337.435 342.761L336.27 337.908C336.227 337.731 336.126 337.574 335.983 337.461C335.84 337.349 335.663 337.287 335.481 337.286L322.543 337.409C322.421 337.411 322.302 337.44 322.193 337.494C322.085 337.549 321.989 337.626 321.915 337.722C321.84 337.818 321.788 337.929 321.761 338.048C321.735 338.166 321.736 338.289 321.763 338.408L322.937 343.269Z" fill="white" stroke="#263238" stroke-linecap="round" stroke-linejoin="round"/>
<path d="M186.825 369.436H80.7061V373.719H186.825V369.436Z" fill="white" stroke="#263238" stroke-linecap="round" stroke-linejoin="round"/>
<path d="M203.127 369.436H110.63V373.719H203.127V369.436Z" fill="white" stroke="#263238" stroke-linecap="round" stroke-linejoin="round"/>
<path d="M204.923 361.823H116.429L125.969 294.257H214.462L204.923 361.823Z" fill="white" stroke="#263238" stroke-linecap="round" stroke-linejoin="round"/>
<path d="M208.584 361.823H120.091L129.63 294.257H218.124L208.584 361.823Z" fill="#263238" stroke="#263238" stroke-linecap="round" stroke-linejoin="round"/>
<path d="M181.472 330.418L190.346 373.71H167.509L158.635 330.418H181.472ZM165.976 343.269C166.02 343.445 166.122 343.6 166.265 343.711C166.408 343.822 166.583 343.882 166.764 343.883L179.703 343.76C179.824 343.758 179.943 343.729 180.052 343.674C180.161 343.62 180.256 343.542 180.331 343.447C180.406 343.351 180.458 343.24 180.484 343.121C180.51 343.003 180.51 342.88 180.482 342.761L179.308 337.908C179.267 337.731 179.166 337.572 179.023 337.459C178.88 337.346 178.702 337.285 178.52 337.286L165.581 337.409C165.46 337.411 165.341 337.44 165.232 337.494C165.124 337.548 165.029 337.626 164.955 337.722C164.881 337.818 164.83 337.93 164.805 338.048C164.779 338.167 164.782 338.29 164.811 338.408L165.976 343.269Z" fill="white" stroke="#263238" stroke-linecap="round" stroke-linejoin="round"/>
<path d="M403.617 373.71H26.1309V377.95H403.617V373.71Z" fill="#263238" stroke="#263238" stroke-linecap="round" stroke-linejoin="round"/>
</svg>
