<svg width="690" height="460" viewBox="0 0 690 460" fill="none" xmlns="http://www.w3.org/2000/svg">
<path d="M581.55 128.8C581.55 128.8 486.993 31.9424 364.108 24.4628C241.224 16.9832 169.565 96.37 135.608 143.713C101.651 191.056 16.928 269.937 26.9192 342.166C36.9104 414.396 134.863 469.2 275.181 445.124C415.5 421.047 456.182 411.912 520.113 430.183C584.044 448.454 667.074 421.047 668.73 317.262C670.386 213.477 581.55 128.8 581.55 128.8Z" fill="#8ACFF5"/>
<path opacity="0.7" d="M581.55 128.8C581.55 128.8 486.993 31.9424 364.108 24.4628C241.224 16.9832 169.565 96.37 135.608 143.713C101.651 191.056 16.928 269.937 26.9192 342.166C36.9104 414.396 134.863 469.2 275.181 445.124C415.5 421.047 456.182 411.912 520.113 430.183C584.044 448.454 667.074 421.047 668.73 317.262C670.386 213.477 581.55 128.8 581.55 128.8Z" fill="white"/>
<path d="M45.0063 420.118H644.773" stroke="#263238" stroke-miterlimit="10"/>
<path d="M71.1343 266.368L83.2691 382.564" stroke="#263238" stroke-width="2" stroke-miterlimit="10"/>
<path d="M81.3098 360.327L75.8174 354.522" stroke="#263238" stroke-width="2" stroke-miterlimit="10"/>
<path d="M77.4826 356.261C77.4716 355.372 77.2705 354.496 76.8928 353.691C76.5151 352.887 75.9696 352.173 75.293 351.596C73.8854 350.336 66.461 347.217 65.7526 349.83C64.989 352.673 72.5882 358.266 77.4826 356.261Z" fill="#8ACFF5" stroke="#263238" stroke-miterlimit="10"/>
<path d="M77.4826 356.261L70.417 351.854" stroke="#263238" stroke-width="0.5" stroke-miterlimit="10"/>
<path d="M82.6897 373.548L77.1973 367.742" stroke="#263238" stroke-width="2" stroke-miterlimit="10"/>
<path d="M78.8625 369.481C78.852 368.592 78.6512 367.716 78.2735 366.912C77.8958 366.107 77.35 365.393 76.6729 364.817C75.2653 363.556 67.8409 360.428 67.1325 363.041C66.3689 365.893 73.9681 371.478 78.8625 369.481Z" fill="#8ACFF5" stroke="#263238" stroke-miterlimit="10"/>
<path d="M78.8625 369.481L71.7969 365.074" stroke="#263238" stroke-width="0.5" stroke-miterlimit="10"/>
<path d="M77.9426 328.081L72.4502 322.276" stroke="#263238" stroke-width="2" stroke-miterlimit="10"/>
<path d="M74.115 324.015C74.1039 323.127 73.9037 322.252 73.5278 321.447C73.1518 320.643 72.6087 319.928 71.9346 319.35C70.5178 318.09 63.0934 314.962 62.385 317.584C61.6398 320.427 69.2206 326.011 74.115 324.015Z" fill="#8ACFF5" stroke="#263238" stroke-miterlimit="10"/>
<path d="M74.1154 324.015L67.0498 319.608" stroke="#263238" stroke-width="0.5" stroke-miterlimit="10"/>
<path d="M79.3225 341.292L73.8301 335.487" stroke="#263238" stroke-width="2" stroke-miterlimit="10"/>
<path d="M75.4953 337.226C75.4843 336.337 75.2832 335.461 74.9055 334.657C74.5278 333.852 73.9823 333.138 73.3057 332.562C71.8981 331.301 64.4737 328.182 63.7653 330.795C63.0017 333.638 70.6009 339.232 75.4953 337.226Z" fill="#8ACFF5" stroke="#263238" stroke-miterlimit="10"/>
<path d="M75.4953 337.226L68.4297 332.819" stroke="#263238" stroke-width="0.5" stroke-miterlimit="10"/>
<path d="M75.7067 306.608L70.2051 300.803" stroke="#263238" stroke-width="2" stroke-miterlimit="10"/>
<path d="M71.8798 302.542C71.8687 301.653 71.6676 300.777 71.29 299.973C70.9123 299.168 70.3668 298.454 69.6902 297.878C68.2826 296.626 60.849 293.498 60.1498 296.111C59.377 299 66.9854 304.52 71.8798 302.542Z" fill="#8ACFF5" stroke="#263238" stroke-miterlimit="10"/>
<path d="M71.8795 302.542L64.8047 298.135" stroke="#263238" stroke-width="0.5" stroke-miterlimit="10"/>
<path d="M73.4528 285.053L67.9604 279.248" stroke="#263238" stroke-width="2" stroke-miterlimit="10"/>
<path d="M69.6257 280.986C69.6146 280.098 69.4135 279.222 69.0359 278.417C68.6582 277.613 68.1127 276.898 67.4361 276.322C66.0285 275.062 58.6041 271.934 57.8957 274.556C57.1321 277.398 64.7313 282.983 69.6257 280.986Z" fill="#8ACFF5" stroke="#263238" stroke-miterlimit="10"/>
<path d="M69.6257 280.986L62.5601 276.58" stroke="#263238" stroke-width="0.5" stroke-miterlimit="10"/>
<path d="M80.3896 352.507L84.5664 345.69" stroke="#263238" stroke-width="2" stroke-miterlimit="10"/>
<path d="M83.2969 347.76C83.1225 346.889 83.1373 345.99 83.3405 345.125C83.5437 344.26 83.9304 343.449 84.4745 342.746C85.5877 341.219 92.2117 336.628 93.4445 339.066C94.7601 341.651 88.4949 348.68 83.2969 347.76Z" fill="#8ACFF5" stroke="#263238" stroke-miterlimit="10"/>
<path d="M83.2969 347.742L89.6633 341.651" stroke="#263238" stroke-width="0.5" stroke-miterlimit="10"/>
<path d="M76.7559 317.731L80.9419 310.914" stroke="#263238" stroke-width="2" stroke-miterlimit="10"/>
<path d="M79.663 312.966C79.491 312.094 79.5071 311.196 79.7102 310.331C79.9132 309.467 80.2987 308.655 80.8406 307.952C81.963 306.424 88.587 301.834 89.8106 304.272C91.1538 306.875 84.8702 313.904 79.663 312.966Z" fill="#8ACFF5" stroke="#263238" stroke-miterlimit="10"/>
<path d="M79.6631 312.966L86.0295 306.875" stroke="#263238" stroke-width="0.5" stroke-miterlimit="10"/>
<path d="M75.1641 302.45L79.3409 295.633" stroke="#263238" stroke-width="2" stroke-miterlimit="10"/>
<path d="M78.0713 297.675C77.8969 296.804 77.9118 295.905 78.1149 295.04C78.3181 294.175 78.7048 293.364 79.2489 292.661C80.3713 291.143 86.9861 286.552 88.2189 288.981C89.5529 291.585 83.2693 298.623 78.0713 297.675Z" fill="#8ACFF5" stroke="#263238" stroke-miterlimit="10"/>
<path d="M78.0713 297.675L84.4377 291.594" stroke="#263238" stroke-width="0.5" stroke-miterlimit="10"/>
<path d="M72.8271 280.048L77.0039 273.231" stroke="#263238" stroke-width="2" stroke-miterlimit="10"/>
<path d="M75.7344 275.273C75.56 274.402 75.5748 273.503 75.778 272.638C75.9812 271.773 76.3679 270.962 76.912 270.259C78.0252 268.732 84.6492 264.141 85.882 266.579C87.216 269.183 80.96 276.221 75.7344 275.273Z" fill="#8ACFF5" stroke="#263238" stroke-miterlimit="10"/>
<path d="M75.7344 275.273L82.1008 269.192" stroke="#263238" stroke-width="0.5" stroke-miterlimit="10"/>
<path d="M71.0331 265.714C70.8611 264.843 70.8772 263.945 71.0803 263.08C71.2834 262.215 71.6688 261.404 72.2107 260.7C73.3331 259.182 79.9571 254.592 81.1899 257.02C82.5239 259.624 76.2403 266.662 71.0331 265.714Z" fill="#8ACFF5" stroke="#263238" stroke-miterlimit="10"/>
<path d="M71.0332 265.714L77.3996 259.633" stroke="#263238" stroke-width="0.5" stroke-miterlimit="10"/>
<path d="M71.4107 265.981C70.5249 266.063 69.632 265.953 68.7923 265.659C67.9527 265.366 67.1859 264.895 66.5439 264.279C65.1455 263.01 61.2723 255.944 63.7839 254.969C66.5531 253.92 72.8919 260.903 71.4107 265.981Z" fill="#8ACFF5" stroke="#263238" stroke-miterlimit="10"/>
<path d="M71.4102 265.981L66.019 259.008" stroke="#263238" stroke-width="0.5" stroke-miterlimit="10"/>
<path d="M103.123 282.366L91.0615 398.581" stroke="#263238" stroke-width="2" stroke-miterlimit="10"/>
<path d="M93.7295 376.418L89.5435 369.601" stroke="#263238" stroke-width="2" stroke-miterlimit="10"/>
<path d="M90.8225 371.68C90.9945 370.809 90.9784 369.91 90.7754 369.046C90.5723 368.181 90.1869 367.37 89.6449 366.666C88.5225 365.148 81.8985 360.557 80.6657 362.986C79.3317 365.562 85.6245 372.6 90.8225 371.68Z" fill="#8ACFF5" stroke="#263238" stroke-miterlimit="10"/>
<path d="M90.8225 371.643L84.8149 365.875" stroke="#263238" stroke-width="0.5" stroke-miterlimit="10"/>
<path d="M97.0786 344.163L92.8926 337.346" stroke="#263238" stroke-width="2" stroke-miterlimit="10"/>
<path d="M94.1713 339.397C94.3434 338.526 94.3273 337.628 94.1242 336.763C93.9211 335.898 93.5357 335.087 92.9937 334.383C91.8713 332.856 85.2473 328.274 84.0145 330.703C82.6805 333.307 88.9641 340.345 94.1713 339.397Z" fill="#8ACFF5" stroke="#263238" stroke-miterlimit="10"/>
<path d="M94.1711 339.397L88.1543 333.629" stroke="#263238" stroke-width="0.5" stroke-miterlimit="10"/>
<path d="M95.7075 357.383L91.5215 350.566" stroke="#263238" stroke-width="2" stroke-miterlimit="10"/>
<path d="M92.8002 352.608C92.9723 351.737 92.9562 350.839 92.7531 349.974C92.55 349.109 92.1646 348.298 91.6226 347.594C90.5002 346.076 83.8762 341.486 82.6434 343.914C81.3094 346.527 87.593 353.556 92.8002 352.608Z" fill="#8ACFF5" stroke="#263238" stroke-miterlimit="10"/>
<path d="M92.8005 352.608L86.7837 346.84" stroke="#263238" stroke-width="0.5" stroke-miterlimit="10"/>
<path d="M99.3047 322.69L95.1187 315.882" stroke="#263238" stroke-width="2" stroke-miterlimit="10"/>
<path d="M96.3977 317.924C96.5697 317.053 96.5536 316.155 96.3506 315.29C96.1475 314.425 95.7621 313.614 95.2201 312.91C94.0977 311.383 87.4737 306.802 86.2409 309.23C84.9069 311.88 91.1997 318.872 96.3977 317.924Z" fill="#8ACFF5" stroke="#263238" stroke-miterlimit="10"/>
<path d="M96.3977 317.924L90.3901 312.156" stroke="#263238" stroke-width="0.5" stroke-miterlimit="10"/>
<path d="M101.541 301.134L97.3638 294.317" stroke="#263238" stroke-width="2" stroke-miterlimit="10"/>
<path d="M98.633 296.36C98.8075 295.488 98.7926 294.59 98.5894 293.725C98.3863 292.859 97.9995 292.048 97.4554 291.346C96.333 289.828 89.709 285.237 88.4762 287.666C87.1422 290.278 93.435 297.307 98.633 296.36Z" fill="#8ACFF5" stroke="#263238" stroke-miterlimit="10"/>
<path d="M98.6331 296.36L92.6255 290.591" stroke="#263238" stroke-width="0.5" stroke-miterlimit="10"/>
<path d="M94.438 368.57L99.9304 362.765" stroke="#263238" stroke-width="2" stroke-miterlimit="10"/>
<path d="M98.2651 364.504C98.2733 363.616 98.4721 362.74 98.8483 361.935C99.2245 361.13 99.7692 360.416 100.446 359.84C101.862 358.579 109.287 355.451 109.986 358.064C110.759 360.907 103.16 366.5 98.2651 364.504Z" fill="#8ACFF5" stroke="#263238" stroke-miterlimit="10"/>
<path d="M98.2651 364.504L105.745 359.858" stroke="#263238" stroke-width="0.5" stroke-miterlimit="10"/>
<path d="M98.0444 333.794L103.537 327.98" stroke="#263238" stroke-width="2" stroke-miterlimit="10"/>
<path d="M101.872 329.719C101.883 328.83 102.084 327.954 102.461 327.149C102.839 326.345 103.385 325.631 104.061 325.054C105.469 323.794 112.893 320.666 113.602 323.288C114.365 326.131 106.766 331.715 101.872 329.719Z" fill="#8ACFF5" stroke="#263238" stroke-miterlimit="10"/>
<path d="M101.872 329.719L109.351 325.082" stroke="#263238" stroke-width="0.5" stroke-miterlimit="10"/>
<path d="M99.6362 318.504L105.129 312.699" stroke="#263238" stroke-width="2" stroke-miterlimit="10"/>
<path d="M103.454 314.438C103.465 313.549 103.666 312.673 104.044 311.868C104.422 311.064 104.967 310.349 105.644 309.773C107.051 308.513 114.476 305.385 115.184 307.998C115.92 310.84 108.358 316.48 103.454 314.438Z" fill="#8ACFF5" stroke="#263238" stroke-miterlimit="10"/>
<path d="M103.454 314.438L110.943 309.792" stroke="#263238" stroke-width="0.5" stroke-miterlimit="10"/>
<path d="M101.955 296.102L107.456 290.288" stroke="#263238" stroke-width="2" stroke-miterlimit="10"/>
<path d="M105.8 292.036C105.811 291.147 106.012 290.271 106.389 289.466C106.767 288.661 107.313 287.947 107.99 287.371C109.397 286.102 116.822 282.974 117.53 285.596C118.275 288.438 110.676 294.032 105.8 292.036Z" fill="#8ACFF5" stroke="#263238" stroke-miterlimit="10"/>
<path d="M105.782 292.036L113.271 287.39" stroke="#263238" stroke-width="0.5" stroke-miterlimit="10"/>
<path d="M103.16 281.713C103.171 280.825 103.371 279.95 103.747 279.146C104.123 278.342 104.666 277.627 105.34 277.049C106.757 275.788 114.181 272.66 114.88 275.273C115.653 278.116 108.054 283.71 103.16 281.713Z" fill="#8ACFF5" stroke="#263238" stroke-miterlimit="10"/>
<path d="M103.16 281.713L110.639 277.067" stroke="#263238" stroke-width="0.5" stroke-miterlimit="10"/>
<path d="M103.464 282.044C102.582 281.941 101.732 281.651 100.972 281.192C100.212 280.734 99.5589 280.118 99.0567 279.386C97.9527 277.849 95.6159 270.14 98.2931 269.707C101.2 269.247 105.966 277.389 103.464 282.044Z" fill="#8ACFF5" stroke="#263238" stroke-miterlimit="10"/>
<path d="M103.463 282.044L99.627 274.123" stroke="#263238" stroke-width="0.5" stroke-miterlimit="10"/>
<path d="M89.3047 235.042V382.002" stroke="#263238" stroke-width="2" stroke-miterlimit="10"/>
<path d="M89.4239 359.904L84.5571 353.556" stroke="#263238" stroke-width="2" stroke-miterlimit="10"/>
<path d="M86.0384 355.46C86.1198 354.575 86.0108 353.683 85.7189 352.844C85.4269 352.004 84.9586 351.237 84.3456 350.594C83.076 349.195 76.0104 345.322 75.0352 347.834C73.9772 350.594 80.96 356.96 86.0384 355.46Z" fill="#8ACFF5" stroke="#263238" stroke-miterlimit="10"/>
<path d="M86.0384 355.46L79.4604 350.345" stroke="#263238" stroke-width="0.5" stroke-miterlimit="10"/>
<path d="M89.4239 332.286L84.5571 325.947" stroke="#263238" stroke-width="2" stroke-miterlimit="10"/>
<path d="M86.0384 327.842C86.1196 326.958 86.0106 326.068 85.7186 325.23C85.4266 324.392 84.9584 323.626 84.3456 322.984C83.076 321.577 76.0104 317.704 75.0352 320.224C73.9772 322.984 80.96 329.36 86.0384 327.842Z" fill="#8ACFF5" stroke="#263238" stroke-miterlimit="10"/>
<path d="M86.0384 327.842L79.4604 322.727" stroke="#263238" stroke-width="0.5" stroke-miterlimit="10"/>
<path d="M89.4239 299.865L84.5571 293.517" stroke="#263238" stroke-width="2" stroke-miterlimit="10"/>
<path d="M86.0384 295.421C86.1198 294.536 86.0108 293.644 85.7189 292.805C85.4269 291.965 84.9586 291.198 84.3456 290.554C83.076 289.156 76.0104 285.283 75.0352 287.794C73.9772 290.554 80.96 296.902 86.0384 295.421Z" fill="#8ACFF5" stroke="#263238" stroke-miterlimit="10"/>
<path d="M86.0384 295.421L79.4604 290.306" stroke="#263238" stroke-width="0.5" stroke-miterlimit="10"/>
<path d="M89.4239 278.282L84.5571 271.934" stroke="#263238" stroke-width="2" stroke-miterlimit="10"/>
<path d="M86.0384 273.838C86.1198 272.953 86.0108 272.061 85.7189 271.221C85.4269 270.382 84.9586 269.615 84.3456 268.971C83.076 267.573 76.0104 263.69 75.0352 266.211C73.9772 268.971 80.96 275.319 86.0384 273.838Z" fill="#8ACFF5" stroke="#263238" stroke-miterlimit="10"/>
<path d="M86.0384 273.838L79.4604 268.723" stroke="#263238" stroke-width="0.5" stroke-miterlimit="10"/>
<path d="M89.4239 256.597L84.5571 250.258" stroke="#263238" stroke-width="2" stroke-miterlimit="10"/>
<path d="M86.0384 252.163C86.1198 251.278 86.0108 250.386 85.7189 249.546C85.4269 248.707 84.9586 247.939 84.3456 247.296C83.076 245.898 76.0104 242.015 75.0352 244.536C73.9772 247.296 80.96 253.644 86.0384 252.163Z" fill="#8ACFF5" stroke="#263238" stroke-miterlimit="10"/>
<path d="M86.0384 252.163L79.4604 247.048" stroke="#263238" stroke-width="0.5" stroke-miterlimit="10"/>
<path d="M89.3135 368.34L94.1803 361.992" stroke="#263238" stroke-width="2" stroke-miterlimit="10"/>
<path d="M92.6995 363.897C92.6181 363.012 92.7271 362.12 93.019 361.28C93.311 360.441 93.7793 359.673 94.3923 359.03C95.6619 357.632 102.728 353.749 103.703 356.27C104.761 359.03 97.7779 365.378 92.6995 363.897Z" fill="#8ACFF5" stroke="#263238" stroke-miterlimit="10"/>
<path d="M92.6992 363.897L99.6636 358.506" stroke="#263238" stroke-width="0.5" stroke-miterlimit="10"/>
<path d="M89.3135 324.42L94.1803 318.072" stroke="#263238" stroke-width="2" stroke-miterlimit="10"/>
<path d="M92.6995 319.976C92.6181 319.091 92.7271 318.199 93.019 317.359C93.311 316.52 93.7793 315.753 94.3923 315.109C95.6619 313.711 102.728 309.828 103.703 312.349C104.761 315.109 97.7779 321.457 92.6995 319.976Z" fill="#8ACFF5" stroke="#263238" stroke-miterlimit="10"/>
<path d="M92.6992 319.976L99.6636 314.585" stroke="#263238" stroke-width="0.5" stroke-miterlimit="10"/>
<path d="M89.3135 302.735L94.1803 296.387" stroke="#263238" stroke-width="2" stroke-miterlimit="10"/>
<path d="M92.6995 298.292C92.6181 297.407 92.7271 296.514 93.019 295.675C93.311 294.835 93.7793 294.068 94.3923 293.425C95.6619 292.026 102.728 288.153 103.703 290.665C104.761 293.425 97.7779 299.773 92.6995 298.292Z" fill="#8ACFF5" stroke="#263238" stroke-miterlimit="10"/>
<path d="M92.6992 298.292L99.6636 292.9" stroke="#263238" stroke-width="0.5" stroke-miterlimit="10"/>
<path d="M89.3135 274.086L94.1803 267.738" stroke="#263238" stroke-width="2" stroke-miterlimit="10"/>
<path d="M92.6995 269.643C92.6181 268.758 92.7271 267.866 93.019 267.026C93.311 266.187 93.7793 265.419 94.3923 264.776C95.6619 263.378 102.728 259.495 103.703 262.016C104.761 264.776 97.7779 271.124 92.6995 269.643Z" fill="#8ACFF5" stroke="#263238" stroke-miterlimit="10"/>
<path d="M92.6992 269.643L99.6636 264.252" stroke="#263238" stroke-width="0.5" stroke-miterlimit="10"/>
<path d="M89.3135 251.556L94.1803 245.208" stroke="#263238" stroke-width="2" stroke-miterlimit="10"/>
<path d="M92.6995 247.112C92.6181 246.227 92.7271 245.335 93.019 244.495C93.311 243.656 93.7793 242.889 94.3923 242.245C95.6619 240.847 102.728 236.974 103.703 239.485C104.761 242.245 97.7779 248.593 92.6995 247.112Z" fill="#8ACFF5" stroke="#263238" stroke-miterlimit="10"/>
<path d="M92.6992 247.112L99.6636 241.721" stroke="#263238" stroke-width="0.5" stroke-miterlimit="10"/>
<path d="M89.0286 237.121C88.9466 236.236 89.0544 235.345 89.3447 234.506C89.6351 233.666 90.1013 232.899 90.7122 232.254C91.991 230.856 99.0474 226.982 100.023 229.494C101.081 232.254 94.0978 238.602 89.0286 237.121Z" fill="#8ACFF5" stroke="#263238" stroke-miterlimit="10"/>
<path d="M89.0283 237.121L95.9835 231.73" stroke="#263238" stroke-width="0.5" stroke-miterlimit="10"/>
<path d="M89.3597 237.424C88.4715 237.413 87.5962 237.21 86.7931 236.831C85.9899 236.452 85.2777 235.904 84.7045 235.226C83.4441 233.818 80.3253 226.384 82.9473 225.685C85.7901 224.922 91.3653 232.53 89.3597 237.424Z" fill="#8ACFF5" stroke="#263238" stroke-miterlimit="10"/>
<path d="M89.3595 237.424L84.7319 229.936" stroke="#263238" stroke-width="0.5" stroke-miterlimit="10"/>
<path d="M95.3489 420.118H79.7917L77.8413 380.806H97.2993L95.3489 420.118Z" fill="#263238" stroke="#263238" stroke-miterlimit="10"/>
<path d="M592.581 266.368L604.707 382.564" stroke="#263238" stroke-width="2" stroke-miterlimit="10"/>
<path d="M602.756 360.327L597.255 354.522" stroke="#263238" stroke-width="2" stroke-miterlimit="10"/>
<path d="M598.92 356.261C598.909 355.372 598.708 354.496 598.33 353.691C597.953 352.887 597.407 352.173 596.73 351.596C595.323 350.336 587.889 347.217 587.19 349.83C586.426 352.673 594.035 358.266 598.92 356.261Z" fill="#8ACFF5" stroke="#263238" stroke-miterlimit="10"/>
<path d="M598.929 356.261L591.854 351.854" stroke="#263238" stroke-width="0.5" stroke-miterlimit="10"/>
<path d="M604.136 373.548L598.635 367.742" stroke="#263238" stroke-width="2" stroke-miterlimit="10"/>
<path d="M600.309 369.481C600.299 368.592 600.098 367.716 599.72 366.912C599.343 366.107 598.797 365.393 598.12 364.817C596.703 363.556 589.279 360.428 588.579 363.041C587.807 365.893 595.415 371.478 600.309 369.481Z" fill="#8ACFF5" stroke="#263238" stroke-miterlimit="10"/>
<path d="M600.309 369.481L593.234 365.074" stroke="#263238" stroke-width="0.5" stroke-miterlimit="10"/>
<path d="M599.389 328.081L593.888 322.276" stroke="#263238" stroke-width="2" stroke-miterlimit="10"/>
<path d="M595.562 324.015C595.551 323.126 595.35 322.25 594.972 321.445C594.594 320.641 594.049 319.927 593.372 319.35C591.965 318.09 584.531 314.962 583.832 317.584C583.068 320.427 590.64 326.011 595.562 324.015Z" fill="#8ACFF5" stroke="#263238" stroke-miterlimit="10"/>
<path d="M595.562 324.015L588.487 319.608" stroke="#263238" stroke-width="0.5" stroke-miterlimit="10"/>
<path d="M600.769 341.292L595.268 335.487" stroke="#263238" stroke-width="2" stroke-miterlimit="10"/>
<path d="M596.942 337.226C596.931 336.337 596.73 335.461 596.352 334.657C595.974 333.852 595.429 333.138 594.752 332.562C593.345 331.301 585.911 328.182 585.212 330.795C584.439 333.638 592.047 339.232 596.942 337.226Z" fill="#8ACFF5" stroke="#263238" stroke-miterlimit="10"/>
<path d="M596.942 337.226L589.867 332.819" stroke="#263238" stroke-width="0.5" stroke-miterlimit="10"/>
<path d="M597.145 306.608L591.652 300.803" stroke="#263238" stroke-width="2" stroke-miterlimit="10"/>
<path d="M593.317 302.542C593.306 301.654 593.106 300.779 592.73 299.975C592.354 299.17 591.811 298.455 591.137 297.878C589.72 296.626 582.295 293.498 581.587 296.111C580.823 299 588.423 304.52 593.317 302.542Z" fill="#8ACFF5" stroke="#263238" stroke-miterlimit="10"/>
<path d="M593.317 302.542L586.251 298.135" stroke="#263238" stroke-width="0.5" stroke-miterlimit="10"/>
<path d="M594.9 285.053L589.398 279.248" stroke="#263238" stroke-width="2" stroke-miterlimit="10"/>
<path d="M591.073 280.986C591.062 280.098 590.861 279.222 590.483 278.417C590.105 277.613 589.56 276.898 588.883 276.322C587.476 275.062 580.042 271.934 579.343 274.556C578.57 277.398 586.178 282.983 591.073 280.986Z" fill="#8ACFF5" stroke="#263238" stroke-miterlimit="10"/>
<path d="M591.072 280.986L583.998 276.58" stroke="#263238" stroke-width="0.5" stroke-miterlimit="10"/>
<path d="M601.827 352.507L606.013 345.69" stroke="#263238" stroke-width="2" stroke-miterlimit="10"/>
<path d="M604.734 347.76C604.562 346.889 604.578 345.99 604.781 345.126C604.985 344.261 605.37 343.45 605.912 342.746C607.034 341.219 613.658 336.628 614.882 339.066C616.225 341.651 609.96 348.68 604.734 347.76Z" fill="#8ACFF5" stroke="#263238" stroke-miterlimit="10"/>
<path d="M604.734 347.742L611.101 341.651" stroke="#263238" stroke-width="0.5" stroke-miterlimit="10"/>
<path d="M598.203 317.731L602.379 310.914" stroke="#263238" stroke-width="2" stroke-miterlimit="10"/>
<path d="M601.11 312.966C600.935 312.094 600.95 311.196 601.153 310.331C601.357 309.466 601.743 308.654 602.287 307.952C603.401 306.424 610.025 301.834 611.257 304.272C612.591 306.875 606.28 313.904 601.11 312.966Z" fill="#8ACFF5" stroke="#263238" stroke-miterlimit="10"/>
<path d="M601.11 312.966L607.476 306.875" stroke="#263238" stroke-width="0.5" stroke-miterlimit="10"/>
<path d="M596.602 302.45L600.788 295.633" stroke="#263238" stroke-width="2" stroke-miterlimit="10"/>
<path d="M599.509 297.675C599.337 296.804 599.353 295.906 599.556 295.041C599.759 294.176 600.144 293.365 600.686 292.661C601.809 291.143 608.433 286.552 609.656 288.981C611 291.585 604.716 298.623 599.509 297.675Z" fill="#8ACFF5" stroke="#263238" stroke-miterlimit="10"/>
<path d="M599.509 297.675L605.875 291.594" stroke="#263238" stroke-width="0.5" stroke-miterlimit="10"/>
<path d="M594.265 280.048L598.451 273.231" stroke="#263238" stroke-width="2" stroke-miterlimit="10"/>
<path d="M597.172 275.273C597 274.402 597.016 273.504 597.219 272.639C597.422 271.774 597.807 270.963 598.349 270.259C599.472 268.732 606.096 264.141 607.319 266.579C608.663 269.183 602.379 276.221 597.172 275.273Z" fill="#8ACFF5" stroke="#263238" stroke-miterlimit="10"/>
<path d="M597.172 275.273L603.538 269.192" stroke="#263238" stroke-width="0.5" stroke-miterlimit="10"/>
<path d="M592.48 265.714C592.308 264.843 592.324 263.945 592.527 263.08C592.73 262.215 593.116 261.404 593.658 260.7C594.78 259.182 601.404 254.592 602.628 257.02C603.971 259.624 597.687 266.662 592.48 265.714Z" fill="#8ACFF5" stroke="#263238" stroke-miterlimit="10"/>
<path d="M592.48 265.714L598.846 259.633" stroke="#263238" stroke-width="0.5" stroke-miterlimit="10"/>
<path d="M592.848 265.981C591.963 266.063 591.07 265.953 590.23 265.659C589.39 265.366 588.624 264.895 587.982 264.279C586.583 263.01 582.719 255.944 585.222 254.969C588 253.92 594.32 260.903 592.848 265.981Z" fill="#8ACFF5" stroke="#263238" stroke-miterlimit="10"/>
<path d="M592.848 265.981L587.466 259.008" stroke="#263238" stroke-width="0.5" stroke-miterlimit="10"/>
<path d="M624.569 282.366L612.508 398.581" stroke="#263238" stroke-width="2" stroke-miterlimit="10"/>
<path d="M615.176 376.418L610.99 369.601" stroke="#263238" stroke-width="2" stroke-miterlimit="10"/>
<path d="M612.269 371.68C612.441 370.808 612.423 369.909 612.219 369.044C612.014 368.18 611.627 367.369 611.083 366.666C609.96 365.148 603.336 360.557 602.113 362.986C600.76 365.562 607.062 372.6 612.269 371.68Z" fill="#8ACFF5" stroke="#263238" stroke-miterlimit="10"/>
<path d="M612.269 371.643L606.252 365.875" stroke="#263238" stroke-width="0.5" stroke-miterlimit="10"/>
<path d="M618.525 344.163L614.339 337.346" stroke="#263238" stroke-width="2" stroke-miterlimit="10"/>
<path d="M615.609 339.397C615.784 338.526 615.769 337.627 615.565 336.762C615.362 335.897 614.976 335.086 614.431 334.383C613.309 332.856 606.685 328.274 605.461 330.703C604.118 333.307 610.411 340.345 615.609 339.397Z" fill="#8ACFF5" stroke="#263238" stroke-miterlimit="10"/>
<path d="M615.609 339.397L609.601 333.629" stroke="#263238" stroke-width="0.5" stroke-miterlimit="10"/>
<path d="M617.155 357.383L612.969 350.566" stroke="#263238" stroke-width="2" stroke-miterlimit="10"/>
<path d="M614.238 352.608C614.412 351.737 614.398 350.838 614.194 349.973C613.991 349.108 613.604 348.297 613.06 347.594C611.938 346.076 605.314 341.486 604.09 343.914C602.747 346.527 609.04 353.556 614.238 352.608Z" fill="#8ACFF5" stroke="#263238" stroke-miterlimit="10"/>
<path d="M614.238 352.608L608.23 346.84" stroke="#263238" stroke-width="0.5" stroke-miterlimit="10"/>
<path d="M620.751 322.69L616.565 315.882" stroke="#263238" stroke-width="2" stroke-miterlimit="10"/>
<path d="M617.845 317.924C618.016 317.052 617.999 316.154 617.794 315.289C617.589 314.424 617.202 313.613 616.658 312.91C615.535 311.383 608.911 306.802 607.688 309.23C606.354 311.88 612.637 318.872 617.845 317.924Z" fill="#8ACFF5" stroke="#263238" stroke-miterlimit="10"/>
<path d="M617.844 317.924L611.828 312.156" stroke="#263238" stroke-width="0.5" stroke-miterlimit="10"/>
<path d="M622.987 301.134L618.801 294.317" stroke="#263238" stroke-width="2" stroke-miterlimit="10"/>
<path d="M620.08 296.36C620.251 295.488 620.234 294.589 620.029 293.724C619.825 292.859 619.437 292.048 618.893 291.346C617.78 289.828 611.156 285.237 609.923 287.666C608.589 290.278 614.873 297.307 620.08 296.36Z" fill="#8ACFF5" stroke="#263238" stroke-miterlimit="10"/>
<path d="M620.08 296.36L614.063 290.591" stroke="#263238" stroke-width="0.5" stroke-miterlimit="10"/>
<path d="M615.885 368.57L621.377 362.765" stroke="#263238" stroke-width="2" stroke-miterlimit="10"/>
<path d="M619.703 364.504C619.714 363.615 619.915 362.739 620.293 361.935C620.671 361.13 621.216 360.416 621.893 359.84C623.3 358.579 630.725 355.451 631.433 358.064C632.197 360.907 624.607 366.5 619.703 364.504Z" fill="#8ACFF5" stroke="#263238" stroke-miterlimit="10"/>
<path d="M619.703 364.504L627.192 359.858" stroke="#263238" stroke-width="0.5" stroke-miterlimit="10"/>
<path d="M619.491 333.794L624.984 327.98" stroke="#263238" stroke-width="2" stroke-miterlimit="10"/>
<path d="M623.318 329.719C623.326 328.83 623.525 327.954 623.902 327.15C624.278 326.345 624.822 325.63 625.499 325.054C626.906 323.794 634.331 320.666 635.039 323.288C635.812 326.131 628.213 331.715 623.318 329.719Z" fill="#8ACFF5" stroke="#263238" stroke-miterlimit="10"/>
<path d="M623.318 329.719L630.798 325.082" stroke="#263238" stroke-width="0.5" stroke-miterlimit="10"/>
<path d="M621.074 318.504L626.566 312.699" stroke="#263238" stroke-width="2" stroke-miterlimit="10"/>
<path d="M624.901 314.438C624.912 313.549 625.113 312.673 625.491 311.868C625.868 311.064 626.414 310.349 627.09 309.773C628.498 308.513 635.922 305.385 636.631 307.998C637.394 310.84 629.795 316.48 624.901 314.438Z" fill="#8ACFF5" stroke="#263238" stroke-miterlimit="10"/>
<path d="M624.901 314.438L632.38 309.792" stroke="#263238" stroke-width="0.5" stroke-miterlimit="10"/>
<path d="M623.401 296.102L628.894 290.288" stroke="#263238" stroke-width="2" stroke-miterlimit="10"/>
<path d="M627.229 292.036C627.236 291.147 627.435 290.271 627.811 289.466C628.187 288.661 628.732 287.947 629.409 287.371C630.826 286.102 638.25 282.974 638.949 285.596C639.722 288.438 632.123 294.032 627.229 292.036Z" fill="#8ACFF5" stroke="#263238" stroke-miterlimit="10"/>
<path d="M627.229 292.036L634.708 287.39" stroke="#263238" stroke-width="0.5" stroke-miterlimit="10"/>
<path d="M624.597 281.713C624.608 280.824 624.809 279.948 625.187 279.144C625.565 278.339 626.11 277.625 626.787 277.049C628.194 275.788 635.619 272.66 636.327 275.273C637.1 278.116 629.501 283.71 624.597 281.713Z" fill="#8ACFF5" stroke="#263238" stroke-miterlimit="10"/>
<path d="M624.597 281.713L632.086 277.067" stroke="#263238" stroke-width="0.5" stroke-miterlimit="10"/>
<path d="M624.91 282.044C624.027 281.941 623.176 281.651 622.415 281.192C621.653 280.734 620.998 280.118 620.494 279.386C619.39 277.849 617.062 270.14 619.73 269.707C622.647 269.247 627.44 277.389 624.91 282.044Z" fill="#8ACFF5" stroke="#263238" stroke-miterlimit="10"/>
<path d="M624.91 282.044L621.074 274.123" stroke="#263238" stroke-width="0.5" stroke-miterlimit="10"/>
<path d="M610.751 235.042V382.002" stroke="#263238" stroke-width="2" stroke-miterlimit="10"/>
<path d="M610.861 359.904L606.004 353.556" stroke="#263238" stroke-width="2" stroke-miterlimit="10"/>
<path d="M607.485 355.46C607.567 354.575 607.458 353.683 607.166 352.844C606.874 352.004 606.405 351.237 605.792 350.594C604.514 349.195 597.457 345.322 596.482 347.834C595.424 350.594 602.407 356.96 607.485 355.46Z" fill="#8ACFF5" stroke="#263238" stroke-miterlimit="10"/>
<path d="M607.485 355.46L600.907 350.345" stroke="#263238" stroke-width="0.5" stroke-miterlimit="10"/>
<path d="M610.861 332.286L606.004 325.947" stroke="#263238" stroke-width="2" stroke-miterlimit="10"/>
<path d="M607.485 327.842C607.566 326.958 607.457 326.068 607.165 325.23C606.873 324.392 606.405 323.626 605.792 322.984C604.514 321.577 597.457 317.704 596.482 320.224C595.424 322.984 602.407 329.36 607.485 327.842Z" fill="#8ACFF5" stroke="#263238" stroke-miterlimit="10"/>
<path d="M607.485 327.842L600.907 322.727" stroke="#263238" stroke-width="0.5" stroke-miterlimit="10"/>
<path d="M610.861 299.865L606.004 293.517" stroke="#263238" stroke-width="2" stroke-miterlimit="10"/>
<path d="M607.485 295.421C607.567 294.536 607.458 293.644 607.166 292.805C606.874 291.965 606.405 291.198 605.792 290.554C604.514 289.156 597.457 285.283 596.482 287.794C595.424 290.554 602.407 296.902 607.485 295.421Z" fill="#8ACFF5" stroke="#263238" stroke-miterlimit="10"/>
<path d="M607.485 295.421L600.907 290.306" stroke="#263238" stroke-width="0.5" stroke-miterlimit="10"/>
<path d="M610.861 278.282L606.004 271.934" stroke="#263238" stroke-width="2" stroke-miterlimit="10"/>
<path d="M607.485 273.838C607.567 272.953 607.458 272.061 607.166 271.221C606.874 270.382 606.405 269.615 605.792 268.971C604.514 267.573 597.457 263.69 596.482 266.211C595.424 268.971 602.407 275.319 607.485 273.838Z" fill="#8ACFF5" stroke="#263238" stroke-miterlimit="10"/>
<path d="M607.485 273.838L600.907 268.723" stroke="#263238" stroke-width="0.5" stroke-miterlimit="10"/>
<path d="M610.861 256.597L606.004 250.258" stroke="#263238" stroke-width="2" stroke-miterlimit="10"/>
<path d="M607.485 252.163C607.567 251.278 607.458 250.386 607.166 249.546C606.874 248.707 606.405 247.939 605.792 247.296C604.514 245.898 597.457 242.015 596.482 244.536C595.424 247.296 602.407 253.644 607.485 252.163Z" fill="#8ACFF5" stroke="#263238" stroke-miterlimit="10"/>
<path d="M607.485 252.163L600.907 247.048" stroke="#263238" stroke-width="0.5" stroke-miterlimit="10"/>
<path d="M610.761 368.34L615.628 361.992" stroke="#263238" stroke-width="2" stroke-miterlimit="10"/>
<path d="M614.146 363.897C614.065 363.012 614.174 362.12 614.466 361.28C614.758 360.441 615.226 359.673 615.839 359.03C617.109 357.632 624.174 353.749 625.14 356.27C626.198 359.03 619.216 365.378 614.146 363.897Z" fill="#8ACFF5" stroke="#263238" stroke-miterlimit="10"/>
<path d="M614.146 363.897L621.11 358.506" stroke="#263238" stroke-width="0.5" stroke-miterlimit="10"/>
<path d="M610.761 324.42L615.628 318.072" stroke="#263238" stroke-width="2" stroke-miterlimit="10"/>
<path d="M614.146 319.976C614.065 319.091 614.174 318.199 614.466 317.359C614.758 316.52 615.226 315.753 615.839 315.109C617.109 313.711 624.174 309.828 625.14 312.349C626.198 315.109 619.216 321.457 614.146 319.976Z" fill="#8ACFF5" stroke="#263238" stroke-miterlimit="10"/>
<path d="M614.146 319.976L621.11 314.585" stroke="#263238" stroke-width="0.5" stroke-miterlimit="10"/>
<path d="M610.761 302.735L615.628 296.387" stroke="#263238" stroke-width="2" stroke-miterlimit="10"/>
<path d="M614.146 298.292C614.065 297.407 614.174 296.514 614.466 295.675C614.758 294.835 615.226 294.068 615.839 293.425C617.109 292.026 624.174 288.153 625.14 290.665C626.198 293.425 619.216 299.773 614.146 298.292Z" fill="#8ACFF5" stroke="#263238" stroke-miterlimit="10"/>
<path d="M614.146 298.292L621.11 292.9" stroke="#263238" stroke-width="0.5" stroke-miterlimit="10"/>
<path d="M610.761 274.086L615.628 267.738" stroke="#263238" stroke-width="2" stroke-miterlimit="10"/>
<path d="M614.146 269.643C614.065 268.758 614.174 267.866 614.466 267.026C614.758 266.187 615.226 265.419 615.839 264.776C617.109 263.378 624.174 259.495 625.14 262.016C626.198 264.776 619.216 271.124 614.146 269.643Z" fill="#8ACFF5" stroke="#263238" stroke-miterlimit="10"/>
<path d="M614.146 269.643L621.11 264.252" stroke="#263238" stroke-width="0.5" stroke-miterlimit="10"/>
<path d="M610.761 251.556L615.628 245.208" stroke="#263238" stroke-width="2" stroke-miterlimit="10"/>
<path d="M614.146 247.112C614.065 246.227 614.174 245.335 614.466 244.495C614.758 243.656 615.226 242.889 615.839 242.245C617.109 240.847 624.174 236.974 625.14 239.485C626.198 242.245 619.216 248.593 614.146 247.112Z" fill="#8ACFF5" stroke="#263238" stroke-miterlimit="10"/>
<path d="M614.146 247.112L621.11 241.721" stroke="#263238" stroke-width="0.5" stroke-miterlimit="10"/>
<path d="M610.466 237.121C610.385 236.236 610.494 235.344 610.786 234.504C611.078 233.665 611.546 232.897 612.159 232.254C613.429 230.856 620.494 226.982 621.469 229.494C622.527 232.254 615.545 238.602 610.466 237.121Z" fill="#8ACFF5" stroke="#263238" stroke-miterlimit="10"/>
<path d="M610.466 237.121L617.43 231.73" stroke="#263238" stroke-width="0.5" stroke-miterlimit="10"/>
<path d="M610.807 237.424C609.917 237.413 609.041 237.211 608.236 236.831C607.431 236.452 606.717 235.904 606.142 235.226C604.891 233.818 601.772 226.384 604.385 225.685C607.2 224.922 612.812 232.53 610.807 237.424Z" fill="#8ACFF5" stroke="#263238" stroke-miterlimit="10"/>
<path d="M610.806 237.424L606.179 229.936" stroke="#263238" stroke-width="0.5" stroke-miterlimit="10"/>
<path d="M616.796 420.118H601.229L599.288 380.806H618.737L616.796 420.118Z" fill="#263238" stroke="#263238" stroke-miterlimit="10"/>
<path d="M622.84 109.48C622.842 104.253 621.585 99.1018 619.175 94.4632C616.765 89.8246 613.273 85.8349 608.995 82.8317C604.717 79.8285 599.778 77.9002 594.596 77.21C589.414 76.5199 584.143 77.0882 579.228 78.8668C574.312 80.6454 569.898 83.582 566.358 87.4281C562.817 91.2742 560.256 95.9165 558.89 100.962C557.524 106.008 557.394 111.308 558.51 116.415C559.626 121.522 561.957 126.284 565.303 130.3C570.096 136.044 572.72 143.288 572.719 150.77V155.222H607.844V150.77C607.824 143.3 610.429 136.062 615.204 130.318C620.122 124.487 622.825 117.108 622.84 109.48Z" fill="white" stroke="#263238" stroke-linecap="round" stroke-linejoin="round"/>
<path d="M607.844 155.232H572.672V163.935H607.844V155.232Z" fill="#8ACFF5" stroke="#263238" stroke-linecap="round" stroke-linejoin="round"/>
<path d="M572.673 163.953H607.844V168.305C607.844 169.459 607.386 170.566 606.57 171.382C605.754 172.198 604.647 172.656 603.493 172.656H577.015C575.861 172.656 574.754 172.198 573.938 171.382C573.122 170.566 572.664 169.459 572.664 168.305V163.953H572.673Z" fill="#8ACFF5" stroke="#263238" stroke-linecap="round" stroke-linejoin="round"/>
<path d="M577.107 172.647H603.401V175.407C603.401 176.971 602.779 178.471 601.673 179.577C600.567 180.683 599.067 181.304 597.503 181.304H583.004C581.44 181.304 579.94 180.683 578.834 179.577C577.728 178.471 577.107 176.971 577.107 175.407V172.647Z" fill="#263238" stroke="#263238" stroke-linecap="round" stroke-linejoin="round"/>
<path d="M627.413 109.655H642.317" stroke="#263238" stroke-linecap="round" stroke-linejoin="round"/>
<path d="M536.802 109.655H551.899" stroke="#263238" stroke-linecap="round" stroke-linejoin="round"/>
<path d="M589.564 71.8428V56.902" stroke="#263238" stroke-linecap="round" stroke-linejoin="round"/>
<path d="M616.575 82.6344L626.861 72.3488" stroke="#263238" stroke-linecap="round" stroke-linejoin="round"/>
<path d="M552.258 146.952L562.691 136.519" stroke="#263238" stroke-linecap="round" stroke-linejoin="round"/>
<path d="M562.249 82.34L552.258 72.3488" stroke="#263238" stroke-linecap="round" stroke-linejoin="round"/>
<path d="M626.861 146.952L616.916 137.006" stroke="#263238" stroke-linecap="round" stroke-linejoin="round"/>
<path d="M397.946 98.5504L354.881 38.9988L311.807 98.5504H329.526V164.708H380.236V98.5504H397.946Z" fill="#8ACFF5" stroke="#263238" stroke-linecap="round" stroke-linejoin="round"/>
<path d="M361.66 200.327C385.867 196.415 402.319 173.62 398.407 149.413C394.495 125.206 371.7 108.754 347.493 112.666C323.286 116.578 306.834 139.372 310.746 163.579C314.658 187.786 337.453 204.239 361.66 200.327Z" fill="white" stroke="#263238" stroke-linecap="round" stroke-linejoin="round"/>
<path d="M388.387 173.544C397.799 154.879 390.298 132.119 371.633 122.707C352.969 113.295 330.208 120.796 320.796 139.461C311.385 158.125 318.886 180.886 337.55 190.297C356.215 199.709 378.975 192.208 388.387 173.544Z" fill="white" stroke="#263238" stroke-linecap="round" stroke-linejoin="round"/>
<g clip-path="url(#clip0_1125_2301)">
<path d="M358.185 176.631L344.441 159.558L344.52 156.175C350.971 156.616 355.986 155.938 357.152 149.881L343.408 149.803L345.632 146.104L356.596 146.261C354.926 142.814 350.331 142.389 343.169 142.642L345.632 139.022L368.911 138.988L366.607 142.563H360.172C361.348 143.795 362.209 145.214 362.238 146.418L368.911 146.339L366.607 149.88L362.158 149.958C361.464 155.24 356.576 158.367 350.4 159.085L364.236 176.626L358.186 176.63L358.185 176.631Z" fill="#8ACFF5" stroke="#263238"/>
</g>
<path d="M134.872 124.511C150.581 121.662 161.005 106.619 158.156 90.9103C155.307 75.202 140.263 64.7775 124.555 67.6266C108.847 70.4756 98.4224 85.5192 101.271 101.228C104.12 116.936 119.164 127.36 134.872 124.511Z" fill="white" stroke="#263238" stroke-linecap="round" stroke-linejoin="round"/>
<path d="M137.881 68.3651L129.72 96.0755H158.627C158.624 89.836 156.601 83.765 152.862 78.7702C149.122 73.7754 143.867 70.1251 137.881 68.3651Z" fill="#8ACFF5" stroke="#263238" stroke-linecap="round" stroke-linejoin="round"/>
<path d="M147.669 77.8411L159.142 64.3171H168.986" stroke="#263238" stroke-width="0.5" stroke-linecap="round" stroke-linejoin="round"/>
<path d="M175.959 64.7219H190.716" stroke="#263238" stroke-width="0.5" stroke-linecap="round" stroke-linejoin="round"/>
<path d="M175.959 68.4111H190.716" stroke="#263238" stroke-width="0.5" stroke-linecap="round" stroke-linejoin="round"/>
<path d="M175.959 72.1003H190.716" stroke="#263238" stroke-width="0.5" stroke-linecap="round" stroke-linejoin="round"/>
<path d="M175.959 75.7896H190.716" stroke="#263238" stroke-width="0.5" stroke-linecap="round" stroke-linejoin="round"/>
<path d="M102.065 155.544H93.6562V180.633H102.065V155.544Z" fill="#263238" stroke="#263238" stroke-width="0.5" stroke-linecap="round" stroke-linejoin="round"/>
<path d="M115.276 164.57H106.868V180.633H115.276V164.57Z" fill="#8ACFF5" stroke="#263238" stroke-linecap="round" stroke-linejoin="round"/>
<path d="M128.497 150.052H120.088V180.633H128.497V150.052Z" fill="#263238" stroke="#263238" stroke-width="0.5" stroke-linecap="round" stroke-linejoin="round"/>
<path d="M141.717 156.382H133.308V180.642H141.717V156.382Z" fill="#8ACFF5" stroke="#263238" stroke-linecap="round" stroke-linejoin="round"/>
<path d="M154.928 150.834H146.52V180.633H154.928V150.834Z" fill="#263238" stroke="#263238" stroke-width="0.5" stroke-linecap="round" stroke-linejoin="round"/>
<path d="M168.149 133.179H159.74V180.642H168.149V133.179Z" fill="#8ACFF5" stroke="#263238" stroke-linecap="round" stroke-linejoin="round"/>
<path d="M177.597 132.682H182.519" stroke="#263238" stroke-width="0.5" stroke-linecap="round" stroke-linejoin="round"/>
<path d="M177.597 142.269H182.519" stroke="#263238" stroke-width="0.5" stroke-linecap="round" stroke-linejoin="round"/>
<path d="M177.597 151.864H182.519" stroke="#263238" stroke-width="0.5" stroke-linecap="round" stroke-linejoin="round"/>
<path d="M177.597 161.46H182.519" stroke="#263238" stroke-width="0.5" stroke-linecap="round" stroke-linejoin="round"/>
<path d="M177.597 171.056H182.519" stroke="#263238" stroke-width="0.5" stroke-linecap="round" stroke-linejoin="round"/>
<path d="M177.597 180.642H182.519" stroke="#263238" stroke-width="0.5" stroke-linecap="round" stroke-linejoin="round"/>
<path d="M98.4678 146.298L111.348 154.091L124.752 139.739L137.991 140.852L150.816 135.764L165.333 116.665" stroke="#263238" stroke-linecap="round" stroke-linejoin="round"/>
<path d="M100.087 146.28C100.087 145.958 99.9911 145.642 99.8118 145.374C99.6324 145.106 99.3776 144.898 99.0795 144.775C98.7814 144.652 98.4535 144.62 98.1374 144.684C97.8213 144.747 97.5311 144.903 97.3038 145.132C97.0764 145.36 96.922 145.651 96.8603 145.968C96.7985 146.284 96.832 146.612 96.9567 146.91C97.0814 147.207 97.2915 147.461 97.5605 147.638C97.8295 147.816 98.1452 147.91 98.4677 147.908C98.6811 147.908 98.8924 147.866 99.0895 147.784C99.2865 147.702 99.4654 147.582 99.6159 147.431C99.7664 147.28 99.8855 147.1 99.9663 146.902C100.047 146.705 100.088 146.493 100.087 146.28Z" fill="#263238"/>
<path d="M112.976 154.091C112.976 153.769 112.881 153.454 112.702 153.186C112.523 152.918 112.268 152.71 111.971 152.586C111.673 152.463 111.346 152.431 111.03 152.494C110.714 152.557 110.424 152.712 110.196 152.939C109.968 153.167 109.813 153.457 109.751 153.773C109.688 154.089 109.72 154.416 109.843 154.714C109.966 155.012 110.175 155.266 110.443 155.445C110.711 155.624 111.026 155.719 111.348 155.719C111.562 155.72 111.774 155.679 111.972 155.598C112.17 155.516 112.35 155.396 112.502 155.245C112.653 155.094 112.773 154.914 112.855 154.715C112.936 154.517 112.977 154.305 112.976 154.091Z" fill="#263238"/>
<path d="M126.372 139.739C126.372 139.416 126.276 139.101 126.096 138.833C125.917 138.565 125.662 138.356 125.364 138.233C125.066 138.11 124.738 138.079 124.422 138.142C124.106 138.206 123.816 138.362 123.588 138.591C123.361 138.819 123.207 139.11 123.145 139.427C123.083 139.743 123.117 140.071 123.241 140.368C123.366 140.666 123.576 140.919 123.845 141.097C124.114 141.275 124.43 141.369 124.752 141.367C124.966 141.367 125.177 141.325 125.374 141.243C125.571 141.161 125.75 141.041 125.901 140.89C126.051 140.738 126.17 140.559 126.251 140.361C126.332 140.164 126.373 139.952 126.372 139.739Z" fill="#263238"/>
<path d="M139.61 140.852C139.61 140.53 139.515 140.214 139.335 139.946C139.156 139.678 138.901 139.47 138.603 139.347C138.305 139.224 137.977 139.192 137.661 139.256C137.345 139.319 137.055 139.475 136.827 139.704C136.6 139.933 136.445 140.224 136.384 140.54C136.322 140.856 136.355 141.184 136.48 141.482C136.605 141.779 136.815 142.033 137.084 142.21C137.353 142.388 137.669 142.482 137.991 142.48C138.205 142.48 138.416 142.438 138.613 142.356C138.81 142.274 138.989 142.154 139.139 142.003C139.29 141.852 139.409 141.672 139.49 141.474C139.571 141.277 139.612 141.065 139.61 140.852Z" fill="#263238"/>
<path d="M152.444 135.507C152.444 135.185 152.349 134.87 152.17 134.602C151.991 134.334 151.737 134.126 151.439 134.002C151.142 133.879 150.814 133.847 150.498 133.91C150.182 133.973 149.892 134.128 149.664 134.355C149.437 134.583 149.282 134.873 149.219 135.189C149.156 135.505 149.188 135.832 149.311 136.13C149.435 136.428 149.643 136.682 149.911 136.861C150.179 137.04 150.494 137.135 150.816 137.135C151.248 137.135 151.662 136.964 151.967 136.658C152.273 136.353 152.444 135.939 152.444 135.507Z" fill="#263238"/>
<path d="M166.953 116.665C166.953 116.343 166.857 116.027 166.678 115.759C166.498 115.491 166.243 115.283 165.945 115.16C165.647 115.037 165.319 115.005 165.003 115.069C164.687 115.132 164.397 115.288 164.169 115.517C163.942 115.746 163.788 116.037 163.726 116.353C163.664 116.67 163.698 116.997 163.822 117.295C163.947 117.592 164.157 117.846 164.426 118.024C164.695 118.201 165.011 118.295 165.333 118.294C165.764 118.291 166.176 118.118 166.479 117.813C166.782 117.508 166.953 117.095 166.953 116.665Z" fill="#263238"/>
<path d="M487.59 380.346H492.834V329.82H487.59V380.346Z" fill="#263238" stroke="#263238" stroke-linecap="round" stroke-linejoin="round"/>
<path d="M513.707 331.594L522.954 332.675L528.823 282.491L519.575 281.409L513.707 331.594Z" fill="#263238" stroke="#263238" stroke-linecap="round" stroke-linejoin="round"/>
<path d="M483.552 382.416V373.897H496.864V382.49L550.114 403.862V413.945H546.48V406.281L490.019 393.429L435.049 406.281V413.945H431.517V403.862L483.552 382.416Z" fill="#8C8C8C" stroke="#263238" stroke-linecap="round" stroke-linejoin="round"/>
<path d="M477.103 345.957H503.323V329.82H477.103V345.957Z" fill="#263238" stroke="#263238" stroke-linecap="round" stroke-linejoin="round"/>
<path d="M550.16 414.35C550.16 413.232 550.491 412.14 551.112 411.21C551.733 410.281 552.616 409.557 553.649 409.13C554.682 408.703 555.818 408.591 556.914 408.81C558.01 409.029 559.016 409.568 559.806 410.359C560.596 411.15 561.133 412.157 561.35 413.253C561.567 414.35 561.454 415.486 561.025 416.518C560.596 417.55 559.87 418.431 558.94 419.051C558.01 419.671 556.917 420 555.799 419.999C555.058 419.999 554.324 419.852 553.639 419.568C552.954 419.284 552.332 418.868 551.808 418.343C551.284 417.819 550.869 417.196 550.586 416.511C550.303 415.825 550.158 415.091 550.16 414.35Z" fill="#263238" stroke="#263238" stroke-linecap="round" stroke-linejoin="round"/>
<path d="M553.334 414.35C553.334 413.871 553.476 413.403 553.742 413.005C554.008 412.607 554.386 412.297 554.828 412.114C555.27 411.931 555.756 411.883 556.226 411.977C556.695 412.07 557.126 412.3 557.464 412.639C557.803 412.977 558.033 413.408 558.127 413.878C558.22 414.347 558.172 414.833 557.989 415.276C557.806 415.718 557.496 416.096 557.098 416.361C556.7 416.627 556.232 416.769 555.754 416.769C555.112 416.769 554.496 416.514 554.043 416.061C553.589 415.607 553.334 414.991 553.334 414.35Z" fill="white" stroke="#263238" stroke-linecap="round" stroke-linejoin="round"/>
<path d="M419.814 414.35C419.814 413.232 420.146 412.14 420.766 411.211C421.387 410.282 422.269 409.558 423.302 409.131C424.334 408.703 425.47 408.591 426.565 408.809C427.661 409.027 428.668 409.565 429.458 410.355C430.248 411.145 430.786 412.152 431.004 413.248C431.221 414.343 431.11 415.479 430.682 416.511C430.255 417.544 429.531 418.426 428.602 419.046C427.673 419.667 426.58 419.998 425.463 419.998C423.965 419.998 422.528 419.403 421.469 418.344C420.41 417.285 419.814 415.848 419.814 414.35Z" fill="#263238" stroke="#263238" stroke-linecap="round" stroke-linejoin="round"/>
<path d="M425.463 416.769C426.799 416.769 427.883 415.686 427.883 414.35C427.883 413.013 426.799 411.93 425.463 411.93C424.127 411.93 423.043 413.013 423.043 414.35C423.043 415.686 424.127 416.769 425.463 416.769Z" fill="white" stroke="#263238" stroke-linecap="round" stroke-linejoin="round"/>
<path d="M487.784 414.239H492.219L494.445 383.98H485.567L487.784 414.239Z" fill="#8C8C8C" stroke="#263238" stroke-linecap="round" stroke-linejoin="round"/>
<path d="M487.995 420.284H492.43V407.781H487.995V420.284Z" fill="#263238" stroke="#263238" stroke-linecap="round" stroke-linejoin="round"/>
<path d="M525.136 306.599C527.723 306.849 530.335 306.587 532.821 305.828C535.307 305.068 537.619 303.827 539.625 302.173C541.631 300.52 543.291 298.488 544.512 296.193C545.732 293.898 546.489 291.385 546.738 288.797L552.92 224.48C553.422 219.255 551.829 214.045 548.491 209.994C545.153 205.943 540.343 203.384 535.118 202.878C529.892 202.379 524.682 203.974 520.631 207.314C516.581 210.653 514.022 215.464 513.516 220.69L507.325 285.09C506.846 290.302 508.451 295.491 511.789 299.522C515.127 303.553 519.926 306.098 525.136 306.599Z" fill="#8C8C8C" stroke="#263238" stroke-linecap="round" stroke-linejoin="round"/>
<path d="M520.444 306.148C525.669 306.651 530.879 305.058 534.93 301.72C538.981 298.381 541.54 293.571 542.045 288.347L548.237 223.947C548.724 218.729 547.122 213.531 543.784 209.493C540.445 205.454 535.642 202.903 530.426 202.4C527.838 202.151 525.227 202.415 522.742 203.175C520.256 203.936 517.945 205.179 515.94 206.833C513.935 208.487 512.275 210.52 511.056 212.815C509.836 215.111 509.081 217.624 508.833 220.211L502.642 284.556C502.139 289.78 503.733 294.99 507.071 299.039C510.41 303.088 515.22 305.646 520.444 306.148Z" fill="#8C8C8C" stroke="#263238" stroke-linecap="round" stroke-linejoin="round"/>
<path d="M434.323 334.88L526.654 337.309C527.166 337.325 527.677 337.24 528.156 337.058C528.636 336.877 529.074 336.603 529.448 336.251C529.821 335.9 530.122 335.479 530.332 335.012C530.543 334.544 530.659 334.04 530.674 333.528L531.144 318.752C531.16 318.24 531.074 317.73 530.893 317.25C530.712 316.771 530.437 316.332 530.086 315.959C529.735 315.585 529.314 315.285 528.846 315.074C528.379 314.864 527.875 314.747 527.362 314.732L435.04 312.303C434.529 312.286 434.018 312.37 433.539 312.55C433.06 312.731 432.621 313.004 432.247 313.355C431.874 313.705 431.573 314.126 431.362 314.593C431.152 315.059 431.035 315.563 431.02 316.075L430.56 330.86C430.528 331.891 430.906 332.894 431.611 333.647C432.316 334.401 433.291 334.844 434.323 334.88Z" fill="#8C8C8C" stroke="#263238" stroke-linecap="round" stroke-linejoin="round"/>
<path d="M472.928 335.595L526.666 337.293C528.819 337.361 530.62 335.67 530.688 333.517L531.155 318.74C531.223 316.587 529.532 314.786 527.379 314.718L473.641 313.02C471.488 312.952 469.687 314.642 469.619 316.795L469.152 331.572C469.084 333.726 470.774 335.526 472.928 335.595Z" fill="#8C8C8C" stroke="#263238" stroke-linecap="round" stroke-linejoin="round"/>
<path d="M428.168 398.102L427.717 401.507C427.717 401.507 423.632 409.676 422.041 411.038C420.449 412.399 410.467 416.705 408.655 417.386C406.842 418.066 410.016 420.146 414.331 420.339C418.646 420.532 426.586 420.569 429.309 419.888C432.032 419.207 437.248 415.343 438.389 415.122L439.309 418.067C439.309 418.067 444.305 416.226 446.117 415.803C447.93 415.38 450.883 413.043 450.883 413.043C449.852 409.874 448.641 406.765 447.258 403.733C446.42 402.211 445.345 400.833 444.075 399.648L440.68 395.6L428.168 398.102Z" fill="#263238" stroke="#263238" stroke-linecap="round" stroke-linejoin="round"/>
<path d="M455.63 268.456L448.141 272.992L431.802 277.757C431.802 277.757 380.061 287.288 377.108 290.72C374.155 294.152 375.268 297.077 377.789 301.392C380.309 305.707 424.12 401.276 424.12 401.276L442.281 397.642L411.865 306.13C411.865 306.13 469.062 317.704 479.025 315.882C488.989 314.06 501.722 303.407 503.985 295.237C506.248 287.068 495.815 274.077 495.815 274.077L455.63 268.456Z" fill="#8ACFF5" stroke="#263238" stroke-linecap="round" stroke-linejoin="round"/>
<path d="M398.995 297.252C398.995 297.252 410.43 302.772 412.482 308.982" stroke="#263238" stroke-linecap="round" stroke-linejoin="round"/>
<path d="M514.859 192.657L490.35 190.385L454.498 271.63L478.096 275.715L514.859 192.657Z" fill="white" stroke="#263238" stroke-linecap="round" stroke-linejoin="round"/>
<path d="M490.802 197.975C490.802 197.975 454.949 270.48 454.48 271.63C454.011 272.78 443.817 275.715 441.545 276.166C439.273 276.616 431.784 277.757 431.784 277.757L444.498 269.137L453.56 245.76L442.52 240.12C442.52 240.12 462.944 209.484 467.48 199.042C472.015 188.6 473.8 185.84 478.326 185.619C482.853 185.398 495.806 186.3 495.806 186.3L490.802 197.975Z" fill="#8ACFF5" stroke="#263238" stroke-linecap="round" stroke-linejoin="round"/>
<path d="M485.815 213.302L486.266 218.528C486.266 218.528 462.438 261.188 462.217 262.099C461.996 263.01 464.057 269.358 464.057 269.358L472.457 263.23L488.336 219.438L492.651 216.936V208.831L485.815 213.302Z" fill="#263238" stroke="#263238" stroke-linecap="round" stroke-linejoin="round"/>
<path d="M495.291 134.881C495.291 134.881 486.864 155.287 484.996 161.469C483.129 167.652 481.813 177.753 482.236 178.876C482.659 179.998 484.996 183.926 489.348 184.12C493.7 184.313 497.398 184.304 497.398 184.304L490.848 197.975C490.848 197.975 491.593 208.647 492.688 208.831C493.782 209.015 510.287 196.291 510.664 195.721C511.041 195.15 521.52 172.721 521.52 172.721C521.52 172.721 530.886 168.038 531.447 163.916C531.63 162.763 531.501 161.582 531.072 160.497C530.643 159.411 529.931 158.46 529.009 157.743V152.683L533.131 140.328C533.131 140.328 522.836 133.593 511.409 130.778C499.983 127.963 497.554 129.858 497.554 129.858L495.291 134.881Z" fill="white" stroke="#263238" stroke-linecap="round" stroke-linejoin="round"/>
<path d="M514.197 123.464C514.197 123.464 497.352 118.965 489.863 125.525C482.375 132.084 501.842 142.6 508.208 143.52C514.575 144.44 522.441 143.143 520.564 144.836C518.687 146.528 514.574 149.141 516.635 150.825C517.929 151.864 519.383 152.684 520.941 153.254C520.941 153.254 512.146 172.574 510.646 174.782C509.146 176.99 506.34 176.842 504.657 176.281C502.973 175.72 494.923 170.669 492.301 169.731C489.679 168.792 484.812 165.986 483.69 168.986C482.568 171.985 479.753 184.708 483.874 187.514C487.996 190.32 508.024 183.209 511.023 181.148C514.023 179.087 514.952 175.343 515.513 174.598C516.074 173.852 524.124 160.558 524.869 159.62C525.615 158.682 528.991 157.78 528.991 157.78C528.991 157.78 535.734 144.293 536.296 139.058C536.857 133.823 519.257 123.28 514.197 123.464Z" fill="#263238" stroke="#263238" stroke-linecap="round" stroke-linejoin="round"/>
<path d="M496.606 149.482L496.229 157.762C496.229 157.762 487.434 167.679 487.434 168.802C487.434 169.924 497.913 168.618 497.913 168.618" stroke="#263238" stroke-linecap="round" stroke-linejoin="round"/>
<path d="M495.291 147.614C494.97 146.987 494.438 146.492 493.788 146.218C493.139 145.944 492.414 145.907 491.74 146.114" stroke="#263238" stroke-linecap="round" stroke-linejoin="round"/>
<path d="M503.157 152.288C503.157 152.288 508.585 151.726 510.269 155.848" stroke="#263238" stroke-linecap="round" stroke-linejoin="round"/>
<path d="M488.52 173.07C488.52 173.07 493.387 176.07 496.57 176.07" stroke="white" stroke-linecap="round" stroke-linejoin="round"/>
<path d="M505.006 160.402C504.491 161.423 503.553 161.975 502.909 161.653C502.265 161.331 502.154 160.237 502.67 159.225C503.185 158.213 504.123 157.651 504.767 157.973C505.411 158.295 505.522 159.39 505.006 160.402Z" fill="#263238"/>
<path d="M493.285 155.848C492.779 156.86 491.832 157.421 491.188 157.09C490.544 156.759 490.433 155.682 490.948 154.661C491.464 153.64 492.402 153.088 493.046 153.419C493.69 153.75 493.8 154.827 493.285 155.848Z" fill="#263238"/>
<path d="M412.059 390.512L410.467 400.044L407.063 400.964C407.063 400.964 403.88 404.8 403.208 405.72C402.537 406.64 394.128 412.749 391.865 413.89C389.602 415.03 383.916 415.472 384.146 417.064C384.376 418.655 396.4 420.017 404.119 420.238C411.838 420.458 416.144 417.974 416.144 417.974L416.824 419.557L424.764 418.876C424.764 418.876 424.313 411.387 424.543 408.213C424.615 405.632 424.461 403.049 424.083 400.494L423.632 393.916L412.059 390.512Z" fill="#263238" stroke="#263238" stroke-linecap="round" stroke-linejoin="round"/>
<path d="M475.833 279.119C475.833 279.119 411.378 287.058 410.016 288.65C408.655 290.242 409.786 337.217 409.786 337.217L402.297 392.196L425.445 399.28C425.445 399.28 432.713 352.921 435.206 340.4C436.91 331.089 438.123 321.696 438.84 312.257C438.84 312.257 474.471 320.427 486.68 313.619C498.888 306.811 496.432 298.411 496.432 298.411" fill="#8ACFF5"/>
<path d="M475.833 279.119C475.833 279.119 411.378 287.058 410.016 288.65C408.655 290.242 409.786 337.217 409.786 337.217L402.297 392.196L425.445 399.28C425.445 399.28 432.713 352.921 435.206 340.4C436.91 331.089 438.123 321.696 438.84 312.257C438.84 312.257 474.471 320.427 486.68 313.619C498.888 306.811 496.432 298.411 496.432 298.411" stroke="#263238" stroke-linecap="round" stroke-linejoin="round"/>
<path d="M411.019 335.377C411.019 335.377 413.954 322.184 414.533 315.137" stroke="#263238" stroke-linecap="round" stroke-linejoin="round"/>
<path d="M434.047 304.667C433.349 303.732 432.507 302.912 431.554 302.238" stroke="#263238" stroke-linecap="round" stroke-linejoin="round"/>
<path d="M438.84 312.257C438.84 312.257 437.533 309.7 435.822 307.115" stroke="#263238" stroke-linecap="round" stroke-linejoin="round"/>
<path d="M513.958 188.342C513.958 188.342 488.308 235.52 482.862 247.572C477.416 259.624 470.12 276.396 470.12 278.208C470.12 280.02 465.354 326.554 466.946 327.456C468.538 328.357 492.356 320.648 503.479 316.342C514.602 312.036 515.053 308.853 515.964 306.351C516.874 303.848 516.644 271.63 516.644 271.63C516.644 271.63 539.792 205.813 539.562 202.869C539.332 199.925 513.958 188.342 513.958 188.342Z" fill="#8ACFF5" stroke="#263238" stroke-linecap="round" stroke-linejoin="round"/>
<path d="M494.463 236.072C490.259 240.194 486.726 243.266 486.726 243.266" stroke="#263238" stroke-linecap="round" stroke-linejoin="round"/>
<path d="M522.128 193.559C522.128 193.559 511.465 214.443 506.009 222.842C503.317 226.692 500.281 230.289 496.938 233.588" stroke="#263238" stroke-linecap="round" stroke-linejoin="round"/>
<path d="M488.014 189.18C488.014 189.18 476.974 207.635 473.791 218.528C470.608 229.42 469.927 235.088 469.927 235.088" stroke="#263238" stroke-linecap="round" stroke-linejoin="round"/>
<path d="M482.181 215.574L492.669 208.831L493.074 224.655" stroke="#263238" stroke-linecap="round" stroke-linejoin="round"/>
<path d="M504.556 286.479L508.061 285.927" stroke="#263238" stroke-linecap="round" stroke-linejoin="round"/>
<path d="M506.92 281.842L482.181 284.795V290.012L499.845 287.224" stroke="#263238" stroke-linecap="round" stroke-linejoin="round"/>
<path d="M472.429 196.282C472.429 196.282 476.514 187.662 478.556 187.432C480.599 187.202 485.134 187.432 485.134 189.272C485.134 191.112 482.641 191.314 482.641 191.314H479.237L477.646 195.399L472.429 196.282Z" fill="white" stroke="#263238" stroke-linecap="round" stroke-linejoin="round"/>
<path d="M466.753 212.621L468.344 203.771C468.344 203.771 469.025 196.061 470.184 195.601C471.343 195.141 481.758 195.381 481.758 195.381C481.758 195.381 481.988 204.452 481.077 206.724C480.166 208.997 476.081 209.898 476.081 209.898C475.705 211.313 475.174 212.683 474.499 213.983C473.818 214.903 471.316 216.025 471.316 216.025L470.635 217.865L464.738 214.001L466.753 212.621Z" fill="white" stroke="#263238" stroke-linecap="round" stroke-linejoin="round"/>
<path d="M476.054 209.907L474.922 205.592L479.237 205.362" fill="white"/>
<path d="M476.054 209.907L474.922 205.592L479.237 205.362" stroke="#263238" stroke-linecap="round" stroke-linejoin="round"/>
<path d="M464.48 211.95L473.791 218.528L470.157 222.383L462.217 215.124L464.48 211.95Z" fill="white" stroke="#263238" stroke-linecap="round" stroke-linejoin="round"/>
<path d="M462.217 215.124L472.88 223.063L452.456 254.159C450.04 254.673 447.529 254.514 445.197 253.699C441.333 252.338 437.708 244.628 437.708 243.717C437.708 242.806 462.217 215.124 462.217 215.124Z" fill="#8ACFF5" stroke="#263238" stroke-linecap="round" stroke-linejoin="round"/>
<path d="M454.047 251.206C454.047 251.206 450.643 244.849 450.413 243.036C450.183 241.224 449.963 237.59 448.822 236.228C447.681 234.867 446.329 233.956 445.878 231.914C445.427 229.871 443.375 230.782 443.118 232.834C442.86 234.885 444.7 236.918 444.7 236.918C444.7 236.918 439.033 235.078 438.122 235.557C437.211 236.035 435.362 236.688 435.85 238.317C436.153 239.316 436.537 240.288 437 241.224C437 241.224 433.375 245.99 433.375 248.253C433.375 250.516 435.868 254.159 437.69 255.521C439.511 256.882 445.859 258.281 445.859 258.281L454.047 251.206Z" fill="white" stroke="#263238" stroke-linecap="round" stroke-linejoin="round"/>
<path d="M519.524 204.507L498.98 247.121L448.822 249.881C447.557 250.188 446.401 250.837 445.481 251.757C444.561 252.677 443.912 253.833 443.605 255.098C443.078 257.174 442.849 259.314 442.925 261.455C442.925 261.455 476.284 265.54 486.726 266.22C497.168 266.901 509.873 268.263 511.465 266.671C513.056 265.08 531.889 226.053 531.889 226.053" fill="#8ACFF5"/>
<path d="M519.524 204.507L498.98 247.121L448.822 249.881C447.557 250.188 446.401 250.837 445.481 251.757C444.561 252.677 443.912 253.833 443.605 255.098C443.078 257.174 442.849 259.314 442.925 261.455C442.925 261.455 476.284 265.54 486.726 266.22C497.168 266.901 509.873 268.263 511.465 266.671C513.056 265.08 531.889 226.053 531.889 226.053" stroke="#263238" stroke-linecap="round" stroke-linejoin="round"/>
<path d="M219.3 329.829H214.056V380.356H219.3V329.829Z" fill="#263238" stroke="#263238" stroke-linecap="round" stroke-linejoin="round"/>
<path d="M187.347 281.42L178.1 282.501L183.968 332.686L193.216 331.604L187.347 281.42Z" fill="#263238" stroke="#263238" stroke-linecap="round" stroke-linejoin="round"/>
<path d="M223.339 382.416V373.897H210.026V382.49L156.777 403.862V413.945H160.411V406.281L216.871 393.429L271.841 406.281V413.945H275.374V403.862L223.339 382.416Z" fill="#8C8C8C" stroke="#263238" stroke-linecap="round" stroke-linejoin="round"/>
<path d="M229.788 329.829H203.568V345.966H229.788V329.829Z" fill="#263238" stroke="#263238" stroke-linecap="round" stroke-linejoin="round"/>
<path d="M156.777 414.35C156.777 413.232 156.446 412.14 155.825 411.211C155.204 410.282 154.322 409.558 153.29 409.131C152.258 408.703 151.122 408.591 150.026 408.809C148.931 409.027 147.924 409.565 147.134 410.355C146.344 411.145 145.806 412.152 145.588 413.248C145.37 414.343 145.482 415.479 145.909 416.511C146.337 417.544 147.061 418.426 147.99 419.046C148.919 419.667 150.011 419.998 151.128 419.998C152.626 419.998 154.063 419.403 155.123 418.344C156.182 417.285 156.777 415.848 156.777 414.35Z" fill="#263238" stroke="#263238" stroke-linecap="round" stroke-linejoin="round"/>
<path d="M153.548 414.35C153.548 413.871 153.406 413.403 153.14 413.005C152.874 412.607 152.496 412.297 152.054 412.114C151.612 411.931 151.125 411.883 150.656 411.976C150.187 412.07 149.756 412.3 149.417 412.639C149.079 412.977 148.848 413.408 148.755 413.877C148.662 414.347 148.71 414.833 148.893 415.275C149.076 415.718 149.386 416.095 149.784 416.361C150.182 416.627 150.65 416.769 151.128 416.769C151.77 416.769 152.385 416.514 152.839 416.06C153.293 415.607 153.548 414.991 153.548 414.35Z" fill="white" stroke="#263238" stroke-linecap="round" stroke-linejoin="round"/>
<path d="M287.04 414.35C287.04 413.232 286.708 412.14 286.088 411.211C285.467 410.282 284.585 409.558 283.553 409.131C282.521 408.703 281.385 408.591 280.289 408.809C279.193 409.027 278.187 409.565 277.397 410.355C276.607 411.145 276.069 412.152 275.851 413.248C275.633 414.343 275.745 415.479 276.172 416.511C276.6 417.544 277.324 418.426 278.253 419.046C279.182 419.667 280.274 419.998 281.391 419.998C282.889 419.998 284.326 419.403 285.385 418.344C286.445 417.285 287.04 415.848 287.04 414.35Z" fill="#263238" stroke="#263238" stroke-linecap="round" stroke-linejoin="round"/>
<path d="M281.428 416.769C282.764 416.769 283.848 415.686 283.848 414.35C283.848 413.013 282.764 411.93 281.428 411.93C280.092 411.93 279.008 413.013 279.008 414.35C279.008 415.686 280.092 416.769 281.428 416.769Z" fill="white" stroke="#263238" stroke-linecap="round" stroke-linejoin="round"/>
<path d="M219.098 414.239H214.663L212.446 383.98H221.324L219.098 414.239Z" fill="#8C8C8C" stroke="#263238" stroke-linecap="round" stroke-linejoin="round"/>
<path d="M218.895 407.781H214.461V420.284H218.895V407.781Z" fill="#263238" stroke="#263238" stroke-linecap="round" stroke-linejoin="round"/>
<path d="M181.755 306.599C179.168 306.849 176.556 306.587 174.07 305.828C171.584 305.068 169.272 303.826 167.266 302.173C165.26 300.52 163.6 298.488 162.379 296.193C161.159 293.898 160.402 291.385 160.153 288.797L153.962 224.397C153.712 221.81 153.974 219.199 154.733 216.713C155.493 214.227 156.735 211.914 158.388 209.908C160.041 207.902 162.073 206.242 164.368 205.021C166.663 203.801 169.176 203.045 171.764 202.796C176.99 202.296 182.2 203.891 186.251 207.231C190.301 210.57 192.86 215.381 193.365 220.607L199.557 285.007C200.059 290.231 198.466 295.44 195.128 299.49C191.789 303.539 186.979 306.096 181.755 306.599Z" fill="#8C8C8C" stroke="#263238" stroke-linecap="round" stroke-linejoin="round"/>
<path d="M186.447 306.148C181.222 306.651 176.011 305.058 171.961 301.72C167.91 298.381 165.35 293.571 164.845 288.346L158.654 223.946C158.167 218.73 159.767 213.534 163.104 209.496C166.44 205.457 171.241 202.906 176.456 202.4C181.682 201.898 186.894 203.492 190.945 206.832C194.996 210.172 197.554 214.985 198.057 220.211L204.24 284.547C204.742 289.77 203.15 294.98 199.814 299.03C196.478 303.081 191.67 305.641 186.447 306.148Z" fill="#8C8C8C" stroke="#263238" stroke-linecap="round" stroke-linejoin="round"/>
<path d="M275.76 334.88L180.237 337.309C179.725 337.325 179.214 337.24 178.735 337.058C178.255 336.877 177.816 336.603 177.443 336.251C177.07 335.9 176.769 335.479 176.559 335.012C176.348 334.544 176.232 334.04 176.216 333.528L175.72 318.752C175.687 317.719 176.067 316.716 176.774 315.962C177.481 315.208 178.459 314.766 179.492 314.732L275.08 312.303C275.592 312.286 276.102 312.37 276.581 312.55C277.06 312.731 277.499 313.004 277.873 313.355C278.246 313.705 278.547 314.126 278.758 314.593C278.968 315.059 279.085 315.563 279.1 316.075L279.569 330.86C279.585 331.374 279.499 331.887 279.316 332.368C279.133 332.849 278.856 333.289 278.502 333.663C278.148 334.037 277.724 334.337 277.253 334.546C276.782 334.754 276.275 334.868 275.76 334.88Z" fill="#8C8C8C" stroke="#263238" stroke-linecap="round" stroke-linejoin="round"/>
<path d="M233.275 313.029L179.537 314.727C177.383 314.795 175.693 316.596 175.761 318.749L176.228 333.526C176.296 335.679 178.097 337.37 180.25 337.302L233.988 335.604C236.141 335.536 237.832 333.735 237.764 331.582L237.297 316.804C237.229 314.651 235.428 312.961 233.275 313.029Z" fill="#8C8C8C" stroke="#263238" stroke-linecap="round" stroke-linejoin="round"/>
<path d="M287.96 304.787C287.96 304.787 288.779 320.574 290.95 334.714C293.121 348.855 296.718 391.754 296.718 391.754C297.85 396.062 299.39 400.252 301.318 404.266C302.606 406.932 304.252 409.408 306.213 411.626C306.213 411.626 313.287 418.701 313.011 419.787C312.735 420.872 308.301 420.762 303.949 419.943C299.598 419.124 298.705 418.103 296.258 416.456C293.811 414.81 288.245 412.703 285.798 411.856C283.351 411.01 282.541 408.876 283.36 406.428C284.179 403.981 286.902 398.268 286.902 394.735C286.902 391.202 284.721 374.44 278.76 363.28C272.798 352.121 269.238 332.81 269.238 332.81L287.96 304.787Z" fill="white" stroke="#263238" stroke-linecap="round" stroke-linejoin="round"/>
<path d="M289.404 407.247C287.675 405.904 286.056 404.487 284.676 403.153C284.16 404.469 283.682 405.628 283.415 406.428C282.596 408.876 283.415 411.028 285.853 411.856C288.291 412.684 293.866 414.8 296.314 416.456C298.761 418.112 299.653 419.124 304.005 419.943C308.356 420.762 312.8 420.863 313.067 419.787C313.334 418.71 306.268 411.626 306.268 411.626L302.735 413.264C302.735 413.264 294.299 411.056 289.404 407.247Z" fill="#8ACFF5" stroke="#263238" stroke-linecap="round" stroke-linejoin="round"/>
<path d="M183.595 272.366C183.595 272.366 181.148 281.952 182.482 288.006C183.816 294.06 192.961 308.062 208.785 311.411C224.609 314.76 264.38 313.665 264.38 313.665C264.38 313.665 254.794 328.228 251.224 345.764C248.869 357.374 241.647 373.621 240.534 376.078C239.421 378.534 226.265 382.987 226.734 384.992C227.203 386.998 228.74 399.473 232.079 404.607C235.419 409.74 240.994 411.967 243.22 412.629C245.447 413.292 245.898 413.292 245.898 411.065C245.898 408.839 244.334 405.72 244.334 403.705C244.334 401.69 244.113 388.065 245.005 386.317C245.898 384.569 275.08 338.56 279.533 331.016C283.986 323.472 290.904 308.724 292.91 306.277C294.915 303.83 297.362 300.481 295.357 296.249C293.351 292.017 247.305 277.849 247.305 277.849L244.886 269.284L221.886 267.95L183.595 272.366Z" fill="white" stroke="#263238" stroke-linecap="round" stroke-linejoin="round"/>
<path d="M247.305 277.84L244.886 269.275L221.886 267.941L183.549 272.394C183.549 272.394 181.047 281.989 182.436 288.034C184.644 297.592 192.915 308.09 208.739 311.438C224.563 314.787 264.334 313.692 264.334 313.692C264.334 313.692 268.106 294.842 275.476 287.491C266.625 284.473 247.305 277.84 247.305 277.84Z" fill="#263238" stroke="#263238" stroke-linecap="round" stroke-linejoin="round"/>
<path d="M264.38 313.628C269.688 312.222 274.839 310.28 279.754 307.832Z" fill="white"/>
<path d="M264.38 313.628C269.688 312.222 274.839 310.28 279.754 307.832" stroke="#263238" stroke-linecap="round" stroke-linejoin="round"/>
<path d="M234.287 395.655C232.705 391.975 232.806 384.615 233.008 380.678C229.641 382.343 226.485 383.953 226.715 384.956C227.157 386.961 228.721 399.436 232.061 404.57C235.4 409.704 240.975 411.93 243.202 412.592C245.428 413.255 245.879 413.255 245.879 411.028C245.879 408.802 244.324 405.692 244.315 403.668C241.985 403.372 239.676 402.92 237.406 402.316C237.406 402.316 236.513 400.78 234.287 395.655Z" fill="#8ACFF5" stroke="#263238" stroke-linecap="round" stroke-linejoin="round"/>
<path d="M231.067 184.11L224.158 187.008C224.158 187.008 229.733 239.2 229.512 246.56C229.291 253.92 228.841 268.64 228.841 268.64C228.841 268.64 238.427 271.538 244.885 269.312L244.444 244.131C244.444 244.131 249.127 220.055 247.342 212.253C245.557 204.452 239.982 190.633 239.982 190.633C239.982 190.633 237.36 184.331 231.067 184.11Z" fill="white" stroke="#263238" stroke-linecap="round" stroke-linejoin="round"/>
<path d="M229.08 206.623L235.777 196.42L244.011 208.38C244.011 208.38 240.451 191.664 240 190.55C238.933 188.452 237.318 186.682 235.327 185.426C232.649 183.641 229.521 183.586 227.746 183.42C225.97 183.255 224.176 186.99 224.176 186.99L229.08 206.623Z" fill="white" stroke="#263238" stroke-linecap="round" stroke-linejoin="round"/>
<path d="M225.952 183.292C225.952 183.292 203.55 188.195 201.627 189.594C199.704 190.992 198.867 195.546 199.346 197.294C199.824 199.042 204.948 236.854 204.948 236.854L179.188 274.482C179.188 274.482 187.597 281.483 195.472 282.882C203.348 284.28 220.147 282.182 226.099 279.735L232.052 277.288C232.052 277.288 234.812 231.601 231.877 213.569C228.942 195.537 225.952 183.292 225.952 183.292Z" fill="#8ACFF5" stroke="#263238" stroke-linecap="round" stroke-linejoin="round"/>
<path d="M294.74 241.399L303.489 237.553C303.489 237.553 306.121 231.776 306.47 231.251C306.82 230.727 309.791 229.853 311.19 228.62C312.588 227.387 314.52 225.299 315.045 225.124C315.569 224.949 316.443 226.522 315.045 228.62C313.985 230.107 312.749 231.46 311.365 232.65L319.948 229.503C319.948 229.503 323.269 223.9 324.143 226.348C325.017 228.795 320.463 236.33 319.424 238.777C318.384 241.224 317.317 242.457 315.394 242.806C313.471 243.156 307.519 244.205 306.295 244.38C305.072 244.554 297.537 248.924 297.537 248.924L294.74 241.399Z" fill="white" stroke="#263238" stroke-linecap="round" stroke-linejoin="round"/>
<path d="M306.884 239.651C308.439 238.335 310.233 237.029 311.19 237.029C313.122 237.029 317.317 237.378 317.317 237.378C317.317 237.378 319.773 231.776 320.997 230.938C322.221 230.101 323.269 231.288 322.221 233.036" fill="white"/>
<path d="M306.884 239.651C308.439 238.335 310.233 237.029 311.19 237.029C313.122 237.029 317.317 237.378 317.317 237.378C317.317 237.378 319.773 231.776 320.997 230.938C322.221 230.101 323.269 231.288 322.221 233.036" stroke="#263238" stroke-linecap="round" stroke-linejoin="round"/>
<path d="M237.682 187.496C237.682 187.496 243.285 211.821 243.11 220.92C242.935 230.018 240.12 234.6 240.654 237.728C241.187 240.856 242.402 277.638 242.402 277.638L247.305 277.812C247.305 277.812 246.082 263.81 246.257 261.179C246.431 258.548 248.179 248.05 248.179 248.05C248.179 248.05 256.938 265.383 258.161 266.257C259.385 267.131 299.994 249.808 299.994 249.808L297.013 239.826L266.037 246.128C266.037 246.128 259.909 225.823 259.035 221.444C258.161 217.065 257.462 201.673 255.006 197.818C252.549 193.964 237.682 187.496 237.682 187.496Z" fill="#8ACFF5" stroke="#263238" stroke-linecap="round" stroke-linejoin="round"/>
<path d="M248.179 248.05C248.179 248.05 249.228 243.68 250.985 232.125C252.041 225.226 252.1 218.212 251.16 211.296" stroke="#263238" stroke-linecap="round" stroke-linejoin="round"/>
<path d="M246.265 201.121C247.103 207.423 247.728 215.206 246.606 219.521C245.325 224.419 243.686 229.216 241.702 233.873" stroke="#263238" stroke-linecap="round" stroke-linejoin="round"/>
<path d="M244.72 191.36C244.72 191.36 245.244 194 245.824 197.8" stroke="#263238" stroke-linecap="round" stroke-linejoin="round"/>
<path d="M227.976 225.4C230.248 231.03 232.254 236.523 232.254 236.523" stroke="#263238" stroke-linecap="round" stroke-linejoin="round"/>
<path d="M217.377 186.088C217.377 186.088 221.398 210.772 224.553 217.424C225.197 218.776 225.897 220.377 226.605 222.024" stroke="#263238" stroke-linecap="round" stroke-linejoin="round"/>
<path d="M267.085 236.155L273.911 234.223C273.911 234.223 278.291 228.62 279.339 227.222C280.388 225.823 282.835 225.823 284.593 224.774C286.35 223.726 288.613 219.871 289.487 220.57C290.361 221.269 289.487 224.425 288.567 225.299C287.395 226.247 286.166 227.123 284.887 227.921C284.188 228.445 293.112 226.348 293.112 226.348C293.112 226.348 298.889 221.269 299.239 222.668C299.589 224.066 296.608 228.97 296.608 228.97C296.608 228.97 292.413 232.99 290.306 234.738C288.199 236.486 283.13 237.194 281.731 237.498C280.333 237.802 277.886 238.197 277.886 238.197L267.379 242.043L267.085 236.155Z" fill="white" stroke="#263238" stroke-linecap="round" stroke-linejoin="round"/>
<path d="M295.265 230C295.265 230 291.585 231.748 289.662 232.622Z" fill="white"/>
<path d="M295.265 230C295.265 230 291.585 231.748 289.662 232.622" stroke="#263238" stroke-linecap="round" stroke-linejoin="round"/>
<path d="M284.942 227.921L281.787 228.62" stroke="#263238" stroke-linecap="round" stroke-linejoin="round"/>
<path d="M205.473 188.195C205.473 188.195 195.15 191.691 193.568 194.322C191.985 196.954 197.597 218.472 201.802 230.377C206.006 242.282 217.203 262.228 218.601 262.927C219.999 263.626 256.588 250.682 264.96 248.05C273.332 245.419 274.758 244.03 274.758 244.03L271.078 234.572L229.08 242.098L216.2 201.673" fill="#8ACFF5"/>
<path d="M205.473 188.195C205.473 188.195 195.15 191.691 193.568 194.322C191.985 196.954 197.597 218.472 201.802 230.377C206.006 242.282 217.203 262.228 218.601 262.927C219.999 263.626 256.588 250.682 264.96 248.05C273.332 245.419 274.758 244.03 274.758 244.03L271.078 234.572L229.08 242.098L216.2 201.673" stroke="#263238" stroke-linecap="round" stroke-linejoin="round"/>
<path d="M256.192 134.89C256.192 134.89 260.277 137.65 258.207 140.622C256.137 143.594 251.767 143.796 251.767 143.796L247.949 137.779C247.949 137.779 252.494 132.388 256.192 134.89Z" fill="#263238" stroke="#263238" stroke-linecap="round" stroke-linejoin="round"/>
<path d="M251.905 138.478C251.905 138.478 258.171 153.346 257.821 154.624C257.471 155.903 254.555 157.9 255.88 159.841C257.205 161.782 261.087 165.664 260.986 166.207C260.885 166.75 256.137 169.519 256.137 169.519C256.137 169.519 252.816 181.479 251.464 183.227C250.111 184.975 238.694 182.85 238.694 182.85L236.284 196.245L222.723 183.604L217.654 178.82C217.654 178.82 213.109 158.415 222.751 146.151C232.392 133.888 251.905 138.478 251.905 138.478Z" fill="white" stroke="#263238" stroke-linecap="round" stroke-linejoin="round"/>
<path d="M251.04 159.427C251.04 160.678 250.525 161.69 249.945 161.681C249.366 161.672 248.915 160.641 248.943 159.381C248.97 158.12 249.449 157.118 250.028 157.127C250.608 157.136 251.059 158.166 251.04 159.427Z" fill="#263238"/>
<path d="M251.068 172.509C249.984 172.458 248.922 172.187 247.946 171.712C246.971 171.238 246.101 170.57 245.392 169.749C245.392 169.749 245.051 175.131 246.726 175.444C248.4 175.757 251.068 172.509 251.068 172.509Z" fill="#263238" stroke="#263238" stroke-linecap="round" stroke-linejoin="round"/>
<path d="M247.544 154.44C247.544 154.44 251.031 151.487 254.15 154.946" stroke="#263238" stroke-linecap="round" stroke-linejoin="round"/>
<path d="M238.694 182.85L233.036 181.498L237.296 189.4L238.694 182.85Z" fill="#263238" stroke="#263238" stroke-linecap="round" stroke-linejoin="round"/>
<path d="M251.905 138.478C251.905 138.478 250.672 142.352 244.646 147.412C238.62 152.472 233.229 155.692 233.247 157.09C233.266 158.488 234.167 159.795 232.953 160.135C231.963 160.262 230.958 160.092 230.064 159.648C230.064 159.648 227.139 167.992 226.697 173.88C226.518 177.766 227.109 181.649 228.436 185.306C228.436 185.306 215.455 186.006 207.966 180.32C200.477 174.634 198.37 168.194 199.198 162.61C200.026 157.026 202.4 139.389 213.918 130.75C225.437 122.112 241.941 122.47 247.544 125.994C253.147 129.518 257.204 132.103 256.174 134.89C255.143 137.678 251.905 138.478 251.905 138.478Z" fill="#263238" stroke="#263238" stroke-linecap="round" stroke-linejoin="round"/>
<path d="M224.701 314.189C224.357 314.191 224.017 314.115 223.707 313.968C223.05 313.61 222.547 313.025 222.291 312.322C222.036 311.619 222.045 310.847 222.318 310.15C226.476 298.798 231.242 278.548 226.357 272.504C225.216 271.584 218.343 269.744 181.323 273.571L178.627 273.847C176.042 274.068 173.834 277.803 173.263 279.091C173.142 279.42 172.951 279.719 172.704 279.968C172.458 280.217 172.16 280.41 171.833 280.535C171.505 280.66 171.154 280.713 170.805 280.69C170.455 280.668 170.114 280.572 169.804 280.407C169.171 280.001 168.705 279.38 168.492 278.659C168.279 277.937 168.333 277.163 168.645 276.478C169.004 275.669 172.325 268.53 178.231 268.014L180.853 267.748C220.303 263.644 227.865 265.714 230.165 268.548C238.85 279.294 228.325 309.028 227.083 312.386C226.922 312.896 226.606 313.344 226.179 313.667C225.752 313.99 225.236 314.172 224.701 314.189Z" fill="white" stroke="#263238" stroke-linecap="round" stroke-linejoin="round"/>
<path d="M387.338 227.737H326.885L312.901 275.108H373.354L387.338 227.737Z" fill="#D9D9D9" stroke="#263238" stroke-linecap="round" stroke-linejoin="round"/>
<path d="M268.677 272.513L267.913 275.108H373.354L374.127 272.513H268.677Z" fill="#D9D9D9" stroke="#263238" stroke-linecap="round" stroke-linejoin="round"/>
<path d="M313.775 272.513L313.012 275.108H373.355L374.127 272.513H313.775Z" fill="#263238" stroke="#263238" stroke-linecap="round" stroke-linejoin="round"/>
<path d="M372.49 282.219H362.259V419.005H372.49V282.219Z" fill="white" stroke="#263238" stroke-linecap="round" stroke-linejoin="round"/>
<path d="M372.49 282.219H362.259V304.814H372.49V282.219Z" fill="#263238" stroke="#263238" stroke-linecap="round" stroke-linejoin="round"/>
<path d="M496.773 275.135H237.057V282.734H496.773V275.135Z" fill="white" stroke="#263238" stroke-linecap="round" stroke-linejoin="round"/>
<path d="M420.753 420.118H313.113C323.762 415.11 335.385 412.515 347.153 412.519H386.832C398.6 412.513 410.224 415.108 420.872 420.118H420.753Z" fill="white" stroke="#263238" stroke-linecap="round" stroke-linejoin="round"/>
<defs>
<clipPath id="clip0_1125_2301">
<rect width="25.76" height="38.64" fill="white" transform="translate(343.16 138.92)"/>
</clipPath>
</defs>
</svg>
