<svg width="7" height="6" viewBox="0 0 7 6" fill="none" xmlns="http://www.w3.org/2000/svg">
<g clip-path="url(#clip0_1189_8790)">
<path d="M3.80478 5.06041V5.655H3.27508V5.08742C2.82166 5.06094 2.46305 4.93143 2.15186 4.61149L2.60687 4.15065C2.83437 4.38107 3.14266 4.45787 3.47611 4.45787C3.8906 4.45787 4.11307 4.29923 4.11307 4.0071C4.11307 3.87918 4.07784 3.77165 4.00183 3.69987C3.93112 3.6334 3.85034 3.59738 3.68348 3.57195L3.2486 3.51051C2.94031 3.46442 2.71307 3.36722 2.55098 3.20831C2.37936 3.0343 2.29329 2.79885 2.29329 2.49136C2.29329 1.92061 2.65931 1.50003 3.27508 1.40548V0.887695H3.80478V1.39939C4.17081 1.43779 4.45764 1.56359 4.70925 1.81017L4.26456 2.25565C4.03706 2.03529 3.76426 2.00483 3.52643 2.00483C3.15246 2.00483 2.97051 2.21459 2.97051 2.46567C2.97051 2.55784 3.00096 2.6553 3.07671 2.72681C3.14743 2.79356 3.2637 2.8497 3.41042 2.8701L3.83471 2.93154C4.16339 2.97763 4.3705 3.06979 4.52226 3.21308C4.71454 3.39741 4.80036 3.66385 4.80036 3.98644C4.80036 4.58235 4.38534 4.95632 3.80478 5.06041Z" fill="#9FA7C4"/>
</g>
<defs>
<clipPath id="clip0_1189_8790">
<rect width="5.297" height="5.297" fill="white" transform="translate(0.891113 0.622803)"/>
</clipPath>
</defs>
</svg>
