<svg width="6" height="6" viewBox="0 0 6 6" fill="none" xmlns="http://www.w3.org/2000/svg">
<g clip-path="url(#clip0_1142_4210)">
<path d="M3.59531 4.85149V5.44608H3.06561V4.8785C2.61219 4.85202 2.25358 4.72251 1.94238 4.40257L2.39739 3.94173C2.6249 4.17215 2.93318 4.24896 3.26663 4.24896C3.68112 4.24896 3.90359 4.09031 3.90359 3.79818C3.90359 3.67026 3.86837 3.56273 3.79236 3.49096C3.72164 3.42448 3.64086 3.38846 3.47401 3.36304L3.03912 3.30159C2.73084 3.25551 2.5036 3.15831 2.34151 2.9994C2.16989 2.82539 2.08381 2.58994 2.08381 2.28245C2.08381 1.7117 2.44983 1.29112 3.06561 1.19657V0.678787H3.59531V1.19048C3.96133 1.22888 4.24816 1.35468 4.49977 1.60126L4.05509 2.04673C3.82758 1.82638 3.55479 1.79592 3.31695 1.79592C2.94298 1.79592 2.76103 2.00568 2.76103 2.25676C2.76103 2.34893 2.79149 2.44639 2.86724 2.5179C2.93795 2.58464 3.05422 2.64079 3.20095 2.66118L3.62524 2.72263C3.95391 2.76871 4.16103 2.86088 4.31278 3.00416C4.50507 3.1885 4.59088 3.45494 4.59088 3.77753C4.59088 4.37344 4.17586 4.7474 3.59531 4.85149Z" fill="#9FA7C4"/>
</g>
<defs>
<clipPath id="clip0_1142_4210">
<rect width="5.29699" height="5.29699" fill="white" transform="translate(0.681641 0.414337)"/>
</clipPath>
</defs>
</svg>
