<svg width="20" height="21" viewBox="0 0 20 21" fill="none" xmlns="http://www.w3.org/2000/svg">
<g filter="url(#filter0_d_1142_4264)">
<rect x="3.58008" y="3.0889" width="12.7128" height="12.7128" rx="2.11879" fill="white" shape-rendering="crispEdges"/>
<path d="M11.7243 8.83155C11.3248 8.83155 11.1615 8.54904 11.3601 8.20253C11.4749 8.00169 11.4065 7.74567 11.2056 7.6309L10.8238 7.4124C10.6495 7.30867 10.4243 7.37046 10.3206 7.54482L10.2963 7.58676C10.0977 7.93327 9.77104 7.93327 9.5702 7.58676L9.54592 7.54482C9.4466 7.37046 9.22148 7.30867 9.04712 7.4124L8.66529 7.6309C8.46445 7.74567 8.39603 8.00389 8.5108 8.20474C8.71164 8.54904 8.54832 8.83155 8.14884 8.83155C7.9193 8.83155 7.72949 9.01915 7.72949 9.25089V9.63934C7.72949 9.86888 7.91709 10.0587 8.14884 10.0587C8.54832 10.0587 8.71164 10.3412 8.5108 10.6877C8.39603 10.8885 8.46445 11.1446 8.66529 11.2593L9.04712 11.4778C9.22148 11.5816 9.4466 11.5198 9.55033 11.3454L9.57461 11.3035C9.77325 10.957 10.0999 10.957 10.3007 11.3035L10.325 11.3454C10.4287 11.5198 10.6539 11.5816 10.8282 11.4778L11.2101 11.2593C11.4109 11.1446 11.4793 10.8863 11.3645 10.6877C11.1637 10.3412 11.327 10.0587 11.7265 10.0587C11.956 10.0587 12.1459 9.87108 12.1459 9.63934V9.25089C12.1436 9.02136 11.956 8.83155 11.7243 8.83155ZM9.93657 10.1624C9.5415 10.1624 9.21927 9.84018 9.21927 9.44512C9.21927 9.05005 9.5415 8.72782 9.93657 8.72782C10.3316 8.72782 10.6539 9.05005 10.6539 9.44512C10.6539 9.84018 10.3316 10.1624 9.93657 10.1624Z" fill="#121139"/>
<rect x="3.64629" y="3.15511" width="12.5803" height="12.5803" rx="2.05258" stroke="#121139" stroke-width="0.132425" shape-rendering="crispEdges"/>
</g>
<defs>
<filter id="filter0_d_1142_4264" x="0.401886" y="0.970103" width="19.0693" height="19.0692" filterUnits="userSpaceOnUse" color-interpolation-filters="sRGB">
<feFlood flood-opacity="0" result="BackgroundImageFix"/>
<feColorMatrix in="SourceAlpha" type="matrix" values="0 0 0 0 0 0 0 0 0 0 0 0 0 0 0 0 0 0 127 0" result="hardAlpha"/>
<feOffset dy="1.0594"/>
<feGaussianBlur stdDeviation="1.5891"/>
<feComposite in2="hardAlpha" operator="out"/>
<feColorMatrix type="matrix" values="0 0 0 0 0 0 0 0 0 0 0 0 0 0 0 0 0 0 0.1 0"/>
<feBlend mode="normal" in2="BackgroundImageFix" result="effect1_dropShadow_1142_4264"/>
<feBlend mode="normal" in="SourceGraphic" in2="effect1_dropShadow_1142_4264" result="shape"/>
</filter>
</defs>
</svg>
