<svg width="20" height="20" viewBox="0 0 20 20" fill="none" xmlns="http://www.w3.org/2000/svg">
<g filter="url(#filter0_d_1189_8840)">
<rect x="3.65137" y="2.297" width="12.7128" height="12.7128" rx="2.1188" fill="white" shape-rendering="crispEdges"/>
<path d="M11.7739 7.4946C12.1091 7.4946 12.3809 7.22286 12.3809 6.88765C12.3809 6.55244 12.1091 6.2807 11.7739 6.2807C11.4387 6.2807 11.167 6.55244 11.167 6.88765C11.167 7.22286 11.4387 7.4946 11.7739 7.4946Z" fill="#34C759"/>
<path d="M11.5336 7.93307L11.534 7.93316C11.6861 7.96557 11.8336 7.96559 11.9734 7.94063L11.9734 7.94064L11.9753 7.94028C12.0339 7.92892 12.0825 7.97213 12.0825 8.02435V9.08596C12.0825 9.62198 11.6496 10.0549 11.1136 10.0549H10.7803C10.667 10.0549 10.5645 10.1084 10.4983 10.1954L10.498 10.1959L10.167 10.6351L10.1668 10.6353C10.1153 10.704 10.0564 10.728 10.0079 10.728C9.9593 10.728 9.90045 10.704 9.84895 10.6353L9.84876 10.6351L9.51826 10.1966C9.4847 10.1509 9.43735 10.117 9.39282 10.0948C9.34771 10.0722 9.29203 10.0549 9.23539 10.0549H8.90432C8.3683 10.0549 7.93321 9.61977 7.93321 9.08375V7.54983C7.93321 7.01381 8.3683 6.57871 8.90432 6.57871H10.6369C10.6926 6.57871 10.7331 6.62796 10.7214 6.68396L10.721 6.68561C10.693 6.82833 10.696 6.97668 10.7281 7.12719L10.7282 7.12761C10.8142 7.52488 11.1364 7.84704 11.5336 7.93307ZM8.7719 8.43266C8.7719 8.62632 8.92744 8.7858 9.12503 8.7858C9.32263 8.7858 9.47816 8.62632 9.47816 8.43266C9.47816 8.23814 9.31956 8.07953 9.12503 8.07953C8.92744 8.07953 8.7719 8.239 8.7719 8.43266ZM9.65473 8.43266C9.65473 8.62632 9.81027 8.7858 10.0079 8.7858C10.2055 8.7858 10.361 8.62632 10.361 8.43266C10.361 8.23814 10.2024 8.07953 10.0079 8.07953C9.81027 8.07953 9.65473 8.239 9.65473 8.43266ZM10.5376 8.43266C10.5376 8.62632 10.6931 8.7858 10.8907 8.7858C11.0883 8.7858 11.2438 8.62632 11.2438 8.43266C11.2438 8.23814 11.0852 8.07953 10.8907 8.07953C10.6931 8.07953 10.5376 8.239 10.5376 8.43266Z" stroke="#121139" stroke-width="0.26485"/>
<rect x="3.71758" y="2.36321" width="12.5804" height="12.5804" rx="2.05259" stroke="#121139" stroke-width="0.132425" shape-rendering="crispEdges"/>
</g>
<defs>
<filter id="filter0_d_1189_8840" x="0.473167" y="0.178197" width="19.0693" height="19.0692" filterUnits="userSpaceOnUse" color-interpolation-filters="sRGB">
<feFlood flood-opacity="0" result="BackgroundImageFix"/>
<feColorMatrix in="SourceAlpha" type="matrix" values="0 0 0 0 0 0 0 0 0 0 0 0 0 0 0 0 0 0 127 0" result="hardAlpha"/>
<feOffset dy="1.0594"/>
<feGaussianBlur stdDeviation="1.5891"/>
<feComposite in2="hardAlpha" operator="out"/>
<feColorMatrix type="matrix" values="0 0 0 0 0 0 0 0 0 0 0 0 0 0 0 0 0 0 0.1 0"/>
<feBlend mode="normal" in2="BackgroundImageFix" result="effect1_dropShadow_1189_8840"/>
<feBlend mode="normal" in="SourceGraphic" in2="effect1_dropShadow_1189_8840" result="shape"/>
</filter>
</defs>
</svg>
