<svg width="20" height="21" viewBox="0 0 20 21" fill="none" xmlns="http://www.w3.org/2000/svg">
<g filter="url(#filter0_d_1142_4257)">
<rect x="3.51074" y="3.0889" width="12.7128" height="12.7128" rx="2.11879" fill="white" shape-rendering="crispEdges"/>
<path d="M11.3736 10.0629L11.3739 10.0635C11.4389 10.1701 11.4502 10.2952 11.4072 10.4091C11.3635 10.5251 11.274 10.6122 11.1588 10.6501L11.1588 10.6501L11.158 10.6503C10.7439 10.789 10.3079 10.8575 9.87145 10.8575C9.43498 10.8575 8.9992 10.789 8.58544 10.6483L8.58517 10.6482C8.45441 10.604 8.36275 10.5156 8.32536 10.4112L8.32536 10.4112L8.32498 10.4101C8.28515 10.3018 8.29717 10.1802 8.36718 10.0627C8.36724 10.0626 8.3673 10.0625 8.36736 10.0624L8.58989 9.6945L8.5899 9.69451L8.59096 9.6927C8.62226 9.63904 8.64803 9.5683 8.66588 9.50264C8.68371 9.43707 8.69728 9.36318 8.69728 9.30153V8.74314C8.69728 8.28382 8.96454 7.88478 9.35217 7.69196L9.38881 7.67373L9.40877 7.63802C9.50047 7.47403 9.67289 7.37034 9.86482 7.37034C10.0601 7.37034 10.2278 7.47065 10.319 7.63193L10.3395 7.66828L10.3772 7.68628C10.7723 7.87491 11.0456 8.27767 11.0456 8.74314V9.30153C11.0456 9.36318 11.0592 9.43705 11.077 9.50276C11.0948 9.56879 11.1205 9.63946 11.1512 9.69355L11.1511 9.69357L11.1529 9.69651L11.3736 10.0629Z" stroke="#121139" stroke-width="0.264849"/>
<path d="M9.48039 11.35L9.48961 11.2394C9.61542 11.2504 9.74343 11.257 9.87144 11.257C9.99724 11.257 10.123 11.2504 10.2466 11.2394C10.2617 11.238 10.2767 11.2368 10.2917 11.2356C10.3077 11.2343 10.3235 11.233 10.3392 11.2315C10.3171 11.2742 10.2894 11.3136 10.257 11.3485C10.2568 11.3487 10.2566 11.349 10.2564 11.3492C10.2487 11.3575 10.2406 11.3657 10.2324 11.3735L9.48039 11.35Z" stroke="#121139" stroke-width="0.264849"/>
<rect x="3.57695" y="3.15511" width="12.5803" height="12.5803" rx="2.05258" stroke="#121139" stroke-width="0.132425" shape-rendering="crispEdges"/>
</g>
<defs>
<filter id="filter0_d_1142_4257" x="0.33255" y="0.970103" width="19.0693" height="19.0692" filterUnits="userSpaceOnUse" color-interpolation-filters="sRGB">
<feFlood flood-opacity="0" result="BackgroundImageFix"/>
<feColorMatrix in="SourceAlpha" type="matrix" values="0 0 0 0 0 0 0 0 0 0 0 0 0 0 0 0 0 0 127 0" result="hardAlpha"/>
<feOffset dy="1.0594"/>
<feGaussianBlur stdDeviation="1.5891"/>
<feComposite in2="hardAlpha" operator="out"/>
<feColorMatrix type="matrix" values="0 0 0 0 0 0 0 0 0 0 0 0 0 0 0 0 0 0 0.1 0"/>
<feBlend mode="normal" in2="BackgroundImageFix" result="effect1_dropShadow_1142_4257"/>
<feBlend mode="normal" in="SourceGraphic" in2="effect1_dropShadow_1142_4257" result="shape"/>
</filter>
</defs>
</svg>
