<svg width="151" height="150" viewBox="0 0 151 150" fill="none" xmlns="http://www.w3.org/2000/svg">
<g clip-path="url(#clip0_1125_2756)">
<path d="M129.636 107.09C129.636 112.813 129.62 118.542 129.586 124.276C129.586 124.914 129.835 125.046 130.415 125.038C132.826 125.038 135.246 125.038 137.665 125.038C138.602 125.038 138.701 125.378 138.552 126.148C137.997 129.173 136.762 130.225 133.58 130.234C115.997 130.283 98.4138 130.325 80.8306 130.358C75.4059 130.358 69.9757 130.358 64.54 130.358C63.2704 130.435 62.0154 130.053 61.0039 129.282C59.9923 128.511 59.2917 127.401 59.0297 126.157C58.783 125.265 58.6466 124.347 58.6237 123.422C58.5564 123.234 58.5337 123.033 58.5574 122.834C58.2342 110.952 58.3585 99.0776 58.342 87.2035C58.342 85.6789 58.342 84.1542 58.342 82.6296C58.3641 81.2215 57.8313 79.8613 56.8587 78.8428C56.5678 78.5114 56.2078 78.2478 55.8041 78.0706C55.4003 77.8934 54.9626 77.8069 54.5218 77.8172C54.0809 77.8275 53.6477 77.9343 53.2526 78.1301C52.8575 78.3259 52.5102 78.6059 52.2351 78.9505C51.3637 80.0127 50.9283 81.3663 51.017 82.7373V96.7492C51.017 101.149 51.017 105.557 51.017 109.957C51.017 112.551 50.7933 115.004 48.5311 116.785C48.6603 116.689 48.8075 116.619 48.9641 116.581C49.1207 116.542 49.2835 116.536 49.4426 116.561C51.9285 116.561 54.4806 116.561 56.9913 116.561C57.1727 116.535 57.3575 116.548 57.5334 116.599C57.7093 116.651 57.872 116.74 58.0105 116.86C57.7619 117.357 57.2979 117.257 56.8836 117.257C53.5691 117.257 50.205 117.191 46.8656 117.257C43.0871 117.373 41.0653 114.879 40.7339 111.523C40.6096 110.247 40.6013 108.955 40.535 107.67C40.2414 107.223 40.1234 106.683 40.2036 106.154C40.1538 105.135 40.071 105.052 39.0352 105.019C38.7038 105.019 38.3723 105.019 38.0409 105.019C28.9095 105.019 19.7809 105.019 10.6551 105.019C9.5621 104.998 8.47155 104.907 7.39037 104.745C7.19209 104.744 6.99607 104.703 6.8139 104.625C6.63172 104.547 6.46709 104.433 6.32974 104.29C3.08985 103.693 1.6812 100.801 1.35804 98.3484C1.28347 97.8512 1.19232 97.2629 1.79721 96.9398C2.33817 96.6186 2.97196 96.4901 3.59531 96.5752H12.9255C14.1684 96.2686 14.2016 95.3488 14.2016 94.2882C14.2016 71.9211 14.2016 49.5485 14.2016 27.1703C14.1653 26.5079 14.2043 25.8435 14.3176 25.1899C14.3646 24.7582 14.5445 24.3517 14.8324 24.0266C15.1204 23.7016 15.5022 23.474 15.9251 23.3752C16.8835 23.1144 17.8736 22.9888 18.8667 23.0024H133.489C133.952 22.9909 134.415 23.0214 134.873 23.0935C135.215 23.1173 135.548 23.2095 135.853 23.3647C136.158 23.52 136.429 23.7351 136.649 23.9972C136.87 24.2593 137.035 24.563 137.136 24.8904C137.236 25.2177 137.27 25.5619 137.234 25.9025C137.234 28.8192 137.234 31.7028 137.234 34.6527C137.234 54.7991 137.234 74.9455 137.234 95.092C137.234 96.8238 137.027 96.5586 138.709 96.5669C142.09 96.5669 145.471 96.5669 148.852 96.5669C149.962 96.5669 150.235 96.7989 150.153 97.9092C150.093 99.0913 149.728 100.238 149.093 101.237C148.459 102.236 147.576 103.053 146.532 103.61C146.217 103.792 145.885 103.942 145.562 104.107C144.568 105.01 143.3 104.936 142.098 104.986C138.734 105.035 135.362 104.986 131.998 104.986C131.699 104.986 131.401 104.986 131.103 104.986C130.349 104.936 129.893 105.193 129.943 106.038C129.971 106.225 129.958 106.416 129.905 106.598C129.852 106.779 129.76 106.947 129.636 107.09Z" fill="#6877A7"/>
<path d="M58.0438 116.835H48.2661C48.2661 116.669 48.2661 116.545 48.3407 116.503C49.1218 115.909 49.7428 115.13 50.1479 114.236C50.5529 113.342 50.7292 112.362 50.6608 111.383C50.6608 101.737 50.6608 92.1007 50.6608 82.4556C50.6117 81.2839 50.9273 80.1259 51.564 79.1411C51.8674 78.6126 52.3049 78.1736 52.8323 77.8682C53.3597 77.5629 53.9583 77.4021 54.5677 77.4021C55.1771 77.4021 55.7758 77.5629 56.3031 77.8682C56.8305 78.1736 57.268 78.6126 57.5715 79.1411C58.3548 80.4206 58.7225 81.9115 58.6238 83.4085C58.5907 93.8049 58.5741 104.207 58.5741 114.614C58.5741 117.531 58.5741 120.414 58.5741 123.364C58.2095 122.37 58.4498 121.343 58.4001 120.34C58.3504 119.337 58.4001 118.492 58.4001 117.564C58.4332 117.282 58.541 116.901 58.0438 116.835Z" fill="#E2E2E2"/>
<path d="M15.9088 23.3835C15.4389 23.6845 15.0606 24.1087 14.8152 24.6098C14.5697 25.111 14.4665 25.6699 14.5167 26.2256C14.5167 42.9968 14.5167 59.7652 14.5167 76.5309C14.5167 82.6903 14.5167 88.8524 14.5167 95.0173C14.5167 96.6083 14.5167 96.6083 12.9175 96.5254C12.9175 73.07 12.9175 49.6147 12.9175 26.1593C12.9175 24.1126 13.9615 23.1432 15.9088 23.3835Z" fill="#E2E2E3"/>
<path d="M6.36304 104.306C12.2296 105.043 18.1211 104.555 23.996 104.646C29.2246 104.729 34.4531 104.646 39.6734 104.646C40.4274 104.646 40.676 104.869 40.6097 105.599C40.5434 106.328 40.6097 106.991 40.5683 107.687C36.0109 107.687 31.4535 107.496 26.9044 107.43C24.7335 107.43 22.5459 107.43 20.3749 107.272C17.2179 107.057 14.0526 107.098 10.9039 106.858C8.40297 106.783 5.91073 106.528 3.44631 106.096C3.31586 106.094 3.18684 106.068 3.06515 106.021C2.84142 105.88 2.38568 106.021 2.4354 105.549C2.4354 105.242 2.78342 105.184 3.03201 105.126C4.00544 104.815 5.00749 104.601 6.02331 104.488C6.13932 104.48 6.24704 104.364 6.36304 104.306Z" fill="#E2E2E2"/>
<path d="M129.636 107.09C129.503 104.662 129.503 104.662 131.915 104.662C134.997 104.662 138.071 104.662 141.154 104.662C142.64 104.722 144.127 104.537 145.554 104.116C146.233 104.588 147.103 104.331 147.799 104.737C147.981 104.845 148.296 104.878 148.23 105.185C148.164 105.491 147.965 105.45 147.774 105.516C146.802 105.818 145.798 106.009 144.783 106.088C140.358 106.485 135.942 106.85 131.525 106.916C130.879 106.933 130.266 107.132 129.636 107.09Z" fill="#E3E2E2"/>
<path d="M1.77246 96.9563C1.209 98.6136 2.21991 101.431 3.88543 102.873C4.65022 103.453 5.48548 103.935 6.37128 104.306C3.28883 104.53 -0.149929 100.901 0.189804 97.6026C0.231235 97.1635 0.338955 96.9232 0.819552 96.948C1.14271 96.9646 1.46587 96.9563 1.77246 96.9563Z" fill="#E2E2E2"/>
<path d="M40.5685 42.2677C40.7149 43.6192 40.7288 44.9819 40.61 46.3362C40.61 61.544 40.61 76.7546 40.61 91.968C40.61 92.9209 40.4442 93.2607 39.3836 93.2441C33.5833 93.1778 27.8576 93.1944 22.0904 93.2441C21.1872 93.2441 21.0132 92.979 21.0132 92.1255C21.0132 71.5758 21.0132 51.0289 21.0132 30.4847C21.0132 29.2335 21.0132 29.2335 22.3224 29.2335H98.3065C104.969 29.2335 111.631 29.2335 118.293 29.2335C122.229 29.2335 126.173 29.2915 130.117 29.2832C130.672 29.2832 130.797 29.4655 130.797 29.9627C130.797 31.6199 130.797 33.3435 130.797 35.0338V91.5952C130.797 91.8935 130.797 92.1918 130.797 92.4901C130.797 92.921 130.697 93.2607 130.125 93.2441C129.554 93.2275 129.62 92.8381 129.62 92.4818C129.62 89.5651 129.62 86.6815 129.62 83.7316C129.655 82.5731 129.527 81.4155 129.239 80.2928C129.051 79.3716 128.552 78.5434 127.824 77.9485C127.096 77.3535 126.185 77.0284 125.245 77.0281C121.044 76.8209 116.834 77.0281 112.625 76.9452C112.23 76.9951 111.829 76.9612 111.448 76.8458C111.448 68.7668 111.448 60.6795 111.448 52.6005C111.444 52.3387 111.505 52.08 111.625 51.8473C111.745 51.6145 111.921 51.415 112.136 51.2664C113.667 49.9836 114.813 48.3034 115.451 46.4107C115.987 44.8048 116.135 43.0945 115.881 41.4204C115.628 39.7464 114.98 38.1564 113.993 36.7812C113.005 35.406 111.705 34.2849 110.2 33.5101C108.694 32.7353 107.026 32.3288 105.333 32.3243C103.769 32.2887 102.218 32.6175 100.803 33.2849C99.3877 33.9522 98.1472 34.9396 97.1796 36.169C96.8657 36.5881 96.4516 36.9215 95.9752 37.1387C95.4989 37.3558 94.9756 37.4498 94.4534 37.412C76.4006 37.412 58.3479 37.412 40.2951 37.412C39.6685 37.4008 39.0444 37.3314 38.4307 37.2048C36.2266 36.9894 34.2876 37.4617 32.879 39.3178C32.3193 40.0288 32.0001 40.8993 31.9675 41.8036C31.9675 42.1102 31.9675 42.4499 32.3818 42.4334C34.8179 42.3588 37.2706 42.6654 39.6985 42.2677C39.8231 42.1716 39.9761 42.1195 40.1335 42.1195C40.2909 42.1195 40.4439 42.1716 40.5685 42.2677Z" fill="#F8F8F8"/>
<path d="M58.4578 77.4755C58.723 77.4755 58.9881 77.4755 59.2864 77.4755H124.225C126.794 77.4755 128.434 79.0333 128.691 81.6185C128.801 81.9665 128.83 82.3351 128.774 82.6957C128.774 88.1315 128.774 93.5672 128.774 99.0029V122.792C128.774 124.234 128.724 124.309 127.283 124.309C119.925 124.309 112.566 124.483 105.217 124.267C97.2039 124.035 89.1829 124.218 81.1868 124.127C79.6953 124.127 78.212 124.085 76.7205 124.085C75.6928 124.138 74.6626 124.116 73.6381 124.019C72.8095 123.621 72.0471 124.201 71.2434 124.093C70.4522 124.164 69.6564 124.164 68.8652 124.093C67.7383 124.011 67.5477 124.185 67.2909 125.253C67.1997 125.61 67.1086 125.966 66.9926 126.306C66.8878 126.78 66.643 127.212 66.29 127.546C65.9369 127.88 65.4918 128.1 65.0122 128.178C64.4706 128.277 63.912 128.219 63.4025 128.01C62.893 127.802 62.4538 127.452 62.1369 127.002C61.1976 125.661 60.7259 124.047 60.7945 122.411C60.7945 116.412 60.7945 110.416 60.7945 104.422C60.7945 97.4368 60.7945 90.4433 60.7945 83.4581C60.8419 82.5335 60.6969 81.6091 60.3689 80.7434C60.0409 79.8777 59.5369 79.0894 58.8887 78.4284C58.7368 78.3239 58.6164 78.1799 58.5405 78.012C58.4645 77.844 58.436 77.6585 58.4578 77.4755Z" fill="#FEFEFE"/>
<rect width="9.68285" height="12.3489" transform="translate(106.06 105) rotate(9.59982)" fill="white"/>
<path d="M110.538 116.481L106.982 112.453L106.964 111.623C108.549 111.659 109.769 111.438 109.988 109.941L106.621 110.075L107.125 109.145L109.811 109.061C109.364 108.236 108.234 108.183 106.483 108.324L107.046 107.41L112.746 107.143L112.222 108.044L110.646 108.116C110.948 108.404 111.174 108.742 111.195 109.037L112.828 108.943L112.303 109.836L111.214 109.905C111.103 111.206 109.941 112.026 108.436 112.27L112.02 116.412L110.538 116.48L110.538 116.481Z" fill="#8ACFF5"/>
<rect width="9.68285" height="12.3489" transform="translate(116.06 105) rotate(9.59982)" fill="white"/>
<path d="M120.538 116.481L116.982 112.453L116.964 111.623C118.549 111.659 119.769 111.438 119.988 109.941L116.621 110.075L117.125 109.145L119.811 109.061C119.364 108.236 118.234 108.183 116.483 108.324L117.046 107.41L122.746 107.143L122.222 108.044L120.646 108.116C120.948 108.404 121.174 108.742 121.195 109.037L122.828 108.943L122.303 109.836L121.214 109.905C121.103 111.206 119.941 112.026 118.436 112.27L122.02 116.412L120.538 116.48L120.538 116.481Z" fill="#8ACFF5"/>
<path d="M110.594 76.821C110.15 76.9601 109.68 76.9969 109.219 76.9287H55.6324C52.5499 76.9287 50.4535 78.5445 49.9646 81.279C49.9056 81.7044 49.8834 82.1341 49.8983 82.5633V110.794C49.9512 111.557 49.8699 112.322 49.658 113.056C49.4229 113.376 49.1712 113.683 48.904 113.976C47.1556 115.716 44.8603 115.435 43.6174 113.23C43.0564 112.217 42.7707 111.074 42.7888 109.916C42.7888 103.519 42.7888 97.1221 42.7888 90.7335C42.7888 75.5367 42.7888 60.3454 42.7888 45.1596C42.7835 44.0332 42.6949 42.9087 42.5236 41.7954C42.3074 40.4355 41.5815 39.209 40.4935 38.365C40.3195 38.2241 40.0627 38.0418 40.1207 37.8181C40.1787 37.5943 40.5101 37.5032 40.7836 37.4783C41.057 37.4535 41.4464 37.4783 41.7696 37.4783H93.8481C95.9197 37.4783 95.9197 37.4783 95.2651 39.4421C94.696 41.0332 94.5122 42.7366 94.7289 44.4124C94.9455 46.0883 95.5564 47.6889 96.5114 49.0829C97.4663 50.477 98.7382 51.6248 100.223 52.4321C101.707 53.2395 103.362 53.6834 105.051 53.7275C106.546 53.7626 108.032 53.4802 109.41 52.8989C110.528 52.4514 110.594 52.5094 110.594 53.6529V76.0256C110.628 76.2897 110.628 76.5569 110.594 76.821Z" fill="#FEFEFE"/>
<path d="M75.652 23.6072H133.208C133.766 23.5951 134.323 23.6563 134.865 23.7895C135.293 23.8726 135.679 24.1026 135.956 24.44C136.233 24.7774 136.383 25.2009 136.381 25.6373C136.423 26.466 136.381 27.2283 136.381 28.0238C136.381 50.3577 136.381 72.6889 136.381 95.0174C136.381 96.5586 136.381 96.5586 134.89 96.5503C133.398 96.542 132.097 96.484 130.747 96.5503C129.736 96.6166 129.437 96.2437 129.595 95.3239C129.603 95.2607 129.603 95.1966 129.595 95.1334C129.471 94.1887 129.595 93.4761 130.83 93.6998C131.352 93.7744 131.658 93.4678 131.592 92.8712C131.592 92.6806 131.592 92.4735 131.592 92.2829V31.7111C131.592 30.9488 131.592 30.1864 131.592 29.4241C131.592 28.9187 131.393 28.7198 130.879 28.7529C130.366 28.7861 129.686 28.7529 129.089 28.7529H31.5034C28.1889 28.7529 24.8164 28.7529 21.4688 28.7529C20.4248 28.7529 20.2176 29.0927 20.2176 30.0621C20.2508 50.0428 20.2508 70.0235 20.2176 90.0042C20.2176 90.8328 20.143 91.7195 20.1099 92.5812C20.0768 93.443 20.3005 93.791 21.2865 93.7827C27.3769 93.7247 33.4755 93.7827 39.5741 93.733C40.4027 93.733 40.643 93.965 40.6181 94.7853C40.5601 96.5669 40.6182 96.5669 38.8366 96.5669C31.3791 96.5669 23.8635 96.5669 16.3728 96.5669C15.5442 96.5669 15.3039 96.3928 15.3122 95.5394C15.3122 72.4486 15.3122 49.3551 15.3122 26.2588C15.3122 24.353 16.058 23.6404 17.9804 23.6404H75.6272L75.652 23.6072Z" fill="#FEFEFE"/>
<path d="M110.595 76.821C110.595 69.1757 110.595 61.5248 110.595 53.8684V52.7415C105.772 54.8461 101.356 54.4484 97.627 50.7113C93.8982 46.9743 93.6082 42.5163 95.6383 37.7104H54.3069C54.2241 37.5612 54.2655 37.4701 54.4312 37.4369C68.1034 37.4369 81.7756 37.4369 95.2489 37.4369C94.7796 37.4118 94.3094 37.4118 93.8402 37.4369C81.0547 37.4369 68.2774 37.3623 55.5002 37.4369C50.2716 37.4369 45.043 37.3623 39.8227 37.5695C39.4556 37.5915 39.0908 37.4989 38.7787 37.3043L38.4307 37.18C38.8615 37.18 39.2593 37.122 39.715 37.122C58.0937 37.122 76.4724 37.122 94.8511 37.122C95.2003 37.1501 95.5509 37.0887 95.8699 36.9437C96.1888 36.7987 96.4656 36.575 96.6741 36.2934C99.5245 32.7635 103.253 31.3217 107.686 32.2746C109.722 32.7295 111.586 33.7555 113.06 35.2323C114.534 36.709 115.556 38.5753 116.006 40.6123C116.457 42.6492 116.317 44.7724 115.604 46.7329C114.89 48.6933 113.633 50.4097 111.979 51.6808C111.792 51.8392 111.649 52.0427 111.564 52.2718C111.478 52.501 111.453 52.7482 111.49 52.99V75.6444C111.49 76.0338 111.49 76.473 111.44 76.8293C111.315 76.4876 111.283 76.1185 111.349 75.7604C111.349 68.3415 111.349 60.9282 111.349 53.5204V52.3354C110.52 52.4432 110.711 52.9983 110.711 53.4209C110.711 59.1494 110.711 64.8752 110.711 70.5981C110.711 72.3548 110.711 74.1032 110.711 75.8598C110.711 76.183 110.81 76.5227 110.595 76.821Z" fill="#8ACFF5"/>
<path d="M67.5479 128.361C67.902 127.798 68.1806 127.19 68.3765 126.554C68.5422 125.51 69.1056 125.411 70.0337 125.411C92.0252 125.411 114.017 125.411 136.008 125.411C138.171 125.411 138.179 125.411 137.4 127.549C137.168 127.914 136.841 128.21 136.455 128.405C136.068 128.6 135.636 128.688 135.204 128.659H69.4951C68.8074 128.684 68.1196 128.858 67.5479 128.361Z" fill="#F8F8F8"/>
<path d="M3.18091 97.1799H10.7296C20.3333 97.1799 29.9369 97.1799 39.5406 97.1799C40.4355 97.1799 40.6841 97.4202 40.6261 98.282C40.5515 99.6409 40.6261 101 40.5681 102.359C40.2139 102.608 39.7791 102.714 39.35 102.657C35.903 102.657 32.4587 102.657 29.0172 102.657C28.6193 102.684 28.2209 102.613 27.8571 102.45C27.7079 102.375 27.5588 102.234 27.4014 102.326C26.3407 102.931 25.189 102.641 24.0869 102.649C19.2892 102.649 14.4832 102.649 9.68554 102.649C8.62096 102.689 7.56034 102.497 6.57732 102.087C5.59431 101.676 4.71244 101.056 3.99295 100.271C3.23063 99.3923 2.65888 98.4146 3.18091 97.1799Z" fill="#FEFEFE"/>
<path d="M54.3069 37.5693C54.3028 37.6078 54.3028 37.6467 54.3069 37.6853H40.1375C41.0385 38.2114 41.7758 38.9773 42.2671 39.8977C42.9255 41.2334 43.2117 42.7219 43.0957 44.2065C43.0957 56.4617 43.0957 68.7087 43.0957 80.9639C43.0957 90.7747 43.0957 100.591 43.0957 110.413C43.0721 111.092 43.1929 111.767 43.45 112.396C43.7071 113.025 44.0947 113.591 44.5872 114.059C44.8322 114.306 45.1239 114.503 45.4453 114.637C45.7668 114.771 46.1116 114.84 46.4599 114.84C46.8082 114.84 47.153 114.771 47.4744 114.637C47.7959 114.503 48.0875 114.306 48.3326 114.059C48.7469 113.694 49.0037 113.131 49.6252 113.04C49.5147 113.957 49.1372 114.821 48.5397 115.525C47.1559 117.183 44.7612 117.067 43.0957 115.227C41.6622 113.645 41.3639 111.681 41.3556 109.684C41.3556 104.753 41.4136 99.8232 41.4136 94.8847C41.4136 90.2941 41.3639 85.6953 41.3639 81.1048C41.3639 68.3993 41.3639 55.7187 41.3639 43.063C41.3639 40.9169 40.8502 39.0774 39.0272 37.7681C38.9692 37.7681 38.9692 37.5859 38.9443 37.4947C39.1349 37.3041 39.3835 37.3704 39.6072 37.3704H53.5777C53.8263 37.4118 54.1163 37.2876 54.3069 37.5693Z" fill="#EEEEEE"/>
<path d="M67.5481 128.361C90.1306 128.361 112.708 128.361 135.279 128.361C136.108 128.361 136.671 127.814 137.359 127.532C136.754 129.33 135.909 129.952 133.614 129.827C130.929 129.687 128.261 129.877 125.576 129.877C105.916 129.877 86.25 129.877 66.5786 129.877H65.75C66.4072 129.445 67.0108 128.936 67.5481 128.361Z" fill="#E3E3E3"/>
<path d="M73.3648 123.795H76.5467C76.903 124.094 77.3753 123.911 77.7647 124.085C77.9387 124.16 78.1459 124.259 78.121 124.491C78.0962 124.723 77.8724 124.765 77.6736 124.773C77.1564 124.749 76.6392 124.822 76.1489 124.988C73.7625 124.988 71.3844 125.03 68.998 124.988C68.2605 124.988 67.8379 125.162 67.7385 125.999C67.6328 126.619 67.4227 127.215 67.117 127.764C65.9652 130.126 63.6368 130.582 61.615 128.866C59.9578 127.425 59.6429 125.419 59.4854 123.389C59.3943 122.304 59.444 121.202 59.444 120.116C59.444 107.792 59.444 95.4759 59.444 83.1682C59.5237 82.1036 59.3479 81.0354 58.9314 80.0524C58.5149 79.0695 57.8696 78.2002 57.0493 77.517C57.5058 77.3938 57.9836 77.3712 58.4497 77.4507C59.5352 78.6439 60.6538 79.8123 60.9355 81.5275C61.004 81.9829 61.04 82.4425 61.0432 82.903C61.0432 96.078 61.0432 109.256 61.0432 122.436C60.9898 123.923 61.3822 125.392 62.1702 126.654C62.4326 127.098 62.818 127.456 63.2797 127.685C63.7415 127.915 64.2598 128.006 64.772 127.947C65.2029 127.921 65.6137 127.756 65.9426 127.477C66.2714 127.197 66.5004 126.818 66.595 126.397C66.8079 125.881 66.9419 125.337 66.9927 124.781C66.9927 123.994 67.4319 123.754 68.1445 123.762C69.2217 123.762 70.2989 123.762 71.3761 123.762C71.8401 123.978 72.2959 124.21 72.7599 123.762C72.8014 123.724 72.8502 123.694 72.9033 123.675C72.9565 123.656 73.0129 123.648 73.0693 123.651C73.1257 123.654 73.1809 123.668 73.2316 123.693C73.2824 123.718 73.3277 123.753 73.3648 123.795Z" fill="#EDEDED"/>
<path d="M129.628 102.318C129.628 100.967 129.628 99.608 129.587 98.2574C129.537 97.4287 129.761 97.1387 130.664 97.147C135.917 97.1967 141.179 97.147 146.407 97.147H148.487C149.084 98.0585 148.678 98.8705 148.181 99.6329C147.588 100.54 146.776 101.284 145.821 101.795C144.865 102.306 143.796 102.569 142.712 102.558C138.652 102.715 134.583 102.608 130.523 102.608C130.199 102.622 129.882 102.519 129.628 102.318Z" fill="#FEFEFD"/>
<path d="M3.18104 97.1801C2.99046 99.5831 5.03714 101.207 7.01753 101.887C8.02327 102.211 9.07676 102.362 10.1331 102.334C15.4943 102.334 20.8554 102.334 26.2166 102.334C26.6309 102.334 27.0949 102.475 27.3932 102.019C27.4843 101.887 27.6169 101.829 27.7081 101.961C28.1472 102.608 28.8018 102.318 29.3653 102.318C33.1106 102.318 36.8228 102.318 40.5848 102.318C40.7173 104.116 40.7173 104.116 38.9192 104.116H9.30451C7.82739 104.144 6.38488 103.667 5.21666 102.763C4.04844 101.858 3.22485 100.581 2.88274 99.1439C2.78113 98.5977 2.74773 98.0411 2.7833 97.4867C2.77502 97.1884 2.9656 97.1552 3.18104 97.1801Z" fill="#EEEEEE"/>
<path d="M76.1489 124.989C76.6783 124.644 77.3111 124.495 77.9387 124.566C77.657 123.92 76.7538 124.475 76.5467 123.795C85.3217 123.795 94.105 123.621 102.88 123.845C111.092 124.052 119.295 123.845 127.498 124.011C128.426 124.011 128.658 123.754 128.65 122.851C128.65 116.023 128.65 109.203 128.65 102.376C128.65 101.953 128.832 101.448 128.169 101.24C127.838 101.141 127.995 100.834 128.211 100.718C128.725 100.428 128.658 99.9726 128.658 99.5086C128.658 93.5426 128.658 87.5793 128.658 81.6188C128.848 82.0449 128.906 82.5184 128.824 82.9777C128.824 96.556 128.824 110.14 128.824 123.729C128.824 125.03 128.824 125.03 127.556 125.03H77.4333C77.0107 125.03 76.5798 125.005 76.1489 124.989Z" fill="#F0EFEF"/>
<path d="M129.628 102.317H142.015C143.472 102.354 144.91 101.975 146.159 101.224C147.683 100.287 148.702 99.0775 148.528 97.1634C149.216 97.1137 149.15 97.6026 149.142 97.992C149.084 99.5793 148.427 101.086 147.303 102.208C146.179 103.331 144.672 103.985 143.084 104.041C138.991 104.041 134.889 104.041 130.788 104.041C129.826 104.041 129.437 103.801 129.594 102.848C129.615 102.672 129.626 102.495 129.628 102.317Z" fill="#EEEEEE"/>
<path d="M40.5682 42.2675H39.7396C39.665 41.7206 39.2341 41.9526 38.9607 41.9526C37.1709 41.9526 35.3894 41.9526 33.6078 41.9526C33.2184 41.9526 32.7792 42.0438 32.8372 41.3809C32.975 40.6023 33.3037 39.87 33.7939 39.2497C34.2842 38.6293 34.9206 38.1402 35.6462 37.8261C36.296 37.6154 36.995 37.6105 37.6476 37.8122C38.3003 38.014 38.8746 38.4124 39.2921 38.953C40.1111 39.8631 40.5654 41.0433 40.5682 42.2675Z" fill="#E2E2E2"/>
<path d="M54.3066 37.5693H39.0103L38.7783 37.3455H59.6429C71.2987 37.3455 82.9574 37.3455 94.6188 37.3455C95.0661 37.2763 95.5238 37.3579 95.9197 37.5776H55.1021C54.8038 37.5195 54.5717 37.5527 54.3066 37.5693Z" fill="#58689B"/>
<path d="M94.47 95.1665C85.9518 95.1665 77.4336 95.1665 68.9238 95.1665C68.5463 95.2011 68.1658 95.1546 67.8077 95.0301C67.4497 94.9056 67.1224 94.706 66.8477 94.4448C66.5731 94.1835 66.3575 93.8665 66.2154 93.5151C66.0732 93.1637 66.0079 92.786 66.0236 92.4072C65.9628 90.4517 65.9628 88.4961 66.0236 86.5406C66.032 86.1663 66.1153 85.7974 66.2688 85.4559C66.4222 85.1143 66.6425 84.8069 66.9168 84.552C67.191 84.2971 67.5136 84.0997 67.8654 83.9716C68.2173 83.8435 68.5912 83.7873 68.9652 83.8062C71.7493 83.8062 74.5335 83.8062 77.3176 83.8062C91.3599 83.8062 105.408 83.8062 119.461 83.8062C121.458 83.8062 123.066 84.8337 122.9 87.2449C122.776 88.9933 122.9 90.7583 122.9 92.5149C122.932 92.8712 122.885 93.2302 122.763 93.5663C122.64 93.9024 122.445 94.2072 122.191 94.459C121.936 94.7107 121.63 94.9032 121.293 95.0227C120.955 95.1421 120.596 95.1856 120.24 95.1499L94.47 95.1665Z" fill="#EEEEEE"/>
<path d="M81.7173 103.759H71.4922C71.2602 103.759 71.0282 103.759 70.7962 103.759C70.5642 103.759 70.4399 103.759 70.4481 103.511C70.4564 103.262 70.6139 103.229 70.7796 103.204C71.0114 103.192 71.2438 103.192 71.4756 103.204C78.2592 103.204 85.0428 103.204 91.8264 103.204C92.2242 103.204 92.9368 103.005 92.9368 103.486C92.9368 103.966 92.2325 103.784 91.8513 103.784C88.4705 103.784 85.0981 103.784 81.7173 103.784V103.759Z" fill="#7481AD"/>
<path d="M93.0779 107.256C92.7299 107.952 92.2493 107.844 91.8598 107.844C85.0431 107.844 78.2208 107.844 71.393 107.844C71.0698 107.844 70.4898 108.068 70.4815 107.596C70.4732 107.123 71.0533 107.264 71.4013 107.264H93.0779V107.256Z" fill="#7380AC"/>
<path d="M92.862 111.739C92.1825 112.269 71.492 112.443 70.2739 112.004C70.8457 111.573 89.0338 111.366 92.862 111.739Z" fill="#7B88B2"/>
<path d="M92.7959 116.014H70.6387V115.865H92.7959V116.014Z" fill="#55649D"/>
<path d="M73.3651 123.795C72.9922 123.729 72.843 124.077 72.5365 124.201C72.323 124.305 72.0773 124.321 71.8525 124.245C71.6276 124.169 71.4417 124.007 71.335 123.795C71.8073 123.795 72.2962 123.895 72.727 123.538C73.0336 123.298 73.2325 123.555 73.3651 123.795Z" fill="#F0EFEF"/>
<path d="M56.3035 67.3249C57.6293 67.3249 58.9551 67.3829 60.2726 67.3249C62.6839 67.1923 65.0786 67.4078 67.4816 67.3249C69.8845 67.2421 72.387 67.3249 74.8397 67.3249H82.0983C84.5842 67.3249 87.0037 67.3249 89.4482 67.3249C91.1054 67.3249 91.8843 68.253 91.7766 69.9019C91.7186 70.7305 92.0997 71.5592 91.5363 72.3878C91.2276 72.8302 90.8 73.1763 90.3029 73.3859C89.8058 73.5956 89.2596 73.6604 88.7273 73.5727C87.7831 73.4771 86.833 73.4522 85.8851 73.4981H52.8896C52.3608 73.5183 51.8321 73.454 51.3235 73.3075C50.9647 73.2381 50.643 73.0414 50.4177 72.7537C50.1924 72.4659 50.0786 72.1065 50.0972 71.7414C50.0972 70.9791 50.0972 70.2168 50.0972 69.4545C50.0972 68.0458 50.7684 67.3581 52.2184 67.3415C53.6685 67.3249 54.9446 67.3249 56.3035 67.3249Z" fill="#EEEEEE"/>
<path d="M77.4001 65.1705H52.5416C50.7518 65.1705 50.1138 64.5325 50.1055 62.7509C50.1055 62.2538 50.1055 61.7566 50.1055 61.2594C50.1055 59.6685 50.7518 59.0139 52.3924 59.0139C56.7593 59.0139 61.1343 59.0139 65.5094 59.0139C66.6446 59.0139 67.8213 59.2873 68.9068 58.6576C68.9984 58.6184 69.0971 58.5981 69.1968 58.5981C69.2965 58.5981 69.3951 58.6184 69.4868 58.6576C71.0197 59.2873 72.6273 59.0139 74.2016 59.0222C79.1733 59.0222 84.2113 59.0222 89.2079 59.0222C91.0557 59.0222 91.6937 59.627 91.6937 61.4417V62.9332C91.6937 64.4745 91.006 65.1788 89.4564 65.1871C85.4128 65.1705 81.4023 65.1705 77.4001 65.1705Z" fill="#EEEEEE"/>
<path d="M62.2612 48.6645H50.7269C50.4534 48.6645 49.9977 48.8219 49.9645 48.4574C49.9314 48.0928 50.4037 48.0845 50.7103 48.0845C58.444 48.0845 66.1778 48.0845 73.9115 48.0845C74.1767 48.0845 74.6324 47.9602 74.591 48.3994C74.5496 48.8385 74.1104 48.6645 73.8287 48.6645H62.2612Z" fill="#717FAC"/>
<path d="M74.4749 44.4552H50.0391V44.2646H74.4749V44.4552Z" fill="#54679E"/>
<path d="M49.832 52.7413H74.1933V52.8242H49.832V52.7413Z" fill="#6673A4"/>
<path d="M95.605 62.3616C95.7956 61.8313 96.0524 61.7899 96.3259 61.7816H104.156C104.347 61.7816 104.62 61.7816 104.645 61.9888C104.67 62.1959 104.397 62.3534 104.173 62.3534L95.605 62.3616Z" fill="#7783AD"/>
<path d="M95.7539 70.6065C95.7539 70.4656 95.8451 70.3413 95.9942 70.3413H104.612C104.123 70.7556 97.7757 70.9711 95.7539 70.6065Z" fill="#7582AD"/>
<path d="M104.355 66.4384C101.51 66.6953 98.6484 66.6953 95.8037 66.4384H104.355Z" fill="#6373A6"/>
<path d="M103.957 47.4381C103.8 47.4437 103.643 47.4129 103.5 47.3483C103.356 47.2836 103.229 47.1868 103.129 47.0653C102.093 46.0378 101.074 45.002 100.03 43.9911C99.5574 43.5354 99.632 43.1625 100.171 42.9056C100.941 42.5162 101.712 42.3256 102.4 43.1293C102.847 43.6597 103.41 44.0988 103.858 44.6209C104.305 45.1429 104.562 45.0269 104.952 44.6209C106.46 42.8642 108.009 41.1407 109.517 39.3923C109.626 39.2259 109.768 39.083 109.933 38.972C110.098 38.861 110.283 38.7842 110.479 38.746C110.951 38.746 111.548 38.4725 111.854 38.978C112.161 39.4834 111.572 39.8066 111.291 40.1132C109.385 42.3007 107.454 44.48 105.49 46.6675C105.31 46.9036 105.078 47.0956 104.812 47.2291C104.547 47.3626 104.255 47.4341 103.957 47.4381Z" fill="#FCFCFB"/>
<path d="M70.0835 87.5433H118.69C118.301 87.8499 71.4839 88.0239 70.0835 87.5433Z" fill="#7683AF"/>
<path d="M70.1084 91.1975H118.723V91.3301H70.1333L70.1084 91.1975Z" fill="#57699B"/>
<path d="M56.3779 70.2916H85.3795C85.1972 70.7639 84.7249 70.6396 84.352 70.6396H56.4111L56.3779 70.2916Z" fill="#5C6B9E"/>
<path d="M56.2539 62.1958C56.9748 61.7649 83.822 61.5992 85.3798 61.9472C84.8163 62.3698 59.3281 62.6101 56.2539 62.1958Z" fill="#5C6C9F"/>
</g>
<defs>
<clipPath id="clip0_1125_2756">
<rect width="150" height="150" fill="white" transform="translate(0.166504)"/>
</clipPath>
</defs>
</svg>
