<svg width="151" height="150" viewBox="0 0 151 150" fill="none" xmlns="http://www.w3.org/2000/svg">
<path d="M35.8594 139.055H35.6194C34.0194 139.135 33.3294 137.385 31.9394 137.155C31.2308 137.056 30.5504 136.811 29.9411 136.435C29.3319 136.06 28.8069 135.563 28.3994 134.975C28.1377 134.757 27.9282 134.483 27.7863 134.173C27.6443 133.863 27.5737 133.525 27.5794 133.185C27.5794 132.585 27.5794 131.985 27.5794 131.385V22.9348C27.5794 19.1948 29.5794 17.1848 33.3394 17.1048C35.6194 17.0548 37.8894 17.1048 40.1694 17.1048C64.2494 17.1048 88.3328 17.1048 112.419 17.1048C113.438 16.9875 114.47 17.1285 115.419 17.5148C116.743 17.8168 117.964 18.4617 118.959 19.3848C119.181 19.5562 119.45 19.6541 119.729 19.6648C121.25 19.9774 122.612 20.8169 123.574 22.0353C124.537 23.2538 125.038 24.7729 124.989 26.3248C124.989 34.3248 124.989 42.3248 124.989 50.4048C124.989 76.5114 124.989 102.618 124.989 128.725C124.989 130.605 124.989 132.485 124.989 134.355C125.027 135.463 124.657 136.546 123.949 137.399C123.241 138.252 122.245 138.817 121.149 138.985C120.969 138.845 120.419 138.985 120.779 138.445C123.159 137.545 123.679 135.675 123.679 133.365C123.679 98.1314 123.679 62.9048 123.679 27.6848C123.725 26.6718 123.603 25.6583 123.319 24.6848C123.046 23.6553 122.494 22.7209 121.725 21.9837C120.956 21.2464 120 20.7348 118.959 20.5048C118.563 20.4531 118.18 20.3276 117.829 20.1348C117.633 20.0052 117.458 19.8467 117.309 19.6648C116.406 18.8573 115.25 18.3905 114.039 18.3448C113.449 18.3448 112.849 18.3448 112.249 18.3448C86.2094 18.3448 60.1694 18.3448 34.1294 18.3448C30.4094 18.3448 29.2694 19.3448 29.2694 23.3948C29.2694 53.9814 29.2694 84.5748 29.2694 115.175V131.825C29.2185 132.464 29.3007 133.107 29.5106 133.713C29.7206 134.318 30.0539 134.874 30.4894 135.345C30.7094 135.565 30.9694 135.875 31.2994 135.745C31.6294 135.615 31.4394 135.185 31.4294 134.885C31.2677 131.019 31.3111 127.146 31.5594 123.285C31.6294 122.565 31.5594 121.845 31.5594 121.125C31.5594 89.1248 31.5594 57.1248 31.5594 25.1248C31.4115 23.8051 31.7109 22.474 32.4094 21.3448C33.2294 20.2648 34.1494 19.3448 35.6694 19.5148C35.7535 19.5455 35.8249 19.6037 35.872 19.6798C35.9191 19.756 35.9394 19.8457 35.9294 19.9348C35.8857 20.0887 35.8056 20.2299 35.696 20.3465C35.5864 20.4631 35.4504 20.5516 35.2994 20.6048C34.7016 20.9258 34.2058 21.408 33.8682 21.9966C33.5306 22.5852 33.3647 23.2567 33.3894 23.9348C33.3894 24.5748 33.3894 25.2148 33.3894 25.8548C33.3894 56.5348 33.3894 87.2048 33.3894 117.855C33.3894 122.675 33.5494 127.505 33.2294 132.315C33.1944 133.395 33.3054 134.474 33.5594 135.525C33.6715 136.061 33.912 136.563 34.2603 136.986C34.6087 137.409 35.0544 137.742 35.5594 137.955C35.9397 138.067 36.2982 138.242 36.6194 138.475C36.7494 139.245 35.9294 138.745 35.8594 139.055Z" fill="#6B79A8"/>
<path d="M115.439 17.5447H34.9292C33.8156 17.4633 32.6962 17.5271 31.5992 17.7347C30.5358 17.9187 29.5761 18.4846 28.9004 19.326C28.2246 20.1675 27.8793 21.2267 27.9292 22.3047C27.9292 35.2047 27.9292 48.1081 27.9292 61.0147C27.9292 84.2547 27.9292 107.501 27.9292 130.755C27.7673 132.186 27.9314 133.636 28.4092 134.995C27.9046 134.827 27.4535 134.529 27.1021 134.13C26.7507 133.731 26.5115 133.246 26.4092 132.725C26.1743 131.84 26.05 130.93 26.0392 130.015C26.0392 125.905 25.9192 121.785 26.0992 117.685C26.2292 114.775 26.2792 111.865 26.2792 108.965C26.2792 79.5447 26.2792 50.1247 26.2792 20.7047C26.2792 18.2247 27.5792 16.9047 30.0692 16.5247C31.3323 16.362 32.6062 16.2985 33.8792 16.3347C34.5092 16.3347 34.9792 16.2347 35.1392 15.5447C35.1992 15.2647 35.2892 14.9247 35.6492 15.0147C36.0092 15.1047 35.7792 15.3947 35.7592 15.6147C35.6992 16.3747 36.1292 16.6147 36.7592 16.4447C37.224 16.335 37.7025 16.2946 38.1792 16.3247H110.929C112.354 16.417 113.763 16.672 115.129 17.0847C115.369 17.1347 115.409 17.3347 115.439 17.5447Z" fill="#E4E4E4"/>
<path d="M35.8594 139.055C36.0494 138.775 36.3694 138.855 36.6394 138.785C37.3046 138.412 38.081 138.288 38.8294 138.435H118.589C119.299 138.298 120.034 138.423 120.659 138.785L121.179 139.015C120.269 139.148 119.347 139.182 118.429 139.115H37.7694C37.1394 139.125 36.4994 139.085 35.8594 139.055Z" fill="#57689C"/>
<path d="M120.659 138.785C119.899 138.785 119.149 138.785 118.389 138.785L41.0591 138.835H36.6391C33.9291 138.035 32.9291 137.015 32.9291 134.155C32.8591 127.615 32.9291 121.075 32.9291 114.535C32.9291 85.2747 32.9291 56.0114 32.9291 26.7447C32.9291 25.9447 32.9291 25.1547 32.9291 24.3547C32.9291 22.2347 33.6591 20.6247 35.8291 19.9647C36.4291 19.3847 37.1891 19.5847 37.8891 19.5847H115.889C116.576 19.4751 117.28 19.5983 117.889 19.9347C119.135 19.991 120.337 20.4099 121.348 21.1401C122.359 21.8703 123.134 22.8798 123.579 24.0447C123.939 25.0028 124.109 26.0218 124.079 27.0447C124.079 54.1047 124.079 81.1681 124.079 108.235C124.079 116.855 124.079 125.478 124.079 134.105C124.039 136.855 123.189 138.005 120.659 138.785Z" fill="#FEFEFE"/>
<path d="M35.869 19.7147C33.389 20.0847 31.989 21.7847 31.989 24.4847C31.989 37.5447 31.989 50.608 31.989 63.6747C31.989 83.1214 31.989 102.575 31.989 122.035C31.989 125.635 31.909 129.225 31.889 132.815C31.7776 134.054 31.9032 135.303 32.259 136.495C30.259 136.335 28.949 134.685 28.939 132.385C28.939 127.065 28.939 121.755 28.939 116.445C28.939 85.7247 28.939 55.0047 28.939 24.2847C28.8759 23.1309 28.943 21.9736 29.139 20.8347C29.2373 20.051 29.6212 19.331 30.2171 18.8126C30.813 18.2942 31.5792 18.0136 32.369 18.0247C33.599 17.9647 34.839 18.0247 36.079 18.0247H113.369C114.738 17.9607 116.092 18.3394 117.229 19.1047C117.429 19.2447 117.629 19.3647 117.559 19.6647C117.209 19.9447 116.789 19.8047 116.409 19.8147C90.7889 19.8147 65.1723 19.8147 39.5589 19.8147C38.3189 19.7747 37.089 19.7547 35.869 19.7147Z" fill="#F8F8F8"/>
<path d="M35.8691 19.7147C37.2499 19.5114 38.6503 19.4778 40.0391 19.6147H116.479C116.829 19.6147 117.189 19.6147 117.549 19.6147L117.849 19.9047C114.979 19.9047 112.109 19.9047 109.239 19.9047H41.0191H35.8691V19.7147Z" fill="#59669D"/>
<path d="M115.459 106.935V80.5348C115.015 79.6766 114.925 78.6784 115.209 77.7548C115.519 75.5648 114.999 74.9048 112.789 74.9048H88.3493C75.9793 74.9048 63.5993 74.9048 51.2293 74.9048C48.7993 74.9048 46.3593 74.9748 43.9293 74.9048C43.4522 74.8337 42.965 74.9179 42.5393 75.1448C41.9893 75.4348 41.9493 75.9548 41.9593 76.4848C41.9593 85.5948 41.9593 94.7048 41.9593 103.805C41.9593 105.315 42.2793 105.575 43.9593 105.575C52.9593 105.575 61.9593 105.575 71.0193 105.575C75.5293 105.575 80.0193 105.575 84.5593 105.575C89.3893 105.575 94.2093 105.575 99.0393 105.575C100.779 105.575 100.829 105.515 100.839 103.735C100.839 102.615 100.839 101.495 100.839 100.375C100.839 99.5348 100.519 99.1448 99.6393 99.1448H88.1393C87.3293 99.1448 86.9793 99.4848 86.9793 100.295C86.9793 101.455 86.9793 102.605 86.9793 103.765C87.0012 104.164 86.9676 104.565 86.8793 104.955C86.7893 105.275 86.6593 105.565 86.2693 105.605C86.0879 105.62 85.9068 105.572 85.7559 105.471C85.605 105.369 85.4933 105.219 85.4393 105.045C85.3009 104.667 85.2397 104.266 85.2593 103.865C85.2593 102.785 85.2593 101.705 85.2593 100.635C85.2593 99.2648 85.1393 99.1648 83.7293 99.1448C83.5293 99.1448 83.3293 99.1448 83.1293 99.1448H52.0493C51.8893 99.1448 51.7293 99.1448 51.5693 99.1448C50.0093 99.1448 49.9293 99.2348 49.9093 100.755C49.9093 101.755 49.9093 102.825 49.9093 103.865C49.9195 104.224 49.8893 104.583 49.8193 104.935C49.7193 105.315 49.5393 105.615 49.1093 105.635C49.0089 105.644 48.9076 105.633 48.8116 105.602C48.7156 105.571 48.6269 105.521 48.5511 105.455C48.4752 105.388 48.4137 105.307 48.3704 105.216C48.3272 105.125 48.303 105.026 48.2993 104.925C48.1777 104.017 48.1408 103.1 48.1893 102.185C48.1893 101.665 48.1893 101.185 48.1893 100.625C48.1893 99.2948 48.0493 99.1748 46.7593 99.1448C46.1193 99.1448 45.4793 99.1448 44.8393 99.1448C44.5011 99.1569 44.1632 99.1129 43.8393 99.0148C43.4893 98.8948 43.1593 98.7048 43.1893 98.2748C43.2193 97.8448 43.5893 97.8048 43.8993 97.7448C44.8129 97.6531 45.7319 97.6263 46.6493 97.6648C47.9893 97.6648 48.1193 97.5148 48.1293 96.2348C48.1393 94.9548 48.1293 93.5248 48.1293 92.1648C48.1293 91.3648 47.7793 91.0048 46.9793 91.0048C46.1793 91.0048 45.1393 91.0048 44.2193 91.0048C43.7993 90.9548 43.2193 91.0048 43.2193 90.3948C43.2193 89.7848 43.7693 89.7748 44.2193 89.6748C44.9727 89.5845 45.7356 89.6149 46.4793 89.7648C47.9493 89.8548 48.1493 89.6748 48.1693 88.1948C48.1693 86.9948 48.1693 85.7948 48.1693 84.5948C48.1693 83.2548 48.0493 83.1648 46.7393 83.1348C45.8993 83.1348 45.0593 83.1348 44.2293 83.1348C43.7593 83.1348 43.2293 83.1348 43.1693 82.4148C43.3893 81.8048 43.9193 81.7648 44.4393 81.7248C45.2293 81.6648 46.0293 81.7248 46.8293 81.7248C48.0593 81.7248 48.1393 81.5848 48.1893 80.3248C48.1225 78.7337 48.166 77.1399 48.3193 75.5548C48.3955 75.3384 48.5438 75.1548 48.7393 75.0348C48.8799 74.9664 49.0377 74.9414 49.1925 74.9627C49.3474 74.9841 49.4925 75.0509 49.6093 75.1548C49.7034 75.28 49.7714 75.4228 49.8093 75.5748C49.921 76.8416 49.9477 78.1144 49.8893 79.3848C49.8893 81.7048 49.8893 81.7148 52.1593 81.7148H83.4993C85.2593 81.7148 85.2893 81.6448 85.3293 79.9148C85.2273 78.4456 85.2911 76.9697 85.5193 75.5148C85.9893 74.9448 86.5193 74.7248 87.0093 75.4348C87.1193 77.1848 87.0093 78.9348 87.2293 80.6848C87.3293 81.4248 87.5693 81.6848 88.3293 81.6848C92.116 81.6848 95.906 81.6848 99.6993 81.6848C100.699 81.6848 100.959 81.2648 100.929 80.3848C100.929 79.2248 100.929 78.0648 100.929 76.9148C100.88 76.393 100.949 75.8667 101.129 75.3748C101.569 74.8148 102.009 74.8248 102.429 75.3748C102.667 76.906 102.731 78.4592 102.619 80.0048C102.679 81.5448 102.719 81.6248 104.259 81.6348C107.089 81.6348 109.919 81.6348 112.749 81.6348C113.329 81.6348 113.959 81.5348 114.439 82.0248C114.839 83.0248 113.989 82.7348 113.619 82.7348C110.989 82.7348 108.349 82.7348 105.709 82.7348C104.839 82.7348 103.959 82.7348 103.079 82.7348C102.449 82.7348 102.239 82.9248 102.259 83.5548C102.259 85.3948 102.259 87.2348 102.259 89.0648C102.259 89.9648 102.589 90.1248 103.379 90.0648C106.659 90.0648 109.929 90.0648 113.209 90.0648C113.489 90.0648 113.769 90.0648 114.049 90.0648C114.329 90.0648 114.479 90.0648 114.439 90.3648C114.412 90.4341 114.367 90.4952 114.309 90.5424C114.251 90.5896 114.183 90.6214 114.109 90.6348C113.598 90.725 113.079 90.7652 112.559 90.7548C109.449 90.5548 106.339 90.7548 103.219 90.6548C102.499 90.6548 102.219 90.8448 102.219 91.5948C102.219 93.4248 102.219 95.2648 102.219 97.1048C102.219 97.8648 102.479 98.0448 103.219 98.0348C106.529 98.0348 109.849 98.0348 113.159 98.0348C113.439 98.0348 113.719 98.0348 113.999 98.0348C114.279 98.0348 114.429 98.0348 114.449 98.2948C114.469 98.5548 114.279 98.6548 114.079 98.6748C113.639 98.7148 113.199 98.7348 112.759 98.7348C109.689 98.7348 106.609 98.7348 103.539 98.7348C102.429 98.7348 102.189 99.0648 102.249 100.085C102.344 101.56 102.344 103.04 102.249 104.515C102.169 105.675 102.449 106.085 103.719 106.045C107.029 105.945 110.349 106.045 113.719 106.045H115.079C114.883 106.289 114.624 106.476 114.33 106.585C114.036 106.694 113.718 106.721 113.409 106.665C110.089 106.665 106.769 106.665 103.409 106.665C102.529 106.665 102.219 106.875 102.259 107.795C102.329 109.425 102.259 111.065 102.259 112.705C102.259 113.135 102.259 113.575 101.689 113.555C101.119 113.535 101.299 113.055 101.289 112.715C101.289 111.005 101.289 109.285 101.289 107.565C101.289 106.895 101.089 106.635 100.409 106.675C99.4893 106.675 98.5693 106.675 97.6493 106.675H43.5093C40.9493 106.675 40.5893 106.225 40.5993 103.675C40.5993 94.8048 40.5993 85.9348 40.5993 77.0748C40.5993 74.6948 41.1293 74.1448 43.4493 74.1448H113.929C116.039 74.1448 116.479 74.5848 116.479 76.6548V111.875C116.479 114.005 115.829 114.655 113.679 114.665C109.849 114.665 106.019 114.665 102.179 114.665C101.979 114.665 101.179 115.105 101.569 114.175C105.479 113.295 109.449 113.705 113.399 113.615C114.929 113.615 115.039 113.485 115.049 111.995C115.049 110.835 115.049 109.685 115.049 108.525C114.997 108.246 115.007 107.959 115.078 107.684C115.149 107.41 115.279 107.154 115.459 106.935Z" fill="#6A79A5"/>
<path d="M115.459 106.935C115.459 108.795 115.459 110.665 115.459 112.535C115.459 113.535 115.059 113.935 114.039 113.915C111.139 113.915 108.239 113.915 105.339 113.915C104.069 113.915 102.809 113.995 101.539 114.035C101.949 113.665 102.469 114.035 102.959 113.775C102.289 112.075 102.689 110.285 102.629 108.525C102.579 107.335 103.429 106.895 104.539 106.905L115.459 106.935Z" fill="#8ACFF5"/>
<path d="M114.449 82.0248C110.789 82.0248 107.139 82.0248 103.449 82.0248C102.569 82.0248 102.169 81.8648 102.219 80.8648C102.299 79.0048 102.219 77.1348 102.219 75.2648C102.426 75.108 102.664 74.9967 102.918 74.9381C103.171 74.8795 103.434 74.875 103.689 74.9248C106.689 74.9248 109.759 74.9248 112.789 74.9248C114.709 74.9248 115.429 75.7048 115.189 77.5948C115.049 78.6548 115.379 79.7548 114.929 80.7848C115.059 81.3248 114.699 81.6548 114.449 82.0248Z" fill="#8ACFF5"/>
<path d="M111.419 42.5148C110.499 42.5148 109.579 42.5148 108.659 42.5148C107.899 42.5148 107.809 42.8048 107.959 43.5148C108.042 43.9677 108.232 44.3943 108.513 44.7591C108.794 45.1239 109.158 45.4163 109.574 45.612C109.991 45.8077 110.449 45.9009 110.909 45.884C111.369 45.8671 111.818 45.7405 112.219 45.5148C112.872 45.1287 113.471 44.6579 113.999 44.1148C114.083 44.0113 114.186 43.9255 114.303 43.8624C114.42 43.7992 114.548 43.76 114.68 43.7469C114.812 43.7339 114.946 43.7473 115.073 43.7864C115.2 43.8256 115.318 43.8896 115.419 43.9748C115.929 44.3548 115.849 44.8748 115.639 45.3848C115.385 45.9302 114.987 46.3966 114.489 46.7348C112.179 48.4248 108.159 48.1148 106.309 46.1048C105.359 44.8881 104.843 43.3886 104.843 41.8448C104.843 40.3009 105.359 38.8014 106.309 37.5848C107.142 36.7721 108.189 36.2128 109.327 35.972C110.466 35.7312 111.649 35.8189 112.739 36.2248C113.673 36.5619 114.481 37.1786 115.051 37.991C115.622 38.8034 115.929 39.7719 115.929 40.7648C115.963 40.9836 115.947 41.2072 115.882 41.419C115.818 41.6308 115.707 41.8255 115.557 41.9886C115.407 42.1517 115.223 42.2792 115.017 42.3616C114.812 42.444 114.59 42.4793 114.369 42.4648C113.369 42.4648 112.369 42.4648 111.369 42.4648L111.419 42.5148Z" fill="#6A78A7"/>
<path d="M84.0589 41.7747C84.0589 45.4447 81.8289 47.7747 78.2589 47.7747C77.4675 47.8238 76.6747 47.7031 75.9338 47.4206C75.1929 47.1381 74.521 46.7004 73.9631 46.1369C73.4053 45.5734 72.9744 44.897 72.6994 44.1533C72.4245 43.4095 72.3118 42.6156 72.3689 41.8247C72.3689 38.2347 74.659 35.9347 78.159 35.9147C81.659 35.8947 84.0589 38.1447 84.0589 41.7747Z" fill="#6A78A8"/>
<path d="M51.2891 37.6647C51.7721 37.0158 52.4235 36.5115 53.1727 36.2066C53.9219 35.9016 54.7403 35.8076 55.5391 35.9347C56.4305 35.9785 57.2704 36.365 57.8835 37.0135C58.4966 37.662 58.8354 38.5223 58.8291 39.4147C58.9091 41.6447 58.8291 43.8847 58.8291 46.1147C58.8291 47.0547 58.4491 47.7847 57.3591 47.7547C56.2691 47.7247 55.9591 47.0047 55.9391 46.0547C55.9391 44.0547 56.0691 42.0547 55.8391 40.0547C55.7391 39.1847 55.4591 38.4047 54.4591 38.1847C54.0084 38.085 53.5386 38.1158 53.1047 38.2734C52.6708 38.431 52.2908 38.709 52.0091 39.0747C51.6562 39.4659 51.451 39.9682 51.4291 40.4947C51.4291 41.1347 51.4291 41.7647 51.3691 42.4047C51.3691 43.5647 51.3691 44.7247 51.3691 45.8747C51.3691 47.0247 50.8091 47.7647 49.8391 47.7447C48.8691 47.7247 48.4091 47.0847 48.3691 45.8147V45.6947C48.3691 43.0947 48.3691 40.5047 48.3691 37.9047C48.3691 36.9947 48.4291 36.0547 49.5691 35.9047C50.7091 35.7547 51.0591 36.5947 51.2891 37.6647Z" fill="#6B79A8"/>
<path d="M97.6692 47.7447C94.6692 47.7447 92.6092 46.3247 91.9792 43.8147C91.2192 40.8147 92.2992 37.8147 94.5292 36.5647C95.695 35.9365 97.0302 35.6949 98.3422 35.8746C99.6542 36.0543 100.875 36.6462 101.829 37.5647C102.104 37.8602 102.331 38.1978 102.499 38.5647C102.601 38.7157 102.669 38.8867 102.699 39.0662C102.73 39.2457 102.722 39.4296 102.675 39.6056C102.629 39.7817 102.545 39.9458 102.431 40.087C102.316 40.2283 102.172 40.3434 102.009 40.4247C101.279 40.8447 100.719 40.5147 100.269 39.9047C100.059 39.6247 99.8292 39.3447 99.5992 39.0647C99.3262 38.7439 98.9775 38.4962 98.5846 38.3443C98.1916 38.1924 97.767 38.141 97.3492 38.1947C96.671 38.2772 96.0443 38.598 95.5808 39.0999C95.1174 39.6018 94.8474 40.2522 94.8192 40.9347C94.4992 43.2347 95.1592 44.8747 96.6192 45.4447C98.0792 46.0147 99.2292 45.4447 100.179 44.0747L100.509 43.5747C100.666 43.3135 100.912 43.1184 101.202 43.0261C101.493 42.9338 101.807 42.9506 102.085 43.0734C102.364 43.1962 102.588 43.4165 102.716 43.6929C102.844 43.9693 102.866 44.2829 102.779 44.5747C102.661 45.1432 102.407 45.6744 102.037 46.1222C101.668 46.57 101.195 46.921 100.659 47.1447C99.7364 47.615 98.702 47.8226 97.6692 47.7447Z" fill="#6B79A7"/>
<path d="M65.9293 44.2248L68.1993 38.0548C68.3793 37.5748 68.5693 37.0548 68.7893 36.6148C68.8523 36.4548 68.9492 36.3104 69.0734 36.1915C69.1975 36.0726 69.3459 35.982 69.5084 35.9259C69.6709 35.8698 69.8437 35.8497 70.0147 35.8667C70.1858 35.8838 70.3511 35.9377 70.4993 36.0248C70.6553 36.0718 70.7991 36.1523 70.9208 36.2606C71.0424 36.3689 71.139 36.5025 71.2037 36.652C71.2685 36.8014 71.2998 36.9632 71.2956 37.1261C71.2914 37.2889 71.2517 37.4489 71.1793 37.5948C69.9593 40.6748 68.7793 43.7648 67.4393 46.7848C67.3233 47.1026 67.1124 47.3772 66.8351 47.5711C66.5579 47.7651 66.2277 47.8691 65.8893 47.8691C65.551 47.8691 65.2208 47.7651 64.9435 47.5711C64.6663 47.3772 64.4553 47.1026 64.3393 46.7848C63.0193 43.7848 61.8393 40.7848 60.6293 37.7148C60.5523 37.5592 60.5106 37.3886 60.5071 37.2151C60.5036 37.0415 60.5384 36.8694 60.6091 36.7108C60.6797 36.5523 60.7845 36.4113 60.9159 36.2979C61.0473 36.1845 61.2022 36.1015 61.3693 36.0548C61.5381 35.9637 61.7254 35.9121 61.917 35.9037C62.1086 35.8953 62.2996 35.9305 62.4757 36.0065C62.6518 36.0825 62.8084 36.1974 62.9337 36.3426C63.059 36.4878 63.1498 36.6595 63.1993 36.8448C63.9793 38.9848 64.7527 41.1215 65.5193 43.2548C65.6493 43.4748 65.7593 43.7348 65.9293 44.2248Z" fill="#6A78A7"/>
<path d="M45.1792 39.6248C45.1792 41.5048 45.1792 43.3748 45.1792 45.2548C45.1921 45.6532 45.1653 46.0518 45.0992 46.4448C45.0539 46.8278 44.8618 47.1783 44.5634 47.4226C44.2651 47.6669 43.8836 47.786 43.4992 47.7548C43.1357 47.7646 42.7818 47.6373 42.5077 47.3984C42.2335 47.1595 42.0592 46.8263 42.0192 46.4648C41.9492 46.0722 41.919 45.6735 41.9292 45.2748V34.0248C41.9142 33.745 41.9142 33.4646 41.9292 33.1848C42.0492 32.1848 42.5092 31.4748 43.5892 31.5048C44.6692 31.5348 45.0692 32.2948 45.1492 33.2748C45.1642 33.5546 45.1642 33.835 45.1492 34.1148V39.6248H45.1792Z" fill="#6B79A8"/>
<path d="M114.989 80.8048C114.989 79.5748 114.989 78.3348 114.989 77.0948C114.989 75.8548 114.579 75.2948 113.219 75.2948H102.279C102.139 75.1777 101.962 75.1135 101.779 75.1135C101.597 75.1135 101.42 75.1777 101.279 75.2948C100.893 75.578 100.417 75.7128 99.9393 75.6748C95.9393 75.6748 92.0093 75.6748 88.0393 75.6748C87.8213 75.7024 87.5999 75.6856 87.3885 75.6255C87.1772 75.5653 86.9801 75.4631 86.8093 75.3248C86.4593 74.9648 86.1193 75.1748 85.8093 75.3248C85.283 75.6184 84.6783 75.7407 84.0793 75.6748C73.1393 75.6748 62.2026 75.6748 51.2693 75.6748C50.9736 75.7271 50.6704 75.7186 50.3781 75.6499C50.0858 75.5811 49.8106 75.4535 49.5693 75.2748C49.5143 75.2241 49.4759 75.1578 49.4593 75.0848C50.9078 74.8947 52.3712 74.8445 53.8293 74.9348C54.6593 74.9348 55.4993 74.9348 56.3293 74.9348C52.1993 74.6748 48.0893 75.1748 43.9593 75.1148C43.3893 75.1148 42.7493 75.2748 42.2793 74.7548C42.6193 74.4548 43.0393 74.5548 43.4293 74.5548H113.019C115.339 74.5548 115.729 74.9748 115.609 77.3048L115.459 80.5248L114.989 80.8048Z" fill="#EFF7F1"/>
<path d="M89.3089 41.8548C89.3089 43.2548 89.3089 44.6548 89.3089 46.0448C89.3089 46.9848 88.9489 47.7248 87.8789 47.7448C86.8089 47.7648 86.4189 47.0548 86.4189 46.1048C86.4189 43.2248 86.4189 40.3481 86.4189 37.4748C86.4189 36.5648 86.7989 35.9048 87.8289 35.9148C88.8589 35.9248 89.3189 36.5548 89.3189 37.5348C89.3189 38.9748 89.3189 40.4148 89.3189 41.8548H89.3089Z" fill="#6A78A7"/>
<path d="M99.299 67.1847C94.029 67.1847 88.769 67.1847 83.499 67.1847C83.149 67.1847 82.499 67.4247 82.499 66.8747C82.499 66.3247 83.079 66.4747 83.499 66.4747C94.1657 66.4747 104.832 66.4747 115.499 66.4747C115.849 66.4747 116.499 66.2847 116.409 66.8647C116.319 67.4447 115.769 67.1847 115.409 67.1947C109.989 67.1947 104.649 67.1847 99.299 67.1847Z" fill="#6F7DAB"/>
<path d="M99.3793 61.1948H83.8193C83.5093 61.1948 83.1893 61.1948 82.8193 61.1948C82.6693 61.1948 82.4893 61.1947 82.4493 60.9747C82.4392 60.9265 82.4394 60.8767 82.45 60.8285C82.4605 60.7804 82.481 60.735 82.5103 60.6954C82.5396 60.6557 82.5769 60.6227 82.6198 60.5985C82.6627 60.5742 82.7102 60.5593 82.7593 60.5548C83.0894 60.498 83.4244 60.4745 83.7593 60.4848H115.829C116.079 60.4848 116.369 60.4847 116.389 60.8147C116.409 61.1447 116.049 61.1947 115.779 61.2047C115.509 61.2147 115.219 61.2047 114.939 61.2047L99.3793 61.1948Z" fill="#6F7CAC"/>
<path d="M57.6393 117.315H41.2493C41.0293 117.315 40.7093 117.315 40.7393 116.985C40.7693 116.655 41.0193 116.625 41.2693 116.605C41.5193 116.585 41.7493 116.605 41.9893 116.605H73.4593C73.6193 116.605 73.7793 116.605 73.9393 116.605C74.0993 116.605 74.5893 116.605 74.6193 116.925C74.6493 117.245 74.2093 117.325 73.9193 117.325C72.1593 117.325 70.4093 117.325 68.6493 117.325L57.6393 117.315Z" fill="#7580AC"/>
<path d="M57.6394 123.315H42.0794C41.7694 123.315 41.4494 123.315 41.0794 123.315C40.7094 123.315 40.6494 123.245 40.6894 122.995C40.7106 122.92 40.75 122.852 40.8041 122.796C40.8582 122.74 40.9253 122.698 40.9994 122.675C41.2723 122.617 41.5506 122.591 41.8294 122.595H73.5294C73.7651 122.564 74.0037 122.564 74.2394 122.595C74.3794 122.595 74.5594 122.755 74.5794 122.865C74.5994 122.975 74.4294 123.215 74.2194 123.235C74.0094 123.255 73.5794 123.235 73.2194 123.235L57.6394 123.315Z" fill="#7481AC"/>
<path d="M57.4694 61.1647H42.0194H41.0194C40.8594 61.1647 40.6694 61.0947 40.6994 60.9047C40.7103 60.8306 40.7398 60.7604 40.7853 60.7009C40.8308 60.6414 40.8907 60.5945 40.9594 60.5647C41.3132 60.5079 41.6712 60.4811 42.0294 60.4847H73.6494C73.8894 60.4847 74.1994 60.4847 74.2094 60.7947C74.2194 61.1047 73.8794 61.1747 73.5994 61.1747H57.4694V61.1647Z" fill="#7480AC"/>
<path d="M87.8291 34.5347C87.0191 34.4047 86.4091 34.0547 86.3991 33.1047C86.3894 32.9048 86.423 32.7051 86.4976 32.5194C86.5722 32.3337 86.686 32.1662 86.8313 32.0286C86.9766 31.8909 87.1499 31.7862 87.3393 31.7217C87.5288 31.6571 87.73 31.6343 87.9291 31.6547C88.1198 31.6416 88.311 31.6707 88.4892 31.74C88.6673 31.8092 88.828 31.917 88.9598 32.0554C89.0916 32.1939 89.1912 32.3597 89.2516 32.5411C89.312 32.7224 89.3316 32.9149 89.3091 33.1047C89.2791 34.0147 88.7091 34.4347 87.8291 34.5347Z" fill="#6C7AA8"/>
<path d="M42.2693 74.7848H56.7093V75.0948H48.9293C47.9378 75.4064 46.8931 75.5119 45.8593 75.4048C45.1031 75.3461 44.3425 75.3932 43.5993 75.5448C43.2398 75.6694 42.9332 75.9123 42.7297 76.2339C42.5262 76.5554 42.438 76.9365 42.4793 77.3148C42.4793 78.3148 42.4793 79.3148 42.4793 80.3148C42.4793 81.3148 43.0893 81.6548 43.4793 82.3148C43.4793 82.9948 44.0193 82.7648 44.3593 82.7748C45.5193 82.7748 46.6793 82.7748 47.8393 82.7748C48.5293 82.7748 48.7293 83.0048 48.7093 83.6748C48.7093 85.5148 48.7093 87.3548 48.7093 89.1848C48.7093 90.0348 48.3893 90.1848 47.7093 90.1848C46.5177 90.0949 45.3209 90.0949 44.1293 90.1848C43.9964 90.182 43.8654 90.216 43.7507 90.2831C43.636 90.3501 43.542 90.4476 43.4793 90.5648C43.9893 91.0948 44.6493 90.7648 45.2193 90.8248C46.3593 90.9448 47.8793 90.3248 48.5393 91.0948C49.1993 91.8648 48.7193 93.2248 48.7393 94.3348C48.7593 95.4448 48.7393 96.3348 48.7393 97.3348C48.7393 98.0348 48.5093 98.2348 47.8493 98.2048C46.7293 98.2048 45.6093 98.2048 44.4893 98.2048C44.1293 98.2048 43.4893 98.0548 43.4893 98.5848C43.4893 99.1148 44.1393 98.8948 44.4893 98.9048C45.4893 98.9048 46.5693 98.9548 47.5993 98.9048C48.4193 98.8548 48.7293 99.0848 48.6893 99.9048C48.6193 101.495 48.6893 103.095 48.6893 104.695C48.6893 105.055 48.5293 105.595 49.1593 105.595C49.7893 105.595 49.6593 105.075 49.6593 104.695C49.6593 103.095 49.6593 101.495 49.6593 99.9048C49.6593 99.1648 49.7993 98.9048 50.6593 98.9048C62.086 98.9048 73.5093 98.9048 84.9293 98.9048C85.7293 98.9048 85.9293 99.1548 85.9293 99.9048C85.8793 101.495 85.9293 103.095 85.9293 104.695C85.9293 105.055 85.7893 105.595 86.3993 105.605C87.0093 105.615 86.8993 105.095 86.8993 104.725C86.8993 103.125 86.8993 101.525 86.8993 99.9248C86.8993 99.2048 87.0093 98.8548 87.8993 98.8648C92.0993 98.9148 96.2893 98.8648 100.479 98.8648C101.269 98.8648 101.479 99.0948 101.479 99.8648C101.479 101.585 101.409 103.305 101.479 105.015C101.479 105.935 101.219 106.145 100.339 106.145C89.8726 106.145 79.406 106.145 68.9393 106.145H43.6293C41.9193 106.145 41.6293 105.825 41.6293 104.145C41.6293 95.0315 41.6293 85.9248 41.6293 76.8248C41.6093 75.9348 41.4093 75.1848 42.2693 74.7848Z" fill="#FEFEFE"/>
<path d="M67.6691 98.0648C61.9991 98.0648 56.3291 98.0648 50.6691 98.0648C49.7491 98.0648 49.5091 97.7948 49.5391 96.9148C49.6091 95.1648 49.5391 93.4048 49.5391 91.6548C49.5391 90.9448 49.7291 90.6548 50.4791 90.6548C61.9391 90.6548 73.3957 90.6548 84.8491 90.6548C85.6091 90.6548 85.7991 90.9448 85.7791 91.6548C85.7791 93.4048 85.7191 95.1648 85.7791 96.9248C85.7791 97.8048 85.5691 98.0748 84.6591 98.0648C79.0091 98.0448 73.3391 98.0648 67.6691 98.0648Z" fill="#FEFEFE"/>
<path d="M67.6492 90.0947C62.0292 90.0947 56.3992 90.0947 50.7692 90.0947C49.8492 90.0947 49.4892 89.8947 49.5392 88.9047C49.6192 87.2347 49.6192 85.5547 49.5392 83.9047C49.5392 82.9047 49.8192 82.7147 50.7492 82.7247C58.8492 82.7247 66.9492 82.7247 75.0592 82.7247C78.2492 82.7247 81.4392 82.7247 84.6392 82.7247C85.4892 82.7247 85.8392 82.8947 85.7992 83.8347C85.7192 85.5447 85.7292 87.2647 85.7992 88.9747C85.7992 89.8647 85.5692 90.1347 84.6592 90.1247C78.9892 90.0647 73.3192 90.0947 67.6492 90.0947Z" fill="#FEFEFE"/>
<path d="M49.5591 75.2848H84.0091C84.5991 75.2848 85.1991 75.2848 85.7991 75.2848C85.7991 77.1948 85.7491 79.1148 85.7991 81.0248C85.7991 81.7548 85.5791 82.0248 84.7991 82.0248C73.3391 82.0248 61.8791 82.0248 50.4191 82.0248C49.6191 82.0248 49.5091 81.6748 49.5191 81.0248C49.5691 79.1148 49.5591 77.1948 49.5591 75.2848Z" fill="#8ACFF5"/>
<path d="M94.0793 98.0648C91.9693 98.0648 89.8593 98.0648 87.7493 98.0648C87.1093 98.0648 86.8093 97.9348 86.8193 97.2248C86.8193 95.3148 86.8193 93.3948 86.7593 91.4848C86.7593 90.8348 87.0593 90.6848 87.6393 90.6848C91.8993 90.6848 96.1626 90.6848 100.429 90.6848C101.109 90.6848 101.329 90.8948 101.309 91.5748C101.309 93.4448 101.309 95.3148 101.309 97.1948C101.309 97.8748 101.079 98.0748 100.409 98.0648C98.3093 98.0348 96.1993 98.0648 94.0793 98.0648Z" fill="#FEFEFE"/>
<path d="M93.9893 82.7247C96.1093 82.7247 98.2193 82.7247 100.339 82.7247C101.029 82.7247 101.339 82.8647 101.339 83.6447C101.339 85.5147 101.339 87.3947 101.339 89.2747C101.339 89.8747 101.169 90.1147 100.529 90.1147C96.2626 90.1147 91.9893 90.1147 87.7093 90.1147C87.2193 90.1147 86.8693 90.0547 86.8693 89.4247C86.8693 87.4747 86.7393 85.5247 86.8693 83.5647C86.8693 82.8447 87.1993 82.7247 87.8693 82.7347C89.8393 82.7447 91.9293 82.7247 93.9893 82.7247Z" fill="#FDFDFD"/>
<path d="M86.8391 75.3247H101.309C101.309 77.2747 101.309 79.2247 101.309 81.1747C101.309 81.8447 101.099 82.0647 100.419 82.0647C96.1291 82.0647 91.8291 82.0647 87.5291 82.0647C87.2491 82.0647 86.8291 82.2047 86.8391 81.6747C86.9291 79.5347 86.5191 77.4247 86.8391 75.3247Z" fill="#8ACFF5"/>
<path d="M43.359 82.2648C42.9255 82.1667 42.5481 81.9018 42.3086 81.5274C42.069 81.1531 41.9865 80.6995 42.079 80.2648C42.149 79.1548 42.079 78.0448 42.079 76.9348C42.028 76.5562 42.1225 76.1723 42.3433 75.8605C42.5641 75.5488 42.8949 75.3323 43.269 75.2548C45.0339 75.0648 46.8141 75.0648 48.579 75.2548C48.579 77.1148 48.519 78.9848 48.579 80.8448C48.579 81.7148 48.369 81.9948 47.459 82.0048C46.109 82.0748 44.709 81.7448 43.359 82.2648Z" fill="#8ACFF5"/>
<path d="M48.5991 75.3148H43.2891C45.1391 74.8348 47.0091 75.1848 48.8691 75.1248L48.5991 75.3148Z" fill="#EFF7F1"/>
<path d="M110.459 40.8347H109.019C107.759 40.8347 107.649 40.6547 108.199 39.4547C108.396 38.9504 108.756 38.5267 109.222 38.2511C109.688 37.9756 110.233 37.8642 110.769 37.9347C111.305 37.9902 111.808 38.2135 112.209 38.5728C112.61 38.932 112.886 39.4087 112.999 39.9347C113.169 40.6247 112.999 40.9347 112.249 40.8547C111.499 40.7747 111.059 40.8347 110.459 40.8347Z" fill="#FCFDFC"/>
<path d="M75.379 41.7448C75.379 39.2248 76.649 37.8448 78.689 38.1048C80.249 38.3148 81.209 39.8548 81.139 42.1048C81.069 44.1048 80.009 45.5248 78.439 45.6148C76.539 45.6848 75.369 44.2248 75.379 41.7448Z" fill="#FDFEFD"/>
</svg>
