<svg width="20" height="21" viewBox="0 0 20 21" fill="none" xmlns="http://www.w3.org/2000/svg">
<g filter="url(#filter0_d_1142_4249)">
<rect x="3.44189" y="3.0889" width="12.7128" height="12.7128" rx="2.11879" fill="white" shape-rendering="crispEdges"/>
<path d="M11.5645 8.28634C11.8997 8.28634 12.1714 8.0146 12.1714 7.6794C12.1714 7.34419 11.8997 7.07245 11.5645 7.07245C11.2293 7.07245 10.9575 7.34419 10.9575 7.6794C10.9575 8.0146 11.2293 8.28634 11.5645 8.28634Z" fill="#34C759"/>
<path d="M11.3241 8.72472L11.3246 8.72481C11.4766 8.75722 11.6241 8.75724 11.7639 8.73228L11.7639 8.7323L11.7658 8.73193C11.8245 8.72057 11.873 8.76378 11.873 8.81601V9.87761C11.873 10.4136 11.4402 10.8465 10.9041 10.8465H10.5709C10.4575 10.8465 10.355 10.9001 10.2889 10.9871L10.2885 10.9875L9.95749 11.4267L9.9573 11.427C9.9058 11.4956 9.84695 11.5197 9.79839 11.5197C9.74982 11.5197 9.69098 11.4956 9.63948 11.427L9.63929 11.4267L9.30879 10.9883C9.27522 10.9426 9.22787 10.9087 9.18335 10.8864C9.13824 10.8639 9.08255 10.8465 9.02591 10.8465H8.69485C8.15883 10.8465 7.72373 10.4114 7.72373 9.8754V8.34148C7.72373 7.80547 8.15883 7.37037 8.69485 7.37037H10.4274C10.4831 7.37037 10.5236 7.41961 10.5119 7.47562L10.5115 7.47727C10.4835 7.61998 10.4865 7.76834 10.5186 7.91884L10.5187 7.91927C10.6047 8.31654 10.9269 8.63869 11.3241 8.72472ZM8.56242 9.22432C8.56242 9.41798 8.71796 9.57745 8.91556 9.57745C9.11315 9.57745 9.26869 9.41798 9.26869 9.22432C9.26869 9.02979 9.11008 8.87118 8.91556 8.87118C8.71796 8.87118 8.56242 9.03066 8.56242 9.22432ZM9.44525 9.22432C9.44525 9.41798 9.60079 9.57745 9.79839 9.57745C9.99598 9.57745 10.1515 9.41798 10.1515 9.22432C10.1515 9.02979 9.99291 8.87118 9.79839 8.87118C9.60079 8.87118 9.44525 9.03066 9.44525 9.22432ZM10.3281 9.22432C10.3281 9.41798 10.4836 9.57745 10.6812 9.57745C10.8788 9.57745 11.0344 9.41798 11.0344 9.22432C11.0344 9.02979 10.8757 8.87118 10.6812 8.87118C10.4836 8.87118 10.3281 9.03066 10.3281 9.22432Z" stroke="#121139" stroke-width="0.264849"/>
<rect x="3.50811" y="3.15511" width="12.5803" height="12.5803" rx="2.05258" stroke="#121139" stroke-width="0.132425" shape-rendering="crispEdges"/>
</g>
<defs>
<filter id="filter0_d_1142_4249" x="0.263702" y="0.970103" width="19.0693" height="19.0692" filterUnits="userSpaceOnUse" color-interpolation-filters="sRGB">
<feFlood flood-opacity="0" result="BackgroundImageFix"/>
<feColorMatrix in="SourceAlpha" type="matrix" values="0 0 0 0 0 0 0 0 0 0 0 0 0 0 0 0 0 0 127 0" result="hardAlpha"/>
<feOffset dy="1.0594"/>
<feGaussianBlur stdDeviation="1.5891"/>
<feComposite in2="hardAlpha" operator="out"/>
<feColorMatrix type="matrix" values="0 0 0 0 0 0 0 0 0 0 0 0 0 0 0 0 0 0 0.1 0"/>
<feBlend mode="normal" in2="BackgroundImageFix" result="effect1_dropShadow_1142_4249"/>
<feBlend mode="normal" in="SourceGraphic" in2="effect1_dropShadow_1142_4249" result="shape"/>
</filter>
</defs>
</svg>
