<svg width="20" height="19" viewBox="0 0 20 19" fill="none" xmlns="http://www.w3.org/2000/svg">
<g filter="url(#filter0_d_1189_8870)">
<rect x="3.60449" y="2.74988" width="12.7128" height="12.7128" rx="2.1188" fill="white" shape-rendering="crispEdges"/>
<g clip-path="url(#clip0_1189_8870)">
<path d="M11.9787 7.97121H9.20406M8.69959 7.97121H7.94287M11.9787 10.4936H9.20406M8.69959 10.4936H7.94287M10.7175 9.2324H7.94287M11.9787 9.2324H11.222M8.95182 7.46674C9.01872 7.46674 9.08288 7.49331 9.13018 7.54061C9.17749 7.58792 9.20406 7.65208 9.20406 7.71897V8.22345C9.20406 8.29035 9.17749 8.35451 9.13018 8.40181C9.08288 8.44911 9.01872 8.47569 8.95182 8.47569C8.88493 8.47569 8.82077 8.44911 8.77346 8.40181C8.72616 8.35451 8.69959 8.29035 8.69959 8.22345V7.71897C8.69959 7.65208 8.72616 7.58792 8.77346 7.54061C8.82077 7.49331 8.88493 7.46674 8.95182 7.46674ZM8.95182 9.98912C9.01872 9.98912 9.08288 10.0157 9.13018 10.063C9.17749 10.1103 9.20406 10.1745 9.20406 10.2414V10.7458C9.20406 10.8127 9.17749 10.8769 9.13018 10.9242C9.08288 10.9715 9.01872 10.9981 8.95182 10.9981C8.88493 10.9981 8.82077 10.9715 8.77346 10.9242C8.72616 10.8769 8.69959 10.8127 8.69959 10.7458V10.2414C8.69959 10.1745 8.72616 10.1103 8.77346 10.063C8.82077 10.0157 8.88493 9.98912 8.95182 9.98912ZM10.9697 8.72793C11.0366 8.72793 11.1008 8.7545 11.1481 8.80181C11.1954 8.84911 11.222 8.91327 11.222 8.98016V9.48464C11.222 9.55154 11.1954 9.6157 11.1481 9.663C11.1008 9.7103 11.0366 9.73688 10.9697 9.73688C10.9028 9.73688 10.8387 9.7103 10.7914 9.663C10.7441 9.6157 10.7175 9.55154 10.7175 9.48464V8.98016C10.7175 8.91327 10.7441 8.84911 10.7914 8.80181C10.8387 8.7545 10.9028 8.72793 10.9697 8.72793Z" stroke="#121139" stroke-width="0.26485" stroke-linecap="round" stroke-linejoin="round"/>
</g>
<rect x="3.6707" y="2.81609" width="12.5804" height="12.5804" rx="2.05259" stroke="#121139" stroke-width="0.132425" shape-rendering="crispEdges"/>
</g>
<defs>
<filter id="filter0_d_1189_8870" x="0.426292" y="0.631078" width="19.0693" height="19.0692" filterUnits="userSpaceOnUse" color-interpolation-filters="sRGB">
<feFlood flood-opacity="0" result="BackgroundImageFix"/>
<feColorMatrix in="SourceAlpha" type="matrix" values="0 0 0 0 0 0 0 0 0 0 0 0 0 0 0 0 0 0 127 0" result="hardAlpha"/>
<feOffset dy="1.0594"/>
<feGaussianBlur stdDeviation="1.5891"/>
<feComposite in2="hardAlpha" operator="out"/>
<feColorMatrix type="matrix" values="0 0 0 0 0 0 0 0 0 0 0 0 0 0 0 0 0 0 0.1 0"/>
<feBlend mode="normal" in2="BackgroundImageFix" result="effect1_dropShadow_1189_8870"/>
<feBlend mode="normal" in="SourceGraphic" in2="effect1_dropShadow_1189_8870" result="shape"/>
</filter>
<clipPath id="clip0_1189_8870">
<rect width="5.297" height="5.297" fill="white" transform="translate(7.3125 6.45776)"/>
</clipPath>
</defs>
</svg>
