<svg width="151" height="150" viewBox="0 0 151 150" fill="none" xmlns="http://www.w3.org/2000/svg">
<g clip-path="url(#clip0_1125_2809)">
<path d="M52.1186 98.1456C51.8921 98.3624 51.6139 98.5176 51.3104 98.5963C51.0069 98.675 50.6883 98.6745 50.385 98.5951C49.0357 98.4829 47.7016 98.2309 46.4043 97.843C46.0375 97.7054 45.6981 97.5036 45.056 97.1917C46.2759 96.6964 46.8905 97.5495 47.6701 97.687C48.5711 97.9182 49.4928 98.0595 50.4217 98.1089C49.5045 95.715 48.6974 93.4312 47.7985 91.1657C45.8112 86.1271 43.8025 81.0977 41.7724 76.0775C41.2404 74.7567 41.2221 74.7567 42.5796 74.4174C49.9906 72.5371 57.4384 70.7485 64.7945 68.6848C65.1368 68.5949 65.4665 68.4624 65.7759 68.2904C61.2448 68.3729 56.7138 67.4282 52.2103 68.428C48.5231 69.4001 44.9754 70.8396 41.6532 72.7113C33.9211 76.6554 26.2715 80.7461 18.7229 85.057C14.0907 87.8239 8.59718 88.7749 3.30452 87.7261L1.39672 87.3684C1.29583 87.3684 1.20411 87.2858 1.06652 87.2308C1.5343 86.6621 2.10297 86.9465 2.60744 87.0199C5.65259 87.4418 8.69773 87.9371 11.7796 87.3959C13.6752 86.9658 15.4898 86.235 17.1544 85.2313C25.4093 80.9112 33.4441 76.2609 41.7724 72.1151C45.212 70.4 48.6515 68.6756 52.4671 67.896C55.725 67.3404 59.0462 67.2601 62.3271 67.6575C66.2695 67.9046 70.2224 67.3844 73.9666 66.1258C87.1561 62.1817 100.217 57.8708 113.407 53.8168C118.277 52.3309 123.184 50.9734 128.082 49.515C128.953 49.2582 129.265 49.3958 129.44 50.368C129.917 52.9913 130.568 55.587 131.1 58.201C131.237 58.8614 131.476 59.0174 132.145 58.8706C133.604 58.5587 135.108 58.4028 136.566 58.0451C137.484 57.825 137.612 58.2286 137.695 58.9623C137.988 61.6131 138.318 64.2638 138.612 66.9146C138.795 68.4555 138.804 68.4463 140.29 68.2812C141.776 68.1161 143.28 67.9877 144.766 67.8226C145.436 67.74 145.683 67.9785 145.683 68.6573C145.995 79.4345 147.38 90.1017 148.875 100.76C149.27 103.511 149.563 106.263 149.976 109.015C150.15 110.179 149.343 110.079 148.71 110.152C145.839 110.482 142.959 110.757 140.088 111.069C132.953 111.812 125.853 112.858 118.782 114.05C102.574 116.802 86.5691 120.471 70.5087 123.928C68.0414 124.451 65.5649 124.956 63.0976 125.506C62.3822 125.671 62.0978 125.506 62.0612 124.736C62.0612 123.754 61.8777 122.773 61.786 121.791C61.731 121.259 61.5383 120.975 60.9513 121.241C60.7471 121.319 60.5389 121.387 60.3276 121.443C58.8509 121.892 58.8142 121.901 58.5757 120.361C58.4657 119.608 58.0988 119.755 57.6585 120.003C56.8697 120.489 56.6129 120.159 56.4386 119.361C55.9892 117.214 55.4481 115.087 54.9986 112.94C54.8335 112.142 54.5675 112.023 53.8521 112.408C50.6694 113.913 47.4316 115.261 44.2764 116.829C39.0483 119.425 33.545 119.948 27.7666 119.581C22.8503 119.278 18.3468 117.6 13.7883 116.013C11.0366 115.096 8.28499 114.179 5.53335 113.261C3.96461 112.876 2.35081 112.707 0.736328 112.757C0.837221 112.179 1.23162 112.317 1.51596 112.317C3.69609 112.258 5.86951 112.584 7.93644 113.28C11.3974 114.503 14.8645 115.677 18.3376 116.802C24.0089 118.825 30.054 119.582 36.049 119.021C38.5805 118.618 41.0361 117.832 43.3317 116.692C53.6778 112.216 63.7672 107.199 73.9115 102.227C75.7962 101.397 77.6335 100.463 79.4148 99.4297C83.3772 96.9166 84.0009 91.5692 80.5705 88.7626C78.2224 86.8364 75.5717 86.8548 72.9301 88.1205C69.1971 89.8999 65.5007 91.7894 61.7952 93.6238C59.2728 94.8712 56.7597 96.1461 54.2373 97.4027C54.0419 97.5389 53.8206 97.6336 53.5871 97.6809C53.3536 97.7283 53.1129 97.7272 52.8799 97.6779C53.0518 96.8257 52.9819 95.9425 52.6781 95.128C51.8251 92.2571 51.0363 89.3679 50.1924 86.4879C49.156 83.2501 48.1746 79.9848 47.2573 76.7562C47.177 76.5513 47.1156 76.3395 47.0739 76.1234C46.8446 75.0135 47.0739 74.7017 48.2112 74.4999C51.1647 73.9863 54.1273 73.5827 57.0899 73.1883C59.759 72.8031 62.428 72.3811 65.088 71.9501C69.674 71.2255 74.1775 70.3816 78.6994 69.5103C82.8616 68.8574 86.9858 67.9817 91.0542 66.887C96.6217 65.1719 102.162 63.3833 107.72 61.6406C112.685 60.0936 117.656 58.5649 122.634 57.0545C124.074 56.6143 124.468 56.8069 124.808 58.1735C125.239 60.0079 125.184 59.8337 127.009 59.4943L127.541 59.3842C130.293 58.8614 129.926 59.3017 129.375 56.6326C129.045 54.9816 128.614 53.349 128.339 51.6797C128.155 50.5698 127.99 50.4689 126.853 50.7624C122.029 52.1199 117.216 53.5416 112.416 55.0275C96.7501 59.9162 81.185 65.1168 65.354 69.4552C58.3556 71.3722 51.3389 73.225 44.2581 74.9585C42.9648 75.2795 42.9648 75.2979 43.4693 76.5361C46.2209 83.2134 48.9175 89.8999 51.3206 96.7148C51.5557 97.2083 51.8222 97.6863 52.1186 98.1456Z" fill="#6977A5"/>
<path d="M31.4907 144.557C32.8296 143.997 34.2594 143.686 35.7099 143.639C38.5899 143.447 41.4608 143.236 44.3409 143.135C67.8399 142.218 91.3388 142.878 114.838 142.777C118.598 142.777 122.377 142.731 126.129 142.988C128.99 143.19 131.834 142.988 134.677 143.181C138.539 143.419 142.418 143.41 146.271 143.649C147.389 143.559 148.51 143.762 149.527 144.236C148.564 144.905 147.491 144.676 146.537 144.859C145.325 145.065 144.096 145.154 142.868 145.125C139.832 145.125 136.805 145.3 133.778 145.428C131.366 145.529 128.954 145.428 126.551 145.593C120.882 145.978 115.205 145.593 109.536 145.822C98.1537 146.244 86.7711 146.079 75.3885 145.942C68.3627 145.85 61.3368 146.033 54.2926 145.749C51.0824 145.611 47.8721 145.685 44.6527 145.575C41.4333 145.465 37.9662 145.336 34.6276 145.107C33.5544 145.153 32.4841 144.965 31.4907 144.557Z" fill="#E2E2E2"/>
<path d="M50.4217 86.4788C51.4032 89.8634 52.3754 93.257 53.3935 96.6232C53.5861 97.2561 53.0908 97.357 52.8432 97.6597C52.5955 97.9623 52.3754 98.0082 52.1186 98.1458C51.5407 98.2192 51.3848 97.8064 51.2014 97.3753C48.624 90.0926 45.6981 82.9567 42.7814 75.8117C42.3503 74.766 43.1299 74.8944 43.5977 74.8027C49.6421 73.2251 55.7049 71.7025 61.7401 70.0883C73.3979 66.9697 84.9273 63.4109 96.4199 59.7329C106.381 56.541 116.342 53.3124 126.422 50.5608C128.706 49.9279 128.174 49.9096 128.623 51.9733C129.073 54.037 129.54 56.2659 130.036 58.3938C130.21 59.1184 129.972 59.311 129.366 59.4211L127.532 59.6687C127.082 59.4853 127.064 59.0542 126.981 58.669C126.734 57.4491 126.385 56.2475 126.202 55.0001C126.092 54.2113 125.716 54.0003 124.909 54.2205C119.754 55.6605 114.663 57.2931 109.545 58.8616C103.593 60.696 97.6215 62.5946 91.733 64.4749C84.432 66.7863 77.0943 68.9937 69.7199 71.0972C68.179 71.5466 66.583 71.7117 65.0696 72.2437C62.0153 72.739 58.9702 73.2435 55.8975 73.7112C53.2376 74.124 50.5685 74.5 47.8994 74.8761C47.2665 74.9587 46.9822 75.188 47.2482 75.8759C47.3454 76.1748 47.416 76.4817 47.4591 76.7931C47.2628 77.024 47.1417 77.3094 47.1122 77.611C47.0827 77.9127 47.1461 78.2162 47.294 78.4807C48.303 80.8838 49.2569 83.3145 50.0457 85.8184C50.1741 86.0477 50.1466 86.3413 50.4217 86.4788Z" fill="#8ACFF5"/>
<path d="M74.6822 99.76C71.7104 99.76 70.0961 98.3384 69.3532 95.7243C69.056 94.7519 69.1067 93.7064 69.4967 92.7673C69.8868 91.8283 70.5916 91.0545 71.4903 90.5787C72.8404 89.7016 74.3155 89.0336 75.8654 88.5976C76.9322 88.373 78.0438 88.5242 79.0117 89.0258C79.9797 89.5273 80.7443 90.3482 81.1761 91.3492C82.2951 93.5413 82.0933 95.7243 80.2588 97.1185C78.4244 98.5126 76.4341 99.6041 74.6822 99.76Z" fill="#6A78A7"/>
<path d="M118.241 35.7294C117.397 36.7475 116.479 37.3529 115.801 38.2059C114.959 39.3655 114.53 40.7732 114.581 42.205C114.581 42.5352 114.581 42.8745 114.196 43.0213C113.81 43.168 113.654 42.9296 113.462 42.6911C112.694 41.6386 111.698 40.7739 110.547 40.1623C109.397 39.5506 108.123 39.2079 106.821 39.1598C106.73 39.1598 106.638 39.0681 106.519 39.0131C106.583 38.8938 106.601 38.7654 106.674 38.7195C107.695 38.1003 108.551 37.2444 109.17 36.2242C109.79 35.204 110.154 34.0495 110.233 32.8586C110.334 32.0698 110.903 31.8496 111.343 32.4275C113.022 34.638 115.379 35.4543 118.241 35.7294Z" fill="#6C7AA8"/>
<path d="M103.116 9.87321C102.538 10.3593 101.923 10.7904 101.391 11.3499C100.813 11.9638 100.376 12.6962 100.11 13.4961C99.8442 14.296 99.7554 15.1442 99.8503 15.9818C99.8503 16.3212 100.006 16.7523 99.5384 16.8991C99.0706 17.0458 98.8597 16.734 98.6212 16.4771C97.8233 15.5435 96.8271 14.7997 95.7053 14.2998C94.5835 13.8 93.3643 13.5568 92.1365 13.5879C92.0446 13.6057 91.9495 13.596 91.8631 13.5602C91.7767 13.5243 91.7027 13.4638 91.6504 13.3861C91.6504 13.0835 91.8889 12.955 92.0906 12.8175C92.9188 12.2126 93.5974 11.4261 94.0744 10.5182C94.5514 9.61038 94.8141 8.60532 94.8423 7.58018C94.8423 7.13075 94.7689 6.54373 95.3468 6.35111C95.9246 6.1585 96.1264 6.66297 96.4107 6.97482C97.7069 8.34421 99.4806 9.16205 101.364 9.25868C101.868 9.25868 102.373 9.39626 102.877 9.46964L103.116 9.87321Z" fill="#6B78A6"/>
<path d="M74.3241 39.2699C74.4892 37.252 73.4711 35.6744 72.2054 34.1977C72.0036 33.9592 71.6092 33.7391 71.7468 33.3814C71.8843 33.0237 72.3705 33.0604 72.719 33.0695C73.6371 33.0894 74.5501 32.927 75.405 32.5917C76.2599 32.2563 77.0398 31.7547 77.6995 31.1159C78.0637 30.7584 78.453 30.4274 78.8643 30.1253C79.2954 29.8409 79.6348 29.8868 79.644 30.5197V30.9691C79.5674 32.0323 79.7522 33.098 80.1823 34.0732C80.6124 35.0485 81.2746 35.9037 82.1113 36.5641C82.3314 36.7292 82.6891 36.9035 82.6249 37.2153C82.5607 37.5272 82.0838 37.5731 81.7902 37.5639C80.5633 37.4885 79.3356 37.6977 78.2028 38.175C77.07 38.6523 76.0628 39.3848 75.2597 40.3155C75.0763 40.5265 74.8286 40.7833 74.5076 40.6182C74.1866 40.4531 74.3425 40.1046 74.3333 39.8294C74.3241 39.5542 74.3241 39.4992 74.3241 39.2699Z" fill="#6C7AA8"/>
<path d="M131.696 24.9705C131.752 24.8203 131.852 24.6904 131.983 24.5972C132.113 24.5041 132.269 24.4521 132.429 24.4477C132.82 24.2986 133.242 24.2538 133.655 24.3177C134.068 24.3817 134.457 24.5522 134.784 24.8124C135.111 25.0726 135.364 25.4135 135.519 25.8016C135.674 26.1896 135.725 26.6113 135.667 27.0251C135.648 27.4682 135.492 27.8945 135.221 28.2458C134.95 28.5971 134.577 28.8562 134.154 28.9879C133.741 29.1438 133.291 29.1729 132.861 29.0716C132.431 28.9703 132.041 28.7432 131.742 28.4193C131.412 28.0746 131.183 27.6457 131.081 27.1797C130.98 26.7137 131.008 26.2286 131.164 25.7777C131.263 25.4647 131.447 25.1854 131.696 24.9705Z" fill="#8ACFF5"/>
<path d="M72.5723 51.5513C72.63 51.4052 72.7296 51.2795 72.8585 51.1897C72.9873 51.1 73.1399 51.0503 73.2969 51.0468C73.753 50.8495 74.2621 50.811 74.7427 50.9374C75.2233 51.0638 75.6476 51.3478 75.9476 51.7439C76.3014 52.1206 76.5259 52.6002 76.5886 53.1132C76.6513 53.6261 76.5488 54.1457 76.2962 54.5964C76.0697 54.9941 75.7295 55.3149 75.3192 55.5176C74.9089 55.7203 74.4474 55.7956 73.994 55.7338C73.5579 55.6419 73.1532 55.438 72.8198 55.1423C72.4864 54.8467 72.2356 54.4693 72.0922 54.0474C71.9488 53.6254 71.9176 53.1734 72.0018 52.7358C72.086 52.2981 72.2826 51.8899 72.5723 51.5513Z" fill="#8ACFF5"/>
<path d="M70.1876 10.0108C70.3746 9.75687 70.6435 9.5754 70.9489 9.49713C72.7834 9.277 74.0399 10.0475 74.2234 11.5517C74.28 11.8591 74.275 12.1747 74.2085 12.4801C74.1421 12.7855 74.0155 13.0746 73.8363 13.3307C73.6571 13.5868 73.4287 13.8046 73.1645 13.9716C72.9002 14.1386 72.6054 14.2513 72.2972 14.3033C71.6704 14.3202 71.0596 14.1048 70.5821 13.6984C70.1046 13.292 69.7942 12.7234 69.7107 12.102C69.6252 11.3709 69.7936 10.6326 70.1876 10.0108Z" fill="#FCF7C2"/>
<path d="M93.0444 29.4923C93.1204 29.3602 93.2281 29.249 93.3578 29.169C93.4875 29.0889 93.6351 29.0424 93.7873 29.0337C94.2709 28.8207 94.815 28.7887 95.3202 28.9437C95.8253 29.0986 96.258 29.4301 96.539 29.8776C96.8633 30.2786 97.05 30.7734 97.0715 31.2887C97.093 31.8041 96.9481 32.3126 96.6582 32.7393C96.4038 33.1266 96.0337 33.4238 95.6006 33.5885C95.1675 33.7531 94.6934 33.7769 94.2459 33.6565C93.7356 33.4997 93.2898 33.1817 92.9756 32.75C92.6613 32.3183 92.4956 31.7964 92.5032 31.2626C92.4631 30.946 92.4906 30.6245 92.5839 30.3194C92.6772 30.0142 92.8341 29.7324 93.0444 29.4923Z" fill="#FDF8C2"/>
<path d="M93.0445 29.4924C92.9277 30.0189 92.8419 30.5518 92.7877 31.0884C92.7478 31.6576 92.9269 32.2206 93.2884 32.6621C93.6498 33.1037 94.1663 33.3905 94.7321 33.464C95.2338 33.4489 95.7139 33.2563 96.0868 32.9203C96.4597 32.5844 96.7012 32.1269 96.7684 31.6295C96.819 31.052 96.6526 30.4763 96.3015 30.015C95.9504 29.5536 95.4399 29.2398 94.8697 29.1347C94.512 29.0797 94.1451 29.0705 93.7874 29.043C93.7324 28.6669 93.9433 28.5294 94.2735 28.456C94.89 28.3642 95.5197 28.4614 96.0798 28.7349C96.6398 29.0083 97.1037 29.4452 97.4104 29.9877C97.6814 30.5879 97.7427 31.2618 97.5844 31.901C97.4261 32.5403 97.0574 33.1077 96.5376 33.5121C96.0179 33.9164 95.3772 34.1343 94.7187 34.1305C94.0602 34.1268 93.422 33.9017 92.9069 33.4915C92.4002 33.0962 92.0445 32.5389 91.8993 31.9129C91.754 31.2869 91.828 30.63 92.1089 30.0519C92.1667 29.8586 92.2948 29.6939 92.468 29.5904C92.6411 29.4868 92.8468 29.4519 93.0445 29.4924Z" fill="#6B79A8"/>
<path d="M117.516 19.4488C117.04 19.4564 116.57 19.345 116.149 19.1248C115.728 18.9045 115.368 18.5824 115.103 18.1878C114.837 17.7932 114.675 17.3385 114.63 16.8651C114.586 16.3917 114.66 15.9147 114.846 15.4773C114.993 15.1563 115.149 14.6885 115.599 14.8444C116.204 15.0462 115.727 15.4498 115.599 15.7616C115.41 16.3579 115.459 17.0042 115.736 17.565C116.013 18.1258 116.496 18.5576 117.084 18.7701C117.353 18.8244 117.63 18.8243 117.899 18.7698C118.168 18.7153 118.423 18.6075 118.65 18.4528C118.877 18.2981 119.07 18.0995 119.218 17.8689C119.367 17.6383 119.468 17.3802 119.515 17.11C119.56 16.7953 119.54 16.4747 119.456 16.168C119.373 15.8614 119.227 15.5751 119.028 15.3268C118.83 15.0785 118.583 14.8734 118.302 14.7242C118.021 14.575 117.713 14.4848 117.396 14.4592C117.094 14.4592 116.626 14.6335 116.635 14.1565C116.644 13.6796 117.149 13.8172 117.442 13.7988C118.198 13.7532 118.942 14.0065 119.513 14.504C120.085 15.0015 120.438 15.7035 120.497 16.4587C120.497 17.2502 120.183 18.0093 119.624 18.5698C119.065 19.1303 118.307 19.4464 117.516 19.4488Z" fill="#6B79A7"/>
<path d="M70.1878 10.0107C70.4722 10.396 70.1878 10.6986 70.0502 11.0288C69.9053 11.5418 69.9316 12.088 70.1253 12.5846C70.319 13.0813 70.6694 13.5011 71.1234 13.7805C71.4833 14.0056 71.913 14.0916 72.3318 14.0224C72.7506 13.9531 73.1298 13.7334 73.3981 13.4044C73.6632 13.1068 73.8432 12.7433 73.9193 12.352C73.9955 11.9608 73.9648 11.5562 73.8307 11.1809C73.6965 10.8056 73.4637 10.4733 73.1568 10.219C72.8499 9.96467 72.4802 9.79769 72.0864 9.73558C71.7012 9.68054 71.2793 9.83647 70.9491 9.50627C72.1048 8.40562 74.3887 9.34118 74.8106 11.0839C74.9524 11.6556 74.9149 12.257 74.7032 12.8067C74.4916 13.3564 74.116 13.8276 73.6274 14.1565C73.1453 14.5079 72.5661 14.701 71.9696 14.709C71.3731 14.717 70.7889 14.5397 70.2975 14.2014C69.8062 13.8631 69.4321 13.3806 69.2267 12.8205C69.0214 12.2604 68.9951 11.6504 69.1514 11.0747C69.2706 10.5611 69.4174 9.96488 70.1878 10.0107Z" fill="#6A79A7"/>
<path d="M72.5726 51.5514C72.6918 51.9091 72.4533 52.1934 72.3616 52.4686C72.2533 52.7625 72.2063 53.0755 72.2236 53.3883C72.2409 53.701 72.3221 54.007 72.4622 54.2871C72.6023 54.5673 72.7983 54.8158 73.0381 55.0173C73.2779 55.2188 73.5565 55.369 73.8567 55.4587C74.1249 55.5198 74.4028 55.525 74.673 55.4738C74.9433 55.4226 75.2001 55.3162 75.4274 55.1612C75.6547 55.0063 75.8475 54.8061 75.9939 54.5732C76.1403 54.3403 76.237 54.0797 76.2781 53.8077C76.3524 53.192 76.1859 52.5714 75.8132 52.0757C75.4406 51.58 74.8907 51.2475 74.2786 51.1478C73.9575 51.1478 73.6274 51.1478 73.2972 51.0836C73.7763 50.7318 74.37 50.5724 74.9609 50.637C75.5518 50.7015 76.0971 50.9852 76.4891 51.4321C76.9325 51.9 77.1916 52.5125 77.2186 53.1565C77.2456 53.8006 77.0386 54.4326 76.6358 54.9359C76.1905 55.5276 75.5409 55.9324 74.8136 56.0715C74.0862 56.2105 73.3331 56.0738 72.701 55.688C72.1311 55.3807 71.6956 54.8729 71.4787 54.2629C71.2618 53.6529 71.279 52.9841 71.5269 52.386C71.5794 52.1483 71.7118 51.9357 71.9021 51.7838C72.0924 51.6319 72.3291 51.5499 72.5726 51.5514Z" fill="#6B79A8"/>
<path d="M96.209 51.6888C96.4965 51.5086 96.8178 51.389 97.1532 51.3376C97.4886 51.2862 97.8309 51.3041 98.1592 51.39C98.4874 51.4759 98.7946 51.6281 99.0618 51.8373C99.329 52.0464 99.5505 52.308 99.7128 52.6061C100.023 53.1284 100.142 53.7423 100.05 54.3428C99.9583 54.9433 99.6607 55.4933 99.2083 55.8988C98.7069 56.3883 98.056 56.6958 97.3595 56.7723C96.6629 56.8487 95.9609 56.6898 95.3652 56.3208C94.8529 55.9908 94.4736 55.4906 94.294 54.9084C94.1145 54.3261 94.1463 53.6992 94.3838 53.138C94.4478 52.9643 94.5308 52.7982 94.6314 52.6427C94.6938 52.5275 94.7985 52.4411 94.9235 52.4017C95.0485 52.3623 95.1838 52.3731 95.301 52.4318C95.5762 52.5785 95.301 52.8078 95.301 53.0005C94.8699 54.5597 95.4569 55.8622 96.7227 56.174C96.9889 56.2426 97.2665 56.255 97.5378 56.2105C97.8092 56.1659 98.0682 56.0654 98.2986 55.9153C98.5289 55.7652 98.7255 55.5688 98.8758 55.3385C99.0261 55.1083 99.1269 54.8493 99.1716 54.5781C99.2601 53.9632 99.1126 53.3377 98.7587 52.8272C98.4047 52.3167 97.8707 51.9592 97.2638 51.8264C96.9245 51.7072 96.6034 51.7164 96.209 51.6888Z" fill="#6C79A8"/>
<path d="M131.696 24.9705C131.613 25.2823 131.531 25.5942 131.439 25.8877C131.342 26.1826 131.306 26.4941 131.332 26.8034C131.358 27.1128 131.447 27.4136 131.593 27.6878C131.738 27.962 131.938 28.2039 132.18 28.3989C132.421 28.594 132.7 28.7381 132.998 28.8228C133.279 28.8879 133.571 28.8901 133.853 28.8292C134.135 28.7682 134.399 28.6457 134.628 28.4704C134.857 28.295 135.044 28.0712 135.176 27.815C135.308 27.5587 135.382 27.2764 135.392 26.9883C135.427 26.6804 135.4 26.3687 135.313 26.0712C135.226 25.7737 135.082 25.4963 134.887 25.255C134.693 25.0137 134.453 24.8133 134.18 24.6653C133.908 24.5173 133.609 24.4246 133.301 24.3926C133.008 24.3926 132.714 24.3926 132.43 24.3926C133.347 23.4754 135.273 23.934 135.989 25.2548C136.278 25.7904 136.376 26.409 136.266 27.0079C136.156 27.6069 135.845 28.1502 135.383 28.5476C134.872 28.9963 134.229 29.2667 133.55 29.318C132.872 29.3693 132.196 29.1987 131.623 28.8319C131.133 28.5361 130.76 28.0818 130.565 27.5445C130.37 27.0072 130.364 26.4193 130.549 25.8785C130.724 25.3557 131.017 24.9338 131.696 24.9705Z" fill="#6B79A7"/>
<path d="M51.412 37.041C50.7425 39.0864 51.2836 40.4622 52.8429 40.8291C53.1041 40.8746 53.3718 40.8661 53.6296 40.8043C53.8874 40.7426 54.1298 40.6287 54.342 40.4698C54.5541 40.3109 54.7316 40.1102 54.8634 39.8802C54.9952 39.6502 55.0786 39.3957 55.1084 39.1323C55.3836 37.573 54.2829 36.4357 52.3568 36.2706C52.7899 36 53.3007 35.881 53.8088 35.9325C54.3169 35.984 54.7934 36.2029 55.1634 36.5549C55.6115 36.9377 55.9137 37.4635 56.019 38.0434C56.1243 38.6233 56.0262 39.2217 55.7413 39.7376C55.3867 40.3377 54.848 40.8073 54.2051 41.0766C53.5623 41.346 52.8498 41.4007 52.1733 41.2327C51.5738 41.1071 51.0411 40.7662 50.676 40.2743C50.3109 39.7825 50.1388 39.1738 50.1922 38.5636C50.2105 37.5822 50.4948 37.2153 51.412 37.041Z" fill="#6D7AA9"/>
<path d="M67.2802 106.786C66.9408 106.171 67.3902 105.869 67.9864 105.594C70.3528 104.447 72.7192 103.282 75.0673 102.071C75.2866 101.926 75.5516 101.866 75.812 101.904C76.0724 101.941 76.31 102.072 76.4798 102.273C77.2314 102.895 78.1307 103.314 79.091 103.487C80.0512 103.661 81.04 103.584 81.9618 103.264C82.8837 102.944 83.7076 102.392 84.3539 101.661C85.0003 100.93 85.4473 100.045 85.6519 99.0905C85.8349 98.3004 85.802 97.4757 85.5567 96.7028C85.3114 95.9298 84.8628 95.237 84.2578 94.697C84.0427 94.5062 83.8734 94.2694 83.7623 94.0043C83.6511 93.7391 83.601 93.4524 83.6157 93.1653C83.7166 89.2946 80.0569 86.5797 76.2138 86.7906C74.8219 86.9036 73.4691 87.3066 72.2423 87.9738C69.9768 89.0928 67.6562 90.1935 65.4549 91.3492C64.7578 91.7069 64.5377 91.5968 64.4276 90.8172C64.0516 88.8085 63.593 86.809 63.116 84.8186C62.9876 84.25 63.0518 84.0665 63.6847 84.0115C67.4269 83.6935 71.1722 83.345 74.9206 82.9659C79.6534 82.4889 84.377 82.0487 89.1007 81.4708C94.182 80.896 99.2603 80.2846 104.336 79.6364C110.242 78.8843 116.14 78.068 122.047 77.2792C127.082 76.6096 132.136 75.9217 137.144 75.2613C138.474 75.0778 138.511 75.1329 138.538 76.4445C138.706 83.1331 139.288 89.8048 140.281 96.4214C140.63 98.8673 140.993 101.313 141.373 103.759C141.455 104.319 141.373 104.621 140.712 104.676C131.442 105.581 122.203 106.768 112.994 108.235C104.198 109.648 95.4386 111.308 86.7067 113.124C81.0567 114.298 75.4067 115.509 69.7566 116.692C68.4542 116.967 68.3625 116.921 68.2524 115.463C68.0323 112.601 67.6379 109.785 67.2802 106.786Z" fill="#8ACFF5"/>
<path d="M61.0157 93.4679C60.1627 93.8807 59.1813 94.7704 58.4934 94.5777C57.8054 94.3851 57.9614 92.9818 57.7688 92.1013C56.8515 87.8546 55.9343 83.5895 55.0171 79.352C54.8062 78.4348 55.118 78.1963 55.9343 78.1413C59.1568 77.9334 62.367 77.7102 65.5651 77.4717C70.1511 77.1232 74.8289 76.738 79.4425 76.2152C84.0561 75.6923 88.4587 75.2979 92.9622 74.7935C97.319 74.2982 101.676 73.7295 106.023 73.1792C110.885 72.5646 115.737 71.9226 120.598 71.3447C125.743 70.7027 130.898 70.0607 136.053 69.4553C138.557 69.1526 141.07 68.9508 143.574 68.6573C144.491 68.5564 144.766 68.8132 144.785 69.7671C145.047 78.4641 145.825 87.1378 147.114 95.7426C147.72 100.09 148.288 104.438 148.885 108.776C148.967 109.317 148.885 109.556 148.243 109.62C142.415 110.152 136.606 110.812 130.816 111.601C125.422 112.335 120.047 113.206 114.691 114.133C99.7771 116.728 85.0467 120.186 70.2428 123.305C68.2066 123.727 66.1613 124.149 64.1434 124.635C63.3271 124.827 63.0152 124.8 62.9143 123.809C62.4741 119.15 61.9054 114.509 61.1441 109.895C61.034 109.235 61.1441 108.978 61.7495 108.749C62.3548 108.519 63.0152 108.18 63.6481 107.896C64.1067 108.244 64.1159 108.813 64.2076 109.281C64.7854 112.748 65.1248 116.242 65.4825 119.737C65.6018 120.92 65.7118 120.975 66.8583 120.718C74.5446 119.012 82.243 117.358 89.9537 115.756C99.2726 113.793 108.619 111.968 118.03 110.491C126.523 109.152 135.062 108.052 143.638 107.281C145.252 107.125 145.381 106.96 145.133 105.373C143.968 97.6229 142.932 89.8541 142.272 82.0486C142.033 79.1319 141.895 76.206 141.795 73.2801C141.795 71.996 141.629 71.8676 140.382 72.0235C132.347 72.9957 124.322 74.0597 116.305 75.1328C108.096 76.2243 99.8963 77.2883 91.6689 78.2422C84.3679 79.086 77.0486 79.8228 69.7109 80.4527C66.4731 80.737 63.217 81.003 59.9701 81.1773C58.9428 81.2323 58.8052 81.3699 59.0529 82.388C59.6857 85.4331 60.3736 88.4691 61.0249 91.5601C61.0799 92.1104 61.3826 92.7892 61.0157 93.4679Z" fill="#8ACFF5"/>
<path d="M61.0152 93.468C60.2264 89.7992 59.4438 86.1303 58.6672 82.4615C58.6338 82.171 58.5817 81.883 58.5113 81.5993C58.2911 80.9847 58.5755 80.8197 59.1258 80.783C62.4828 80.5537 65.8306 80.3611 69.2151 80.0859C72.5996 79.8107 76.03 79.4071 79.442 79.0678C81.9093 78.8293 84.3767 78.6 86.844 78.3432C89.779 78.0405 92.7233 77.7286 95.6492 77.426C98.8686 77.0407 102.07 76.6096 105.298 76.1969C108.527 75.7842 111.517 75.4356 114.617 74.9587C117.717 74.4817 120.836 74.1699 123.936 73.7663C127.66 73.2893 131.384 72.7757 135.108 72.2896C137.089 72.0328 139.088 71.8218 141.079 71.5741C141.849 71.4733 142.152 71.6934 142.17 72.5647C142.335 78.9119 142.849 85.2314 143.638 91.5419C144.252 96.3847 144.867 101.228 145.637 106.043C145.766 106.804 145.821 107.382 144.656 107.474C141.418 107.721 138.235 108.134 134.979 108.519C131.476 108.941 127.963 109.354 124.459 109.868C120.396 110.455 116.332 111.115 112.269 111.812C105.543 112.968 98.8166 114.258 92.0904 115.683C85.5599 117.059 79.0293 118.379 72.5263 119.875C70.4625 120.342 68.3988 120.792 66.3259 121.195C65.8214 121.296 65.2436 121.507 65.1794 120.572C64.8767 116.316 64.3356 112.087 63.6568 107.877L66.2067 106.566C66.5542 108.218 66.7992 109.891 66.9404 111.574C67.1514 113.316 67.3348 115.068 67.4633 116.82C67.5275 117.673 67.8026 117.921 68.6831 117.737C73.1867 116.738 77.6993 115.793 82.2029 114.839C94.4476 112.253 106.729 109.868 119.111 108.043C126.211 106.997 133.337 106.208 140.464 105.392C143.142 105.098 142.656 105.52 142.299 103.035C140.804 93.9293 139.885 84.739 139.547 75.5182C139.547 74.6835 139.345 74.4725 138.474 74.601C130.833 75.6557 123.184 76.7014 115.544 77.6828C107.701 78.7009 99.8592 79.6548 92.0079 80.627C82.3863 81.8011 72.7464 82.6357 63.0515 83.4521C62.1343 83.5346 61.9049 83.8281 62.1343 84.7545C62.6754 86.9191 63.0515 89.1296 63.5926 91.2942C63.7852 92.0739 63.5926 92.4499 62.8772 92.7159C62.1618 92.9819 61.5747 93.1928 61.0152 93.468Z" fill="#FDFEFD"/>
<path d="M57.1999 95.284C57.1999 95.284 57.2 95.3666 57.1449 95.3849C54.5584 96.9533 54.5859 96.9442 53.7604 94.0825C52.0452 88.1389 50.33 82.1587 48.5323 76.2886C48.248 75.3713 48.5965 75.1879 49.3394 75.0778C55.5031 74.2432 61.6301 73.2434 67.7571 72.207C74.2693 71.1063 80.7356 69.8956 87.1561 68.5748C101.3 65.6856 115.379 62.457 129.55 59.6962C131.623 59.2926 133.723 58.9991 135.805 58.6047C136.401 58.4946 136.557 58.6047 136.631 59.2284C136.952 61.98 137.309 64.8142 137.685 67.6026C137.786 68.3638 137.548 68.6757 136.768 68.6573C136.185 68.6698 135.603 68.7188 135.025 68.8041C134.687 68.4123 134.504 67.9095 134.512 67.3916C134.328 66.0433 134.136 64.7042 134.026 63.3559C133.952 62.3102 133.741 62.1451 132.687 62.3653C127.449 63.4384 122.203 64.4565 116.966 65.5663C108.087 67.465 99.2175 69.4461 90.3022 71.2255C85.6702 72.1428 81.0383 73.06 76.3972 73.9772C71.2883 74.9586 66.1611 75.8116 61.0247 76.6738C59.0344 77.004 56.9982 77.0682 55.017 77.4993C54.8805 77.5813 54.7282 77.6335 54.5702 77.6525C54.4121 77.6715 54.2518 77.6568 54.0998 77.6093C52.513 77.9762 52.4488 78.0588 52.8707 79.5355C54.2007 84.1215 55.6223 88.7076 56.723 93.3762C56.8068 94.0286 56.9669 94.6689 57.1999 95.284Z" fill="#8ACFF5"/>
<path d="M55.017 77.4993H54.9161C54.7969 77.4351 54.7602 77.3158 54.9161 77.3067C56.8008 77.1156 58.6744 76.8278 60.5295 76.4445C64.8679 75.6924 69.2155 74.9678 73.5539 74.1973C81.0108 72.8765 88.4403 71.3815 95.8513 69.8039C104.299 67.9694 112.737 66.135 121.185 64.374C125.175 63.521 129.183 62.7872 133.173 61.9433C133.989 61.7782 134.301 62.1085 134.338 62.7872C134.429 64.8326 134.824 66.8413 135.035 68.8683C132.228 69.2352 132.228 69.2352 131.98 66.3735C131.861 65.0344 131.861 65.0344 130.522 65.3187L85.5786 74.7752C81.7955 75.443 77.9763 75.8871 74.1409 76.1051C67.7938 76.6187 61.4008 77.0223 55.017 77.4993Z" fill="#FDFDFD"/>
<path d="M65.1152 72.2436C66.6814 71.5768 68.3097 71.0668 69.9765 70.7211C76.1401 68.9417 82.2763 67.0522 88.4033 65.2178C98.1624 62.2185 107.839 58.9807 117.635 56.0457C120.185 55.2935 122.744 54.5873 125.266 53.7435C126.009 53.4958 126.302 53.6701 126.449 54.4039C126.798 56.1557 127.183 57.8893 127.559 59.632C127.497 59.6746 127.429 59.7085 127.357 59.7329C124.991 60.3566 124.945 60.3657 124.45 58.0085C124.248 57.0913 123.844 56.9904 123.019 57.2472C115.443 59.6136 107.793 61.7599 100.29 64.3373C90.6596 67.6576 80.7262 69.5379 70.7377 71.2897C68.8666 71.6199 66.9863 71.9134 65.1152 72.2436Z" fill="#FDFDFD"/>
<path d="M90.4395 74.2248L106.289 70.8586C114.113 69.1893 121.937 67.5383 129.751 65.8323C130.76 65.6122 131.054 65.9699 131.072 66.8688C131.067 67.1752 131.082 67.4816 131.118 67.786C131.292 69.3544 131.292 69.3544 129.77 69.547C121.258 70.5926 112.746 71.6444 104.234 72.7022C99.8592 73.2434 95.475 73.8212 91.0998 74.3807C90.8799 74.3945 90.6594 74.3945 90.4395 74.3807V74.2248Z" fill="#8ACFF5"/>
<path d="M96.3374 66.0892C98.7864 65.3187 101.235 64.5391 103.675 63.7778L121.276 58.3295C121.726 58.192 122.194 58.0727 122.643 57.926C123.092 57.7792 123.358 57.9993 123.514 58.458C124.101 60.2924 124.046 60.3658 122.047 60.7968C113.688 62.5701 105.332 64.3495 96.9794 66.135L96.3466 66.2267L96.3374 66.0892Z" fill="#8ACFF5"/>
<path d="M83.4688 95.0823C83.9085 95.5002 84.2609 96.0012 84.5057 96.5564C84.7504 97.1115 84.8826 97.7096 84.8945 98.3162C84.9065 98.9227 84.798 99.5256 84.5753 100.09C84.3526 100.654 84.0201 101.169 83.5972 101.604C83.2203 102.043 82.7602 102.403 82.2434 102.664C81.7266 102.924 81.1633 103.08 80.586 103.122C80.0088 103.164 79.4289 103.091 78.88 102.907C78.331 102.724 77.8238 102.434 77.3876 102.053C76.819 101.585 76.5897 101.292 77.4885 100.897C78.7749 100.367 79.9793 99.657 81.0657 98.7878C82.1975 97.8017 83.0301 96.5179 83.4688 95.0823Z" fill="#FDFDFD"/>
<path d="M61.5843 120.03C61.4559 120.948 60.5662 120.792 59.9883 120.993C59.4105 121.195 59.4747 120.608 59.4196 120.269C58.9335 117.352 58.5024 114.435 57.9704 111.528C57.842 110.767 59.0436 109.501 59.8049 109.638C60.0525 109.638 60.0525 109.868 60.08 110.042C60.5753 113.362 61.0798 116.673 61.5843 120.03Z" fill="#8ACFF5"/>
<path d="M57.1998 95.2841C56.4202 93.789 56.2826 92.1014 55.7598 90.5146C54.6133 86.8457 53.586 83.0393 52.5129 79.3063C52.0176 77.6186 52.2102 77.4168 54.1088 77.6094C53.4393 77.8846 53.7419 78.3799 53.8337 78.8201C54.9343 84.0972 56.0411 89.3681 57.154 94.6329C57.1829 94.8488 57.1982 95.0663 57.1998 95.2841Z" fill="#FBFCFB"/>
<path d="M58.264 118.563C58.2813 118.645 58.2808 118.73 58.2626 118.811C58.2443 118.893 58.2089 118.97 58.1585 119.037C58.1081 119.104 58.044 119.159 57.9704 119.199C57.8969 119.239 57.8156 119.263 57.7321 119.269C57.2643 119.37 57.2918 118.957 57.2276 118.719C56.7231 116.554 56.3104 114.371 55.7417 112.225C55.5674 111.528 55.9435 111.363 56.4021 111.207C57.1359 110.95 56.9433 111.592 56.9983 111.904C57.4569 114.124 57.8605 116.343 58.264 118.563Z" fill="#B8F4BA"/>
<path d="M50.4219 86.4787C49.6422 85.8642 49.6331 84.8827 49.2845 84.0664C48.4498 82.1311 47.7436 80.1316 46.8998 78.1963C46.542 77.3983 46.6246 76.9764 47.5143 76.8113C48.4865 80.0276 49.4557 83.2501 50.4219 86.4787Z" fill="#F8FAF9"/>
<path d="M76.6079 89.0745C78.4424 89.0745 80.0658 90.4961 80.7079 92.6241C81.0026 93.4608 81.0003 94.3734 80.7013 95.2086C80.4023 96.0438 79.8249 96.7506 79.0661 97.2101C77.9958 97.8454 76.8799 98.4003 75.7274 98.8703C74.8976 99.2207 73.9678 99.2535 73.1153 98.9626C72.2629 98.6717 71.5472 98.0773 71.1047 97.2927C69.7289 95.1464 69.7747 92.991 71.2239 91.5509C72.8291 90.3638 74.662 89.5208 76.6079 89.0745Z" fill="#FEFEFE"/>
<path d="M113.737 41.728C112.985 40.824 112.052 40.087 110.999 39.5642C109.945 39.0414 108.794 38.7443 107.619 38.692C108.566 38.1205 109.366 37.3364 109.956 36.4019C110.547 35.4673 110.912 34.408 111.022 33.308C112.6 35.2525 114.627 35.7753 116.911 36.188C115.195 37.6739 113.81 39.1598 113.737 41.728Z" fill="#FCFCFC"/>
<path d="M92.7695 13.0926C93.649 12.4432 94.3723 11.6055 94.8865 10.6406C95.4006 9.67576 95.6927 8.60821 95.7413 7.51599C97.4198 9.35042 99.4101 9.76316 101.813 9.99247C100.144 11.5884 98.8231 13.2027 98.9974 15.8168C98.1991 14.9631 97.2351 14.2812 96.1642 13.8128C95.0934 13.3444 93.9383 13.0994 92.7695 13.0926Z" fill="#FDFDFD"/>
<path d="M75.1772 39.4441C75.434 37.0318 74.3517 35.3533 72.8291 33.5739C75.0375 33.5494 77.1457 32.6487 78.6901 31.0699C78.7186 32.1752 78.9008 33.271 79.2312 34.3261C79.7055 35.3137 80.373 36.1963 81.1941 36.9218C80.1118 37.2978 79.0295 37.2336 78.0572 37.628C77.025 38.1105 76.0574 38.7207 75.1772 39.4441Z" fill="#FCFCFC"/>
<path d="M92.3381 95.2198C92.3895 92.4063 93.5365 89.7239 95.5351 87.743C97.5337 85.7621 100.226 84.6391 103.04 84.6128C105.854 84.5865 108.567 85.659 110.602 87.6022C112.638 89.5454 113.835 92.206 113.938 95.018C113.874 97.9549 112.663 100.75 110.566 102.807C108.468 104.863 105.649 106.018 102.712 106.025C99.9083 105.952 97.2465 104.777 95.3042 102.754C93.362 100.731 92.2961 98.0239 92.3381 95.2198Z" fill="#6A78A5"/>
<path d="M130.907 91.6793C130.907 95.0271 127.596 97.5494 124.22 96.9533C121.579 96.4763 119.873 94.7428 119.854 92.4956C119.911 91.2423 120.398 90.0469 121.233 89.1111C122.069 88.1753 123.202 87.5565 124.441 87.3592C127.045 86.8823 129.485 87.9004 130.494 89.8449C130.793 90.4084 130.936 91.0419 130.907 91.6793Z" fill="#6A79A5"/>
<path d="M102.84 84.892C105.584 84.8859 108.218 85.9701 110.163 87.9061C112.108 89.842 113.203 92.4712 113.21 95.2152C113.216 97.9592 112.131 100.593 110.195 102.538C108.259 104.482 105.63 105.578 102.886 105.584C97.5573 105.52 93.0263 100.595 93.0721 94.9171C93.118 89.2395 97.4014 84.8461 102.84 84.892Z" fill="#FEFEFE"/>
<path d="M125.551 87.7629C126.127 87.7483 126.701 87.8484 127.239 88.0573C127.777 88.2663 128.268 88.5799 128.683 88.9801C129.099 89.3803 129.431 89.859 129.66 90.3885C129.889 90.918 130.01 91.4878 130.017 92.0646C129.958 93.2892 129.424 94.4425 128.528 95.2798C127.633 96.1172 126.446 96.5727 125.22 96.5498C124.055 96.5676 122.928 96.13 122.08 95.3301C121.233 94.5302 120.73 93.431 120.68 92.2664C120.701 91.65 120.845 91.0439 121.101 90.4831C121.358 89.9223 121.724 89.418 122.176 88.9992C122.629 88.5805 123.161 88.2556 123.74 88.0434C124.319 87.8312 124.934 87.7359 125.551 87.7629Z" fill="#FEFEFE"/>
<path d="M103.143 91.9545C103.143 93.0827 103.253 93.9724 104.702 94.11C105.24 94.1694 105.739 94.4211 106.106 94.8188C106.474 95.2165 106.685 95.7334 106.702 96.2746C106.823 96.858 106.737 97.4653 106.459 97.9924C106.181 98.5195 105.729 98.9336 105.179 99.1638C104.198 99.5674 104.161 100.127 104.354 100.934C104.445 101.319 104.638 101.851 104.124 101.97C103.611 102.09 103.592 101.484 103.565 101.117C103.501 100.2 103.235 99.6591 102.116 99.5674C101.623 99.5161 101.159 99.3115 100.789 98.9824C100.418 98.6532 100.161 98.2162 100.052 97.7329C100.006 97.6323 99.981 97.5232 99.9788 97.4125C99.9767 97.3019 99.9973 97.1919 100.039 97.0895C100.082 96.9872 100.144 96.8945 100.224 96.8175C100.303 96.7404 100.398 96.6805 100.501 96.6415C100.601 96.5928 100.709 96.5648 100.82 96.5593C100.931 96.5538 101.041 96.5709 101.145 96.6095C101.249 96.6481 101.344 96.7074 101.424 96.7839C101.504 96.8603 101.568 96.9523 101.611 97.0542C101.923 97.6321 102.262 98.4851 102.95 98.2466C103.418 98.0815 102.886 97.2193 102.95 96.6506C102.95 95.8251 102.648 95.3665 101.712 95.229C101.155 95.1755 100.637 94.9203 100.256 94.5115C99.8737 94.1027 99.6546 93.5684 99.6392 93.0093C99.507 92.4399 99.5928 91.8416 99.8797 91.3324C100.167 90.8231 100.634 90.4397 101.189 90.2577C101.694 90.0375 101.987 89.8082 101.886 89.2304C101.874 89.1762 101.873 89.1201 101.882 89.0654C101.892 89.0106 101.912 88.9583 101.942 88.9115C101.972 88.8646 102.011 88.8241 102.056 88.7922C102.102 88.7604 102.153 88.7379 102.207 88.7259C102.271 88.7089 102.338 88.7078 102.403 88.7228C102.467 88.7377 102.527 88.7683 102.577 88.8118C102.627 88.8553 102.665 88.9103 102.689 88.9721C102.712 89.0339 102.72 89.1006 102.712 89.1662C102.712 89.8724 103.216 89.8724 103.684 89.9275C104.103 89.9813 104.502 90.1375 104.846 90.3823C105.19 90.627 105.468 90.9528 105.656 91.3308C105.731 91.425 105.784 91.535 105.811 91.6526C105.837 91.7702 105.837 91.8923 105.81 92.0096C105.782 92.127 105.729 92.2367 105.653 92.3304C105.577 92.4241 105.481 92.4994 105.372 92.5507C105.279 92.6119 105.173 92.652 105.063 92.6679C104.952 92.6838 104.84 92.6753 104.733 92.6429C104.626 92.6106 104.528 92.5551 104.445 92.4805C104.362 92.406 104.296 92.3141 104.253 92.2113C104.169 92.0499 104.071 91.8964 103.959 91.7527C103.776 91.5326 103.565 91.2299 103.244 91.3583C102.923 91.4867 103.207 91.7986 103.143 91.9545Z" fill="#6B7AA6"/>
<path d="M103.647 95.5682C104.436 95.6508 105.014 95.9168 105.133 96.6964C105.174 97.036 105.092 97.3791 104.902 97.6635C104.712 97.9478 104.426 98.1547 104.097 98.2465C103.827 97.3781 103.676 96.4772 103.647 95.5682Z" fill="#F3F5F7"/>
<path d="M102.483 93.6605C101.758 93.5688 101.318 93.312 101.189 92.7433C101.14 92.5482 101.148 92.3427 101.213 92.1521C101.278 91.9615 101.397 91.7941 101.556 91.6702C101.905 91.3858 102.18 91.2483 102.253 91.8811C102.327 92.514 102.391 92.9726 102.483 93.6605Z" fill="#EFF1F3"/>
<rect width="12" height="15.3041" transform="translate(97 87.7246)" fill="white"/>
<path d="M104.845 100.828L99.6677 96.6406L99.4741 95.6308C101.418 95.3477 102.864 94.8245 102.821 92.9509L98.7347 93.8099L99.1579 92.5689L102.424 91.9117C101.706 90.9954 100.315 91.1642 98.2043 91.6991L98.7033 90.466L105.614 88.9614L105.159 90.1709L103.248 90.584C103.676 90.8745 104.023 91.2404 104.109 91.5962L106.086 91.1444L105.629 92.3436L104.313 92.6526C104.445 94.2654 103.195 95.5077 101.407 96.1175L106.642 100.438L104.845 100.827L104.845 100.828Z" fill="#6B7AA6"/>
</g>
<defs>
<clipPath id="clip0_1125_2809">
<rect width="150" height="150" fill="white" transform="translate(0.5)"/>
</clipPath>
</defs>
</svg>
