<svg width="20" height="19" viewBox="0 0 20 19" fill="none" xmlns="http://www.w3.org/2000/svg">
<g filter="url(#filter0_d_1189_8873)">
<rect x="3.67383" y="2.74988" width="12.7128" height="12.7128" rx="2.1188" fill="white" shape-rendering="crispEdges"/>
<path d="M11.6742 9.46838C11.7414 9.46838 11.796 9.52382 11.796 9.59198V10.4603C11.7949 10.5786 11.7736 10.6722 11.7255 10.7418C11.6676 10.8258 11.5652 10.864 11.4171 10.8719L8.60913 10.8716C8.49507 10.8634 8.4029 10.8182 8.34305 10.7344C8.28972 10.6597 8.2643 10.5666 8.26465 10.4593V9.5918C8.26465 9.52365 8.31921 9.4682 8.38648 9.4682C8.45358 9.4682 8.50796 9.52365 8.50796 9.5918V10.4593C8.50796 10.5181 8.51944 10.5603 8.5401 10.5892C8.5544 10.6094 8.57965 10.6217 8.61779 10.6247L11.4105 10.6249C11.4847 10.6208 11.5212 10.6072 11.5262 10.6002C11.541 10.5785 11.552 10.5308 11.5527 10.4589V9.5918C11.5527 9.52365 11.6071 9.4682 11.6743 9.4682L11.6742 9.46838ZM10.0286 7.34058C10.0956 7.34058 10.1504 7.39584 10.1504 7.46417L10.1502 9.38328L10.6909 8.83963C10.7021 8.82821 10.7155 8.81916 10.7304 8.813C10.7452 8.80684 10.761 8.80371 10.7771 8.80377C10.7931 8.80384 10.809 8.80711 10.8237 8.81338C10.8385 8.81966 10.8518 8.82882 10.863 8.84033C10.8858 8.86376 10.8985 8.89519 10.8984 8.92788C10.8982 8.96056 10.8853 8.99189 10.8623 9.01513L10.0932 9.7885C10.0819 9.79987 10.0685 9.80889 10.0538 9.81503C10.039 9.82117 10.0232 9.82431 10.0072 9.82426C9.99117 9.82421 9.97535 9.82098 9.96062 9.81474C9.94589 9.80851 9.93255 9.79941 9.92138 9.78797L9.16285 9.0146C9.14001 8.99122 9.12726 8.95982 9.12732 8.92713C9.12739 8.89445 9.14027 8.86309 9.1632 8.8398C9.17444 8.82836 9.18785 8.81928 9.20264 8.8131C9.21743 8.80691 9.23331 8.80374 9.24935 8.80377C9.26539 8.80381 9.28125 8.80704 9.29602 8.81329C9.31079 8.81954 9.32416 8.82867 9.33535 8.84016L9.90672 9.423V7.464C9.90672 7.39584 9.96146 7.34058 10.0286 7.34058Z" fill="#121139"/>
<rect x="3.74004" y="2.81609" width="12.5804" height="12.5804" rx="2.05259" stroke="#121139" stroke-width="0.132425" shape-rendering="crispEdges"/>
</g>
<defs>
<filter id="filter0_d_1189_8873" x="0.495628" y="0.631078" width="19.0693" height="19.0692" filterUnits="userSpaceOnUse" color-interpolation-filters="sRGB">
<feFlood flood-opacity="0" result="BackgroundImageFix"/>
<feColorMatrix in="SourceAlpha" type="matrix" values="0 0 0 0 0 0 0 0 0 0 0 0 0 0 0 0 0 0 127 0" result="hardAlpha"/>
<feOffset dy="1.0594"/>
<feGaussianBlur stdDeviation="1.5891"/>
<feComposite in2="hardAlpha" operator="out"/>
<feColorMatrix type="matrix" values="0 0 0 0 0 0 0 0 0 0 0 0 0 0 0 0 0 0 0.1 0"/>
<feBlend mode="normal" in2="BackgroundImageFix" result="effect1_dropShadow_1189_8873"/>
<feBlend mode="normal" in="SourceGraphic" in2="effect1_dropShadow_1189_8873" result="shape"/>
</filter>
</defs>
</svg>
