<svg width="151" height="150" viewBox="0 0 151 150" fill="none" xmlns="http://www.w3.org/2000/svg">
<g clip-path="url(#clip0_1125_2706)">
<path d="M117.984 74.1866C117.404 74.2885 117.42 73.928 117.373 73.6224C117.083 71.8435 116.847 70.0411 116.471 68.2778C115.734 64.4509 114.795 60.6658 113.658 56.9382C113.478 56.3975 113.823 56.3505 114.081 56.2016C117.271 54.3443 120.468 52.5027 123.65 50.6376C128.775 47.6361 133.72 44.3683 138.767 41.2336C139.668 40.6694 140.592 40.1365 141.494 39.5801C141.933 39.3058 142.183 39.2353 142.465 39.8465C144.555 44.2874 147.187 48.4518 150.302 52.2441C150.772 52.824 150.851 53.1845 150.051 53.4039C149.252 53.6233 149.064 54.1876 149.15 54.9712C149.55 58.4115 150.098 61.8283 150.717 65.2294C150.772 65.535 150.804 65.8485 150.858 66.1541C151.133 67.7214 151.141 67.7214 149.636 67.8546C144.207 68.4233 138.819 69.3236 133.5 70.5504C128.391 71.7024 123.313 72.9014 118.203 74.1318L117.984 74.1866Z" fill="#8ACFF5"/>
<path d="M94.8894 76.4986C96.1903 76.3575 96.4567 76.624 96.4019 78.0267C96.2399 82.6504 96.0675 87.2766 95.8847 91.9054C95.8847 92.5245 95.8847 93.1514 95.8847 93.8332C96.572 93.5376 97.2217 93.1614 97.8203 92.7126C104.644 88.493 110.768 83.234 115.97 77.1255C116.086 76.9791 116.218 76.8452 116.362 76.7259C116.442 76.6469 116.551 76.6027 116.664 76.6027C116.776 76.6027 116.885 76.6469 116.965 76.7259C117.153 76.961 116.903 77.1255 116.769 77.2744C115.892 78.2932 115.022 79.3198 114.105 80.2994C108.935 85.707 103.047 90.3794 96.6056 94.1859C96.3457 94.3093 96.1282 94.5069 95.9804 94.7537C95.8325 95.0005 95.7611 95.2856 95.775 95.573C95.5869 101.607 95.3753 107.641 95.1088 113.676C95.1088 114.608 95.3439 114.937 96.2373 115.149C104.787 117.163 113.321 119.247 121.871 121.254C122.796 121.473 122.796 121.834 122.474 122.523C122.151 123.268 121.669 123.935 121.063 124.476C120.457 125.017 119.741 125.42 118.964 125.658C118.783 125.752 118.728 125.658 118.697 125.493C118.971 125.054 119.481 124.929 119.865 124.616C120.542 124.068 121.079 123.367 121.432 122.57C121.597 122.21 121.628 121.912 121.142 121.786C117.224 120.948 113.353 119.953 109.458 119.028C104.991 117.962 100.524 116.857 96.0492 115.823C95.7436 115.752 95.4458 115.658 95.1402 115.588C94.8112 115.541 94.5136 115.367 94.3114 115.103C94.1092 114.84 94.0185 114.507 94.0587 114.177C94.0587 112.986 94.1998 111.826 94.2076 110.619C94.2076 106.027 94.5838 101.443 94.6308 96.8503V96.5682C94.6308 95.7845 94.576 95.7454 93.8472 96.1215C93.3143 96.388 92.7814 96.6466 92.2798 96.96C88.0843 99.1855 83.7585 101.156 79.3259 102.861C78.9225 103.033 78.5022 103.161 78.072 103.245C77.7899 103.292 77.4764 103.3 77.3667 102.955C77.257 102.61 77.4921 102.485 77.7115 102.352C78.1198 102.121 78.5504 101.932 78.9967 101.787C83.7082 100.024 88.2773 97.9022 92.6638 95.4397C92.7735 95.3692 92.6246 95.4397 92.7422 95.3849C94.5603 94.758 94.8502 93.4336 94.8659 91.639C94.9182 87.2034 95.0723 82.7627 95.3283 78.3167C95.3612 77.9103 95.2967 77.502 95.1402 77.1255C95.0462 76.9453 94.8267 76.7807 94.8894 76.4986Z" fill="#5C6F81"/>
<path d="M21.1625 69.5396C23.785 69.5303 26.3834 70.0397 28.8082 71.0385C31.233 72.0373 33.4364 73.5058 35.2915 75.3595C37.1466 77.2131 38.6168 79.4153 39.6175 81.8394C40.6182 84.2634 41.1296 86.8614 41.1224 89.4839C41.0979 92.1504 40.5465 94.7859 39.5 97.2386C38.4535 99.6914 36.9325 101.913 35.0245 103.776C33.1164 105.639 30.8589 107.106 28.3818 108.094C25.9047 109.081 23.2568 109.569 20.5904 109.53C15.3181 109.515 10.2669 107.41 6.54535 103.675C2.82384 99.9403 0.736069 94.8816 0.740241 89.6093C0.757627 86.9489 1.30031 84.3181 2.33713 81.868C3.37395 79.4178 4.88449 77.1966 6.78203 75.3319C8.67958 73.4671 10.9268 71.9954 13.3946 71.0015C15.8624 70.0075 18.5022 69.5107 21.1625 69.5396Z" fill="#5D7081"/>
<path d="M77.0531 42.5189C77.0636 43.8305 76.5542 45.0929 75.6363 46.0299C74.7184 46.9668 73.4668 47.5021 72.1552 47.5187C70.8177 47.5064 69.5383 46.9702 68.5918 46.0252C67.6453 45.0801 67.1071 43.8015 67.0928 42.464C67.1029 41.8075 67.2434 41.1596 67.5062 40.5579C67.769 39.9562 68.1488 39.4128 68.6235 38.9592C69.0982 38.5056 69.6584 38.1509 70.2714 37.9158C70.8845 37.6807 71.5381 37.5698 72.1944 37.5897C72.8412 37.5798 73.4832 37.7012 74.0818 37.9463C74.6803 38.1915 75.223 38.5554 75.6771 39.016C76.1312 39.4767 76.4872 40.0246 76.7237 40.6266C76.9602 41.2286 77.0723 41.8724 77.0531 42.5189Z" fill="#8ACFF5"/>
<path d="M56.4509 16.1174C59.334 14.8226 62.4772 14.2111 65.6355 14.3306C70.5958 14.5089 75.3112 16.5311 78.8596 20.0017C82.408 23.4724 84.5341 28.1419 84.8222 33.097C85.1102 38.0522 83.5396 42.9366 80.4173 46.7951C77.295 50.6535 72.8457 53.2085 67.9394 53.9604C57.07 55.5278 47.4858 49.2585 45.0251 38.8122C44.185 35.225 44.3613 31.4746 45.5345 27.982C45.5737 27.8645 45.6285 27.7548 45.6599 27.6372C45.7774 27.261 46.0282 26.9554 46.4044 27.12C46.7805 27.2846 46.4044 27.6215 46.3574 27.841C45.4242 30.3934 45.0368 33.1131 45.22 35.8246C45.4033 38.536 46.1531 41.1789 47.4212 43.5825C48.6893 45.9862 50.4474 48.0972 52.5819 49.7792C54.7165 51.4612 57.1801 52.6769 59.8136 53.3476C62.4472 54.0184 65.1921 54.1294 67.8713 53.6735C70.5504 53.2175 73.1041 52.2048 75.3675 50.7006C77.6309 49.1964 79.5537 47.2343 81.0117 44.9409C82.4697 42.6475 83.4305 40.0738 83.8321 37.386C84.2331 34.8294 84.1251 32.2188 83.5142 29.7041C82.9033 27.1893 81.8016 24.8201 80.2725 22.7324C78.7433 20.6447 76.8167 18.8797 74.6034 17.5387C72.3901 16.1977 69.9337 15.3072 67.3752 14.9183C64.1441 14.3959 60.8324 14.7365 57.7753 15.9058C57.5089 16.0076 57.2503 16.1017 56.9917 16.18C56.8094 16.1831 56.6276 16.162 56.4509 16.1174Z" fill="#5D7081"/>
<path d="M47.2117 19.9886C50.3463 28.9302 52.1644 38.1617 54.2646 47.3306C54.39 47.8713 54.437 48.1143 55.1345 47.9889C58.9823 47.3306 62.8457 46.7507 66.7092 46.1394C66.7378 46.1359 66.7668 46.1359 66.7954 46.1394C67.0853 46.1394 67.5164 45.8808 67.5791 46.3118C67.6418 46.7429 67.1872 46.6175 66.9208 46.6645L63.7861 47.1817C60.7298 47.6676 57.6657 48.1378 54.6173 48.655C53.912 48.7725 53.6534 48.6158 53.4966 47.8713C51.8431 40.2071 50.1426 32.5429 47.9561 25.004C47.5888 23.45 47.0636 21.9375 46.3888 20.4901C45.9656 19.7065 46.2713 19.5262 46.9687 19.4322L55.1423 18.2724C58.5513 17.7865 61.9602 17.332 65.3299 16.8069C66.239 16.6659 66.6308 16.8069 66.8503 17.81C68.1903 23.758 69.6166 29.6825 70.9958 35.6227C71.0664 35.9518 71.4739 36.469 70.8234 36.6414C70.173 36.8138 70.2749 36.1869 70.1965 35.8578C68.8251 30.1135 67.4537 24.3614 66.145 18.6172C65.9334 17.6846 65.7061 17.3163 64.5776 17.4887C58.8961 18.3743 53.191 19.1501 47.5016 19.9651C47.4046 19.9682 47.3079 19.9761 47.2117 19.9886Z" fill="#5D7081"/>
<path d="M78.9104 139.568C78.1011 139.834 77.2278 139.834 76.4184 139.568C69.2609 137.551 62.1035 135.537 54.946 133.526C52.5088 132.844 51.8114 131.849 51.8662 129.341C52.1954 119.644 52.5219 109.953 52.8458 100.267C52.9399 97.5164 53.0574 94.7814 53.1514 92.0151C53.1985 90.6045 53.2612 90.5026 54.6404 90.0403L68.6601 85.3383C70.3764 84.7662 72.1004 84.2098 73.8166 83.6456C74.0752 83.6064 74.0988 83.7318 74.0047 83.9277C73.6212 84.2528 73.1591 84.4717 72.6647 84.5625C67.0066 86.4041 61.4034 88.4024 55.7532 90.2675C54.3191 90.7377 54.1859 90.8945 54.1859 92.4148C54.1859 97.007 53.8881 101.599 53.7784 106.199C53.6922 109.695 53.5276 113.198 53.4101 116.693C53.3552 118.26 53.2063 119.874 53.2455 121.473C53.0261 123.996 53.1906 126.528 52.9163 129.051C52.8224 129.511 52.8224 129.986 52.9163 130.446C53.2298 131.935 54.3113 132.585 55.6513 132.961C59.7212 134.1 63.7857 135.245 67.8451 136.394C70.5879 137.178 73.3308 137.899 76.0657 138.745C76.967 139.011 77.8917 139.145 78.8007 139.388C78.8356 139.402 78.865 139.428 78.8847 139.46C78.9044 139.492 78.9134 139.53 78.9104 139.568Z" fill="#5D7081"/>
<path d="M146.705 69.422C142.262 77.8151 130.515 82.9089 119.927 77.6897C117.586 76.5328 115.496 74.9245 113.778 72.9572C112.06 70.99 110.748 68.7025 109.917 66.2265C109.086 63.7504 108.753 61.1345 108.936 58.5291C109.12 55.9238 109.816 53.3804 110.986 51.0451C116.354 40.356 128.587 37.9893 136.181 41.1318C135.703 41.602 135.232 41.2729 134.794 41.1318C131.074 39.9313 127.075 39.9047 123.34 41.0558C119.605 42.2068 116.315 44.4797 113.917 47.5657C104.599 59.5714 111.652 77.243 126.745 79.2178C134.825 80.2758 141.047 76.953 145.553 70.2527C145.804 69.8922 145.945 69.2888 146.705 69.422Z" fill="#5D7081"/>
<path d="M46.0986 45.7164C44.4372 46.6881 42.862 47.5658 41.3261 48.514C33.1133 53.5765 25.6528 59.5402 19.8929 67.322C19.5559 67.7686 19.2346 68.2388 18.8741 68.6699C18.7487 68.8188 18.498 68.9833 18.302 68.8188C18.1061 68.6542 18.302 68.4348 18.4353 68.278C19.7922 66.3236 21.2848 64.4669 22.9021 62.7219C29.3152 55.8869 36.8207 50.1664 45.1112 45.7947C45.3698 45.685 45.6205 45.4343 46.0986 45.7164Z" fill="#5C6F80"/>
<path d="M80.6662 26.2814C80.196 28.1622 79.7572 30.043 79.2399 31.9081C78.66 33.9848 78.0096 36.038 77.3827 38.0991C77.3827 38.2245 77.2965 38.3342 77.2573 38.4517C77.1632 38.8122 76.9203 39.0395 76.5755 38.9062C76.2307 38.773 76.4814 38.4125 76.5755 38.1931C77.6726 34.6274 78.7384 31.0853 79.5221 27.4648C79.5848 27.1905 79.6239 26.9084 79.7023 26.6811C79.8904 26.0463 79.6239 25.7485 79.0127 25.6153C75.9329 24.9649 72.8844 24.1264 69.7576 23.6797C69.6636 23.678 69.5707 23.6594 69.4833 23.6248C69.2796 23.5229 68.8486 23.6718 68.8878 23.3427C68.9269 23.0136 69.3266 22.9822 69.6714 23.0371C73.0647 23.5856 76.4109 24.3771 79.7493 25.1765C80.0171 25.2023 80.2637 25.333 80.4355 25.54C80.6073 25.747 80.6902 26.0135 80.6662 26.2814Z" fill="#5D7081"/>
<path d="M87.0684 33.5852C87.1859 33.2325 87.468 33.2874 87.7031 33.2796C94.7561 32.9896 101.77 33.3501 108.572 35.513C112.051 36.5632 115.31 38.2389 118.188 40.4579C118.36 40.5911 118.846 40.6852 118.564 41.0378C118.282 41.3905 118.015 41.2024 117.733 40.983C111.064 35.8343 103.298 34.0867 95.1009 33.6009C92.5433 33.4441 89.9786 33.4441 87.421 33.6009C87.3032 33.6072 87.1851 33.6019 87.0684 33.5852Z" fill="#5D7081"/>
<path d="M78.9106 139.568V139.395C78.9733 138.902 79.42 138.894 79.7413 138.776C84.9135 136.995 90.0857 135.205 95.2579 133.408C102.671 130.838 110.1 128.299 117.514 125.697C117.906 125.564 118.298 125.281 118.752 125.556L118.964 125.712C115.672 126.88 112.389 128.063 109.09 129.2L79.8902 139.293C79.5689 139.403 79.2398 139.474 78.9106 139.568Z" fill="#708190"/>
<path d="M31.7891 107.218C35.0413 107.681 38.2543 108.347 41.53 108.55C44.8449 108.734 48.1676 108.734 51.4825 108.55C49.923 109.859 34.7827 108.848 31.7891 107.218Z" fill="#627585"/>
<path d="M74.0363 83.7474L73.8325 83.5985C77.0142 82.5014 80.188 81.3964 83.3775 80.3228C87.2096 79.0298 91.0261 77.6505 94.9052 76.4985L95.2735 76.859C94.7232 77.1516 94.1312 77.3578 93.5181 77.4703C87.4526 79.4686 81.4341 81.5923 75.3685 83.5907C74.9296 83.7239 74.5065 84.0452 74.0363 83.7474Z" fill="#728291"/>
<path d="M63.1198 27.2061C63.0414 27.4804 62.7985 27.4961 62.5947 27.5196C61.67 27.6528 60.7375 27.7782 59.8127 27.8801C58.167 28.0681 56.5135 28.1152 54.8913 28.46C54.6719 28.507 54.3976 28.5775 54.3428 28.2954C54.2879 28.0133 54.6014 27.9976 54.7973 27.9584C56.7564 27.5196 58.7626 27.5352 60.7375 27.2766C61.3879 27.1904 62.0383 27.0886 62.6809 26.9867C62.8925 26.9553 63.0649 26.971 63.1198 27.2061Z" fill="#5F7282"/>
<path d="M53.4414 34.2904C57.7202 33.6635 61.9755 32.9504 66.1916 32.0648C62.0349 33.2671 57.7596 34.0134 53.4414 34.2904Z" fill="#7A8A98"/>
<path d="M64.7108 37.7621C64.6168 38.0912 64.319 38.1147 64.0525 38.1852C62.7438 38.5222 61.3881 38.4909 60.0637 38.726L58.7706 38.9689C58.5591 39.0159 58.3004 39.0943 58.2456 38.7886C58.1907 38.483 58.4572 38.4752 58.6296 38.4438C59.4603 38.2949 60.2831 38.1147 61.1216 38.0363C62.1172 37.9559 63.1066 37.8119 64.0839 37.6053C64.319 37.5113 64.5776 37.3624 64.7108 37.7621Z" fill="#617384"/>
<path d="M70.541 30.333C72.4357 30.4006 74.2991 30.8371 76.0267 31.6182C75.5329 31.9552 72.7274 31.3283 70.541 30.333Z" fill="#637585"/>
<path d="M146.635 52.2441C145.218 52.5888 143.777 52.8246 142.325 52.9494C140.46 53.2942 138.563 53.4823 136.682 53.7879C136.212 53.8585 135.993 53.835 135.789 53.3256C135.486 52.4755 134.898 51.7562 134.126 51.2893C133.353 50.8224 132.443 50.6365 131.549 50.763C129.857 50.9432 128.603 52.2284 128.266 54.2111C128.18 54.7518 128.031 55.0966 127.396 55.1672C124.732 55.4571 122.083 55.7941 119.418 56.1076C119.418 56.1076 119.324 56.037 119.277 55.9979C119.23 55.7157 119.458 55.6217 119.638 55.5198C126.456 51.5388 133.117 47.2914 139.903 43.2633C140.804 42.7226 140.993 42.7696 141.471 43.71C142.894 46.3495 144.491 48.8916 146.251 51.3194C146.486 51.5937 146.776 51.868 146.635 52.2441Z" fill="#FEFEFE"/>
<path d="M146.431 54.2974C146.619 54.2974 146.744 54.4619 146.76 54.8146C146.941 58.3989 147.565 61.9471 148.617 65.3784C148.868 66.2169 148.366 66.2639 147.834 66.3109C145.412 66.5303 143.006 66.8987 140.593 67.2513C135.217 68.035 129.919 69.187 124.622 70.386C123.054 70.7386 121.448 71.0678 119.873 71.4753C119.261 71.632 119.01 71.538 118.956 70.8797C118.53 67.0961 117.774 63.357 116.699 59.7046C116.432 58.7407 116.785 58.5762 117.537 58.49C119.739 58.2314 121.941 57.9806 124.143 57.7063C128.634 57.1577 133.101 56.4446 137.56 55.7158L146.063 54.3522L146.431 54.2974Z" fill="#5D7081"/>
<path d="M146.635 52.2442C144.593 49.474 142.759 46.556 141.149 43.5142C140.836 42.8951 140.561 43.0832 140.146 43.334C135.778 46.0245 131.385 48.7047 126.965 51.3743C124.41 52.9417 121.84 54.462 119.277 55.998C119.135 56.1027 118.967 56.1662 118.792 56.1814C118.616 56.1966 118.439 56.1629 118.282 56.0842C121.761 53.9839 125.217 51.9151 128.657 49.8149C132.474 47.4639 136.282 45.1129 140.099 42.8246C141.345 42.0409 141.345 42.0409 142.027 43.3183C143.572 46.2109 145.338 48.9802 147.309 51.6016C147.418 51.7505 147.505 51.9229 147.63 52.1267C147.326 52.2923 146.969 52.3344 146.635 52.2442Z" fill="#5C6F81"/>
<path d="M92.6171 95.7532C88.0376 98.3197 83.2665 100.528 78.3466 102.36C78.256 102.382 78.167 102.411 78.0801 102.446C77.8293 102.595 77.2965 102.602 77.4924 103.01C77.6883 103.417 78.0409 103.104 78.276 103.01C82.7931 101.346 87.194 99.3826 91.4494 97.1325C91.614 97.0463 91.7864 96.9836 91.9588 96.9052C92.5465 96.8582 92.6014 97.3049 92.6327 97.6889C92.719 98.402 92.719 99.123 92.6327 99.8361C92.4932 101.08 92.4434 102.331 92.4838 103.582C92.4939 104.394 92.4098 105.204 92.2331 105.996C91.998 107.062 92.4368 108.159 92.2331 109.256C92.1469 109.695 92.3193 110.322 91.6453 110.322C90.9714 110.322 90.9087 109.742 90.8617 109.224C90.8617 108.989 90.987 108.746 90.8617 108.503C90.7598 108.55 90.7284 108.637 90.6814 108.707C89.9683 109.773 89.9683 109.789 91.1203 110.431C91.3754 110.549 91.6128 110.702 91.8256 110.886C92.1234 111.207 92.2174 111.669 91.8256 111.834C90.9244 112.108 90.7049 112.845 90.3601 113.527C90.0224 113.807 89.6217 114 89.1925 114.091C83.9811 115.846 78.7462 117.523 73.5192 119.326C67.7593 121.316 61.9602 123.181 56.2002 125.156C55.3225 125.29 54.9464 125.117 55.0248 124.373C55.3225 121.52 54.6878 118.55 56.0278 115.831C56.3413 115.188 55.7692 115.047 55.5576 114.663C55.501 114.513 55.5055 114.347 55.5699 114.201C55.6344 114.054 55.7538 113.939 55.9025 113.879C56.3491 113.613 56.31 113.315 56.0122 112.962C55.7144 112.61 55.5263 112.312 55.926 111.983C56.3256 111.654 56.7096 111.873 57.0231 112.147C57.3564 112.507 57.6604 112.892 57.9321 113.299C57.4821 112.602 56.927 111.978 56.2864 111.45C56.0387 111.258 55.854 110.997 55.7563 110.7C55.6585 110.402 55.6521 110.082 55.7379 109.781C55.8213 108.914 55.8029 108.041 55.683 107.179C55.683 104.773 55.9338 102.367 55.9103 99.9615C55.9103 98.2374 56.1846 96.5291 56.1297 94.805C56.1082 94.5525 56.1642 94.2995 56.2903 94.0797C56.4163 93.8599 56.6063 93.6837 56.835 93.5747C62.1796 91.7487 67.5712 90.0325 72.9079 88.1909C79.0205 86.075 85.1644 84.0767 91.2927 82.0078C91.7145 81.7973 92.1872 81.7104 92.6562 81.757C92.8751 81.8505 93.056 82.0151 93.1698 82.2241C93.2835 82.4332 93.3235 82.6745 93.2832 82.909C93.244 85.4951 93.1265 88.0812 93.0089 90.6594C92.9619 91.7252 92.9384 92.7832 92.9227 93.8411C92.9506 94.4926 92.8466 95.1429 92.6171 95.7532Z" fill="#FEFEFE"/>
<path d="M90.1877 113.448C90.4385 112.665 90.4933 111.818 91.6532 111.701C92.0842 111.701 91.8804 111.168 91.5199 110.964C91.0419 110.682 90.5325 110.439 90.0702 110.118C89.6078 109.796 89.4354 109.483 90.0702 109.13C90.2105 109.03 90.3292 108.903 90.4194 108.756C90.5096 108.61 90.5694 108.446 90.5952 108.276C90.6814 108.017 90.8382 107.79 91.136 107.908C91.4338 108.025 91.3711 108.347 91.2457 108.55C91.1339 108.756 91.0753 108.986 91.0753 109.22C91.0753 109.454 91.1339 109.685 91.2457 109.89C91.2752 109.998 91.3438 110.09 91.4381 110.15C91.5323 110.209 91.6454 110.231 91.755 110.212C91.998 110.149 92.0372 109.937 92.0293 109.687C91.9745 106.45 92.2331 103.229 92.4212 100.001C92.476 99.2169 92.4212 98.3784 92.4212 97.5634C92.4275 97.4222 92.3883 97.2828 92.3092 97.1656C92.2302 97.0485 92.1156 96.9599 91.9823 96.9129L94.8113 95.2908C94.8113 96.8581 94.8505 98.3784 94.8113 99.8674C94.665 104.648 94.4926 109.428 94.2941 114.208C94.2941 114.922 94.4273 115.219 95.1797 115.392C103.753 117.419 112.318 119.472 120.876 121.551C121.052 121.602 121.225 121.665 121.393 121.739C121.268 121.951 121.041 122.037 120.86 122.194C120.036 122.572 119.191 122.901 118.329 123.181C108.964 126.371 99.6152 129.647 90.2504 132.86C86.6534 134.098 83.0642 135.391 79.4437 136.574C78.4762 136.684 77.4967 136.544 76.599 136.167C69.546 134.145 62.4069 132.201 55.3226 130.172C54.774 130.015 54.2019 129.701 53.6063 130.054C53.4345 130.046 53.2646 130.094 53.123 130.192C52.9813 130.289 52.8758 130.431 52.8227 130.595C52.6608 130.324 52.6075 130.002 52.6738 129.694C52.7835 126.919 52.9167 124.145 53.0343 121.371C53.2772 121.159 53.4888 120.979 53.2694 120.587C53.0723 120.059 53.0315 119.485 53.1518 118.934C53.7866 119.004 53.6142 119.655 54.006 119.913C54.495 119.415 54.8581 118.808 55.0653 118.142C55.2724 117.475 55.3176 116.769 55.1972 116.081C55.1648 115.551 55.3263 115.028 55.6517 114.608C56.6783 115.133 56.6626 115.125 56.1062 116.175C55.7049 117.023 55.4987 117.949 55.5028 118.887C55.4166 120.697 55.4401 122.507 55.2834 124.31C55.2285 124.937 55.4558 125.329 56.1689 124.921C56.5764 124.928 56.9804 124.845 57.3522 124.678C66.9286 121.543 76.4658 118.221 86.0343 115.039C87.8681 114.436 89.7254 113.895 91.5199 113.19C91.0341 113.158 90.6971 113.777 90.1877 113.448Z" fill="#F7F7F7"/>
<path d="M55.6199 114.608C55.6199 114.608 55.6199 114.679 55.6199 114.702C55.2594 115.752 55.6199 116.857 55.3691 117.931C55.1654 118.809 54.4993 119.42 54.2171 120.243C54.0839 120.611 53.7234 120.384 53.598 120.094C53.4727 119.804 53.4178 119.459 53.2532 119.146C53.2062 119.655 53.0652 120.102 53.5275 120.603C53.9899 121.105 53.5824 121.387 52.9946 121.387C53.1357 116.732 53.2611 112.069 53.41 107.414C53.5745 102.312 53.7705 97.2265 53.9429 92.117C53.9977 90.5496 53.9429 90.5496 55.4632 90.0246L74.0125 83.7553L93.8862 77.0863C94.3043 76.8656 94.7835 76.7885 95.2497 76.8669C95.5289 77.2866 95.6459 77.7935 95.5789 78.2932C95.3986 83.2302 95.187 88.1673 95.0695 93.1044C95.0695 94.1075 94.8109 94.7658 93.847 95.1341C93.421 95.3216 93.0074 95.5363 92.6088 95.7767C92.2326 95.2986 92.6088 94.8206 92.6088 94.3347C92.6088 92.9633 92.695 91.5919 92.7263 90.2283C92.7812 87.7911 92.9771 85.3618 92.9614 82.9324C92.9614 82.5014 93.0633 82.0077 92.405 81.9372C92.405 81.804 92.3659 81.7334 92.1856 81.7961C80.5717 85.6753 68.9814 89.6328 57.3675 93.4962C57.191 93.5643 57.0248 93.6566 56.8738 93.7705C56.7046 93.8533 56.5629 93.983 56.4656 94.1443C56.3683 94.3055 56.3196 94.4913 56.3252 94.6796C56.2782 96.4193 56.2076 98.1669 56.145 99.9066C56.0352 102.618 55.8785 105.322 55.8315 108.033C55.8315 108.817 56.2625 109.64 55.8315 110.463C55.7845 110.557 55.9882 110.886 56.1528 110.995C56.9365 111.544 57.3204 112.563 58.1903 113.033C58.3549 113.119 58.6213 113.268 58.4254 113.542C58.3325 113.706 58.1896 113.835 58.0179 113.911C57.7201 114.013 57.6574 113.715 57.6026 113.527C57.5422 113.237 57.4208 112.963 57.2465 112.724C57.0722 112.485 56.8489 112.286 56.5916 112.14C56.333 112.006 56.1136 111.944 55.9177 112.14C55.7218 112.335 55.9177 112.531 56.0666 112.696C56.8502 113.519 56.8503 113.527 55.8472 114.099C55.7666 114.155 55.7028 114.232 55.6628 114.322C55.6227 114.412 55.6079 114.511 55.6199 114.608Z" fill="#F7F7F7"/>
<path d="M52.791 130.595V129.623C53.1907 129.576 53.222 130.109 53.5747 129.991C53.9273 129.717 54.28 129.882 54.6405 129.991L76.3871 136.088C77.3529 136.446 78.386 136.585 79.412 136.496C89.5997 133.024 99.7873 129.443 109.975 125.932C113.345 124.764 116.73 123.636 120.084 122.421C120.343 122.327 120.75 122.421 120.813 121.99C120.923 121.708 121.181 121.771 121.393 121.739C121.957 121.685 121.894 121.967 121.761 122.358C121.516 123.076 121.119 123.732 120.599 124.284C120.078 124.835 119.446 125.269 118.744 125.556L90.9789 135.14L79.6628 139.058C79.3959 139.16 79.1343 139.275 78.8792 139.403C78.2228 139.449 77.5638 139.372 76.9357 139.176C69.867 137.185 62.7958 135.195 55.7219 133.204C54.3662 132.805 53.0575 132.287 52.791 130.595Z" fill="#FEFEFE"/>
<path d="M40.2525 89.6797C40.2963 94.7954 38.3066 99.7192 34.7208 103.368C31.1351 107.017 26.2469 109.093 21.1311 109.138C15.9239 109.082 10.9481 106.978 7.28127 103.28C3.61441 99.5826 1.55162 94.5894 1.53955 89.3819C1.56306 78.7084 10.246 69.8922 20.7471 69.8922C23.3292 69.9034 25.8837 70.425 28.2635 71.4269C30.6433 72.4287 32.8017 73.8912 34.6144 75.7301C36.427 77.569 37.8583 79.7481 38.8259 82.1421C39.7935 84.5361 40.2783 87.0977 40.2525 89.6797Z" fill="#FEFEFE"/>
<path d="M71.8499 43.9845C71.7402 43.9845 71.5208 43.9375 71.4032 43.8199C70.633 43.0143 69.9403 42.1379 69.3343 41.2025C69.2168 41.0379 69.3343 40.9047 69.4519 40.8263C69.551 40.7745 69.6658 40.761 69.7742 40.7885C69.8827 40.8159 69.9772 40.8824 70.0396 40.9752C70.5433 41.5701 71.0167 42.19 71.4581 42.8325C71.9283 43.6162 72.3123 43.4516 72.806 42.8874C73.4642 42.1037 74.146 41.4062 74.8278 40.6774C74.9924 40.505 75.2353 40.2699 75.4626 40.505C75.6898 40.7401 75.3607 40.889 75.2353 41.0301C74.5222 41.8137 73.8012 42.5974 73.0724 43.3811C72.9236 43.5632 72.7375 43.7112 72.5266 43.8153C72.3157 43.9194 72.0849 43.9771 71.8499 43.9845Z" fill="#5E7382"/>
<path d="M139.558 48.318C140.096 48.3115 140.614 48.5151 141.004 48.8855C141.393 49.2559 141.622 49.7637 141.643 50.3007C141.586 50.884 141.314 51.4252 140.879 51.818C140.444 52.2109 139.878 52.4272 139.292 52.4244C138.773 52.4267 138.274 52.2265 137.901 51.8665C137.528 51.5064 137.31 51.0149 137.293 50.4966C137.295 50.2037 137.356 49.9142 137.472 49.6451C137.587 49.376 137.755 49.1328 137.966 48.9298C138.178 48.7267 138.427 48.568 138.701 48.4629C138.974 48.3579 139.266 48.3086 139.558 48.318Z" fill="#8ACFF5"/>
<path d="M117.631 59.4225C117.522 58.8112 117.921 58.8739 118.211 58.8426C122.495 58.3724 126.769 57.8055 131.032 57.142C135.632 56.421 140.232 55.7001 144.824 54.9321C145.679 54.791 145.953 54.9321 145.961 55.8646C146.074 58.959 146.601 62.0243 147.528 64.9786C147.708 65.6212 147.787 65.919 146.901 66.0209C138.152 67.0838 129.477 68.6802 120.923 70.8013C120.139 70.9972 119.826 70.8013 119.739 70.0176C119.32 66.5779 118.653 63.1731 117.741 59.83C117.694 59.6341 117.647 59.4852 117.631 59.4225Z" fill="#FEFEFE"/>
<path d="M56.9131 93.7626C57.0541 93.2611 57.5557 93.3081 57.9005 93.1905C67.0328 90.1029 76.1755 87.0283 85.3287 83.9668C87.4838 83.238 89.6389 82.5014 91.7939 81.7882C92.1258 81.6027 92.5037 81.5157 92.8832 81.5374C92.9381 81.8587 92.5384 81.7255 92.4835 81.9293C87.6875 83.4966 82.8915 85.0901 78.0955 86.7096C71.3403 88.9744 64.6008 91.2627 57.8535 93.5275C57.5243 93.6294 57.2187 93.6842 56.9131 93.7626Z" fill="#718291"/>
<path d="M90.1874 113.448C90.8535 113.362 91.4334 112.9 92.3268 112.931C91.497 113.383 90.6155 113.733 89.7015 113.973C78.9026 117.63 68.1037 121.256 57.3049 124.851C56.9601 124.968 56.5212 125.431 56.1372 124.937L89.6623 113.652C89.8426 113.597 90.015 113.511 90.1874 113.448Z" fill="#738391"/>
<path d="M80.5952 134.153C79.4093 134.057 78.243 133.793 77.1314 133.369C75.713 132.954 74.1927 132.758 72.931 131.864C72.8057 131.776 72.6514 131.74 72.4999 131.763C71.8338 131.982 71.5204 131.888 71.7163 131.089C71.8103 130.752 71.6301 130.509 71.2461 130.665C69.7571 131.261 68.2917 130.611 66.8732 130.422C64.9783 130.047 63.1114 129.542 61.2857 128.91C61.0741 128.847 60.7999 128.855 60.7607 128.612C60.7215 128.369 61.035 128.236 61.2544 128.166C65.272 126.802 69.2895 125.444 73.3071 124.09C73.5178 124.028 73.7383 124.004 73.9576 124.02C74.2554 124.02 74.655 123.887 74.7961 124.247C74.9371 124.608 74.6393 124.757 74.4513 124.976C74.2632 125.195 73.9576 125.305 74.1065 125.572C74.2085 125.711 74.3454 125.822 74.5036 125.892C74.6618 125.962 74.8356 125.989 75.0077 125.971C75.4857 125.971 75.3055 125.595 75.2271 125.36C75.1639 125.243 75.1258 125.114 75.115 124.981C75.1043 124.848 75.1212 124.715 75.1646 124.589C75.208 124.463 75.2771 124.347 75.3674 124.249C75.4578 124.151 75.5674 124.073 75.6895 124.02C75.8854 123.918 76.0813 123.769 76.285 124.02C76.3248 124.059 76.3565 124.105 76.3781 124.156C76.3997 124.207 76.4108 124.262 76.4108 124.318C76.4108 124.373 76.3997 124.428 76.3781 124.479C76.3565 124.531 76.3248 124.577 76.285 124.616C75.9167 125.078 75.9481 125.525 76.4496 125.799C76.9512 126.073 77.3978 125.603 77.7505 125.305C78.1031 125.007 77.7505 124.725 77.5154 124.521C77.2845 124.314 77.0411 124.12 76.7866 123.942C76.6063 123.777 76.3634 123.605 76.4731 123.315C76.5828 123.025 76.8963 123.119 77.1314 123.134C77.3665 123.15 77.5546 123.362 77.727 123.087C77.9934 122.664 78.2364 122.79 78.5106 123.087C78.9495 123.479 79.4432 123.338 79.5216 122.837C79.6313 122.053 80.1563 121.857 80.6971 121.669C84.6154 120.329 88.4945 119.028 92.3893 117.688C92.907 117.554 93.453 117.579 93.9566 117.758C99.1811 118.986 104.385 120.237 109.567 121.512C110.688 121.787 111.793 122.092 112.906 122.39C113.141 122.453 113.462 122.468 113.478 122.766C113.493 123.064 113.188 123.072 112.992 123.142C112.208 123.464 111.362 123.769 110.539 124.059C106.683 125.407 102.82 126.763 98.9564 128.095C95.571 129.263 92.1699 130.407 88.7688 131.567L81.8726 133.894C81.4688 134.066 81.0341 134.154 80.5952 134.153Z" fill="#FEFEFE"/>
<path d="M120.821 121.99C120.946 121.99 121.119 121.92 121.182 121.99C121.385 122.17 121.181 122.249 121.04 122.296C120.758 122.406 120.453 122.492 120.155 122.594L80.5486 136.269C80.1959 136.386 79.8354 136.464 79.475 136.559C79.4123 136.559 79.3888 136.48 79.4123 136.433C79.4358 136.386 79.4123 136.37 79.4671 136.37C85.7364 134.192 92.0057 132.013 98.275 129.835L119.943 122.327C120.272 122.225 120.531 122.1 120.821 121.99Z" fill="#6F808F"/>
<path d="M79.467 136.37C79.467 136.433 79.467 136.496 79.467 136.558C78.4519 136.778 77.3954 136.707 76.4185 136.355L54.6876 130.234C54.3271 130.132 53.9588 130.078 53.5904 129.999C53.4651 129.842 53.3553 129.686 53.6688 129.615C54.0419 129.573 54.4197 129.627 54.7659 129.772L77.3433 136.112C78.0296 136.326 78.7493 136.414 79.467 136.37Z" fill="#5B6E80"/>
<path d="M53.4102 128.769L93.2672 115.345L93.3613 115.627L53.4885 129.051L53.4102 128.769Z" fill="#708090"/>
<path d="M18.5685 95.2908C16.5129 95.255 14.5464 94.4452 13.0617 93.023C11.5771 91.6008 10.6835 89.6709 10.5595 87.6187C10.2069 82.6581 13.1848 78.7947 17.8084 77.9718C23.5526 76.953 28.38 80.7146 28.717 86.5529C28.8106 88.7651 28.0662 90.9312 26.6324 92.6185C25.5754 93.215 24.4558 93.6933 23.294 94.0447C22.0245 94.4679 20.7315 94.8284 19.4619 95.2594C19.1798 95.3613 18.8742 95.5102 18.5685 95.2908Z" fill="#8ACFF5"/>
<path d="M18.5687 95.2908C20.9902 94.4523 23.5058 93.8724 25.8333 92.7596C26.0726 92.6298 26.3473 92.5803 26.6169 92.6185C26.6875 95.3614 26.7501 98.1042 26.852 100.855C26.8924 101.101 26.8434 101.353 26.7141 101.565C26.5847 101.778 26.3834 101.937 26.1467 102.015C25.3631 102.32 24.6421 102.626 23.9133 102.971C23.8357 103.021 23.7479 103.054 23.6561 103.067C23.5643 103.08 23.4708 103.072 23.3824 103.044C23.2939 103.017 23.2127 102.97 23.1446 102.907C23.0766 102.844 23.0232 102.767 22.9886 102.681C21.5809 100.401 20.0478 98.2004 18.3963 96.0902C18.0672 95.667 18.2788 95.5024 18.5687 95.2908Z" fill="#5D7081"/>
<path d="M136.8 62.4944C136.784 63.5511 136.36 64.5606 135.616 65.3114C134.873 66.0623 133.868 66.4963 132.811 66.5225C132.279 66.5371 131.75 66.4456 131.254 66.2533C130.758 66.0611 130.305 65.7719 129.922 65.4028C129.539 65.0336 129.234 64.5919 129.023 64.1033C128.813 63.6147 128.702 63.0891 128.697 62.5571C128.684 62.0438 128.775 61.5331 128.964 61.0556C129.153 60.5781 129.436 60.1435 129.797 59.7779C130.157 59.4122 130.588 59.1229 131.063 58.9272C131.538 58.7315 132.047 58.6334 132.56 58.6388C135.045 58.5918 136.784 60.1905 136.8 62.4944Z" fill="#8ACFF5"/>
<path d="M126.267 64.1168C126.239 64.6878 125.993 65.2264 125.581 65.6223C125.168 66.0182 124.62 66.2415 124.048 66.2465C123.477 66.2515 122.925 66.0379 122.505 65.6492C122.086 65.2606 121.831 64.7264 121.792 64.1559C121.831 63.5732 122.091 63.0273 122.519 62.6307C122.948 62.2341 123.513 62.0171 124.096 62.0244C124.377 62.016 124.657 62.0638 124.919 62.165C125.181 62.2663 125.42 62.4188 125.622 62.6137C125.824 62.8087 125.986 63.042 126.096 63.3001C126.207 63.5582 126.265 63.8359 126.267 64.1168Z" fill="#8ACFF5"/>
<path d="M141.69 59.1954C141.957 59.1664 142.226 59.1945 142.481 59.2779C142.736 59.3612 142.97 59.4979 143.168 59.6788C143.366 59.8597 143.523 60.0807 143.629 60.327C143.735 60.5733 143.787 60.8394 143.782 61.1075C143.762 61.3949 143.684 61.6754 143.555 61.9328C143.425 62.1902 143.246 62.4194 143.027 62.6073C142.809 62.7952 142.555 62.9381 142.282 63.0277C142.008 63.1172 141.719 63.1518 141.431 63.1294C140.895 63.1488 140.372 62.9583 139.974 62.5983C139.576 62.2383 139.334 61.7372 139.3 61.2016C139.269 60.1593 140.444 59.1797 141.69 59.1954Z" fill="#8ACFF5"/>
<path d="M17.6125 84.0452C15.9747 84.1001 15.4575 84.7505 15.8336 86.2943C16.2803 88.1203 17.401 89.6406 18.2943 91.2314C18.8116 92.117 19.4542 92.9398 20.0184 93.794C20.1438 93.9821 20.4808 94.1702 20.2065 94.4209C20.1484 94.471 20.0798 94.5073 20.0057 94.5272C19.9316 94.5471 19.854 94.5499 19.7787 94.5356C19.7034 94.5213 19.6322 94.4902 19.5706 94.4445C19.509 94.3989 19.4585 94.3399 19.4228 94.272C18.7567 93.3238 18.0592 92.3991 17.4558 91.4117C16.5818 90.0394 15.8217 88.5979 15.1832 87.1015C14.8149 86.1846 14.6268 85.2129 15.4026 84.3744C15.7067 84.1015 16.0648 83.8956 16.4536 83.7701C16.8424 83.6445 17.2533 83.6021 17.6596 83.6456C17.954 83.6591 18.2478 83.6062 18.5191 83.4909C18.7903 83.3756 19.0323 83.2008 19.2269 82.9794C20.6297 81.514 22.3615 81.9137 22.9806 83.8572C23.5061 85.8814 23.891 87.9394 24.1326 90.0167C24.2502 90.6593 24.2972 91.3176 24.4069 91.9602C24.4774 92.3599 24.5715 92.7439 24.0151 92.7987C23.4587 92.8536 23.6311 92.3442 23.5762 92.0151C23.1844 89.6641 22.7926 87.2661 22.4007 84.8994C22.303 84.1798 22.0073 83.5015 21.5465 82.9403C21.2958 82.6503 21.0215 82.3839 20.5826 82.5406C20.1335 82.6999 19.7648 83.0291 19.556 83.4575C19.3836 83.7788 19.7441 83.7866 19.9008 83.8807C20.2393 84.0784 20.5332 84.3441 20.7638 84.6611C20.9945 84.978 21.1569 85.3394 21.2409 85.7223C21.3264 85.9355 21.3661 86.1643 21.3574 86.3938C21.3487 86.6233 21.2918 86.8485 21.1904 87.0546C21.089 87.2607 20.9454 87.4432 20.7689 87.5902C20.5924 87.7372 20.387 87.8455 20.1659 87.9079C19.9449 87.9704 19.7132 87.9856 19.4859 87.9527C19.2585 87.9198 19.0407 87.8394 18.8464 87.7168C18.6522 87.5942 18.4859 87.4321 18.3584 87.241C18.2309 87.05 18.145 86.8342 18.1063 86.6078C17.9111 86.0044 17.9389 85.3509 18.1846 84.7662C18.3492 84.1079 18.1533 83.9277 17.6125 84.0452Z" fill="#5F7183"/>
<path d="M25.7625 93.2141C25.8901 94.3405 25.9424 95.4741 25.9192 96.6074C25.9371 96.7121 25.9217 96.8197 25.8753 96.9153C25.829 97.0108 25.7539 97.0895 25.6606 97.1403C24.3519 97.9866 22.8316 98.159 21.3661 98.5195C21.1624 98.5665 21.0762 98.3158 20.9665 98.1669C20.4649 97.4929 19.9947 96.7876 19.454 96.145C19.0073 95.62 19.2189 95.4554 19.7518 95.2751C21.7266 94.5934 23.7485 94.0761 25.7625 93.2141Z" fill="#FDFDFD"/>
<path d="M25.9036 97.6497C25.9663 98.9035 26.0133 100.001 26.0838 101.082C26.1086 101.234 26.082 101.39 26.0082 101.524C25.9343 101.659 25.8175 101.766 25.6763 101.827C24.0463 102.72 24.0463 102.728 23.0432 101.192L21.5308 98.8878C23.0698 98.8524 24.5745 98.4263 25.9036 97.6497Z" fill="#FDFDFD"/>
<path d="M18.7722 85.4793C18.8114 85.205 18.6938 84.5467 19.164 84.437C19.6342 84.3273 19.8693 84.9464 20.1044 85.3382C20.2173 85.5241 20.287 85.733 20.3082 85.9495C20.3082 86.4981 20.5119 87.2896 19.8536 87.3914C19.1954 87.4933 18.8819 86.7645 18.78 86.1141C18.7639 85.9029 18.7613 85.6908 18.7722 85.4793Z" fill="#8ACFF5"/>
</g>
<defs>
<clipPath id="clip0_1125_2706">
<rect width="150" height="150" fill="white" transform="translate(0.833496)"/>
</clipPath>
</defs>
</svg>
