<svg width="20" height="20" viewBox="0 0 20 20" fill="none" xmlns="http://www.w3.org/2000/svg">
<g filter="url(#filter0_d_1189_8855)">
<rect x="3.79004" y="2.297" width="12.7128" height="12.7128" rx="2.1188" fill="white" shape-rendering="crispEdges"/>
<path d="M11.9348 8.0398C11.5353 8.0398 11.372 7.7573 11.5706 7.41079C11.6854 7.20994 11.6169 6.95392 11.4161 6.83915L11.0343 6.62065C10.8599 6.51692 10.6348 6.57872 10.5311 6.75307L10.5068 6.79501C10.3081 7.14152 9.98149 7.14152 9.78065 6.79501L9.75637 6.75307C9.65705 6.57872 9.43193 6.51692 9.25757 6.62065L8.87574 6.83915C8.6749 6.95392 8.60648 7.21215 8.72125 7.41299C8.92209 7.7573 8.75877 8.0398 8.35929 8.0398C8.12975 8.0398 7.93994 8.22741 7.93994 8.45915V8.8476C7.93994 9.07713 8.12754 9.26694 8.35929 9.26694C8.75877 9.26694 8.92209 9.54945 8.72125 9.89596C8.60648 10.0968 8.6749 10.3528 8.87574 10.4676L9.25757 10.6861C9.43193 10.7898 9.65705 10.728 9.76078 10.5537L9.78506 10.5117C9.9837 10.1652 10.3103 10.1652 10.5112 10.5117L10.5355 10.5537C10.6392 10.728 10.8643 10.7898 11.0387 10.6861L11.4205 10.4676C11.6214 10.3528 11.6898 10.0946 11.575 9.89596C11.3742 9.54945 11.5375 9.26694 11.937 9.26694C12.1665 9.26694 12.3563 9.07934 12.3563 8.8476V8.45915C12.3541 8.22961 12.1665 8.0398 11.9348 8.0398ZM10.147 9.37068C9.75196 9.37068 9.42972 9.04844 9.42972 8.65337C9.42972 8.25831 9.75196 7.93607 10.147 7.93607C10.5421 7.93607 10.8643 8.25831 10.8643 8.65337C10.8643 9.04844 10.5421 9.37068 10.147 9.37068Z" fill="#121139"/>
<rect x="3.85625" y="2.36321" width="12.5804" height="12.5804" rx="2.05259" stroke="#121139" stroke-width="0.132425" shape-rendering="crispEdges"/>
</g>
<defs>
<filter id="filter0_d_1189_8855" x="0.611839" y="0.178197" width="19.0693" height="19.0692" filterUnits="userSpaceOnUse" color-interpolation-filters="sRGB">
<feFlood flood-opacity="0" result="BackgroundImageFix"/>
<feColorMatrix in="SourceAlpha" type="matrix" values="0 0 0 0 0 0 0 0 0 0 0 0 0 0 0 0 0 0 127 0" result="hardAlpha"/>
<feOffset dy="1.0594"/>
<feGaussianBlur stdDeviation="1.5891"/>
<feComposite in2="hardAlpha" operator="out"/>
<feColorMatrix type="matrix" values="0 0 0 0 0 0 0 0 0 0 0 0 0 0 0 0 0 0 0.1 0"/>
<feBlend mode="normal" in2="BackgroundImageFix" result="effect1_dropShadow_1189_8855"/>
<feBlend mode="normal" in="SourceGraphic" in2="effect1_dropShadow_1189_8855" result="shape"/>
</filter>
</defs>
</svg>
