<svg width="20" height="20" viewBox="0 0 20 20" fill="none" xmlns="http://www.w3.org/2000/svg">
<g filter="url(#filter0_d_1189_8848)">
<rect x="3.7207" y="2.297" width="12.7128" height="12.7128" rx="2.1188" fill="white" shape-rendering="crispEdges"/>
<path d="M11.5836 9.27127L11.5839 9.27185C11.6489 9.37845 11.6602 9.50356 11.6172 9.61752C11.5735 9.7335 11.4839 9.82058 11.3687 9.85844L11.3687 9.85843L11.368 9.85868C10.9539 9.99743 10.5179 10.0659 10.0814 10.0659C9.64494 10.0659 9.20916 9.99743 8.7954 9.85667L8.79513 9.85658C8.66437 9.8124 8.57271 9.72396 8.53532 9.61956L8.53532 9.61956L8.53494 9.61852C8.49511 9.51019 8.50713 9.38855 8.57715 9.27111C8.5772 9.27102 8.57726 9.27092 8.57732 9.27082L8.79985 8.90288L8.79986 8.90289L8.80092 8.90108C8.83222 8.84742 8.85799 8.77668 8.87584 8.71101C8.89367 8.64545 8.90724 8.57156 8.90724 8.50991V7.95152C8.90724 7.49219 9.17451 7.09315 9.56213 6.90033L9.59877 6.88211L9.61874 6.84639C9.71043 6.6824 9.88286 6.57871 10.0748 6.57871C10.2701 6.57871 10.4378 6.67902 10.5289 6.84031L10.5495 6.87666L10.5872 6.89465C10.9823 7.08328 11.2556 7.48604 11.2556 7.95152V8.50991C11.2556 8.57156 11.2692 8.64543 11.2869 8.71114C11.3048 8.77717 11.3304 8.84784 11.3611 8.90193L11.3611 8.90195L11.3629 8.90489L11.5836 9.27127Z" stroke="#121139" stroke-width="0.26485"/>
<path d="M9.69035 10.5584L9.69958 10.4477C9.82538 10.4587 9.95339 10.4654 10.0814 10.4654C10.2072 10.4654 10.333 10.4587 10.4566 10.4477C10.4717 10.4463 10.4867 10.4451 10.5017 10.4439C10.5176 10.4426 10.5335 10.4413 10.5492 10.4398C10.527 10.4825 10.4993 10.5219 10.467 10.5568C10.4668 10.5571 10.4666 10.5573 10.4664 10.5575C10.4586 10.5659 10.4506 10.574 10.4423 10.5819L9.69035 10.5584Z" stroke="#121139" stroke-width="0.26485"/>
<rect x="3.78692" y="2.36321" width="12.5804" height="12.5804" rx="2.05259" stroke="#121139" stroke-width="0.132425" shape-rendering="crispEdges"/>
</g>
<defs>
<filter id="filter0_d_1189_8848" x="0.542503" y="0.178197" width="19.0693" height="19.0692" filterUnits="userSpaceOnUse" color-interpolation-filters="sRGB">
<feFlood flood-opacity="0" result="BackgroundImageFix"/>
<feColorMatrix in="SourceAlpha" type="matrix" values="0 0 0 0 0 0 0 0 0 0 0 0 0 0 0 0 0 0 127 0" result="hardAlpha"/>
<feOffset dy="1.0594"/>
<feGaussianBlur stdDeviation="1.5891"/>
<feComposite in2="hardAlpha" operator="out"/>
<feColorMatrix type="matrix" values="0 0 0 0 0 0 0 0 0 0 0 0 0 0 0 0 0 0 0.1 0"/>
<feBlend mode="normal" in2="BackgroundImageFix" result="effect1_dropShadow_1189_8848"/>
<feBlend mode="normal" in="SourceGraphic" in2="effect1_dropShadow_1189_8848" result="shape"/>
</filter>
</defs>
</svg>
