<svg width="158" height="69" viewBox="0 0 158 69" fill="none" xmlns="http://www.w3.org/2000/svg">
<path d="M1.00732 51.2098C1.17534 42.4465 3.47718 26.1945 11.3404 31.2932C21.1694 37.6665 27.2181 49.4836 31.7545 38.5959C36.291 27.7082 39.8194 20.1399 50.1525 28.5048C60.4855 36.8698 65.274 28.3721 70.4406 21.3349C75.6071 14.2977 80.5216 9.38498 89.3425 19.6088C98.1635 29.8327 100.054 27.5755 106.354 18.6795C112.655 9.78338 113.285 -0.440462 127.146 9.91616C141.008 20.2728 146.679 21.9988 150.837 11.775C154.164 3.5959 156.003 1.28558 156.508 1.1528" stroke="#34C759" stroke-width="1.00937"/>
<path d="M1.00732 68.0631C2.22545 63.4048 7.25758 54.7371 17.6411 57.3324C30.6204 60.5766 34.9049 58.4555 40.5755 51.2185C46.246 43.9815 57.5872 42.609 63.5098 48.2239C69.4325 53.8388 83.4199 54.7122 89.4685 43.3576C95.5172 32.003 100.558 31.5039 113.159 38.2418C125.76 44.9797 129.667 39.4895 132.817 35.7462C135.967 32.0029 138.362 30.0065 146.679 30.88C153.332 31.5787 156.172 24.4332 156.76 20.7731" stroke="#3555F9" stroke-width="1.00937"/>
<path d="M1.25977 31.4214C3.81789 25.9878 10.8968 18.3807 18.7473 31.4214C28.5604 47.7224 29.4604 63.5348 44.2865 58.5898C58.2514 53.9321 48.1866 23.4649 62.1514 20.3602C67.058 19.7777 71.3607 22.223 77.5002 35.1085C85.1745 51.2154 94.4022 31.8349 97.1264 22.8827C100.02 13.3738 107.191 12.7916 116.249 26.5698C125.308 40.348 133.485 20.9421 134.743 11.6273C136.001 2.31243 146.192 -1.18063 156.76 14.3441" stroke="#F97C35" stroke-width="1.00937"/>
</svg>
