<svg width="8" height="7" viewBox="0 0 8 7" fill="none" xmlns="http://www.w3.org/2000/svg">
<path d="M5.92355 4.20215V2.08335C5.92355 1.79201 5.68519 1.55365 5.39385 1.55365H1.68595C1.39462 1.55365 1.15625 1.79201 1.15625 2.08335V4.20215C1.15625 4.49348 1.39462 4.73185 1.68595 4.73185H5.39385C5.68519 4.73185 5.92355 4.49348 5.92355 4.20215ZM5.39385 4.20215H1.68595V2.08335H5.39385V4.20215ZM3.5399 2.3482C3.10025 2.3482 2.74535 2.7031 2.74535 3.14275C2.74535 3.5824 3.10025 3.9373 3.5399 3.9373C3.97955 3.9373 4.33445 3.5824 4.33445 3.14275C4.33445 2.7031 3.97955 2.3482 3.5399 2.3482ZM6.98295 2.3482V5.26155C6.98295 5.55288 6.74459 5.79125 6.45325 5.79125H1.9508V5.26155H6.45325V2.3482H6.98295Z" fill="#9FA7C4"/>
</svg>
