<svg width="8" height="7" viewBox="0 0 8 7" fill="none" xmlns="http://www.w3.org/2000/svg">
<g clip-path="url(#clip0_1142_4206)">
<path d="M5.71407 3.9933V1.8745C5.71407 1.58317 5.4757 1.3448 5.18437 1.3448H1.47648C1.18514 1.3448 0.946777 1.58317 0.946777 1.8745V3.9933C0.946777 4.28463 1.18514 4.523 1.47648 4.523H5.18437C5.4757 4.523 5.71407 4.28463 5.71407 3.9933ZM5.18437 3.9933H1.47648V1.8745H5.18437V3.9933ZM3.33042 2.13935C2.89077 2.13935 2.53587 2.49425 2.53587 2.9339C2.53587 3.37355 2.89077 3.72845 3.33042 3.72845C3.77007 3.72845 4.12497 3.37355 4.12497 2.9339C4.12497 2.49425 3.77007 2.13935 3.33042 2.13935ZM6.77346 2.13935V5.05269C6.77346 5.34403 6.5351 5.58239 6.24377 5.58239H1.74133V5.05269H6.24377V2.13935H6.77346Z" fill="#9FA7C4"/>
</g>
<defs>
<clipPath id="clip0_1142_4206">
<rect width="6.35639" height="6.35639" fill="white" transform="translate(0.681641 0.285782)"/>
</clipPath>
</defs>
</svg>
