<svg width="500" height="500" viewBox="0 0 500 500" fill="none" xmlns="http://www.w3.org/2000/svg">
<path d="M139.13 62.7113C139.13 62.7113 72.8683 117.24 48.2452 184.605C23.6222 251.97 42.577 327.639 99.5486 374.71C156.52 421.781 241.083 395.754 320.727 416.166C400.372 436.578 478.409 412.073 496.528 328.636C514.647 245.198 457.279 227.829 429.956 141.659C402.633 55.4894 297.529 -56.6965 139.13 62.7113Z" fill="#8ACFF5"/>
<path opacity="0.7" d="M139.13 62.7113C139.13 62.7113 72.8683 117.24 48.2452 184.605C23.6222 251.97 42.577 327.639 99.5486 374.71C156.52 421.781 241.083 395.754 320.727 416.166C400.372 436.578 478.409 412.073 496.528 328.636C514.647 245.198 457.279 227.829 429.956 141.659C402.633 55.4894 297.529 -56.6965 139.13 62.7113Z" fill="white"/>
<path d="M49.9199 425.46H462" stroke="#263238" stroke-miterlimit="10"/>
<path d="M32.4004 425.46H38.8504" stroke="#263238" stroke-miterlimit="10"/>
<path d="M219.509 94.9897H168.9C168.002 94.9897 167.273 95.7181 167.273 96.6166V127.242C167.273 128.141 168.002 128.869 168.9 128.869H219.509C220.407 128.869 221.135 128.141 221.135 127.242V96.6166C221.135 95.7181 220.407 94.9897 219.509 94.9897Z" stroke="#263238" stroke-width="0.98002" stroke-miterlimit="10"/>
<path d="M221.135 114.972H167.273V122.793H221.135V114.972Z" stroke="#263238" stroke-width="0.98002" stroke-miterlimit="10"/>
<path d="M212.668 105.201C214.709 105.201 216.363 103.547 216.363 101.507C216.363 99.4662 214.709 97.812 212.668 97.812C210.628 97.812 208.974 99.4662 208.974 101.507C208.974 103.547 210.628 105.201 212.668 105.201Z" stroke="#263238" stroke-width="0.98002" stroke-miterlimit="10"/>
<path d="M207.024 105.201C209.064 105.201 210.718 103.547 210.718 101.507C210.718 99.4662 209.064 97.812 207.024 97.812C204.983 97.812 203.329 99.4662 203.329 101.507C203.329 103.547 204.983 105.201 207.024 105.201Z" stroke="#263238" stroke-width="0.98002" stroke-miterlimit="10"/>
<path d="M172.057 100.419H186.826" stroke="#263238" stroke-width="0.98002" stroke-miterlimit="10"/>
<path d="M105.21 246.099H54.6014C53.703 246.099 52.9746 246.827 52.9746 247.725V278.351C52.9746 279.25 53.703 279.978 54.6014 279.978H105.21C106.108 279.978 106.837 279.25 106.837 278.351V247.725C106.837 246.827 106.108 246.099 105.21 246.099Z" stroke="#263238" stroke-width="0.98002" stroke-miterlimit="10"/>
<path d="M106.837 266.082H52.9746V273.902H106.837V266.082Z" stroke="#263238" stroke-width="0.98002" stroke-miterlimit="10"/>
<path d="M102.053 252.616C102.053 253.347 101.837 254.061 101.431 254.669C101.025 255.276 100.448 255.75 99.7726 256.029C99.0975 256.309 98.3546 256.382 97.6379 256.24C96.9213 256.097 96.2629 255.745 95.7462 255.229C95.2295 254.712 94.8776 254.054 94.7351 253.337C94.5925 252.62 94.6657 251.877 94.9453 251.202C95.2249 250.527 95.6985 249.95 96.3061 249.544C96.9137 249.138 97.628 248.921 98.3587 248.921C99.3386 248.921 100.278 249.311 100.971 250.004C101.664 250.696 102.053 251.636 102.053 252.616Z" stroke="#263238" stroke-width="0.98002" stroke-miterlimit="10"/>
<path d="M92.7132 256.311C94.7537 256.311 96.4079 254.657 96.4079 252.616C96.4079 250.576 94.7537 248.921 92.7132 248.921C90.6727 248.921 89.0186 250.576 89.0186 252.616C89.0186 254.657 90.6727 256.311 92.7132 256.311Z" stroke="#263238" stroke-width="0.98002" stroke-miterlimit="10"/>
<path d="M57.7461 251.528H72.515" stroke="#263238" stroke-width="0.98002" stroke-miterlimit="10"/>
<path d="M390.11 62.4038H356.643V95.8715H390.11V62.4038Z" stroke="#263238" stroke-width="0.98002" stroke-miterlimit="10"/>
<path d="M383.72 76.5652H375.184V68.0391H371.568V76.5652H363.042V80.1815H371.568V88.7175H375.184V80.1815H383.72V76.5652Z" stroke="#263238" stroke-width="0.98002" stroke-miterlimit="10"/>
<path d="M423.51 62.4038H390.042V95.8715H423.51V62.4038Z" stroke="#263238" stroke-width="0.98002" stroke-miterlimit="10"/>
<path d="M415.679 76.5649H397.853V79.6618H415.679V76.5649Z" stroke="#263238" stroke-width="0.98002" stroke-miterlimit="10"/>
<path d="M390.11 95.8125H356.643V129.28H390.11V95.8125Z" stroke="#263238" stroke-width="0.98002" stroke-miterlimit="10"/>
<path d="M379.409 103.192L373.382 109.22L367.355 103.192L364.797 105.75L370.824 111.777L364.797 117.804L367.355 120.362L373.382 114.335L379.409 120.362L381.967 117.804L375.94 111.777L381.967 105.75L379.409 103.192Z" stroke="#263238" stroke-width="0.98002" stroke-miterlimit="10"/>
<path d="M423.51 95.8125H390.042V129.28H423.51V95.8125Z" stroke="#263238" stroke-width="0.98002" stroke-miterlimit="10"/>
<path d="M415.679 109.964H397.853V113.061H415.679V109.964Z" stroke="#263238" stroke-width="0.98002" stroke-miterlimit="10"/>
<path d="M406.771 107.132C407.214 107.132 407.648 107 408.017 106.754C408.387 106.507 408.674 106.157 408.844 105.747C409.014 105.337 409.058 104.885 408.972 104.45C408.885 104.015 408.671 103.615 408.358 103.301C408.044 102.987 407.644 102.773 407.208 102.687C406.773 102.6 406.322 102.645 405.912 102.814C405.502 102.984 405.151 103.272 404.905 103.641C404.658 104.01 404.526 104.444 404.526 104.888C404.526 105.483 404.763 106.054 405.184 106.475C405.605 106.896 406.175 107.132 406.771 107.132Z" stroke="#263238" stroke-width="0.98002" stroke-miterlimit="10"/>
<path d="M406.771 120.744C408.01 120.744 409.015 119.74 409.015 118.5C409.015 117.261 408.01 116.256 406.771 116.256C405.531 116.256 404.526 117.261 404.526 118.5C404.526 119.74 405.531 120.744 406.771 120.744Z" stroke="#263238" stroke-width="0.98002" stroke-miterlimit="10"/>
<path d="M53.9047 355.861H32.7656V377H53.9047V355.861Z" stroke="#263238" stroke-width="0.98002" stroke-miterlimit="10"/>
<path d="M49.8576 364.809H44.4773V359.418H42.1938V364.809H36.8037V367.092H42.1938V372.472H44.4773V367.092H49.8576V364.809Z" stroke="#263238" stroke-width="0.98002" stroke-miterlimit="10"/>
<path d="M74.9945 355.861H53.8555V377H74.9945V355.861Z" stroke="#263238" stroke-width="0.98002" stroke-miterlimit="10"/>
<path d="M70.0554 364.809H58.7949V366.769H70.0554V364.809Z" stroke="#263238" stroke-width="0.98002" stroke-miterlimit="10"/>
<path d="M53.9047 376.961H32.7656V398.1H53.9047V376.961Z" stroke="#263238" stroke-width="0.98002" stroke-miterlimit="10"/>
<path d="M47.1429 381.616L43.3306 385.428L39.5282 381.616L37.9111 383.233L41.7234 387.045L37.9111 390.848L39.5282 392.465L43.3306 388.652L47.1429 392.465L48.76 390.848L44.9477 387.045L48.76 383.233L47.1429 381.616Z" stroke="#263238" stroke-width="0.98002" stroke-miterlimit="10"/>
<path d="M74.9945 376.961H53.8555V398.1H74.9945V376.961Z" stroke="#263238" stroke-width="0.98002" stroke-miterlimit="10"/>
<path d="M70.0554 385.898H58.7949V387.858H70.0554V385.898Z" stroke="#263238" stroke-width="0.98002" stroke-miterlimit="10"/>
<path d="M64.42 384.105C65.1994 384.105 65.8312 383.473 65.8312 382.694C65.8312 381.915 65.1994 381.283 64.42 381.283C63.6406 381.283 63.0088 381.915 63.0088 382.694C63.0088 383.473 63.6406 384.105 64.42 384.105Z" stroke="#263238" stroke-width="0.98002" stroke-miterlimit="10"/>
<path d="M64.42 389.868C64.139 389.868 63.8643 389.951 63.6306 390.108C63.3969 390.264 63.2147 390.486 63.1072 390.745C62.9996 391.005 62.9715 391.291 63.0263 391.566C63.0812 391.842 63.2165 392.095 63.4152 392.294C63.614 392.493 63.8672 392.628 64.1428 392.683C64.4185 392.738 64.7042 392.71 64.9639 392.602C65.2235 392.494 65.4455 392.312 65.6016 392.079C65.7577 391.845 65.8411 391.57 65.8411 391.289C65.8411 390.912 65.6914 390.551 65.4249 390.284C65.1584 390.018 64.7969 389.868 64.42 389.868Z" stroke="#263238" stroke-width="0.98002" stroke-miterlimit="10"/>
<path d="M288.943 104.192C288.889 104.201 288.84 104.228 288.804 104.269C288.768 104.31 288.748 104.363 288.747 104.417V105.868C288.758 105.942 288.752 106.019 288.729 106.091C288.705 106.163 288.665 106.228 288.612 106.281C288.558 106.335 288.493 106.375 288.421 106.399C288.349 106.422 288.272 106.428 288.198 106.416H286.287C286.212 106.428 286.135 106.422 286.064 106.399C285.992 106.375 285.926 106.335 285.873 106.281C285.819 106.228 285.779 106.163 285.756 106.091C285.732 106.019 285.726 105.942 285.738 105.868L285.807 104.388C285.804 104.333 285.783 104.28 285.748 104.237C285.712 104.195 285.664 104.165 285.61 104.152C281.926 103.702 279.799 101.477 279.799 98.3704V96.9885C279.789 96.9142 279.797 96.8386 279.821 96.7676C279.845 96.6967 279.885 96.6322 279.938 96.5792C279.991 96.5262 280.056 96.486 280.127 96.4619C280.198 96.4377 280.273 96.4301 280.348 96.4397H283.699C284.062 96.4397 284.258 96.5965 284.258 96.8513V97.3119C284.237 97.7365 284.309 98.1605 284.467 98.5547C284.626 98.949 284.868 99.3042 285.178 99.5957C285.487 99.8873 285.856 100.108 286.259 100.244C286.662 100.379 287.089 100.425 287.512 100.379C289.58 100.379 290.452 99.1152 290.452 97.8215C290.452 95.5283 286.257 95.1755 283.151 93.1763C281.191 91.9414 279.76 90.3636 279.76 87.6195C279.76 84.2287 281.867 81.8374 285.581 81.2886C285.632 81.276 285.678 81.2473 285.712 81.2067C285.745 81.1661 285.765 81.1158 285.767 81.0632L285.708 79.3188C285.697 79.244 285.703 79.1676 285.726 79.0956C285.75 79.0237 285.79 78.9583 285.843 78.9048C285.897 78.8513 285.962 78.8112 286.034 78.7878C286.106 78.7643 286.183 78.7582 286.257 78.77H288.1C288.174 78.7603 288.25 78.7679 288.321 78.7921C288.392 78.8163 288.456 78.8564 288.509 78.9094C288.562 78.9624 288.602 79.0269 288.626 79.0979C288.651 79.1688 288.658 79.2444 288.649 79.3188V81.024C288.648 81.0776 288.666 81.1297 288.7 81.171C288.734 81.2123 288.782 81.2401 288.835 81.2494C292.755 81.6708 294.911 84.0327 294.911 87.3549V88.4232C294.919 88.4971 294.91 88.5719 294.885 88.6419C294.86 88.712 294.82 88.7757 294.767 88.8283C294.715 88.8808 294.651 88.921 294.581 88.9459C294.511 88.9707 294.436 88.9797 294.362 88.972H290.971C290.618 88.972 290.422 88.8446 290.422 88.6486V88.3154C290.457 87.8804 290.398 87.4431 290.248 87.0333C290.099 86.6234 289.862 86.2508 289.555 85.9409C289.248 85.6309 288.877 85.3911 288.469 85.2376C288.06 85.0842 287.624 85.0208 287.188 85.0519C285.385 85.0519 284.248 86.0319 284.248 87.4431C284.248 89.5404 287.188 89.8638 290.217 91.1966C293.549 92.6764 294.999 94.7443 294.999 97.5863C295.048 101.154 292.882 103.672 288.943 104.192Z" stroke="#263238" stroke-width="0.98002" stroke-miterlimit="10"/>
<path d="M287.16 111.13C297.303 111.13 305.525 102.908 305.525 92.7645C305.525 82.6215 297.303 74.3989 287.16 74.3989C277.016 74.3989 268.794 82.6215 268.794 92.7645C268.794 102.908 277.016 111.13 287.16 111.13Z" stroke="#263238" stroke-width="0.98002" stroke-miterlimit="10"/>
<path d="M141.794 70.0382C141.756 70.0449 141.722 70.0641 141.697 70.0926C141.673 70.1211 141.658 70.1572 141.656 70.195V71.1751C141.663 71.2251 141.658 71.2761 141.642 71.3239C141.625 71.3717 141.598 71.4149 141.562 71.4502C141.525 71.4854 141.481 71.5117 141.433 71.5269C141.385 71.5421 141.334 71.5458 141.284 71.5377H140.01C139.96 71.5458 139.909 71.5421 139.861 71.5269C139.813 71.5117 139.769 71.4854 139.732 71.4502C139.696 71.4149 139.669 71.3717 139.652 71.3239C139.636 71.2761 139.631 71.2251 139.638 71.1751L139.687 70.195C139.683 70.1603 139.669 70.1274 139.647 70.101C139.624 70.0746 139.593 70.0561 139.559 70.048C137.09 69.7442 135.639 68.2546 135.639 66.128V65.1969C135.635 65.1469 135.641 65.0965 135.658 65.0493C135.675 65.002 135.703 64.9591 135.738 64.9236C135.774 64.8881 135.817 64.8608 135.864 64.8437C135.911 64.8266 135.961 64.82 136.011 64.8245H138.256C138.501 64.8245 138.628 64.9323 138.628 65.1087V65.4125C138.612 65.6982 138.658 65.9839 138.764 66.2496C138.87 66.5154 139.033 66.7547 139.241 66.9508C139.45 67.147 139.698 67.2951 139.97 67.3849C140.241 67.4747 140.529 67.504 140.814 67.4706C141.058 67.5043 141.307 67.485 141.544 67.4142C141.78 67.3433 141.999 67.2225 142.185 67.0599C142.37 66.8973 142.519 66.6968 142.621 66.4717C142.722 66.2467 142.775 66.0025 142.774 65.7556C142.774 64.2267 139.961 63.9817 137.874 62.6391C137.193 62.2879 136.626 61.7524 136.236 61.0938C135.846 60.4352 135.649 59.6802 135.668 58.915C135.636 57.8353 136.029 56.7861 136.762 55.9927C137.495 55.1993 138.51 54.7249 139.589 54.6715C139.624 54.6653 139.657 54.6476 139.682 54.6211C139.707 54.5945 139.722 54.5606 139.726 54.5245L139.677 53.3583C139.668 53.3075 139.672 53.2554 139.688 53.2063C139.703 53.1572 139.731 53.1126 139.767 53.0762C139.803 53.0397 139.848 53.0125 139.897 52.9968C139.946 52.9811 139.998 52.9774 140.049 52.9859H141.284C141.334 52.9811 141.384 52.9876 141.431 53.0047C141.477 53.0219 141.52 53.0494 141.555 53.0851C141.589 53.1209 141.616 53.164 141.632 53.2112C141.648 53.2585 141.653 53.3088 141.647 53.3583V54.5049C141.648 54.5402 141.662 54.5739 141.685 54.6006C141.708 54.6272 141.739 54.6453 141.774 54.6519C144.371 54.9361 145.841 56.514 145.841 58.7386V59.454C145.871 59.5168 145.881 59.5873 145.868 59.6557C145.856 59.7242 145.823 59.7871 145.773 59.8357C145.724 59.8843 145.66 59.9162 145.591 59.9268C145.523 59.9375 145.452 59.9263 145.39 59.895H143.126C142.881 59.895 142.754 59.8166 142.754 59.6794V59.4638C142.779 59.1731 142.74 58.8804 142.641 58.606C142.542 58.3316 142.385 58.0819 142.18 57.8742C141.975 57.6665 141.727 57.5057 141.454 57.4028C141.181 57.2999 140.889 57.2575 140.598 57.2784C139.383 57.2784 138.638 57.9056 138.638 58.8856C138.638 60.287 140.598 60.5026 142.636 61.3945C144.871 62.3745 145.841 63.7759 145.841 65.6772C145.88 68.0096 144.41 69.6952 141.794 70.0382Z" stroke="#263238" stroke-width="0.98002" stroke-miterlimit="10"/>
<path d="M149.291 71.0909C154.094 66.2878 154.094 58.5003 149.291 53.6972C144.488 48.894 136.7 48.894 131.897 53.6972C127.094 58.5003 127.094 66.2878 131.897 71.0909C136.7 75.8941 144.488 75.8941 149.291 71.0909Z" stroke="#263238" stroke-width="0.98002" stroke-miterlimit="10"/>
<path d="M46.5945 193.246C46.559 193.251 46.5264 193.268 46.503 193.295C46.4795 193.322 46.4667 193.357 46.4671 193.393V194.373C46.4671 194.638 46.3396 194.745 46.1044 194.745H44.8402C44.605 194.745 44.4776 194.638 44.4776 194.373V193.393C44.4765 193.356 44.4634 193.321 44.4404 193.293C44.4174 193.265 44.3857 193.245 44.3502 193.236C41.8806 192.942 40.4301 191.443 40.4301 189.365V188.385C40.4237 188.336 40.4287 188.286 40.4446 188.239C40.4606 188.192 40.4871 188.149 40.5221 188.114C40.5572 188.079 40.5998 188.053 40.6467 188.037C40.6936 188.021 40.7436 188.016 40.7927 188.022H43.0468C43.282 188.022 43.4094 188.13 43.4094 188.307V188.61C43.3946 188.895 43.4422 189.18 43.5488 189.444C43.6553 189.709 43.8184 189.947 44.0265 190.142C44.2346 190.337 44.4827 190.484 44.7536 190.574C45.0245 190.663 45.3116 190.692 45.5948 190.659C45.8386 190.692 46.0868 190.673 46.3226 190.603C46.5584 190.533 46.7765 190.413 46.9622 190.251C47.1478 190.09 47.2968 189.89 47.399 189.666C47.5012 189.443 47.5544 189.2 47.5549 188.953C47.5549 187.415 44.7422 187.18 42.6548 185.837C41.8408 185.413 41.187 184.736 40.7923 183.907C40.3977 183.078 40.2836 182.144 40.4674 181.245C40.6513 180.345 41.1229 179.531 41.8111 178.923C42.4993 178.316 43.3665 177.95 44.2816 177.879C44.3179 177.872 44.3506 177.853 44.3739 177.824C44.3972 177.795 44.4097 177.759 44.409 177.722V176.556C44.4004 176.507 44.4039 176.456 44.419 176.408C44.4342 176.36 44.4607 176.316 44.4962 176.281C44.5318 176.245 44.5754 176.219 44.6233 176.204C44.6712 176.188 44.7221 176.185 44.7716 176.194H46.0064C46.056 176.187 46.1062 176.193 46.1535 176.209C46.2008 176.224 46.2439 176.251 46.2796 176.286C46.3154 176.32 46.3428 176.363 46.36 176.41C46.3772 176.456 46.3836 176.507 46.3789 176.556V177.703C46.3821 177.74 46.3972 177.775 46.4218 177.804C46.4465 177.832 46.4795 177.851 46.5161 177.86C49.1033 178.134 50.5831 179.712 50.5831 181.946V182.662C50.5879 182.711 50.5815 182.761 50.5643 182.808C50.5471 182.855 50.5197 182.898 50.4839 182.932C50.4482 182.967 50.4051 182.993 50.3578 183.009C50.3105 183.025 50.2602 183.03 50.2107 183.024H47.9567C47.7215 183.024 47.5941 182.936 47.5941 182.809V182.593C47.613 182.304 47.5698 182.015 47.4675 181.744C47.3652 181.473 47.2061 181.227 47.001 181.023C46.7958 180.819 46.5493 180.661 46.278 180.56C46.0068 180.459 45.717 180.417 45.4282 180.437C44.213 180.437 43.4682 181.064 43.4682 182.035C43.4682 183.446 45.4282 183.661 47.4765 184.543C49.7011 185.523 50.6713 186.925 50.6713 188.826C50.6811 191.217 49.2307 192.893 46.5945 193.246Z" stroke="#263238" stroke-width="0.98002" stroke-miterlimit="10"/>
<path d="M54.0906 194.291C58.8938 189.487 58.8938 181.7 54.0906 176.897C49.2875 172.094 41.5 172.094 36.6969 176.897C31.8937 181.7 31.8937 189.487 36.6969 194.291C41.5 199.094 49.2875 199.094 54.0906 194.291Z" stroke="#263238" stroke-width="0.98002" stroke-miterlimit="10"/>
<path d="M451.372 361.555C451.336 361.56 451.304 361.577 451.28 361.604C451.257 361.631 451.244 361.666 451.244 361.702V362.682C451.244 362.946 451.117 363.054 450.882 363.054H449.598C449.363 363.054 449.235 362.946 449.235 362.682V361.702C449.234 361.665 449.221 361.63 449.198 361.602C449.175 361.574 449.144 361.554 449.108 361.545C446.638 361.241 445.188 359.752 445.188 357.674V356.743C445.182 356.694 445.186 356.644 445.202 356.597C445.218 356.55 445.245 356.507 445.28 356.472C445.315 356.437 445.358 356.411 445.405 356.395C445.451 356.379 445.501 356.374 445.551 356.38H447.805C448.04 356.38 448.167 356.488 448.167 356.665V356.959C448.151 357.244 448.197 357.53 448.303 357.796C448.409 358.061 448.572 358.301 448.78 358.497C448.989 358.693 449.237 358.841 449.509 358.931C449.781 359.021 450.069 359.05 450.353 359.017C450.596 359.05 450.845 359.031 451.08 358.961C451.316 358.891 451.534 358.771 451.72 358.609C451.906 358.448 452.055 358.248 452.157 358.024C452.259 357.801 452.312 357.557 452.313 357.311C452.313 355.773 449.5 355.538 447.413 354.195C446.599 353.771 445.945 353.093 445.55 352.265C445.155 351.436 445.041 350.502 445.225 349.603C445.409 348.703 445.881 347.889 446.569 347.281C447.257 346.674 448.124 346.308 449.039 346.237C449.075 346.229 449.107 346.209 449.13 346.18C449.153 346.152 449.166 346.117 449.167 346.08V344.914C449.158 344.865 449.162 344.814 449.177 344.766C449.192 344.718 449.219 344.674 449.254 344.639C449.29 344.603 449.333 344.577 449.381 344.562C449.429 344.546 449.48 344.543 449.529 344.551H450.764C450.814 344.545 450.864 344.55 450.911 344.566C450.959 344.582 451.002 344.609 451.037 344.643C451.073 344.678 451.101 344.721 451.118 344.768C451.135 344.814 451.141 344.864 451.137 344.914V346.061C451.139 346.097 451.154 346.132 451.179 346.159C451.204 346.186 451.237 346.203 451.274 346.208C453.861 346.492 455.341 348.07 455.341 350.304V350.961C455.347 351.011 455.342 351.062 455.326 351.111C455.309 351.159 455.282 351.202 455.246 351.238C455.21 351.274 455.166 351.301 455.118 351.318C455.07 351.334 455.019 351.34 454.969 351.333H452.695C452.46 351.333 452.332 351.245 452.332 351.118V350.961C452.357 350.669 452.319 350.376 452.219 350.1C452.119 349.825 451.961 349.575 451.755 349.367C451.549 349.159 451.3 348.999 451.026 348.897C450.751 348.794 450.458 348.753 450.166 348.775C448.951 348.775 448.206 349.403 448.206 350.373C448.206 351.784 450.166 352 452.215 352.882C454.439 353.862 455.41 355.263 455.41 357.164C455.459 359.516 454.008 361.202 451.372 361.555Z" stroke="#263238" stroke-width="0.98002" stroke-miterlimit="10"/>
<path d="M450.176 366.201C456.969 366.201 462.475 360.694 462.475 353.901C462.475 347.109 456.969 341.602 450.176 341.602C443.384 341.602 437.877 347.109 437.877 353.901C437.877 360.694 443.384 366.201 450.176 366.201Z" stroke="#263238" stroke-width="0.98002" stroke-miterlimit="10"/>
<path d="M421.85 448.51C421.85 451.85 345.27 454.56 250.85 454.56C156.43 454.56 79.8496 451.85 79.8496 448.51C79.8496 445.17 156.43 442.51 250.9 442.51C345.37 442.51 421.85 445.18 421.85 448.51Z" fill="#CCCCCC"/>
<path d="M238.5 394.21C238.5 394.21 246.82 429.97 243.2 435.84C238.46 443.53 188.05 448.16 188.05 448.16H299.21C299.21 448.16 313.14 444.25 308.95 433.05C305.71 424.39 290.16 394.21 290.16 394.21H238.5Z" fill="white" stroke="#263238" stroke-linecap="round" stroke-linejoin="round"/>
<path d="M236.06 394.21C236.06 394.21 244.94 430.27 240.76 435.84C236.58 441.41 188.05 445.68 188.05 445.68H299.73C299.73 445.68 309.12 441.89 306.51 433.05C303.9 424.21 287.73 394.21 287.73 394.21H236.06Z" fill="white" stroke="#263238" stroke-linecap="round" stroke-linejoin="round"/>
<path d="M287.73 394.21H236.06C236.06 394.21 241.32 415.57 241.83 427.95H304.58C299.5 416.05 287.73 394.21 287.73 394.21Z" fill="#263238" stroke="#263238" stroke-linecap="round" stroke-linejoin="round"/>
<path d="M299.2 445.86H188.05V448.16H299.2V445.86Z" fill="white" stroke="#263238" stroke-linecap="round" stroke-linejoin="round"/>
<path d="M424.889 146.19H106.469C101.786 146.19 97.9893 149.987 97.9893 154.67V389.24C97.9893 393.923 101.786 397.72 106.469 397.72H424.889C429.573 397.72 433.369 393.923 433.369 389.24V154.67C433.369 149.987 429.573 146.19 424.889 146.19Z" fill="white" stroke="#263238" stroke-linecap="round" stroke-linejoin="round"/>
<path d="M416.99 146.19H98.5698C93.8865 146.19 90.0898 149.987 90.0898 154.67V389.24C90.0898 393.923 93.8865 397.72 98.5698 397.72H416.99C421.673 397.72 425.47 393.923 425.47 389.24V154.67C425.47 149.987 421.673 146.19 416.99 146.19Z" fill="#263238" stroke="#263238" stroke-linecap="round" stroke-linejoin="round"/>
<path d="M90.0898 358.63H425.47V389.24C425.47 391.489 424.576 393.646 422.986 395.236C421.396 396.826 419.239 397.72 416.99 397.72H98.5698C96.3208 397.72 94.1639 396.826 92.5736 395.236C90.9833 393.646 90.0898 391.489 90.0898 389.24V358.63Z" fill="white" stroke="#263238" stroke-linecap="round" stroke-linejoin="round"/>
<path d="M408.6 161.84H106.96V339.55H408.6V161.84Z" fill="white" stroke="#263238" stroke-linecap="round" stroke-linejoin="round"/>
<path d="M378.14 264.15H122.08V275.39H378.14V264.15Z" fill="#8ACFF5"/>
<path d="M378.14 285.39H122.08V296.63H378.14V285.39Z" fill="#8ACFF5"/>
<path d="M122.06 197.11H167.11" stroke="#263238" stroke-miterlimit="10"/>
<path d="M122.06 203.73H167.11" stroke="#263238" stroke-miterlimit="10"/>
<path d="M268.13 203.73H313.18" stroke="#263238" stroke-miterlimit="10"/>
<path d="M268.13 210.32H313.18" stroke="#263238" stroke-miterlimit="10"/>
<path d="M268.13 216.91H313.18" stroke="#263238" stroke-miterlimit="10"/>
<path d="M122.06 210.36H167.11" stroke="#263238" stroke-miterlimit="10"/>
<path d="M122.06 321.55H167.11" stroke="#263238" stroke-miterlimit="10"/>
<path d="M122.06 327.69H167.11" stroke="#263238" stroke-miterlimit="10"/>
<path d="M122.06 216.98H167.11" stroke="#263238" stroke-miterlimit="10"/>
<path d="M230.04 223.61H122.06V235.53H230.04V223.61Z" fill="#8ACFF5"/>
<path d="M377.76 211.68H320.79V217.64H377.76V211.68Z" fill="#8ACFF5"/>
<path d="M377.76 196.45H320.79V217.65H377.76V196.45Z" stroke="#263238" stroke-miterlimit="10"/>
<path d="M377.76 202.41H320.79V211.68H377.76V202.41Z" stroke="#263238" stroke-miterlimit="10"/>
<path d="M329.46 196.63V217.39" stroke="#263238" stroke-miterlimit="10"/>
<path d="M378.14 243.54H122.08V315.36H378.14V243.54Z" stroke="#263238" stroke-miterlimit="10"/>
<path d="M378.14 243.54H122.08V254.78H378.14V243.54Z" fill="#8ACFF5" stroke="#263238" stroke-miterlimit="10"/>
<path d="M302.85 243.81V315.24" stroke="#263238" stroke-miterlimit="10"/>
<path d="M330.68 243.81V315.24" stroke="#263238" stroke-miterlimit="10"/>
<path d="M330.589 319.63H302.619V336.26H330.589V319.63Z" fill="#8ACFF5"/>
<path d="M313.179 325.93V327.21C313.179 328.78 312.429 329.63 310.879 329.63H310.159V333.32H308.619V323.51H310.879C312.429 323.51 313.179 324.36 313.179 325.93ZM310.179 324.93V328.25H310.899C311.399 328.25 311.659 328.03 311.659 327.33V325.85C311.659 325.15 311.399 324.93 310.899 324.93H310.179Z" fill="#263238"/>
<path d="M319.259 333.32H317.699L317.439 331.54H315.549L315.279 333.32H313.869L315.429 323.51H317.689L319.259 333.32ZM315.739 330.21H317.229L316.489 325.21L315.739 330.21Z" fill="#263238"/>
<path d="M321.29 330.07L319.29 323.51H321L322.18 327.98L323.35 323.51H324.83L322.88 330.07V333.32H321.34L321.29 330.07Z" fill="#263238"/>
<path d="M122.619 177.87H124.929V192.57H122.619V177.87Z" fill="#263238"/>
<path d="M129.09 181.92V192.57H127V177.87H129.9L132.27 186.67V177.87H134.33V192.57H132L129.09 181.92Z" fill="#263238"/>
<path d="M139.9 189.86L141.67 177.86H143.79L141.52 192.56H138.08L135.81 177.86H138.14L139.9 189.86Z" fill="#263238"/>
<path d="M145.069 181.4C145.069 179.04 146.309 177.7 148.579 177.7C150.849 177.7 152.079 179.04 152.079 181.4V189C152.079 191.35 150.849 192.69 148.579 192.69C146.309 192.69 145.069 191.35 145.069 189V181.4ZM147.379 189.19C147.379 190.19 147.839 190.63 148.579 190.63C149.319 190.63 149.769 190.23 149.769 189.19V181.25C149.769 180.2 149.309 179.8 148.579 179.8C147.849 179.8 147.379 180.2 147.379 181.25V189.19Z" fill="#263238"/>
<path d="M154 177.87H156.31V192.57H154V177.87Z" fill="#263238"/>
<path d="M165.1 187.09V189C165.1 191.35 163.93 192.69 161.66 192.69C159.39 192.69 158.22 191.35 158.22 189V181.4C158.22 179.04 159.39 177.7 161.66 177.7C163.93 177.7 165.1 179.04 165.1 181.4V182.82H162.92V181.25C162.92 180.2 162.46 179.8 161.72 179.8C160.98 179.8 160.53 180.2 160.53 181.25V189.19C160.53 190.19 160.99 190.61 161.72 190.61C162.45 190.61 162.92 190.23 162.92 189.19V187.09H165.1Z" fill="#263238"/>
<path d="M169.239 184.06H172.409V186.16H169.239V190.47H173.239V192.57H166.939V177.87H173.239V180H169.239V184.06Z" fill="#263238"/>
<path d="M408.6 161.84H106.96V170.05H408.6V161.84Z" fill="#8ACFF5" stroke="#263238" stroke-linecap="round" stroke-linejoin="round"/>
<path d="M263.999 378.18C264.001 376.955 263.64 375.757 262.96 374.737C262.281 373.718 261.314 372.923 260.183 372.453C259.051 371.983 257.806 371.86 256.604 372.098C255.402 372.337 254.298 372.927 253.432 373.793C252.566 374.659 251.976 375.763 251.738 376.965C251.499 378.167 251.622 379.412 252.092 380.543C252.562 381.675 253.357 382.642 254.376 383.321C255.396 384 256.594 384.362 257.819 384.36C259.457 384.357 261.028 383.705 262.186 382.547C263.345 381.389 263.996 379.818 263.999 378.18Z" fill="#263238" stroke="#263238" stroke-linecap="round" stroke-linejoin="round"/>
<path d="M434.47 462.81C434.47 466.81 416.69 470 394.75 470C372.81 470 355 466.78 355 462.81C355 458.84 372.79 455.62 394.72 455.62C416.65 455.62 434.47 458.84 434.47 462.81Z" fill="#CCCCCC"/>
<path d="M370.2 278.5C370.2 278.5 365.92 280.1 364.59 286.12C363.26 292.14 360.44 310.32 358.97 318.88C357.5 327.44 349.61 355.24 349.61 355.24L353.76 358.05C353.76 358.05 363.92 343.21 366.76 336.26C369.6 329.31 372.37 324.49 372.76 319.14C373.15 313.79 372.5 284.38 372.5 282.14C372.5 279.9 371.41 278.23 370.2 278.5Z" fill="#8ACFF5" stroke="#263238" stroke-linecap="round" stroke-linejoin="round"/>
<path d="M374.08 453.07C374.08 453.07 363.52 459.89 362.31 462.29C361.1 464.69 363.38 465.37 369.31 464.57C375.24 463.77 379.31 460.69 382.14 459.08C384.97 457.47 386.29 457.35 385.35 453.74C384.41 450.13 374.08 453.07 374.08 453.07Z" fill="white" stroke="#263238" stroke-linecap="round" stroke-linejoin="round"/>
<path d="M415.39 454.14C415.39 454.14 427.03 462.02 426.39 463.76C425.75 465.5 422.24 466.3 416.09 464.3C409.94 462.3 408.6 460.69 406.09 458.55C403.58 456.41 404.49 453.74 404.49 451.86C404.49 449.98 415.39 454.14 415.39 454.14Z" fill="white" stroke="#263238" stroke-linecap="round" stroke-linejoin="round"/>
<path d="M368.6 332C368.6 332 366.19 353.12 365.92 370C365.65 386.88 373.41 451.11 373.41 451.78V453.78C375.396 454.68 377.525 455.222 379.7 455.38C381.973 455.436 384.248 455.346 386.51 455.11C386.51 455.11 386.51 443.21 386.78 433.99C387.05 424.77 388.52 382.69 388.52 382.69L388.92 364.51L391.59 366.25L404.16 455.38L415.39 454.18C415.39 454.18 416.73 394.86 416.46 378.55C416.19 362.24 413 333.45 413 333.45L368.6 332Z" fill="#263238" stroke="#263238" stroke-linecap="round" stroke-linejoin="round"/>
<path d="M389.59 272.22C389.59 272.22 371.81 277.7 370.2 278.5C368.59 279.3 367.53 283.58 367.53 288.93C367.53 294.28 369.53 320.75 369.27 323.93C369.01 327.11 367.4 331.15 368.73 333.42C370.06 335.69 387.73 337.16 397.21 336.76C406.69 336.36 412.05 337.3 413.39 334.62C414.73 331.94 415.53 298.93 416.86 291.3C418.19 283.67 419.14 279.67 416.46 277.53C413.78 275.39 399.62 272.85 396.14 272.05L389.59 272.22Z" fill="#8ACFF5" stroke="#263238" stroke-linecap="round" stroke-linejoin="round"/>
<path d="M389 268.85C389 268.85 386.05 269.85 385.07 272.06C384.09 274.27 381.15 285.27 382.22 285.8C383.29 286.33 391.59 282.32 392.84 282.59C394.09 282.86 399.17 289.46 400.69 288.59C402.21 287.72 405.78 278.33 404.44 273.51C403.1 268.69 390.33 267.6 389 268.85Z" fill="white" stroke="#263238" stroke-linecap="round" stroke-linejoin="round"/>
<path d="M387.38 265.82C387.38 265.82 387.29 270.72 387.29 273.22C387.29 275.72 389.44 284.64 391.29 284.29C393.14 283.94 400.93 275.19 402.18 272.86C403.43 270.53 403.69 265.73 403.69 265.73C403.69 265.73 398.16 269.65 393.97 268.4C391.695 267.755 389.488 266.891 387.38 265.82Z" fill="#CCCCCC" stroke="#263238" stroke-linecap="round" stroke-linejoin="round"/>
<path d="M394 268.4C391.718 267.757 389.504 266.893 387.39 265.82C387.39 265.82 387.39 267.75 387.33 269.82C387.94 271.13 388.52 272.23 388.93 273.01C389.462 274.237 390.449 275.211 391.683 275.727C392.917 276.243 394.302 276.262 395.55 275.78C398.453 274.5 401.035 272.59 403.11 270.19C403.422 268.727 403.626 267.243 403.72 265.75C403.72 265.75 398.18 269.65 394 268.4Z" fill="#263238" stroke="#263238" stroke-linecap="round" stroke-linejoin="round"/>
<path d="M385.28 251.46C385.28 251.46 384.78 247.9 383.1 249.35C381.42 250.8 381.72 254.44 382.52 256.19C383.32 257.94 384.19 257.72 384.41 257.64C384.63 257.56 385.28 251.46 385.28 251.46Z" fill="#CCCCCC" stroke="#263238" stroke-linecap="round" stroke-linejoin="round"/>
<path d="M408.56 254.88C408.78 254.52 411.47 245.5 411.62 240.62C411.77 235.74 404.71 231.17 399.69 230.22C394.67 229.27 387.25 230.51 385.69 233.35C384.13 236.19 383.94 247.35 383.94 249.21C383.94 251.07 385.4 251.39 385.76 250.95C386.12 250.51 387.22 239.53 387.87 238.73C388.52 237.93 400.16 238.3 401.98 238.8C403.8 239.3 404.82 241.21 404.46 243.97C404.1 246.73 404.53 246.59 405.26 248.19C405.99 249.79 405.98 250.37 405.98 252.55C405.98 254.73 407 257.35 408.56 254.88Z" fill="#263238" stroke="#263238" stroke-linecap="round" stroke-linejoin="round"/>
<path d="M386.89 238.37C385.652 243.711 384.777 249.13 384.27 254.59C383.9 261.06 387.47 267.75 388.92 270.52C390.37 273.29 393 274.23 395.54 273.28C399.022 271.734 402.051 269.325 404.34 266.28C407.03 262.79 408.42 254.42 408.42 254.42C408.42 254.42 407.32 255 407.25 254.06C407.18 253.12 407.91 249.84 407.18 247.73C406.45 245.62 404.85 245.11 405.8 243.07C406.407 241.928 406.848 240.706 407.11 239.44C407.11 239.07 403.47 236.89 396.85 236.31C390.23 235.73 387.25 236.55 386.89 238.37Z" fill="#CCCCCC" stroke="#263238" stroke-linecap="round" stroke-linejoin="round"/>
<path d="M387.61 244.33C387.61 244.33 389.56 242.64 392.27 244.59" stroke="#263238" stroke-linecap="round" stroke-linejoin="round"/>
<path d="M397.45 245.1C397.45 245.1 402.11 243.23 403.98 246.54" stroke="#263238" stroke-linecap="round" stroke-linejoin="round"/>
<path d="M407.69 255.46C407.69 255.46 409.14 252.19 411.25 252.04C413.36 251.89 413.07 256.04 411.11 258.74C409.15 261.44 406.31 262.52 406.23 260.55" fill="#CCCCCC"/>
<path d="M407.69 255.46C407.69 255.46 409.14 252.19 411.25 252.04C413.36 251.89 413.07 256.04 411.11 258.74C409.15 261.44 406.31 262.52 406.23 260.55" stroke="#263238" stroke-linecap="round" stroke-linejoin="round"/>
<path d="M393.43 249.57C393.43 249.57 391.03 256.48 391.54 257.43C392.05 258.38 394.01 259.43 396.41 258.3" stroke="#263238" stroke-linecap="round" stroke-linejoin="round"/>
<path d="M394.38 261.57C395.429 261.93 396.552 262.019 397.645 261.828C398.738 261.637 399.764 261.174 400.63 260.48" stroke="#263238" stroke-linecap="round" stroke-linejoin="round"/>
<path d="M391 249.82C391 250.61 390.72 251.24 390.38 251.24C390.04 251.24 389.76 250.61 389.76 249.82C389.76 249.03 390.04 248.41 390.38 248.41C390.72 248.41 391 249 391 249.82Z" fill="#263238"/>
<path d="M399.51 252.19C399.852 252.19 400.13 251.554 400.13 250.77C400.13 249.986 399.852 249.35 399.51 249.35C399.167 249.35 398.89 249.986 398.89 250.77C398.89 251.554 399.167 252.19 399.51 252.19Z" fill="#263238"/>
<path d="M393.5 249.39C393.5 250.217 393.254 251.025 392.795 251.712C392.336 252.4 391.683 252.935 390.919 253.252C390.155 253.568 389.315 253.651 388.504 253.49C387.693 253.328 386.949 252.93 386.364 252.346C385.779 251.761 385.381 251.016 385.22 250.205C385.059 249.395 385.141 248.554 385.458 247.79C385.774 247.027 386.31 246.374 386.997 245.914C387.685 245.455 388.493 245.21 389.32 245.21C390.428 245.21 391.491 245.65 392.275 246.434C393.059 247.218 393.5 248.281 393.5 249.39Z" stroke="#263238" stroke-linecap="round" stroke-linejoin="round"/>
<path d="M404.35 250.29C404.348 251.16 404.088 252.01 403.603 252.732C403.119 253.454 402.431 254.017 401.627 254.348C400.823 254.68 399.938 254.766 399.085 254.595C398.232 254.424 397.449 254.004 396.835 253.388C396.221 252.772 395.803 251.988 395.634 251.135C395.465 250.282 395.552 249.398 395.886 248.594C396.219 247.791 396.783 247.104 397.506 246.621C398.23 246.138 399.08 245.88 399.95 245.88C400.528 245.88 401.101 245.995 401.636 246.216C402.17 246.438 402.656 246.763 403.065 247.173C403.473 247.582 403.797 248.068 404.018 248.603C404.238 249.138 404.351 249.712 404.35 250.29Z" stroke="#263238" stroke-linecap="round" stroke-linejoin="round"/>
<path d="M393.5 248.62C393.828 248.453 394.201 248.398 394.563 248.465C394.924 248.532 395.254 248.717 395.5 248.99" stroke="#263238" stroke-linecap="round" stroke-linejoin="round"/>
<path d="M404.27 250.73L409.51 252.92" stroke="#263238" stroke-linecap="round" stroke-linejoin="round"/>
<path d="M350.68 352.17L356.3 354.44" stroke="#263238" stroke-linecap="round" stroke-linejoin="round"/>
<path d="M345.5 369.29C345.5 369.29 346.29 373.91 346.83 374.16C347.37 374.41 347.56 371.91 347.38 370.33L347.2 368.75C347.2 368.75 348.05 372.88 348.9 373.25C349.75 373.62 349.27 371.79 349.02 370.87L348.78 369.96C348.78 369.96 350.91 372.21 351.09 371.66C351.27 371.11 349.81 368.38 349.75 368.2C349.422 367.153 349.172 366.084 349 365C348.94 364.15 347.73 360.74 346.51 362.87C345.29 365 345.5 369.29 345.5 369.29Z" fill="#CCCCCC" stroke="#263238" stroke-linecap="round" stroke-linejoin="round"/>
<path d="M349.61 355.24C349.61 355.24 345.61 361.66 344.53 363.8C343.45 365.94 342.66 373.96 343.6 374.5C344.54 375.04 344.79 373.08 345.01 371.73C345.393 370.126 345.964 368.572 346.71 367.1C346.71 367.1 346.14 372.22 346.94 372.1C347.74 371.98 348.41 367.29 348.94 366.1C349.47 364.91 352.69 363.16 353.76 358.1L349.61 355.24Z" fill="#CCCCCC" stroke="#263238" stroke-linecap="round" stroke-linejoin="round"/>
<path d="M346.71 367.1C346.71 367.1 346.71 366.42 347.2 363.88L346.71 367.1Z" fill="white"/>
<path d="M346.71 367.1C346.71 367.1 346.71 366.42 347.2 363.88" stroke="#263238" stroke-linecap="round" stroke-linejoin="round"/>
<path d="M415.93 277.3C418.961 279.589 421.278 282.693 422.61 286.25C425.15 292.54 433.84 319.95 434.11 320.48C434.38 321.01 434.11 326.36 429.83 328.1C425.55 329.84 423.55 326.1 421.01 321.82C418.47 317.54 412.59 298.55 412.59 298.55" fill="#8ACFF5"/>
<path d="M415.93 277.3C418.961 279.589 421.278 282.693 422.61 286.25C425.15 292.54 433.84 319.95 434.11 320.48C434.38 321.01 434.11 326.36 429.83 328.1C425.55 329.84 423.55 326.1 421.01 321.82C418.47 317.54 412.59 298.55 412.59 298.55" stroke="#263238" stroke-linecap="round" stroke-linejoin="round"/>
<path d="M426.89 312.73L447.65 302.53L451.26 306.68C451.26 306.68 436 325.29 432.64 327.43C429.28 329.57 425.15 329.04 423.55 325.43" fill="#8ACFF5"/>
<path d="M426.89 312.73L447.65 302.53L451.26 306.68C451.26 306.68 436 325.29 432.64 327.43C429.28 329.57 425.15 329.04 423.55 325.43" stroke="#263238" stroke-linecap="round" stroke-linejoin="round"/>
<path d="M445.38 304L449.25 308.68" stroke="#263238" stroke-linecap="round" stroke-linejoin="round"/>
<path d="M447.65 302.53C447.65 302.53 452.2 295.45 453.53 294.91C454.86 294.37 458.61 293.58 460.75 291.97C462.89 290.36 464.09 290.77 462.89 292.51C461.69 294.25 460.35 294.51 459.15 295.05C458.54 295.299 457.956 295.611 457.41 295.98C457.41 295.98 460.75 296.12 462.89 296.25C464.19 296.327 465.494 296.237 466.77 295.98C466.77 295.98 472.25 293.58 470.91 296.52C469.57 299.46 469.71 301.33 464.36 302.93C460.884 303.921 457.285 304.419 453.67 304.41L451.26 306.68L447.65 302.53Z" fill="#CCCCCC" stroke="#263238" stroke-linecap="round" stroke-linejoin="round"/>
<path d="M468.64 300.93C469.488 300.624 470.254 300.128 470.88 299.48C471.506 298.832 471.974 298.048 472.25 297.19C473.19 294.24 472.65 294.11 471.45 295.19C470.276 296.397 469.325 297.802 468.64 299.34C468 300.66 468.64 300.93 468.64 300.93Z" fill="#CCCCCC" stroke="#263238" stroke-linecap="round" stroke-linejoin="round"/>
<path d="M467.44 301.06C467.44 301.06 469.04 302.13 470.25 298.92C471.46 295.71 471.31 293.17 470.25 293.71C469.19 294.25 468.91 294.38 467.57 297.19C466.23 300 465.03 301.19 465.83 301.46C466.111 301.519 466.402 301.514 466.681 301.445C466.96 301.376 467.219 301.244 467.44 301.06Z" fill="#CCCCCC" stroke="#263238" stroke-linecap="round" stroke-linejoin="round"/>
<path d="M452.06 302.27C452.06 302.27 454.06 298.92 456.34 298.92C459.12 299.126 461.888 299.484 464.63 299.99C464.63 299.99 469.04 293.58 469.98 294.51C470.92 295.44 468.51 299.86 467.44 301.06C466.37 302.26 466.23 302.4 465.3 302.67" fill="#CCCCCC"/>
<path d="M452.06 302.27C452.06 302.27 454.06 298.92 456.34 298.92C459.12 299.126 461.888 299.484 464.63 299.99C464.63 299.99 469.04 293.58 469.98 294.51C470.92 295.44 468.51 299.86 467.44 301.06C466.37 302.26 466.23 302.4 465.3 302.67" stroke="#263238" stroke-linecap="round" stroke-linejoin="round"/>
<path d="M388.92 364.47L382.77 361.53" stroke="#7D7D7D" stroke-linecap="round" stroke-linejoin="round"/>
</svg>
