<svg width="35" height="35" viewBox="0 0 35 35" fill="none" xmlns="http://www.w3.org/2000/svg">
<g clip-path="url(#clip0_1184_5654)">
<path d="M17.5 34.5C26.8888 34.5 34.5 26.8888 34.5 17.5C34.5 8.11116 26.8888 0.5 17.5 0.5C8.11116 0.5 0.5 8.11116 0.5 17.5C0.5 26.8888 8.11116 34.5 17.5 34.5Z" stroke="white"/>
<path d="M17.9972 12.639C17.1347 12.639 16.2915 12.8948 15.5743 13.374C14.8572 13.8532 14.2982 14.5343 13.9681 15.3312C13.6381 16.128 13.5517 17.0049 13.72 17.8508C13.8883 18.6968 14.3036 19.4738 14.9135 20.0837C15.5234 20.6936 16.3004 21.109 17.1464 21.2773C17.9923 21.4455 18.8692 21.3592 19.6661 21.0291C20.4629 20.699 21.144 20.1401 21.6232 19.4229C22.1024 18.7057 22.3582 17.8626 22.3582 17C22.3591 16.4271 22.2469 15.8596 22.0281 15.3301C21.8093 14.8006 21.4881 14.3194 21.0829 13.9143C20.6778 13.5092 20.1967 13.188 19.6672 12.9691C19.1376 12.7503 18.5701 12.6381 17.9972 12.639ZM17.9972 19.839C17.4365 19.839 16.8884 19.6728 16.4221 19.3613C15.9559 19.0497 15.5926 18.607 15.378 18.089C15.1634 17.5709 15.1073 17.0009 15.2167 16.451C15.3261 15.901 15.5961 15.3959 15.9925 14.9994C16.389 14.6029 16.8942 14.3329 17.4441 14.2235C17.994 14.1141 18.5641 14.1703 19.0821 14.3848C19.6001 14.5994 20.0429 14.9628 20.3544 15.429C20.6659 15.8952 20.8322 16.4433 20.8322 17.004C20.8301 17.755 20.5306 18.4746 19.9993 19.0053C19.468 19.536 18.7482 19.8347 17.9972 19.836V19.839ZM23.5572 12.458C23.5572 12.6592 23.4975 12.8558 23.3858 13.0231C23.274 13.1903 23.1152 13.3207 22.9294 13.3976C22.7435 13.4746 22.5391 13.4947 22.3418 13.4555C22.1445 13.4163 21.9633 13.3194 21.8211 13.1772C21.6788 13.0349 21.582 12.8537 21.5427 12.6565C21.5035 12.4592 21.5236 12.2547 21.6006 12.0689C21.6776 11.883 21.8079 11.7242 21.9752 11.6124C22.1424 11.5007 22.339 11.441 22.5402 11.441C22.6738 11.4408 22.8062 11.4669 22.9297 11.5179C23.0532 11.5689 23.1654 11.6438 23.2599 11.7383C23.3544 11.8328 23.4293 11.945 23.4803 12.0685C23.5313 12.1921 23.5575 12.3244 23.5572 12.458ZM26.4452 13.49C26.4732 12.1677 25.9796 10.8874 25.0712 9.92605C24.107 9.02285 22.8281 8.53197 21.5072 8.55805C20.1072 8.47805 15.8942 8.47805 14.4892 8.55805C13.1679 8.53176 11.8887 9.02348 10.9252 9.92805C10.0191 10.89 9.52617 12.1688 9.55219 13.49C9.47219 14.89 9.47219 19.103 9.55219 20.508C9.52419 21.8304 10.0178 23.1107 10.9262 24.072C11.8898 24.9769 13.1685 25.4699 14.4902 25.446C15.8902 25.526 20.1032 25.526 21.5082 25.446C22.8306 25.474 24.1108 24.9805 25.0722 24.072C25.9776 23.1088 26.4706 21.8298 26.4462 20.508C26.5262 19.108 26.5262 14.898 26.4462 13.494L26.4452 13.49ZM24.6312 22.011C24.4869 22.377 24.2689 22.7094 23.9907 22.9876C23.7125 23.2657 23.3801 23.4837 23.0142 23.628C21.8942 24.072 19.2382 23.97 18.0002 23.97C16.7622 23.97 14.1002 24.07 12.9862 23.628C12.6202 23.4837 12.2878 23.2657 12.0097 22.9876C11.7315 22.7094 11.5135 22.377 11.3692 22.011C10.9252 20.891 11.0272 18.235 11.0272 16.997C11.0272 15.759 10.9272 13.097 11.3692 11.983C11.514 11.6178 11.7322 11.2862 12.0103 11.0088C12.2885 10.7313 12.6206 10.5139 12.9862 10.37C14.1062 9.92605 16.7632 10.028 17.9972 10.028C19.2312 10.028 21.8972 9.92805 23.0112 10.37C23.3771 10.5144 23.7095 10.7324 23.9877 11.0105C24.2659 11.2887 24.4839 11.6211 24.6282 11.987C25.0722 13.107 24.9702 15.763 24.9702 17.001C24.9702 18.239 25.0752 20.898 24.6312 22.014V22.011Z" fill="white"/>
</g>
<defs>
<clipPath id="clip0_1184_5654">
<rect width="35" height="35" fill="white"/>
</clipPath>
</defs>
</svg>
