<svg width="35" height="35" viewBox="0 0 35 35" fill="none" xmlns="http://www.w3.org/2000/svg">
<g clip-path="url(#clip0_1184_5661)">
<path d="M17.5 34.5C26.8888 34.5 34.5 26.8888 34.5 17.5C34.5 8.11116 26.8888 0.5 17.5 0.5C8.11116 0.5 0.5 8.11116 0.5 17.5C0.5 26.8888 8.11116 34.5 17.5 34.5Z" stroke="white"/>
<path d="M12.8026 26.0052H9.27656V14.6492H12.8026V26.0052ZM11.0376 13.0952C10.6315 13.097 10.2341 12.9783 9.89561 12.7541C9.55709 12.5299 9.29268 12.2104 9.13584 11.8359C8.979 11.4614 8.93679 11.0488 9.01454 10.6502C9.09229 10.2517 9.28652 9.88527 9.57263 9.59719C9.85875 9.30912 10.2239 9.11239 10.6219 9.03192C11.0198 8.95145 11.4327 8.99084 11.8083 9.14512C12.1838 9.29939 12.5052 9.56162 12.7317 9.8986C12.9581 10.2356 13.0796 10.6322 13.0806 11.0382C13.0798 11.5811 12.8647 12.1017 12.4822 12.4869C12.0996 12.8721 11.5804 13.0907 11.0376 13.0952ZM26.0016 26.0052H22.4826V20.4772C22.4826 19.1602 22.4556 17.4702 20.6496 17.4702C18.8166 17.4702 18.5356 18.9012 18.5356 20.3822V26.0052H15.0116V14.6492H18.3956V16.1952H18.4446C18.7827 15.6161 19.2717 15.1397 19.8594 14.8167C20.4471 14.4937 21.1114 14.3363 21.7816 14.3612C25.3506 14.3612 26.0066 16.7112 26.0066 19.7612V26.0052H26.0016Z" fill="white"/>
</g>
<defs>
<clipPath id="clip0_1184_5661">
<rect width="35" height="35" fill="white"/>
</clipPath>
</defs>
</svg>
