<svg width="35" height="35" viewBox="0 0 35 35" fill="none" xmlns="http://www.w3.org/2000/svg">
<g clip-path="url(#clip0_1184_5647)">
<path d="M17.5 34.5C26.8888 34.5 34.5 26.8888 34.5 17.5C34.5 8.11116 26.8888 0.5 17.5 0.5C8.11116 0.5 0.5 8.11116 0.5 17.5C0.5 26.8888 8.11116 34.5 17.5 34.5Z" stroke="white"/>
<path d="M21.2262 18.2419L21.7132 15.0689H18.6692V13.0099C18.6481 12.7729 18.6805 12.5343 18.7641 12.3116C18.8477 12.0889 18.9803 11.8878 19.152 11.7232C19.3238 11.5587 19.5304 11.4348 19.7564 11.3608C19.9825 11.2869 20.2223 11.2647 20.4582 11.2959H21.8422V8.59388C21.0295 8.46273 20.2083 8.39121 19.3852 8.37988C16.8772 8.37988 15.2422 9.89988 15.2422 12.6509V15.0689H12.4512V18.2419H15.2422V25.9129H18.6722V18.2419H21.2262Z" fill="white"/>
</g>
<defs>
<clipPath id="clip0_1184_5647">
<rect width="35" height="35" fill="white"/>
</clipPath>
</defs>
</svg>
