<svg width="35" height="35" viewBox="0 0 35 35" fill="none" xmlns="http://www.w3.org/2000/svg">
<g clip-path="url(#clip0_1184_5668)">
<path d="M17.5 34.5C26.8888 34.5 34.5 26.8888 34.5 17.5C34.5 8.11116 26.8888 0.5 17.5 0.5C8.11116 0.5 0.5 8.11116 0.5 17.5C0.5 26.8888 8.11116 34.5 17.5 34.5Z" stroke="white"/>
<path d="M25.0182 13.888C25.0312 14.067 25.0312 14.247 25.0312 14.426C25.0418 15.9746 24.7447 17.5099 24.1569 18.9427C23.5692 20.3755 22.7026 21.6773 21.6076 22.7723C20.5125 23.8674 19.2107 24.734 17.7779 25.3217C16.3451 25.9094 14.8098 26.2066 13.2612 26.196C11.009 26.2022 8.80286 25.5577 6.9082 24.34C7.24026 24.3765 7.57416 24.3935 7.9082 24.391C9.77001 24.395 11.5789 23.7719 13.0432 22.622C12.1799 22.6063 11.3431 22.3214 10.6497 21.807C9.9562 21.2927 9.44071 20.5746 9.1752 19.753C9.43356 19.7939 9.69463 19.8153 9.9562 19.817C10.3237 19.8159 10.6896 19.7685 11.0452 19.676C10.1094 19.4868 9.26794 18.9797 8.66338 18.2408C8.05882 17.5019 7.72842 16.5767 7.7282 15.622V15.566C8.30147 15.8859 8.94221 16.0658 9.5982 16.091C8.72007 15.5054 8.09852 14.6068 7.86046 13.5785C7.6224 12.5503 7.78576 11.4699 8.3172 10.558C9.35631 11.837 10.6526 12.8833 12.1221 13.629C13.5916 14.3748 15.2014 14.8034 16.8472 14.887C16.7816 14.5752 16.7481 14.2576 16.7472 13.939C16.7479 13.109 16.9979 12.2984 17.4649 11.6122C17.9319 10.9261 18.5943 10.3962 19.3662 10.0911C20.1381 9.78605 20.9839 9.72 21.7938 9.9015C22.6037 10.083 23.3403 10.5037 23.9082 11.109C24.8349 10.9303 25.7234 10.5919 26.5342 10.109C26.2241 11.0666 25.5747 11.8778 24.7082 12.39C25.5297 12.2966 26.3325 12.0809 27.0902 11.75C26.5246 12.574 25.8241 13.2968 25.0182 13.888Z" fill="white"/>
</g>
<defs>
<clipPath id="clip0_1184_5668">
<rect width="35" height="35" fill="white"/>
</clipPath>
</defs>
</svg>
