<svg width="16" height="17" viewBox="0 0 16 17" fill="none" xmlns="http://www.w3.org/2000/svg">
<g clip-path="url(#clip0_1184_5687)">
<path d="M8.21528 0.779786C7.54232 0.779329 6.87588 0.91154 6.25407 1.16886C5.63225 1.42617 5.06726 1.80355 4.59141 2.2794C4.11556 2.75525 3.73818 3.32024 3.48087 3.94205C3.22355 4.56387 3.09134 5.23031 3.0918 5.90326C3.0918 9.74605 8.21528 15.4191 8.21528 15.4191C8.21528 15.4191 13.3388 9.74605 13.3388 5.90326C13.3392 5.23031 13.207 4.56387 12.9497 3.94205C12.6924 3.32024 12.315 2.75525 11.8391 2.2794C11.3633 1.80355 10.7983 1.42617 10.1765 1.16886C9.55467 0.91154 8.88823 0.779329 8.21528 0.779786ZM8.21528 7.73631C7.85352 7.73576 7.50004 7.62802 7.19949 7.42669C6.89893 7.22537 6.66477 6.9395 6.52659 6.60517C6.38841 6.27085 6.35239 5.90308 6.4231 5.5483C6.49381 5.19352 6.66807 4.86766 6.92387 4.61186C7.17967 4.35606 7.50554 4.1818 7.86031 4.11109C8.21509 4.04038 8.58286 4.07639 8.91719 4.21458C9.25151 4.35276 9.53738 4.58692 9.73871 4.88748C9.94003 5.18803 10.0478 5.54151 10.0483 5.90326C10.0487 6.14409 10.0015 6.38261 9.90953 6.60517C9.81754 6.82773 9.68254 7.02995 9.51225 7.20024C9.34196 7.37053 9.13975 7.50553 8.91719 7.59752C8.69462 7.68951 8.4561 7.73667 8.21528 7.73631Z" fill="white"/>
</g>
<defs>
<clipPath id="clip0_1184_5687">
<rect width="16" height="16.6957" fill="white"/>
</clipPath>
</defs>
</svg>
