<svg width="16" height="18" viewBox="0 0 16 18" fill="none" xmlns="http://www.w3.org/2000/svg">
<g clip-path="url(#clip0_1184_5699)">
<path d="M14.0511 6.95145L10.9826 9.77789C10.9777 9.78226 10.9738 9.78762 10.9711 9.79361C10.9684 9.79961 10.967 9.8061 10.967 9.81267C10.967 9.81924 10.9684 9.82573 10.9711 9.83173C10.9738 9.83772 10.9777 9.84308 10.9826 9.84745L13.1301 11.9156C13.1643 11.9449 13.1918 11.9813 13.2106 12.0223C13.2295 12.0632 13.2392 12.1078 13.2392 12.1528C13.2392 12.1979 13.2295 12.2425 13.2106 12.2834C13.1918 12.3244 13.1643 12.3607 13.1301 12.3901C13.0573 12.4532 12.9642 12.488 12.8678 12.488C12.7715 12.488 12.6783 12.4532 12.6056 12.3901L10.4664 10.3344C10.4549 10.3245 10.4402 10.319 10.425 10.319C10.4099 10.319 10.3952 10.3245 10.3837 10.3344L9.86192 10.8144C9.41356 11.2201 8.82969 11.4434 8.22505 11.4405C7.60784 11.4426 7.01222 11.2136 6.55548 10.7984L6.05183 10.3344C6.04033 10.3245 6.02564 10.319 6.01044 10.319C5.99524 10.319 5.98055 10.3245 5.96905 10.3344L3.83201 12.3928C3.75924 12.456 3.66611 12.4908 3.56974 12.4908C3.47338 12.4908 3.38025 12.456 3.30748 12.3928C3.27325 12.3635 3.24577 12.3271 3.22693 12.2862C3.20809 12.2452 3.19833 12.2007 3.19833 12.1556C3.19833 12.1106 3.20809 12.066 3.22693 12.0251C3.24577 11.9841 3.27325 11.9477 3.30748 11.9184L5.45288 9.84745C5.46173 9.83803 5.46666 9.8256 5.46666 9.81267C5.46666 9.79974 5.46173 9.7873 5.45288 9.77789L2.38088 6.95145C2.37313 6.94389 2.36339 6.93869 2.35279 6.93646C2.3422 6.93423 2.33119 6.93506 2.32105 6.93885C2.31091 6.94264 2.30205 6.94924 2.29553 6.95788C2.289 6.96652 2.28506 6.97684 2.28418 6.98763V12.6433C2.29801 12.8726 2.40148 13.0873 2.57224 13.241C2.743 13.3947 2.96735 13.4751 3.19688 13.4648H13.2358C13.4659 13.4751 13.6908 13.3942 13.8616 13.2398C14.0325 13.0853 14.1356 12.8698 14.1485 12.6398V6.98415C14.1469 6.97365 14.1425 6.96379 14.1357 6.95566C14.1288 6.94753 14.1199 6.94144 14.1098 6.93806C14.0997 6.93468 14.0889 6.93414 14.0786 6.93651C14.0682 6.93887 14.0587 6.94404 14.0511 6.95145Z" fill="white"/>
<path d="M8.21454 10.2015C8.65017 10.2062 9.07187 10.0482 9.39715 9.7584L14.1471 5.44536C13.9719 5.321 13.7622 5.25481 13.5474 5.25614H2.88237C2.66752 5.25433 2.45762 5.32057 2.28271 5.44536L7.03263 9.7584C7.35773 10.048 7.77916 10.206 8.21454 10.2015Z" fill="white"/>
</g>
<defs>
<clipPath id="clip0_1184_5699">
<rect width="16" height="16.6957" fill="white" transform="translate(0 0.6521)"/>
</clipPath>
</defs>
</svg>
