<svg width="10" height="10" viewBox="0 0 10 10" fill="none" xmlns="http://www.w3.org/2000/svg">
<path d="M6.82655 4.61297C6.82655 4.41571 6.90747 4.22652 7.05151 4.08704C7.19554 3.94755 7.3909 3.86919 7.5946 3.86919C7.7983 3.86919 7.99365 3.94755 8.13769 4.08704C8.28173 4.22652 8.36264 4.41571 8.36264 4.61297C8.36264 4.81023 8.28173 4.99942 8.13769 5.1389C7.99365 5.27839 7.7983 5.35675 7.5946 5.35675C7.3909 5.35675 7.19554 5.27839 7.05151 5.1389C6.90747 4.99942 6.82655 4.81023 6.82655 4.61297ZM4.52241 4.61297C4.52241 4.41571 4.60332 4.22652 4.74736 4.08704C4.8914 3.94755 5.08675 3.86919 5.29045 3.86919C5.49415 3.86919 5.68951 3.94755 5.83354 4.08704C5.97758 4.22652 6.0585 4.41571 6.0585 4.61297C6.0585 4.81023 5.97758 4.99942 5.83354 5.1389C5.68951 5.27839 5.49415 5.35675 5.29045 5.35675C5.08675 5.35675 4.8914 5.27839 4.74736 5.1389C4.60332 4.99942 4.52241 4.81023 4.52241 4.61297ZM2.21826 4.61297C2.21826 4.41571 2.29918 4.22652 2.44322 4.08704C2.58725 3.94755 2.78261 3.86919 2.98631 3.86919C3.19001 3.86919 3.38536 3.94755 3.5294 4.08704C3.67344 4.22652 3.75436 4.41571 3.75436 4.61297C3.75436 4.81023 3.67344 4.99942 3.5294 5.1389C3.38536 5.27839 3.19001 5.35675 2.98631 5.35675C2.78261 5.35675 2.58725 5.27839 2.44322 5.1389C2.29918 4.99942 2.21826 4.81023 2.21826 4.61297Z" fill="#808080"/>
</svg>
