<svg width="16" height="16" viewBox="0 0 16 16" fill="none" xmlns="http://www.w3.org/2000/svg">
<g clip-path="url(#clip0_1214_15316)">
<path d="M13.8095 10.3819L11.214 9.31527C11.1031 9.27001 10.9798 9.26049 10.8628 9.28814C10.7457 9.31579 10.6412 9.37912 10.5649 9.4686L9.41573 10.8139C7.61278 9.99898 6.16176 8.60842 5.31138 6.8806L6.71381 5.7786C6.80718 5.70552 6.87326 5.60536 6.90212 5.49319C6.93097 5.38101 6.92104 5.2629 6.87381 5.1566L5.76146 2.66993C5.70988 2.55504 5.61779 2.46118 5.50131 2.40476C5.38484 2.34834 5.25137 2.33294 5.12425 2.36127L2.71451 2.89393C2.59184 2.92108 2.4824 2.98728 2.40407 3.08173C2.32573 3.17617 2.28312 3.29328 2.2832 3.41393C2.2832 4.76704 2.56132 6.1069 3.10166 7.357C3.64201 8.6071 4.43401 9.74296 5.43243 10.6997C6.43086 11.6565 7.61616 12.4154 8.92064 12.9332C10.2251 13.4509 11.6233 13.7174 13.0352 13.7173C13.161 13.7172 13.283 13.6763 13.3814 13.6012C13.4798 13.5262 13.5488 13.4214 13.5771 13.3039L14.1336 10.9946C14.1623 10.8723 14.1457 10.7442 14.0865 10.6324C14.0273 10.5206 13.9294 10.432 13.8095 10.3819Z" fill="white"/>
</g>
<defs>
<clipPath id="clip0_1214_15316">
<rect width="16" height="16" fill="white"/>
</clipPath>
</defs>
</svg>
