<svg width="8" height="7" viewBox="0 0 8 7" fill="none" xmlns="http://www.w3.org/2000/svg">
<g clip-path="url(#clip0_1189_8798)">
<path d="M4.30669 5.15092C4.34392 5.18817 4.36483 5.23867 4.36483 5.29133C4.36483 5.34399 4.34392 5.39449 4.30669 5.43174L4.05989 5.68004C3.79888 5.94088 3.44495 6.08735 3.07594 6.08724C2.70694 6.08712 2.3531 5.94042 2.09226 5.67942C1.83142 5.41841 1.68494 5.06448 1.68506 4.69548C1.68518 4.32647 1.83187 3.97263 2.09288 3.71179L2.69177 3.1129C2.94247 2.862 3.27958 2.71638 3.63411 2.70586C3.98864 2.69534 4.3338 2.8207 4.59894 3.05629C4.6185 3.07363 4.63446 3.09466 4.6459 3.11818C4.65733 3.14169 4.66402 3.16723 4.66559 3.19333C4.66716 3.21943 4.66357 3.24558 4.65503 3.27029C4.64649 3.29501 4.63317 3.31779 4.61582 3.33736C4.59848 3.35692 4.57745 3.37288 4.55393 3.38431C4.53042 3.39575 4.50488 3.40244 4.47878 3.40401C4.45268 3.40558 4.42653 3.40199 4.40182 3.39345C4.3771 3.38491 4.35431 3.37159 4.33475 3.35424C4.14538 3.18607 3.89892 3.0966 3.64576 3.10412C3.39261 3.11165 3.15189 3.2156 2.97284 3.39471L2.37395 3.99286C2.18765 4.17916 2.08299 4.43183 2.08299 4.69529C2.08299 4.95876 2.18765 5.21143 2.37395 5.39773C2.56025 5.58402 2.81292 5.68868 3.07638 5.68868C3.33985 5.68868 3.59252 5.58402 3.77881 5.39773L4.02562 5.15092C4.04407 5.13245 4.06598 5.1178 4.09009 5.1078C4.11421 5.09781 4.14005 5.09266 4.16616 5.09266C4.19226 5.09266 4.21811 5.09781 4.24222 5.1078C4.26634 5.1178 4.28824 5.13245 4.30669 5.15092ZM6.04676 1.72442C5.78571 1.46396 5.43201 1.31769 5.06325 1.31769C4.69449 1.31769 4.34079 1.46396 4.07975 1.72442L3.83294 1.97148C3.7957 2.00875 3.7748 2.05929 3.77482 2.11198C3.77484 2.16466 3.79579 2.21519 3.83307 2.25243C3.87034 2.28966 3.92088 2.31057 3.97357 2.31055C4.02625 2.31053 4.07678 2.28957 4.11401 2.2523L4.36082 2.00549C4.54712 1.8192 4.79979 1.71454 5.06325 1.71454C5.32672 1.71454 5.57939 1.8192 5.76569 2.00549C5.95198 2.19179 6.05664 2.44446 6.05664 2.70793C6.05664 2.97139 5.95198 3.22406 5.76569 3.41036L5.16679 4.00975C4.98765 4.18876 4.74688 4.29258 4.49373 4.29996C4.24057 4.30734 3.99416 4.21774 3.80489 4.04947C3.76537 4.01444 3.71356 3.99654 3.66085 3.9997C3.60814 4.00287 3.55885 4.02685 3.52381 4.06636C3.48878 4.10587 3.47088 4.15768 3.47404 4.21039C3.47721 4.2631 3.50119 4.3124 3.5407 4.34743C3.80578 4.58308 4.15089 4.70853 4.50542 4.6981C4.85996 4.68767 5.1971 4.54215 5.44787 4.29131L6.04676 3.69242C6.30737 3.43136 6.45374 3.07755 6.45374 2.70867C6.45374 2.33979 6.30737 1.98598 6.04676 1.72492V1.72442Z" fill="#9FA7C4"/>
</g>
<defs>
<clipPath id="clip0_1189_8798">
<rect width="6.3564" height="6.3564" fill="white" transform="translate(0.891113 0.523621)"/>
</clipPath>
</defs>
</svg>
