<svg width="8" height="7" viewBox="0 0 8 7" fill="none" xmlns="http://www.w3.org/2000/svg">
<path d="M4.09673 4.94232C4.13395 4.97957 4.15486 5.03007 4.15486 5.08273C4.15486 5.13539 4.13395 5.1859 4.09673 5.22315L3.84992 5.47144C3.58891 5.73228 3.23498 5.87876 2.86598 5.87864C2.49698 5.87852 2.14314 5.73183 1.8823 5.47082C1.62145 5.20982 1.47498 4.85588 1.4751 4.48688C1.47521 4.11788 1.62191 3.76404 1.88292 3.5032L2.48181 2.90431C2.73251 2.6534 3.06962 2.50779 3.42415 2.49727C3.77868 2.48675 4.12383 2.6121 4.38897 2.84769C4.40853 2.86504 4.42449 2.88607 4.43593 2.90958C4.44736 2.9331 4.45406 2.95863 4.45562 2.98473C4.45719 3.01083 4.4536 3.03699 4.44506 3.0617C4.43653 3.08641 4.4232 3.1092 4.40586 3.12877C4.38851 3.14833 4.36748 3.16429 4.34396 3.17572C4.32045 3.18716 4.29492 3.19385 4.26882 3.19542C4.24272 3.19699 4.21656 3.1934 4.19185 3.18486C4.16714 3.17632 4.14435 3.163 4.12478 3.14565C3.93541 2.97748 3.68895 2.88801 3.4358 2.89553C3.18264 2.90305 2.94193 3.007 2.76288 3.18612L2.16399 3.78427C1.97769 3.97056 1.87303 4.22324 1.87303 4.4867C1.87303 4.75016 1.97769 5.00283 2.16399 5.18913C2.35028 5.37542 2.60296 5.48008 2.86642 5.48008C3.12988 5.48008 3.38255 5.37542 3.56885 5.18913L3.81565 4.94232C3.8341 4.92385 3.85601 4.9092 3.88012 4.89921C3.90424 4.88921 3.93009 4.88406 3.95619 4.88406C3.98229 4.88406 4.00814 4.88921 4.03226 4.89921C4.05637 4.9092 4.07828 4.92385 4.09673 4.94232ZM5.83679 1.51583C5.57574 1.25538 5.22204 1.1091 4.85328 1.1091C4.48453 1.1091 4.13083 1.25538 3.86978 1.51583L3.62298 1.76289C3.58574 1.80016 3.56483 1.8507 3.56485 1.90339C3.56488 1.95608 3.58583 2.0066 3.6231 2.04384C3.66037 2.08107 3.71091 2.10198 3.7636 2.10196C3.81629 2.10194 3.86681 2.08098 3.90405 2.04371L4.15085 1.7969C4.33715 1.61061 4.58982 1.50595 4.85328 1.50595C5.11675 1.50595 5.36942 1.61061 5.55572 1.7969C5.74201 1.9832 5.84667 2.23587 5.84667 2.49934C5.84667 2.7628 5.74201 3.01547 5.55572 3.20177L4.95682 3.80115C4.77768 3.98017 4.53691 4.08398 4.28376 4.09137C4.03061 4.09875 3.7842 4.00915 3.59492 3.84088C3.55541 3.80585 3.5036 3.78794 3.45089 3.79111C3.39818 3.79428 3.34888 3.81825 3.31385 3.85776C3.27881 3.89728 3.26091 3.94909 3.26408 4.0018C3.26724 4.05451 3.29122 4.1038 3.33073 4.13884C3.59581 4.37449 3.94093 4.49994 4.29546 4.4895C4.64999 4.47907 4.98713 4.33355 5.2379 4.08272L5.83679 3.48383C6.0974 3.22277 6.24377 2.86896 6.24377 2.50008C6.24377 2.1312 6.0974 1.77739 5.83679 1.51633V1.51583Z" fill="#9FA7C4"/>
</svg>
