<svg width="540" height="540" viewBox="0 0 540 540" fill="none" xmlns="http://www.w3.org/2000/svg">
<path d="M359.111 68.9364C335.545 82.4148 318.924 105.084 298.782 123.282C273.73 145.828 243.238 161.461 210.308 168.642C183.308 174.485 155.099 174.571 129.081 183.762C78.3214 201.571 43.5562 254.426 42.6814 308.167C41.8066 361.908 72.3814 414.007 117.32 443.47C132.625 453.509 149.38 461.14 167 466.096C200.048 475.394 235.094 474.984 269.244 471.431C328.233 465.286 390.074 431.784 427.259 384.556C443.834 363.447 457.842 340.444 468.99 316.03C487.406 275.885 497.866 232.552 499.791 188.428C501.357 150.628 499.791 108.724 469.8 81.1728C439.808 53.622 394.265 48.816 359.111 68.9364Z" fill="#8ACFF5"/>
<path opacity="0.7" d="M359.111 68.9364C335.545 82.4148 318.924 105.084 298.782 123.282C273.73 145.828 243.238 161.461 210.308 168.642C183.308 174.485 155.099 174.571 129.081 183.762C78.3214 201.571 43.5562 254.426 42.6814 308.167C41.8066 361.908 72.3814 414.007 117.32 443.47C132.625 453.509 149.38 461.14 167 466.096C200.048 475.394 235.094 474.984 269.244 471.431C328.233 465.286 390.074 431.784 427.259 384.556C443.834 363.447 457.842 340.444 468.99 316.03C487.406 275.885 497.866 232.552 499.791 188.428C501.357 150.628 499.791 108.724 469.8 81.1728C439.808 53.622 394.265 48.816 359.111 68.9364Z" fill="white"/>
<path d="M297.108 501.714C404.073 501.714 490.784 478.359 490.784 449.55C490.784 420.741 404.073 397.386 297.108 397.386C190.144 397.386 103.432 420.741 103.432 449.55C103.432 478.359 190.144 501.714 297.108 501.714Z" fill="#8ACFF5"/>
<path opacity="0.5" d="M297.108 501.714C404.073 501.714 490.784 478.359 490.784 449.55C490.784 420.741 404.073 397.386 297.108 397.386C190.144 397.386 103.432 420.741 103.432 449.55C103.432 478.359 190.144 501.714 297.108 501.714Z" fill="white"/>
<path d="M320.717 73.764H93.0205C87.6821 73.764 83.3545 78.0917 83.3545 83.43V211.075C83.3545 216.414 87.6821 220.741 93.0205 220.741H320.717C326.055 220.741 330.383 216.414 330.383 211.075V83.43C330.383 78.0917 326.055 73.764 320.717 73.764Z" fill="white"/>
<path d="M330.383 83.4301V87.2533H83.3545V83.4301C83.3545 80.8615 84.3711 78.3973 86.1823 76.576C87.9935 74.7547 90.452 73.7244 93.0205 73.7101H320.76C322.031 73.7143 323.288 73.9693 324.46 74.4605C325.632 74.9517 326.695 75.6693 327.589 76.5724C328.483 77.4754 329.19 78.546 329.67 79.7228C330.149 80.8996 330.391 82.1594 330.383 83.4301Z" fill="#8ACFF5"/>
<path d="M320.717 73.764H93.0205C87.6821 73.764 83.3545 78.0917 83.3545 83.43V211.075C83.3545 216.414 87.6821 220.741 93.0205 220.741H320.717C326.055 220.741 330.383 216.414 330.383 211.075V83.43C330.383 78.0917 326.055 73.764 320.717 73.764Z" stroke="#263238" stroke-width="1.096" stroke-linecap="round" stroke-linejoin="round"/>
<path d="M330.383 83.4301V87.2533H83.3545V83.4301C83.3545 80.8615 84.3711 78.3973 86.1823 76.576C87.9935 74.7547 90.452 73.7244 93.0205 73.7101H320.76C322.031 73.7143 323.288 73.9693 324.46 74.4605C325.632 74.9517 326.695 75.6693 327.589 76.5724C328.483 77.4754 329.19 78.546 329.67 79.7228C330.149 80.8996 330.391 82.1594 330.383 83.4301Z" stroke="#263238" stroke-width="1.096" stroke-linecap="round" stroke-linejoin="round"/>
<path d="M111.1 80.5033C111.102 80.9929 110.959 81.4721 110.688 81.8803C110.418 82.2884 110.032 82.6071 109.58 82.7959C109.129 82.9848 108.631 83.0353 108.151 82.9411C107.67 82.8469 107.228 82.6122 106.882 82.2667C106.535 81.9213 106.298 81.4806 106.202 81.0006C106.105 80.5205 106.154 80.0227 106.341 79.5701C106.527 79.1176 106.844 78.7307 107.251 78.4585C107.658 78.1862 108.137 78.0409 108.626 78.0409C109.281 78.0409 109.908 78.3 110.372 78.7615C110.835 79.2229 111.097 79.8492 111.1 80.5033Z" fill="#263238"/>
<path d="M124.006 80.5033C124.008 80.9929 123.865 81.4721 123.594 81.8803C123.324 82.2884 122.938 82.6071 122.487 82.7959C122.035 82.9848 121.537 83.0353 121.057 82.9411C120.576 82.8469 120.135 82.6122 119.788 82.2667C119.441 81.9213 119.204 81.4806 119.108 81.0006C119.012 80.5205 119.06 80.0227 119.247 79.5701C119.434 79.1176 119.751 78.7307 120.158 78.4585C120.565 78.1862 121.043 78.0409 121.533 78.0409C122.187 78.0409 122.814 78.3 123.278 78.7615C123.741 79.2229 124.003 79.8492 124.006 80.5033Z" fill="#263238"/>
<path d="M134.438 82.9764C135.804 82.9764 136.911 81.8691 136.911 80.5032C136.911 79.1373 135.804 78.03 134.438 78.03C133.072 78.03 131.965 79.1373 131.965 80.5032C131.965 81.8691 133.072 82.9764 134.438 82.9764Z" fill="#263238"/>
<path d="M171.828 97.9561H101.984C99.7833 97.9561 97.999 99.7403 97.999 101.941V135.54C97.999 137.741 99.7833 139.525 101.984 139.525H171.828C174.029 139.525 175.813 137.741 175.813 135.54V101.941C175.813 99.7403 174.029 97.9561 171.828 97.9561Z" stroke="#263238" stroke-width="1.096" stroke-linecap="round" stroke-linejoin="round"/>
<path d="M102.578 134.298H170.046" stroke="#263238" stroke-width="1.096" stroke-linecap="round" stroke-linejoin="round"/>
<path d="M115.42 126.36H107.59V134.19H115.42V126.36Z" fill="#8ACFF5" stroke="#263238" stroke-width="1.096" stroke-miterlimit="10"/>
<path d="M126.879 116.068H119.049V134.298H126.879V116.068Z" fill="#8ACFF5" stroke="#263238" stroke-width="1.096" stroke-miterlimit="10"/>
<path d="M139.785 119.2H131.955V134.482H139.785V119.2Z" fill="#8ACFF5" stroke="#263238" stroke-width="1.096" stroke-miterlimit="10"/>
<path d="M153.35 103.982H145.52V133.952H153.35V103.982Z" fill="#8ACFF5" stroke="#263238" stroke-width="1.096" stroke-miterlimit="10"/>
<path d="M166.903 104.22H159.073V134.19H166.903V104.22Z" fill="#8ACFF5" stroke="#263238" stroke-width="1.096" stroke-miterlimit="10"/>
<path d="M272.29 141.674C284.38 141.674 294.182 131.873 294.182 119.783C294.182 107.692 284.38 97.8912 272.29 97.8912C260.2 97.8912 250.398 107.692 250.398 119.783C250.398 131.873 260.2 141.674 272.29 141.674Z" fill="#8ACFF5" stroke="#263238" stroke-width="1.096" stroke-miterlimit="10"/>
<path d="M96.1846 160.758H102.578" stroke="#263238" stroke-width="1.096" stroke-linecap="round" stroke-linejoin="round"/>
<path d="M96.1846 173.113H102.578" stroke="#263238" stroke-width="1.096" stroke-linecap="round" stroke-linejoin="round"/>
<path d="M96.1846 185.479H102.578" stroke="#263238" stroke-width="1.096" stroke-linecap="round" stroke-linejoin="round"/>
<path d="M96.1846 197.834H102.578" stroke="#263238" stroke-width="1.096" stroke-linecap="round" stroke-linejoin="round"/>
<path d="M116.673 207.166V202.198" stroke="#263238" stroke-width="1.096" stroke-linecap="round" stroke-linejoin="round"/>
<path d="M126.803 207.166V202.198" stroke="#263238" stroke-width="1.096" stroke-linecap="round" stroke-linejoin="round"/>
<path d="M136.934 207.166V202.198" stroke="#263238" stroke-width="1.096" stroke-linecap="round" stroke-linejoin="round"/>
<path d="M147.074 207.166V202.198" stroke="#263238" stroke-width="1.096" stroke-linecap="round" stroke-linejoin="round"/>
<path d="M157.205 207.166V202.198" stroke="#263238" stroke-width="1.096" stroke-linecap="round" stroke-linejoin="round"/>
<path d="M167.335 207.166V202.198" stroke="#263238" stroke-width="1.096" stroke-linecap="round" stroke-linejoin="round"/>
<path d="M177.466 207.166V202.198" stroke="#263238" stroke-width="1.096" stroke-linecap="round" stroke-linejoin="round"/>
<path d="M187.606 207.166V202.198" stroke="#263238" stroke-width="1.096" stroke-linecap="round" stroke-linejoin="round"/>
<path d="M197.737 207.166V202.198" stroke="#263238" stroke-width="1.096" stroke-linecap="round" stroke-linejoin="round"/>
<path d="M207.868 207.166V202.198" stroke="#263238" stroke-width="1.096" stroke-linecap="round" stroke-linejoin="round"/>
<path d="M217.998 207.166V202.198" stroke="#263238" stroke-width="1.096" stroke-linecap="round" stroke-linejoin="round"/>
<path d="M228.14 207.166V202.198" stroke="#263238" stroke-width="1.096" stroke-linecap="round" stroke-linejoin="round"/>
<path d="M238.27 207.166V202.198" stroke="#263238" stroke-width="1.096" stroke-linecap="round" stroke-linejoin="round"/>
<path d="M248.4 207.166V202.198" stroke="#263238" stroke-width="1.096" stroke-linecap="round" stroke-linejoin="round"/>
<path d="M258.531 207.166V202.198" stroke="#263238" stroke-width="1.096" stroke-linecap="round" stroke-linejoin="round"/>
<path d="M268.283 207.166V202.198" stroke="#263238" stroke-width="1.096" stroke-linecap="round" stroke-linejoin="round"/>
<path d="M278.036 207.166V202.198" stroke="#263238" stroke-width="1.096" stroke-linecap="round" stroke-linejoin="round"/>
<path d="M287.776 207.166V202.198" stroke="#263238" stroke-width="1.096" stroke-linecap="round" stroke-linejoin="round"/>
<path d="M313.567 153.198V201.215C313.567 204.509 310.219 207.166 306.094 207.166H103.68C102.448 207.209 101.222 206.968 100.098 206.46C98.9738 205.953 97.9822 205.192 97.2001 204.239C96.5244 203.373 96.1457 202.313 96.1201 201.215V153.198C96.1201 149.958 99.4681 147.247 103.594 147.247H306.094C310.219 147.247 313.567 149.904 313.567 153.198Z" stroke="#8ACFF5" stroke-width="1.096" stroke-linecap="round" stroke-linejoin="round"/>
<path d="M251.964 60.1992L187.348 147.247L162.638 180.533L135.638 163.339L102.6 207.166H102.125C101.089 207.166 100.071 206.897 99.1714 206.384C98.2717 205.87 97.5215 205.131 96.9951 204.239L134.115 154.98L161.115 172.141L179.594 147.301L246.975 56.5812L251.964 60.1992Z" fill="#263238"/>
<path d="M235.569 61.3008L259.319 46.9044L252.752 71.8092L248.562 60.2856L235.569 61.3008Z" fill="#263238"/>
<path d="M460.329 335.362H80.5033L37.9297 373.216" stroke="#263238" stroke-width="1.096" stroke-linecap="round" stroke-linejoin="round"/>
<path d="M80.7412 308.858V235.256" stroke="#263238" stroke-width="1.096" stroke-linecap="round" stroke-linejoin="round"/>
<path d="M80.7412 331.085V316.85" stroke="#263238" stroke-width="1.096" stroke-linecap="round" stroke-linejoin="round"/>
<path d="M437.464 156.298C437.464 156.298 437.464 151.848 431.233 145.627C425.001 139.406 421.005 135.842 421.005 135.842C421.005 135.842 417.884 146.07 423.673 152.302C427.925 156.691 432.538 160.716 437.464 164.333V156.298Z" fill="#8ACFF5"/>
<path d="M428.425 184.086C428.425 184.086 428.425 179.636 422.194 173.405C415.962 167.173 411.966 163.62 411.966 163.62C411.966 163.62 408.856 173.848 414.634 180.079C418.891 184.467 423.504 188.494 428.425 192.121V184.086Z" fill="#8ACFF5"/>
<path d="M437.065 163.879C437.065 163.879 437.54 159.451 444.387 153.911C451.235 148.37 455.598 145.271 455.598 145.271C455.598 145.271 457.607 155.801 451.202 161.352C446.51 165.259 441.499 168.767 436.223 171.839L437.065 163.879Z" fill="#8ACFF5"/>
<path d="M426.146 196.69C426.146 196.69 427.085 192.37 434.472 187.553C441.86 182.736 446.514 180.122 446.514 180.122C446.514 180.122 447.411 190.782 440.488 195.664C435.414 199.055 430.063 202.014 424.493 204.509L426.146 196.69Z" fill="#8ACFF5"/>
<path d="M428.209 232.448C428.209 232.448 428.209 227.999 434.43 221.778C440.651 215.557 444.657 211.993 444.657 211.993C444.657 211.993 447.779 222.232 441.99 228.452C437.744 232.848 433.134 236.877 428.209 240.494V232.448Z" fill="#8ACFF5"/>
<path d="M428.101 241.186C428.101 241.186 428.727 236.779 423.446 229.738C418.165 222.696 414.719 218.592 414.719 218.592C414.719 218.592 410.205 228.312 415.033 235.267C418.621 240.207 422.617 244.839 426.977 249.113L428.101 241.186Z" fill="#8ACFF5"/>
<path d="M421.956 267.052C421.956 267.052 421.956 262.613 428.188 256.381C434.419 250.15 438.415 246.661 438.415 246.661C438.415 246.661 441.536 256.889 435.748 263.11C431.496 267.503 426.883 271.531 421.956 275.152V267.052Z" fill="#8ACFF5"/>
<path d="M426.114 290.52C426.114 290.52 425.034 286.2 429.451 278.64C433.868 271.08 436.87 266.598 436.87 266.598C436.87 266.598 442.465 275.713 438.458 283.198C435.452 288.517 432.006 293.574 428.155 298.318L426.114 290.52Z" fill="#8ACFF5"/>
<path d="M438.026 155.196C437.712 159.825 437.142 164.433 436.32 168.998C433.858 181.721 427.68 189.929 425.239 201.398C422.798 212.868 429.851 227.696 427.961 242.438C426.071 257.18 420.314 265.399 421.934 275.249C423.554 285.098 432.194 311.753 432.194 311.753" stroke="#263238" stroke-width="1.29053" stroke-linecap="round" stroke-linejoin="round"/>
<path d="M437.011 166.838L443.718 161.676" stroke="#263238" stroke-width="1.29053" stroke-linecap="round" stroke-linejoin="round"/>
<path d="M437.314 160.909L434.517 155.909" stroke="#263238" stroke-width="1.29053" stroke-linecap="round" stroke-linejoin="round"/>
<path d="M425.616 200.88C425.616 200.88 431.232 196.657 437.01 192.445" stroke="#263238" stroke-width="1.29053" stroke-linecap="round" stroke-linejoin="round"/>
<path d="M428.425 192.067C428.425 192.067 423.737 182.887 418.435 176.796" stroke="#263238" stroke-width="1.29053" stroke-linecap="round" stroke-linejoin="round"/>
<path d="M428.425 238.777C431.643 232.868 435.699 227.455 440.467 222.707" stroke="#263238" stroke-width="1.29053" stroke-linecap="round" stroke-linejoin="round"/>
<path d="M427.334 245.02C425.612 241.001 423.56 237.133 421.2 233.453C417.96 228.614 417.441 227.988 417.441 227.988" stroke="#263238" stroke-width="1.29053" stroke-linecap="round" stroke-linejoin="round"/>
<path d="M421.956 275.238C423.382 271.702 425.076 268.279 427.021 265C428.964 261.946 431.153 259.057 433.566 256.36" stroke="#263238" stroke-width="1.29053" stroke-linecap="round" stroke-linejoin="round"/>
<path d="M428.144 298.264C427.818 294.889 428.4 291.489 429.829 288.414C432.172 283.889 434.818 277.949 435.92 275.616" stroke="#263238" stroke-width="1.29053" stroke-linecap="round" stroke-linejoin="round"/>
<path d="M396.683 215.719C396.683 215.719 396.197 212.944 399.426 208.354C402.656 203.764 404.826 201.096 404.826 201.096C404.826 201.096 407.883 207.166 404.934 211.702C402.744 214.912 400.287 217.932 397.59 220.73L396.683 215.719Z" fill="#8ACFF5"/>
<path d="M405.367 232.2C405.367 232.2 404.881 229.403 408.11 224.824C411.339 220.244 413.51 217.577 413.51 217.577C413.51 217.577 416.566 223.657 413.618 228.182C411.43 231.395 408.973 234.415 406.274 237.211L405.367 232.2Z" fill="#8ACFF5"/>
<path d="M397.753 220.428C397.753 220.428 396.997 217.706 392.083 215.028C387.169 212.35 384.113 210.816 384.113 210.816C384.113 210.816 383.994 217.588 388.627 220.428C391.992 222.369 395.514 224.024 399.157 225.374L397.753 220.428Z" fill="#8ACFF5"/>
<path d="M408.164 239.814C408.164 239.814 407.084 237.19 401.943 234.997C396.802 232.805 393.573 231.649 393.573 231.649C393.573 231.649 394.167 238.421 399.06 240.732C402.612 242.307 406.289 243.582 410.054 244.544L408.164 239.814Z" fill="#8ACFF5"/>
<path d="M410.756 262.44C410.756 262.44 410.27 259.654 405.691 256.424C401.111 253.195 398.206 251.392 398.206 251.392C398.206 251.392 397.364 258.163 401.673 261.425C404.814 263.706 408.141 265.719 411.62 267.44L410.756 262.44Z" fill="#8ACFF5"/>
<path d="M411.76 267.937C411.76 267.937 410.885 265.248 413.434 260.258C415.983 255.269 417.754 252.32 417.754 252.32C417.754 252.32 421.642 257.893 419.374 262.807C417.645 266.295 415.629 269.632 413.348 272.786L411.76 267.937Z" fill="#8ACFF5"/>
<path d="M419.579 290.434C419.579 290.434 419.903 287.626 424.288 284.137C428.673 280.649 431.47 278.737 431.47 278.737C431.47 278.737 432.701 285.433 428.586 288.954C425.581 291.412 422.377 293.615 419.007 295.542L419.579 290.434Z" fill="#8ACFF5"/>
<path d="M418.424 283.5C418.424 283.5 417.938 280.703 413.359 277.474C408.78 274.244 405.885 272.452 405.885 272.452C405.885 272.452 405.043 279.223 409.341 282.485C412.486 284.765 415.817 286.777 419.299 288.5L418.424 283.5Z" fill="#8ACFF5"/>
<path d="M418.359 298.663C418.359 298.663 418.608 295.834 414.99 291.557C411.372 287.28 409.028 284.785 409.028 284.785C409.028 284.785 406.501 291.103 409.838 295.369C412.303 298.378 415.012 301.177 417.938 303.739L418.359 298.663Z" fill="#8ACFF5"/>
<path d="M396.197 215.071C396.9 217.943 397.762 220.773 398.778 223.549C401.694 231.25 406.446 235.732 409.233 242.665C412.019 249.599 409.233 259.654 411.987 268.693C414.741 277.733 419.277 282.236 419.309 288.619C419.342 295.002 416.879 312.638 416.879 312.638" stroke="#263238" stroke-width="1.29053" stroke-linecap="round" stroke-linejoin="round"/>
<path d="M398.109 222.275L393.347 219.78" stroke="#263238" stroke-width="1.29053" stroke-linecap="round" stroke-linejoin="round"/>
<path d="M397.267 218.592L398.487 215.158" stroke="#263238" stroke-width="1.29053" stroke-linecap="round" stroke-linejoin="round"/>
<path d="M408.952 242.374C408.952 242.374 404.967 240.343 400.896 238.324" stroke="#263238" stroke-width="1.29053" stroke-linecap="round" stroke-linejoin="round"/>
<path d="M406.231 237.211C407.403 233.514 408.948 229.946 410.843 226.562" stroke="#263238" stroke-width="1.29053" stroke-linecap="round" stroke-linejoin="round"/>
<path d="M411.307 266.458C408.649 263.102 405.521 260.149 402.019 257.688" stroke="#263238" stroke-width="1.29053" stroke-linecap="round" stroke-linejoin="round"/>
<path d="M412.668 270.259C413.299 267.561 414.155 264.92 415.228 262.364C416.729 258.962 416.988 258.52 416.988 258.52" stroke="#263238" stroke-width="1.29053" stroke-linecap="round" stroke-linejoin="round"/>
<path d="M419.104 293.436C420.65 291.516 422.363 289.738 424.224 288.122C425.409 287.245 426.521 286.273 427.55 285.217" stroke="#263238" stroke-width="1.29053" stroke-linecap="round" stroke-linejoin="round"/>
<path d="M419.31 288.619C418.019 286.559 416.575 284.598 414.99 282.755C413.439 281.061 411.752 279.497 409.946 278.078" stroke="#263238" stroke-width="1.29053" stroke-linecap="round" stroke-linejoin="round"/>
<path d="M417.959 303.739C417.788 301.577 417.042 299.501 415.799 297.724C413.834 295.132 411.479 291.697 410.594 290.347" stroke="#263238" stroke-width="1.29053" stroke-linecap="round" stroke-linejoin="round"/>
<path d="M438.673 343.051H410.313C409.749 343.051 409.208 342.831 408.804 342.438C408.401 342.044 408.167 341.509 408.153 340.945L404.081 309.56H444.819L440.747 340.945C440.734 341.494 440.512 342.017 440.127 342.408C439.742 342.8 439.222 343.029 438.673 343.051Z" fill="#263238"/>
<path d="M444.495 314.863H404.124C403.284 314.866 402.477 314.536 401.88 313.945C401.283 313.354 400.944 312.55 400.938 311.71C400.952 310.871 401.291 310.07 401.883 309.476C402.475 308.882 403.275 308.54 404.114 308.524H444.495C444.913 308.522 445.327 308.603 445.713 308.762C446.1 308.921 446.451 309.155 446.747 309.45C447.043 309.745 447.278 310.095 447.438 310.481C447.598 310.867 447.681 311.281 447.681 311.699C447.679 312.116 447.596 312.528 447.435 312.913C447.274 313.298 447.039 313.647 446.743 313.941C446.447 314.235 446.097 314.467 445.711 314.626C445.325 314.784 444.912 314.865 444.495 314.863Z" fill="#263238"/>
<path d="M353.485 189.335C353.483 198.198 350.479 206.8 344.962 213.737C339.444 220.674 331.74 225.538 323.104 227.534H322.985C321.959 227.761 320.933 227.966 319.875 228.118C318.018 228.382 316.145 228.515 314.27 228.517C304.019 228.48 294.19 224.431 286.888 217.237C279.586 210.043 275.391 200.275 275.202 190.026C275.013 179.777 278.844 169.862 285.876 162.403C292.907 154.944 302.58 150.535 312.823 150.12C313.179 150.12 313.557 150.12 313.903 150.12C314.017 150.109 314.133 150.109 314.248 150.12C314.381 150.109 314.515 150.109 314.648 150.12C319.939 150.154 325.166 151.275 330.005 153.414C336.986 156.472 342.925 161.498 347.094 167.878C351.264 174.257 353.485 181.713 353.485 189.335Z" fill="#8ACFF5"/>
<path opacity="0.4" d="M330.027 153.425C284.743 151.07 284.527 201.344 284.527 201.344C284.527 201.344 277.615 184.939 288.901 166.784C295.208 156.622 306.181 152.14 314.669 150.152C319.959 150.18 325.186 151.294 330.027 153.425Z" fill="white"/>
<path d="M353.484 189.335C353.484 198.22 350.466 206.842 344.925 213.788C339.384 220.734 331.648 225.592 322.985 227.567C320.127 228.225 317.202 228.554 314.269 228.55C303.869 228.742 293.818 224.794 286.328 217.576C278.838 210.357 274.523 200.459 274.331 190.058C274.139 179.658 278.087 169.607 285.305 162.117C292.524 154.628 302.422 150.312 312.822 150.12C313.297 150.12 313.783 150.12 314.269 150.12C324.669 150.123 334.642 154.255 341.995 161.609C349.349 168.962 353.481 178.935 353.484 189.335Z" stroke="#263238" stroke-width="1.096" stroke-linecap="round" stroke-linejoin="round"/>
<path d="M353.485 189.335C353.484 198.22 350.466 206.842 344.925 213.788C339.384 220.734 331.648 225.592 322.985 227.567C322.51 227.567 322.024 227.567 321.538 227.567C311.912 227.541 302.632 223.977 295.463 217.553C288.295 211.129 283.739 202.293 282.662 192.728C281.586 183.162 284.064 173.535 289.626 165.678C295.187 157.822 303.443 152.284 312.823 150.12C313.298 150.12 313.784 150.12 314.27 150.12C324.669 150.123 334.642 154.255 341.996 161.609C349.349 168.962 353.482 178.935 353.485 189.335Z" stroke="#263238" stroke-width="1.096" stroke-linecap="round" stroke-linejoin="round"/>
<path d="M294.225 223.052L302.508 222.674" stroke="#263238" stroke-width="1.096" stroke-linecap="round" stroke-linejoin="round"/>
<path d="M290.239 220.298L297.464 219.683" stroke="#263238" stroke-width="1.096" stroke-linecap="round" stroke-linejoin="round"/>
<path d="M287 217.393L294.225 216.777" stroke="#263238" stroke-width="1.096" stroke-linecap="round" stroke-linejoin="round"/>
<path d="M286.006 162.14H292.194" stroke="#263238" stroke-width="1.096" stroke-linecap="round" stroke-linejoin="round"/>
<path d="M289.062 159.289L295.228 159.008" stroke="#263238" stroke-width="1.096" stroke-linecap="round" stroke-linejoin="round"/>
<path d="M292.929 156.427L299.43 155.812" stroke="#263238" stroke-width="1.096" stroke-linecap="round" stroke-linejoin="round"/>
<path opacity="0.3" d="M323.104 227.534H322.985C320.127 228.192 317.203 228.522 314.27 228.517C304.019 228.48 294.19 224.431 286.888 217.237C279.586 210.043 275.391 200.275 275.202 190.026C275.013 179.777 278.844 169.862 285.876 162.403C292.907 154.944 302.58 150.535 312.823 150.12C313.179 150.12 313.557 150.12 313.903 150.12C304.345 153.133 288.307 160.834 284.019 176.893C277.96 199.714 291.601 225.623 323.104 227.534Z" fill="black"/>
<path opacity="0.1" d="M353.485 189.335C353.483 198.198 350.479 206.8 344.962 213.737C339.444 220.674 331.74 225.538 323.104 227.534H322.985C321.959 227.761 320.933 227.966 319.875 228.118L330.027 153.392C337.007 156.455 342.943 161.486 347.109 167.869C351.276 174.253 353.491 181.712 353.485 189.335Z" fill="black"/>
<path d="M375.733 127.602C372.627 131.988 368.127 135.192 362.966 136.69C357.806 138.189 352.289 137.894 347.318 135.853L347.177 135.788C346.44 135.464 345.719 135.104 345.017 134.708C344.225 134.282 343.46 133.806 342.728 133.283C337.944 129.629 334.725 124.296 333.721 118.36C332.718 112.425 334.005 106.329 337.322 101.306C340.639 96.283 345.74 92.7061 351.592 91.2984C357.445 89.8907 363.614 90.757 368.853 93.7223L369.382 94.0571C369.631 94.1975 369.868 94.3703 370.117 94.5431C370.365 94.7159 370.84 95.0723 371.197 95.3531C375.918 99.1398 379.016 104.585 379.859 110.578C380.702 116.571 379.226 122.66 375.733 127.602Z" fill="#8ACFF5"/>
<path opacity="0.4" d="M339.942 127.926C339.942 127.926 336.065 116.51 341.216 108.108C347.696 97.5779 357.621 92.7719 371.132 95.3639C371.132 95.3639 363.81 90.4175 351.552 93.9275C339.294 97.4375 332.717 114.307 339.942 127.926Z" fill="white"/>
<path d="M375.732 127.613C372.624 131.995 368.122 135.195 362.962 136.689C357.801 138.184 352.286 137.885 347.317 135.842C345.677 135.172 344.119 134.317 342.673 133.294C337.859 129.601 334.64 124.206 333.677 118.215C332.713 112.225 334.077 106.093 337.49 101.077C340.903 96.06 346.106 92.5392 352.032 91.2361C357.958 89.9329 364.158 90.9461 369.36 94.068C369.598 94.2084 369.846 94.3704 370.084 94.5432C375.21 98.1858 378.683 103.712 379.742 109.911C380.8 116.11 379.359 122.475 375.732 127.613Z" stroke="#263238" stroke-width="1.096" stroke-linecap="round" stroke-linejoin="round"/>
<path d="M375.732 127.613C372.624 131.995 368.122 135.195 362.962 136.689C357.801 138.184 352.286 137.885 347.317 135.842L346.594 135.367C341.902 131.966 338.614 126.968 337.35 121.312C336.086 115.657 336.933 109.734 339.731 104.659C342.528 99.5841 347.084 95.7065 352.541 93.7559C357.998 91.8053 363.979 91.9163 369.36 94.0679C369.598 94.2083 369.846 94.3703 370.084 94.5431C375.21 98.1858 378.683 103.712 379.742 109.911C380.8 116.109 379.359 122.475 375.732 127.613Z" stroke="#263238" stroke-width="1.096" stroke-linecap="round" stroke-linejoin="round"/>
<path opacity="0.3" d="M368.798 93.7332C362.318 92.5776 354.11 91.9404 349.682 94.8132C341.55 100.03 336.485 106.607 336.56 117.266C336.636 127.926 346.594 135.4 346.594 135.4L347.177 135.821C345.588 135.157 344.078 134.321 342.673 133.326C337.889 129.672 334.67 124.339 333.666 118.403C332.663 112.468 333.95 106.373 337.267 101.349C340.585 96.3262 345.685 92.7493 351.538 91.3416C357.391 89.9339 363.56 90.8002 368.798 93.7656V93.7332Z" fill="black"/>
<path opacity="0.1" d="M375.732 127.602C372.627 131.988 368.126 135.192 362.966 136.69C357.805 138.189 352.288 137.894 347.317 135.853L347.177 135.788C346.439 135.464 345.718 135.104 345.017 134.708L371.131 95.3639C375.859 99.141 378.968 104.58 379.823 110.571C380.678 116.562 379.215 122.653 375.732 127.602Z" fill="black"/>
<path d="M363.507 431.741C353.454 443.833 341.47 454.179 328.039 462.359C323.855 464.862 319.527 467.12 315.079 469.12C284.397 482.911 249.426 483.808 216.724 475.88C147.96 459.216 111.478 398.52 106.845 331.139C105.603 312.93 102.816 293.263 110.193 275.94C117.569 258.617 132.484 247.86 149.353 240.386C161.601 234.932 174.831 231.271 186.851 228.28C208.604 222.906 231.55 225.273 251.748 234.976C265.885 241.682 275.951 253.336 287.842 263.153C289.102 264.19 290.369 265.223 291.643 266.252C303.655 275.921 316.282 284.799 329.443 292.831C349.434 305.024 369.9 316.526 382.677 337.003C403.056 369.641 385.863 405.173 363.507 431.741Z" fill="#8ACFF5"/>
<path opacity="0.4" d="M363.507 431.741C353.454 443.833 341.47 454.179 328.039 462.359C323.855 464.862 319.527 467.12 315.079 469.12C284.397 482.911 249.426 483.808 216.724 475.88C147.96 459.216 111.478 398.52 106.845 331.139C105.603 312.93 102.816 293.263 110.193 275.94C117.569 258.617 132.484 247.86 149.353 240.386C161.601 234.932 174.831 231.271 186.851 228.28C208.604 222.906 231.55 225.273 251.748 234.976C265.885 241.682 275.951 253.336 287.842 263.153C289.102 264.19 290.369 265.223 291.643 266.252C303.655 275.921 316.282 284.799 329.443 292.831C349.434 305.024 369.9 316.526 382.677 337.003C403.056 369.641 385.863 405.173 363.507 431.741Z" fill="white"/>
<path d="M291.6 266.252C290.326 265.23 289.058 264.193 287.798 263.142C275.918 253.303 265.831 241.682 251.705 234.976C231.505 225.279 208.561 222.911 186.808 228.28C158.22 235.375 122.764 246.305 110.128 275.951C102.751 293.231 105.538 312.93 106.79 331.139C111.478 398.52 147.96 459.216 216.724 475.88C254.135 484.952 294.484 482.468 328.039 462.359C341.469 454.179 353.454 443.833 363.506 431.741C385.862 405.173 403.056 369.641 382.698 337.003C369.932 316.483 349.466 305.024 329.465 292.831C316.281 284.801 303.632 275.923 291.6 266.252Z" stroke="#263238" stroke-width="1.096" stroke-miterlimit="10"/>
<path d="M187.434 386.402C181.709 388.135 176.153 390.383 170.834 393.12" stroke="#263238" stroke-width="1.096" stroke-linecap="round" stroke-linejoin="round"/>
<path d="M222.48 379.728C214.117 380.452 205.816 381.769 197.64 383.67" stroke="#263238" stroke-width="1.096" stroke-linecap="round" stroke-linejoin="round"/>
<path d="M215.19 378C215.19 378 182.919 359.23 143.975 374.274" stroke="#263238" stroke-width="1.096" stroke-linecap="round" stroke-linejoin="round"/>
<path d="M374.76 430.92C380.815 435.954 387.151 440.641 393.736 444.96C406.577 445.824 400.82 461.344 400.82 461.344L389.826 468.418C389.826 468.418 371.002 453.46 360.72 448.61C350.438 443.761 374.76 430.92 374.76 430.92Z" fill="white"/>
<path opacity="0.3" d="M283.511 267.516C283.511 267.516 281.751 250.096 278.943 245.203L236.304 236.52V233.215C236.304 233.215 237.287 227.47 227.783 223.873C218.279 220.277 198.472 224.953 193.363 228.82C188.255 232.686 190.123 239.339 190.123 239.339C190.123 239.339 172.951 248.011 165.24 251.316C158.928 254.229 152.774 257.473 146.805 261.036C146.805 261.036 143.305 301.082 143.997 310.381C144.688 319.68 143.435 328.428 144.234 333.58C145.033 338.731 145.66 341.658 151.06 346.043C156.46 350.428 161.374 356.843 175.533 350.482L173.556 348.916L266.76 317.52L283.511 267.516Z" fill="black"/>
<path d="M283.511 267.516C283.511 267.516 281.751 250.096 278.943 245.203L236.304 236.52V233.215C236.304 233.215 237.287 227.47 227.783 223.873C218.279 220.277 198.472 224.953 193.363 228.82C188.255 232.686 190.123 239.339 190.123 239.339C190.123 239.339 172.951 248.011 165.24 251.316C158.928 254.229 152.774 257.473 146.805 261.036C146.805 261.036 143.305 301.082 143.997 310.381C144.688 319.68 143.435 328.428 144.234 333.58C145.033 338.731 145.66 341.658 151.06 346.043C156.46 350.428 161.374 356.843 175.533 350.482L173.556 348.916L266.76 317.52L283.511 267.516Z" fill="#8ACFF5"/>
<path opacity="0.05" d="M283.511 267.516C283.511 267.516 281.751 250.096 278.943 245.203L236.304 236.52V233.215C236.304 233.215 237.287 227.47 227.783 223.873C218.279 220.277 198.472 224.953 193.363 228.82C188.255 232.686 190.123 239.339 190.123 239.339C190.123 239.339 172.951 248.011 165.24 251.316C158.928 254.229 152.774 257.473 146.805 261.036C146.805 261.036 143.305 301.082 143.997 310.381C144.688 319.68 143.435 328.428 144.234 333.58C145.033 338.731 145.66 341.658 151.06 346.043C156.46 350.428 161.374 356.843 175.533 350.482L173.556 348.916L266.76 317.52L283.511 267.516Z" fill="black"/>
<path opacity="0.4" d="M222.858 221.087C222.858 221.087 232.988 223.895 234.63 227.297C236.272 230.699 236.099 239.306 236.099 239.306C233.64 245.059 229.916 250.183 225.202 254.297L217.642 239.306L218.322 256.306C218.322 256.306 203.98 253.919 197.888 249.34L191.808 244.75C191.808 244.75 189.184 236.11 189.562 233.183C189.94 230.256 200.88 224.316 200.88 224.316L222.858 221.087Z" fill="white"/>
<path d="M391.597 483.214C391.316 482.598 395.755 474.757 392.278 466.776C388.8 458.795 383.26 461.873 383.26 461.873C383.26 461.873 367.481 451.829 360.85 448.654C356.072 446.254 351.47 443.518 347.08 440.467L340.07 449.906L346.55 469.951L391.597 483.214Z" fill="#8ACFF5"/>
<path d="M382.688 461.387L402.948 473.764C402.948 473.764 417.193 464.627 423.987 458.32C430.78 452.012 446.04 438.577 446.04 438.577L455.76 425.498C455.76 425.498 449.021 417.161 437.789 423.857C423.274 432.497 405.573 445.046 393.768 444.928C393.768 444.928 396.09 459.432 382.763 461.387" fill="#8ACFF5"/>
<path d="M219.424 168.728C219.424 168.728 228.614 182.639 230.288 187.142C231.962 191.646 233.312 198.309 232.978 201.517C232.643 204.725 229.273 221.907 227.578 222.404L225.947 224.251L227.027 231.53C227.027 231.53 219.834 243.961 198.688 234.846C198.688 234.846 197.867 220.331 195.296 215.773C192.726 211.215 188.881 216.637 185.026 203.472C181.17 190.307 193.45 176.472 193.45 176.472L219.424 168.728Z" fill="white"/>
<path opacity="0.5" d="M446.937 421.438C446.937 421.438 436.515 423.252 433.135 429.419C429.754 435.586 423.263 447.044 421.049 452.585C418.835 458.125 400.529 471.506 400.529 471.506L402.959 473.764C402.959 473.764 417.863 464.551 426.86 455.792C435.856 447.034 455.696 425.002 455.696 425.002C455.696 425.002 454.27 423.587 446.937 421.438Z" fill="white"/>
<path opacity="0.5" d="M342.651 446.44L340.07 449.906L347.998 466.344L391.597 482.015L393.617 475.632C393.617 475.632 394.286 469.152 378.983 464.227C363.679 459.302 354.348 456.052 349.996 452.671C345.643 449.291 342.651 446.44 342.651 446.44Z" fill="white"/>
<path d="M198.721 324.356C198.721 324.356 185.372 322.348 179.14 333.266C172.909 344.185 173.546 348.916 173.546 348.916C173.546 348.916 182.369 356.929 194.498 356.476C206.626 356.022 224.284 342.133 230.041 337.608C235.797 333.083 250.312 320.134 260.216 322.812L261.296 313.448C261.296 313.448 260.324 309.247 251.857 310.381C243.389 311.515 240.063 316.343 237.331 316.343C234.598 316.343 232.017 313.718 226.531 323.093C226.52 323.093 207.263 326.506 198.721 324.356Z" fill="white"/>
<path d="M216.064 188.73C216.349 190.48 216.753 192.209 217.274 193.903C217.469 194.73 217.837 195.507 218.354 196.182C219.369 197.262 221.011 197.543 222.512 197.77C222.76 197.787 222.995 197.886 223.182 198.05C223.303 198.244 223.359 198.471 223.344 198.698C223.335 200.399 222.824 202.06 221.875 203.472" stroke="#263238" stroke-width="1.096" stroke-linecap="round" stroke-linejoin="round"/>
<path opacity="0.1" d="M351.605 435.24L342.651 446.396C342.651 446.396 352.479 455.479 362.653 458.849C372.827 462.218 390.636 468.569 393.617 473.461L392.472 467.64C392.472 467.64 364.619 450.554 358.225 446.472C356.335 445.232 354.755 443.575 353.607 441.627C352.459 439.68 351.774 437.494 351.605 435.24Z" fill="black"/>
<path opacity="0.1" d="M382.688 461.387L400.518 471.506C400.518 471.506 409.32 465.48 413.64 461.041C417.96 456.602 423.285 451.678 426.6 441.731C431.126 427.982 444.086 421.438 444.086 421.438C444.086 421.438 426.06 429.926 416.675 436.558C407.29 443.189 398.142 445.997 392.829 445.543C392.775 445.576 397.041 459.076 382.688 461.387Z" fill="black"/>
<path d="M209.779 205.924C209.779 205.924 216.788 211.421 224.068 209.358C224.068 209.358 217.199 222.966 209.779 205.924Z" fill="white" stroke="#263238" stroke-width="1.096" stroke-linecap="round" stroke-linejoin="round"/>
<path d="M209.52 194.044C209.725 195.556 209.261 196.862 208.505 196.97C207.749 197.078 206.961 195.89 206.755 194.411C206.55 192.931 207.004 191.592 207.771 191.484C208.537 191.376 209.358 192.532 209.52 194.044Z" fill="#263238"/>
<path d="M224.78 191.29C224.975 192.812 224.521 194.119 223.765 194.216C223.009 194.314 222.21 193.136 222.015 191.668C221.821 190.199 222.264 188.838 223.031 188.741C223.797 188.644 224.575 189.778 224.78 191.29Z" fill="#263238"/>
<path d="M208.44 187.628C208.44 187.628 204.357 185.522 201.452 190.037" stroke="#263238" stroke-width="1.096" stroke-linecap="round" stroke-linejoin="round"/>
<path d="M218.905 184.82C218.905 184.82 223.225 181.116 225.72 184.82" stroke="#263238" stroke-width="1.096" stroke-linecap="round" stroke-linejoin="round"/>
<path d="M194.573 201.528C194.573 201.528 191.948 197.651 189.173 197.77C186.397 197.888 185.295 201.776 186.289 205.535C187.283 209.293 191.419 214.542 194.551 214.045C196.318 213.818 197.93 212.921 199.054 211.54" stroke="#263238" stroke-width="1.096" stroke-linecap="round" stroke-linejoin="round"/>
<path d="M219.737 171.86C222.685 174.312 225.806 176.98 227.297 180.587C228.614 183.654 228.906 187.067 230.115 190.166C231.401 193.482 232.805 196.949 232.913 200.567C232.856 203.914 232.417 207.244 231.606 210.492C231.157 213.308 230.489 216.085 229.608 218.797C228.15 222.674 225.461 225.061 221.853 226.897C219.229 228.236 214.855 230.137 212.015 228.344C210.362 227.264 207.878 224.176 205.815 221.335" stroke="#263238" stroke-width="1.096" stroke-linecap="round" stroke-linejoin="round"/>
<path d="M194.572 214.045C194.572 214.045 199.216 225.428 198.093 233.431" stroke="#263238" stroke-width="1.096" stroke-linecap="round" stroke-linejoin="round"/>
<path d="M193.385 199.616C194.003 199.159 194.492 198.55 194.807 197.848C195.121 197.146 195.248 196.375 195.177 195.61C195.005 193.86 193.795 192.24 194.033 190.49C194.231 189.653 194.544 188.846 194.961 188.093C195.59 186.64 195.867 185.059 195.77 183.479C195.672 181.899 195.203 180.364 194.4 178.999C194.4 178.999 209.153 179.69 216.065 175.295C222.977 170.899 228.247 159.656 224.067 154.289C219.888 148.921 211.745 156.244 205.707 157.054C199.67 157.864 178.2 161.287 174.776 169.56C171.353 177.833 176.569 180.803 176.731 188.698C176.893 196.592 176.893 211.55 188.697 210.179C188.697 210.179 184.28 204.466 187.347 198.58C189.432 196.106 193.385 199.616 193.385 199.616Z" fill="#263238"/>
<path d="M222.318 163.62C224.321 165.18 225.982 167.136 227.197 169.366C228.412 171.595 229.156 174.051 229.381 176.58C230.04 182.498 240.538 194 232.967 200.556C232.967 200.556 231.206 193.59 230.17 190.156C229.133 186.721 227.804 180.436 226.066 178.276C224.327 176.116 215.104 168.556 215.104 168.556L222.318 163.62Z" fill="#263238"/>
<path d="M195.933 233.183C195.933 233.183 203.213 237.978 216.734 238.172L218.322 256.306C218.322 256.306 203.115 255.15 191.808 244.75C191.808 244.75 188.751 236.66 189.561 233.183C190.371 229.705 197.64 226.26 197.64 226.26" stroke="#263238" stroke-width="1.096" stroke-linecap="round" stroke-linejoin="round"/>
<path d="M226.519 225.072L226.951 231.552C224.101 234.521 220.605 236.794 216.734 238.194L225.202 254.318C225.202 254.318 235.3 246.456 236.304 238.194C236.304 238.194 236.39 229.738 234.63 227.318C232.87 224.899 226.454 223.765 226.454 223.765" stroke="#263238" stroke-width="1.096" stroke-linecap="round" stroke-linejoin="round"/>
<path opacity="0.8" d="M185.544 174.96C186.624 172.249 189.583 170.64 192.467 170.208C195.35 169.776 198.31 170.078 201.226 170.003C205.263 169.97 209.218 168.851 212.674 166.763C214.391 165.717 215.885 164.343 217.071 162.72C218.257 161.097 219.111 159.256 219.586 157.302" stroke="white" stroke-width="1.096" stroke-linecap="round" stroke-linejoin="round"/>
<path opacity="0.8" d="M178.578 174.431C180.403 168.89 186.322 165.467 192.143 164.981C195.027 164.732 197.943 165.067 200.783 164.732C203.623 164.398 206.647 163.21 208.149 160.736" stroke="white" stroke-width="1.096" stroke-linecap="round" stroke-linejoin="round"/>
<path d="M175.511 350.482C161.471 357.761 156.482 350.266 148.662 344.066C140.843 337.867 145.973 326.786 144.342 309.02C142.712 291.254 146.772 261.036 146.772 261.036C146.772 261.036 150.272 260.237 159.981 254.297C169.69 248.357 190.124 239.306 190.124 239.306" stroke="#263238" stroke-width="1.096" stroke-linecap="round" stroke-linejoin="round"/>
<path d="M189.421 323.59C189.421 323.59 187.196 316.537 180.911 316.354C174.625 316.17 164.711 319 157.647 332.359" stroke="#263238" stroke-width="1.096" stroke-linecap="round" stroke-linejoin="round"/>
<path d="M179.474 315.932C179.084 315.907 178.7 315.816 178.34 315.662C173.159 313.798 167.535 313.542 162.205 314.928" stroke="#263238" stroke-width="1.096" stroke-linecap="round" stroke-linejoin="round"/>
<path d="M158.587 270.68C170.024 283.316 175.597 300.035 180.878 316.235" stroke="#263238" stroke-width="1.096" stroke-linecap="round" stroke-linejoin="round"/>
<path d="M236.304 236.52C236.304 236.52 257.04 241.466 267.17 242.644C277.301 243.821 278.942 245.236 278.942 245.236L280.832 252.299" stroke="#263238" stroke-width="1.096" stroke-linecap="round" stroke-linejoin="round"/>
<path d="M332.931 248.81L262.31 251.521L256.543 324.151H268.639L329.961 310.424L337.673 250.549L332.931 248.81Z" fill="white"/>
<path d="M260.215 326.3L337.456 252.266L329.961 310.424L260.215 326.3Z" fill="#8ACFF5"/>
<path opacity="0.7" d="M260.215 326.3L337.456 252.266L329.961 310.424L260.215 326.3Z" fill="white"/>
<path d="M260.215 324.356L266.392 254.297L337.672 250.549L329.961 310.424L260.215 324.356Z" stroke="#263238" stroke-width="1.096" stroke-linecap="round" stroke-linejoin="round"/>
<path d="M307.627 284.494C307.151 288.76 304.873 292 302.54 291.74C300.207 291.481 298.717 287.798 299.192 283.532C299.667 279.266 301.957 276.026 304.289 276.286C306.622 276.545 308.113 280.228 307.627 284.494Z" fill="#263238"/>
<path d="M329.961 310.424C329.961 310.424 362.599 309.496 372.805 316.235C383.011 322.974 389.005 356.767 387.59 374.717C386.175 392.666 373.863 433.858 373.863 433.858L350.276 407.16C350.276 407.16 338.655 364.91 344.995 348.365C344.995 348.365 313.675 350.125 301.341 346.259C301.341 346.259 290.293 328.169 271.35 322.186L329.961 310.424Z" fill="#263238"/>
<path d="M378.842 434.56C370.464 426.739 362.941 418.05 356.4 408.64C344.984 391.003 329.205 374.08 312.973 360.871C299.894 350.266 296.935 332.986 280.8 324.313C254.07 309.982 230.958 338.461 222.318 344.228C213.678 349.996 198.72 356.53 198.72 356.53C198.72 356.53 204.185 377.05 220.233 379.48C236.282 381.91 252.515 370.84 260.193 376.186C267.872 381.532 273.553 405.4 298.911 419.386C319.637 430.812 347.879 441.958 362.448 449.474C365.688 451.159 368.107 452.93 369.943 453.935C374.976 456.678 380.354 459.907 385.43 463.104L402.915 473.753C402.915 473.753 420.465 463.374 427.205 453.805C428.101 452.52 429.969 449.096 431.719 445.792C435.531 438.566 440.359 432.086 447.044 428.512C451.667 426.017 455.781 425.272 455.684 425.012C455.241 424.192 446.86 419.904 441.169 422.248C429.116 427.226 405.021 446.353 393.649 444.928C388.359 442.007 383.396 438.531 378.842 434.56Z" stroke="#263238" stroke-width="1.096" stroke-miterlimit="10"/>
<path d="M378.842 434.56C368.334 438.804 364.1 445.36 362.48 449.485C347.911 441.925 319.669 430.823 298.944 419.396C273.585 405.356 267.948 381.532 260.226 376.196C252.504 370.861 236.261 381.964 220.266 379.49C204.271 377.017 198.72 356.519 198.72 356.519C198.72 356.519 213.689 350.039 222.329 344.272C230.969 338.504 250.895 310.014 280.8 324.356C297.313 332.273 299.894 350.276 312.973 360.914C329.173 374.08 344.984 391.046 356.4 408.683C362.925 418.093 370.45 426.769 378.842 434.56Z" fill="#263238"/>
<path d="M299.872 342.997C299.872 342.997 291.783 326.56 278.812 323.374" stroke="white" stroke-width="1.096" stroke-linecap="round" stroke-linejoin="round"/>
<path d="M257.472 310.273C248.551 308.329 238.755 318.19 234.63 316.343C231.563 314.971 226.519 323.093 226.519 323.093C218.217 324.292 209.822 324.715 201.441 324.356C189.421 323.59 183.729 325.933 179.474 332.359L173.534 348.095C173.534 348.095 189.205 362.135 205.934 353.959C222.663 345.784 244.89 321.116 260.204 321.203" stroke="#263238" stroke-width="1.096" stroke-linecap="round" stroke-linejoin="round"/>
<path d="M382.007 460.966C382.007 460.966 396.652 462.164 393.217 444.668" stroke="#263238" stroke-width="1.096" stroke-miterlimit="10"/>
<path d="M451.018 433.858C449.938 436.018 436.514 447.444 424.947 457.434C424.947 457.283 428.187 451.181 429.526 448.578C432.604 442.832 440.553 427.075 455.684 425.002C457.833 426.298 451.018 433.858 451.018 433.858Z" fill="#263238"/>
<path d="M445.263 421.556C429.959 424.602 426.482 444.236 421.049 452.585C415.617 460.933 400.529 472.284 400.529 472.284" stroke="#263238" stroke-width="1.096" stroke-miterlimit="10"/>
<path d="M392.278 467.273C394.772 471.83 393.595 477.122 392.278 480.438C391.632 482.085 390.829 483.665 389.88 485.158C368.215 481.594 346.55 469.951 346.55 469.951L340.967 452.671L340.07 449.906L348.484 438.577" stroke="#263238" stroke-width="1.096" stroke-miterlimit="10"/>
<path d="M392.278 480.438C391.632 482.085 390.829 483.665 389.88 485.158C368.215 481.594 346.55 469.951 346.55 469.951L340.967 452.671C343.764 456.322 348.948 461.668 356.724 463.86C367.276 466.852 386.748 470.351 392.278 480.438Z" fill="#263238"/>
<path d="M256.543 321.624L262.31 251.521L332.931 248.81L337.673 250.549" stroke="#263238" stroke-width="1.096" stroke-linecap="round" stroke-linejoin="round"/>
<path d="M393.12 452.585C393.12 452.585 402.775 454.313 410.195 448.265C417.615 442.217 429.57 428.533 429.57 428.533" stroke="#263238" stroke-width="1.096" stroke-miterlimit="10"/>
<path d="M402.948 443.88C402.948 443.88 400.615 447.39 402.948 454.431" stroke="#263238" stroke-width="1.096" stroke-linecap="round" stroke-linejoin="round"/>
<path d="M409.795 440.521C408.734 444.022 409.047 447.795 410.67 451.073" stroke="#263238" stroke-width="1.096" stroke-linecap="round" stroke-linejoin="round"/>
<path d="M417.96 435.791C417.96 435.791 416.005 441.655 417.96 446.828" stroke="#263238" stroke-width="1.096" stroke-linecap="round" stroke-linejoin="round"/>
<path d="M350.395 437.119L342.651 446.44C342.651 446.44 350.449 454.961 361.454 458.503C372.459 462.046 392.115 468.061 393.746 474.466" stroke="#263238" stroke-width="1.096" stroke-miterlimit="10"/>
<g clip-path="url(#clip0_1183_4379)">
<path d="M329.887 210.766L309.862 198.143L308.758 194.659C315.502 192.849 320.387 190.399 319.456 183.802L305.388 188.539L306.364 183.982L317.619 180.299C314.704 177.363 309.862 178.54 302.634 181.309L303.882 176.747L327.65 168.552L326.549 173.012L319.975 175.268C321.609 176.115 322.985 177.262 323.437 178.482L330.227 176.062L329.114 180.487L324.597 182.126C325.738 187.765 321.841 192.672 315.784 195.571L336.067 208.64L329.887 210.764L329.887 210.766Z" fill="#8ACFF5" stroke="#263238" stroke-width="1.096"/>
</g>
<g clip-path="url(#clip1_1183_4379)">
<path d="M275.129 132.243L266.485 121.268L266.535 119.092C270.592 119.376 273.745 118.94 274.479 115.046L265.835 114.996L267.234 112.619L274.129 112.719C273.079 110.503 270.19 110.23 265.686 110.393L267.234 108.066L281.874 108.044L280.425 110.342H276.378C277.118 111.134 277.659 112.046 277.677 112.82L281.874 112.77L280.425 115.046L277.627 115.096C277.19 118.491 274.117 120.502 270.233 120.963L278.934 132.24L275.129 132.242L275.129 132.243Z" fill="#8ACFF5" stroke="#263238" stroke-width="0.6576"/>
</g>
<g clip-path="url(#clip2_1183_4379)">
<path d="M357.056 127.582L353.091 114.186L353.943 112.184C357.606 113.95 360.697 114.713 362.82 111.368L354.81 108.12L356.99 106.429L363.357 109.076C363.202 106.629 360.619 105.305 356.375 103.789L358.676 102.201L372.283 107.601L370.086 109.199L366.326 107.701C366.72 108.711 366.885 109.758 366.615 110.484L370.533 111.991L368.344 113.569L365.726 112.58C364.063 115.572 360.463 116.301 356.684 115.291L360.592 128.988L357.056 127.581L357.056 127.582Z" fill="#8ACFF5" stroke="#263238" stroke-width="0.8768"/>
</g>
<defs>
<clipPath id="clip0_1183_4379">
<rect width="27.8208" height="41.7312" fill="white" transform="translate(301.32 177.509) rotate(-18.9385)"/>
</clipPath>
<clipPath id="clip1_1183_4379">
<rect width="16.2" height="24.84" fill="white" transform="translate(265.68 108)"/>
</clipPath>
<clipPath id="clip2_1183_4379">
<rect width="16.2" height="24.84" fill="white" transform="translate(357.256 101.563) rotate(21.7353)"/>
</clipPath>
</defs>
</svg>
