<svg width="260" height="80" viewBox="0 0 260 80" fill="none" xmlns="http://www.w3.org/2000/svg">
<path d="M91.9272 66.7732V75.9999H90.7138V69.1199L87.6472 75.9999H86.7938L83.7138 69.1065V75.9999H82.5005V66.7732H83.8071L87.2205 74.3999L90.6338 66.7732H91.9272ZM101.038 76.1199C100.354 76.1199 99.7315 75.9643 99.1715 75.6532C98.6205 75.3421 98.1849 74.9021 97.8649 74.3332C97.5538 73.7555 97.3982 73.0888 97.3982 72.3332C97.3982 71.5865 97.5582 70.9288 97.8782 70.3599C98.2071 69.7821 98.6515 69.3421 99.2115 69.0399C99.7715 68.7288 100.398 68.5732 101.092 68.5732C101.785 68.5732 102.412 68.7288 102.972 69.0399C103.532 69.3421 103.972 69.7776 104.292 70.3465C104.62 70.9155 104.785 71.5776 104.785 72.3332C104.785 73.0888 104.616 73.7555 104.278 74.3332C103.949 74.9021 103.5 75.3421 102.932 75.6532C102.363 75.9643 101.732 76.1199 101.038 76.1199ZM101.038 75.0532C101.474 75.0532 101.883 74.9509 102.265 74.7465C102.647 74.5421 102.954 74.2355 103.185 73.8265C103.425 73.4176 103.545 72.9199 103.545 72.3332C103.545 71.7465 103.429 71.2488 103.198 70.8399C102.967 70.4309 102.665 70.1288 102.292 69.9332C101.918 69.7288 101.514 69.6265 101.078 69.6265C100.634 69.6265 100.225 69.7288 99.8516 69.9332C99.4872 70.1288 99.1938 70.4309 98.9715 70.8399C98.7493 71.2488 98.6382 71.7465 98.6382 72.3332C98.6382 72.9288 98.7449 73.4309 98.9582 73.8399C99.1805 74.2488 99.4738 74.5555 99.8382 74.7599C100.203 74.9555 100.603 75.0532 101.038 75.0532ZM113.807 68.5599C114.696 68.5599 115.416 68.8309 115.967 69.3732C116.517 69.9065 116.793 70.6799 116.793 71.6932V75.9999H115.593V71.8665C115.593 71.1376 115.411 70.5821 115.047 70.1999C114.683 69.8088 114.184 69.6132 113.553 69.6132C112.913 69.6132 112.403 69.8132 112.02 70.2132C111.647 70.6132 111.46 71.1955 111.46 71.9599V75.9999H110.247V68.6932H111.46V69.7332C111.7 69.3599 112.024 69.0709 112.433 68.8665C112.851 68.6621 113.309 68.5599 113.807 68.5599ZM129.309 72.0665C129.309 72.2976 129.296 72.5421 129.269 72.7999H123.429C123.473 73.5199 123.717 74.0843 124.163 74.4932C124.616 74.8932 125.163 75.0932 125.803 75.0932C126.327 75.0932 126.763 74.9732 127.109 74.7332C127.464 74.4843 127.713 74.1555 127.856 73.7465H129.163C128.967 74.4488 128.576 75.0221 127.989 75.4665C127.403 75.9021 126.673 76.1199 125.803 76.1199C125.109 76.1199 124.487 75.9643 123.936 75.6532C123.393 75.3421 122.967 74.9021 122.656 74.3332C122.344 73.7555 122.189 73.0888 122.189 72.3332C122.189 71.5776 122.34 70.9155 122.643 70.3465C122.944 69.7776 123.367 69.3421 123.909 69.0399C124.46 68.7288 125.091 68.5732 125.803 68.5732C126.496 68.5732 127.109 68.7243 127.643 69.0265C128.176 69.3288 128.584 69.7465 128.869 70.2799C129.163 70.8043 129.309 71.3999 129.309 72.0665ZM128.056 71.8132C128.056 71.3509 127.953 70.9555 127.749 70.6265C127.544 70.2888 127.264 70.0355 126.909 69.8665C126.563 69.6888 126.176 69.5999 125.749 69.5999C125.136 69.5999 124.611 69.7955 124.176 70.1865C123.749 70.5776 123.504 71.1199 123.443 71.8132H128.056ZM141.071 68.6932L136.671 79.4399H135.417L136.857 75.9199L133.911 68.6932H135.257L137.551 74.6132L139.817 68.6932H141.071Z" fill="#EF3E37"/>
<path fill-rule="evenodd" clip-rule="evenodd" d="M126.052 25.5803V23.7531C126.052 17.6984 120.714 12.7901 114.13 12.7901C107.546 12.7901 102.209 17.6984 102.209 23.7531V25.5803C102.209 31.6349 107.546 36.5432 114.13 36.5432C120.714 36.5432 126.052 31.6349 126.052 25.5803ZM114.13 0C99.865 0 88.3008 10.6346 88.3008 23.7531V25.5803C88.3008 38.6987 99.865 49.3333 114.13 49.3333C128.396 49.3333 139.96 38.6987 139.96 25.5803V23.7531C139.96 10.6346 128.396 0 114.13 0Z" fill="#EE0000"/>
<path fill-rule="evenodd" clip-rule="evenodd" d="M95.2232 27.5998C95.2232 37.6708 104.01 45.8351 114.848 45.8351C125.687 45.8351 134.474 37.6708 134.474 27.5998C134.474 17.5287 125.687 9.36448 114.848 9.36448C104.01 9.36448 95.2232 17.5287 95.2232 27.5998ZM114.848 6.93311C102.565 6.93311 92.6064 16.1859 92.6064 27.5998C92.6064 39.0136 102.565 48.2664 114.848 48.2664C127.132 48.2664 137.091 39.0136 137.091 27.5998C137.091 16.1859 127.132 6.93311 114.848 6.93311Z" fill="white"/>
<path d="M157.939 35.7866L165.405 13.1199H173.352L162.419 42.6666H153.352L142.472 13.1199H150.472L157.939 35.7866ZM205.012 27.2532C205.012 28.3199 204.941 29.2799 204.799 30.1332H183.199C183.376 32.2666 184.123 33.9376 185.439 35.1466C186.755 36.3555 188.372 36.9599 190.292 36.9599C193.066 36.9599 195.039 35.7688 196.212 33.3866H204.266C203.412 36.231 201.776 38.5776 199.359 40.4266C196.941 42.2399 193.972 43.1466 190.452 43.1466C187.608 43.1466 185.048 42.5243 182.772 41.2799C180.532 39.9999 178.772 38.2043 177.492 35.8932C176.248 33.5822 175.626 30.9155 175.626 27.8932C175.626 24.8355 176.248 22.151 177.492 19.8399C178.736 17.5288 180.479 15.751 182.719 14.5066C184.959 13.2621 187.536 12.6399 190.452 12.6399C193.262 12.6399 195.768 13.2443 197.972 14.4532C200.212 15.6622 201.936 17.3866 203.146 19.6266C204.39 21.831 205.012 24.3732 205.012 27.2532ZM197.279 25.1199C197.243 23.1999 196.55 21.671 195.199 20.5332C193.848 19.3599 192.195 18.7732 190.239 18.7732C188.389 18.7732 186.825 19.3422 185.545 20.4799C184.301 21.5822 183.536 23.1288 183.252 25.1199H197.279ZM217.928 17.7066C218.888 16.1422 220.134 14.9155 221.662 14.0266C223.227 13.1377 225.004 12.6932 226.995 12.6932V20.5332H225.022C222.675 20.5332 220.898 21.0843 219.688 22.1866C218.515 23.2888 217.928 25.2088 217.928 27.9466V42.6666H210.462V13.1199H217.928V17.7066Z" fill="white"/>
<path d="M16.8 44.0001L9.61333 31.3068H6.53333V44.0001H0V11.4268H12.2267C14.7467 11.4268 16.8933 11.8779 18.6667 12.7801C20.44 13.6512 21.7623 14.8491 22.6333 16.3735C23.5356 17.8668 23.9867 19.5468 23.9867 21.4135C23.9867 23.5601 23.3644 25.5045 22.12 27.2468C20.8756 28.9579 19.0244 30.1401 16.5667 30.7935L24.36 44.0001H16.8ZM6.53333 26.4068H11.9933C13.7667 26.4068 15.0889 25.9868 15.96 25.1468C16.8311 24.2757 17.2667 23.0779 17.2667 21.5535C17.2667 20.0601 16.8311 18.9091 15.96 18.1001C15.0889 17.2601 13.7667 16.8401 11.9933 16.8401H6.53333V26.4068ZM41.3759 44.4201C38.8869 44.4201 36.6469 43.8757 34.6559 42.7868C32.6647 41.6668 31.0936 40.0957 29.9425 38.0735C28.8225 36.0512 28.2625 33.7179 28.2625 31.0735C28.2625 28.4291 28.838 26.0957 29.9892 24.0735C31.1713 22.0512 32.7736 20.4957 34.7959 19.4068C36.818 18.2868 39.0736 17.7268 41.5625 17.7268C44.0513 17.7268 46.3069 18.2868 48.3292 19.4068C50.3513 20.4957 51.938 22.0512 53.0892 24.0735C54.2713 26.0957 54.8625 28.4291 54.8625 31.0735C54.8625 33.7179 54.2559 36.0512 53.0425 38.0735C51.8603 40.0957 50.2425 41.6668 48.1892 42.7868C46.1669 43.8757 43.8959 44.4201 41.3759 44.4201ZM41.3759 38.7268C42.558 38.7268 43.6625 38.4468 44.6892 37.8868C45.7469 37.2957 46.5869 36.4245 47.2092 35.2735C47.8313 34.1224 48.1425 32.7224 48.1425 31.0735C48.1425 28.6157 47.4892 26.7335 46.1825 25.4268C44.9069 24.0891 43.3359 23.4201 41.4692 23.4201C39.6025 23.4201 38.0313 24.0891 36.7559 25.4268C35.5113 26.7335 34.8892 28.6157 34.8892 31.0735C34.8892 33.5312 35.4959 35.4291 36.7092 36.7668C37.9536 38.0735 39.5092 38.7268 41.3759 38.7268ZM66.1883 9.4668V44.0001H59.6549V9.4668H66.1883ZM79.1765 9.4668V44.0001H72.6432V9.4668H79.1765Z" fill="white"/>
</svg>
