<svg width="162" height="50" viewBox="0 0 162 50" fill="none" xmlns="http://www.w3.org/2000/svg">
<path d="M71.105 41.7334V47.5001H70.349V43.2001L68.4382 47.5001H67.9065L65.9874 43.1917V47.5001H65.2314V41.7334H66.0456L68.1724 46.5001L70.2991 41.7334H71.105ZM76.7819 47.5751C76.3554 47.5751 75.9677 47.4778 75.6188 47.2834C75.2754 47.089 75.004 46.814 74.8046 46.4584C74.6108 46.0973 74.5139 45.6806 74.5139 45.2084C74.5139 44.7417 74.6136 44.3306 74.813 43.9751C75.0179 43.614 75.2948 43.339 75.6437 43.1501C75.9926 42.9556 76.3831 42.8584 76.8151 42.8584C77.2471 42.8584 77.6376 42.9556 77.9865 43.1501C78.3354 43.339 78.6096 43.6111 78.809 43.9667C79.0139 44.3223 79.1163 44.7361 79.1163 45.2084C79.1163 45.6806 79.0111 46.0973 78.8006 46.4584C78.5957 46.814 78.3161 47.089 77.9616 47.2834C77.6071 47.4778 77.2139 47.5751 76.7819 47.5751ZM76.7819 46.9084C77.0533 46.9084 77.308 46.8445 77.5462 46.7167C77.7844 46.589 77.9754 46.3973 78.1194 46.1417C78.269 45.8861 78.3437 45.5751 78.3437 45.2084C78.3437 44.8417 78.2717 44.5306 78.1277 44.2751C77.9838 44.0195 77.7954 43.8306 77.5628 43.7084C77.3302 43.5806 77.0782 43.5167 76.8068 43.5167C76.5299 43.5167 76.2751 43.5806 76.0425 43.7084C75.8154 43.8306 75.6327 44.0195 75.4942 44.2751C75.3557 44.5306 75.2865 44.8417 75.2865 45.2084C75.2865 45.5806 75.353 45.8945 75.4859 46.1501C75.6244 46.4056 75.8071 46.5973 76.0342 46.7251C76.2612 46.8473 76.5105 46.9084 76.7819 46.9084ZM84.7377 42.8501C85.2918 42.8501 85.7404 43.0195 86.0835 43.3584C86.4266 43.6917 86.5986 44.1751 86.5986 44.8084V47.5001H85.8509V44.9167C85.8509 44.4611 85.7371 44.114 85.5103 43.8751C85.2835 43.6306 84.9728 43.5084 84.5798 43.5084C84.181 43.5084 83.8629 43.6334 83.6244 43.8834C83.3918 44.1334 83.2755 44.4973 83.2755 44.9751V47.5001H82.5196V42.9334H83.2755V43.5834C83.425 43.3501 83.6269 43.1695 83.882 43.0417C84.142 42.914 84.4278 42.8501 84.7377 42.8501ZM94.397 45.0417C94.397 45.1861 94.3887 45.339 94.3721 45.5001H90.7333C90.7607 45.9501 90.9128 46.3028 91.1902 46.5584C91.4727 46.8084 91.8133 46.9334 92.2121 46.9334C92.5386 46.9334 92.8102 46.8584 93.0262 46.7084C93.2472 46.5528 93.4026 46.3473 93.4915 46.0917H94.3056C94.1835 46.5306 93.9401 46.889 93.5745 47.1667C93.209 47.439 92.7546 47.5751 92.2121 47.5751C91.7801 47.5751 91.3921 47.4778 91.049 47.2834C90.7109 47.089 90.445 46.814 90.2515 46.4584C90.0571 46.0973 89.9607 45.6806 89.9607 45.2084C89.9607 44.7361 90.0546 44.3223 90.2432 43.9667C90.4309 43.6111 90.6943 43.339 91.0324 43.1501C91.3755 42.9556 91.7685 42.8584 92.2121 42.8584C92.6441 42.8584 93.0262 42.9528 93.3585 43.1417C93.6909 43.3306 93.9451 43.5917 94.1229 43.9251C94.3056 44.2528 94.397 44.6251 94.397 45.0417ZM93.6161 44.8834C93.6161 44.5945 93.5521 44.3473 93.425 44.1417C93.2971 43.9306 93.1226 43.7723 92.9016 43.6667C92.6856 43.5556 92.4447 43.5001 92.1789 43.5001C91.7967 43.5001 91.4694 43.6223 91.1985 43.8667C90.9327 44.1111 90.7798 44.4501 90.7416 44.8834H93.6161ZM101.725 42.9334L98.9837 49.6501H98.2028L99.1 47.4501L97.264 42.9334H98.1031L99.532 46.6334L100.944 42.9334H101.725Z" fill="#EF3E37"/>
<path fill-rule="evenodd" clip-rule="evenodd" d="M92.3674 15.9877V14.8457C92.3674 11.0615 89.0418 7.99383 84.9394 7.99383C80.8372 7.99383 77.5116 11.0615 77.5116 14.8457V15.9877C77.5116 19.7718 80.8372 22.8395 84.9394 22.8395C89.0418 22.8395 92.3674 19.7718 92.3674 15.9877ZM84.9394 0C76.0511 0 68.8457 6.64664 68.8457 14.8457V15.9877C68.8457 24.1867 76.0511 30.8333 84.9394 30.8333C93.8278 30.8333 101.033 24.1867 101.033 15.9877V14.8457C101.033 6.64664 93.8278 0 84.9394 0Z" fill="#EE0000"/>
<path fill-rule="evenodd" clip-rule="evenodd" d="M73.1588 17.2499C73.1588 23.5443 78.6335 28.647 85.3867 28.647C92.14 28.647 97.6148 23.5443 97.6148 17.2499C97.6148 10.9555 92.14 5.85286 85.3867 5.85286C78.6335 5.85286 73.1588 10.9555 73.1588 17.2499ZM85.3867 4.33325C77.733 4.33325 71.5283 10.1163 71.5283 17.2499C71.5283 24.3836 77.733 30.1666 85.3867 30.1666C93.0406 30.1666 99.2456 24.3836 99.2456 17.2499C99.2456 10.1163 93.0406 4.33325 85.3867 4.33325Z" fill="white"/>
<path d="M112.235 22.3666L116.887 8.1999H121.839L115.026 26.6666H109.377L102.598 8.1999H107.583L112.235 22.3666ZM141.565 17.0332C141.565 17.6999 141.521 18.2999 141.432 18.8332H127.974C128.084 20.1666 128.55 21.211 129.37 21.9666C130.19 22.7222 131.197 23.0999 132.394 23.0999C134.122 23.0999 135.351 22.3555 136.082 20.8666H141.1C140.568 22.6443 139.549 24.111 138.043 25.2666C136.537 26.3999 134.687 26.9666 132.493 26.9666C130.721 26.9666 129.126 26.5777 127.708 25.7999C126.312 24.9999 125.216 23.8777 124.418 22.4332C123.643 20.9888 123.255 19.3222 123.255 17.4332C123.255 15.5222 123.643 13.8443 124.418 12.3999C125.193 10.9555 126.279 9.84432 127.675 9.06657C129.071 8.28879 130.676 7.8999 132.493 7.8999C134.244 7.8999 135.806 8.27768 137.179 9.03324C138.575 9.78882 139.649 10.8666 140.402 12.2666C141.177 13.6443 141.565 15.2332 141.565 17.0332ZM136.747 15.6999C136.724 14.4999 136.292 13.5443 135.451 12.8332C134.609 12.0999 133.579 11.7332 132.36 11.7332C131.208 11.7332 130.234 12.0888 129.436 12.7999C128.661 13.4888 128.184 14.4555 128.007 15.6999H136.747ZM149.613 11.0666C150.211 10.0888 150.987 9.32215 151.939 8.76657C152.915 8.21101 154.022 7.93324 155.262 7.93324V12.8332H154.033C152.571 12.8332 151.463 13.1777 150.71 13.8666C149.979 14.5555 149.613 15.7555 149.613 17.4666V26.6666H144.961V8.1999H149.613V11.0666Z" fill="#121139"/>
<path d="M24.2948 27.5001L19.817 19.5667H17.8979V27.5001H13.8271V7.14175H21.4453C23.0155 7.14175 24.353 7.42369 25.4579 7.98758C26.5628 8.532 27.3867 9.28066 27.9295 10.2334C28.4916 11.1667 28.7727 12.2167 28.7727 13.3834C28.7727 14.7251 28.385 15.9403 27.6096 17.0292C26.8343 18.0987 25.6808 18.8376 24.1495 19.2459L29.0053 27.5001H24.2948ZM17.8979 16.5042H21.2999C22.4048 16.5042 23.2287 16.2417 23.7715 15.7167C24.3142 15.1723 24.5856 14.4237 24.5856 13.4709C24.5856 12.5376 24.3142 11.8182 23.7715 11.3126C23.2287 10.7876 22.4048 10.5251 21.2999 10.5251H17.8979V16.5042ZM39.6075 27.7626C38.0567 27.7626 36.661 27.4223 35.4204 26.7417C34.1797 26.0417 33.2009 25.0598 32.4836 23.7959C31.7858 22.532 31.4369 21.0737 31.4369 19.4209C31.4369 17.7682 31.7954 16.3098 32.5127 15.0459C33.2493 13.782 34.2476 12.8098 35.5076 12.1292C36.7676 11.4292 38.173 11.0792 39.7238 11.0792C41.2745 11.0792 42.6799 11.4292 43.94 12.1292C45.1999 12.8098 46.1885 13.782 46.9058 15.0459C47.6424 16.3098 48.0107 17.7682 48.0107 19.4209C48.0107 21.0737 47.6327 22.532 46.8767 23.7959C46.1401 25.0598 45.1321 26.0417 43.8527 26.7417C42.5927 27.4223 41.1776 27.7626 39.6075 27.7626ZM39.6075 24.2042C40.3441 24.2042 41.0323 24.0292 41.672 23.6792C42.331 23.3098 42.8544 22.7653 43.2421 22.0459C43.6297 21.3265 43.8237 20.4515 43.8237 19.4209C43.8237 17.8848 43.4166 16.7084 42.6024 15.8917C41.8076 15.0557 40.8287 14.6376 39.6656 14.6376C38.5026 14.6376 37.5236 15.0557 36.7289 15.8917C35.9534 16.7084 35.5658 17.8848 35.5658 19.4209C35.5658 20.957 35.9438 22.1432 36.6998 22.9792C37.4752 23.7959 38.4444 24.2042 39.6075 24.2042ZM55.0675 5.91675V27.5001H50.9968V5.91675H55.0675ZM63.1602 5.91675V27.5001H59.0895V5.91675H63.1602Z" fill="#121139"/>
</svg>
