<svg width="8" height="7" viewBox="0 0 8 7" fill="none" xmlns="http://www.w3.org/2000/svg">
<path d="M4.6 1.29642H3.53795C2.53681 1.29642 2.03625 1.29642 1.72505 1.60682C1.51052 1.82029 1.44404 2.12354 1.42312 2.61775C1.41915 2.71575 1.41703 2.76501 1.4353 2.79759C1.45384 2.83016 1.52668 2.87122 1.67287 2.95279C1.75522 2.9987 1.82382 3.06577 1.87157 3.14706C1.91933 3.22836 1.94451 3.32093 1.94451 3.41522C1.94451 3.5095 1.91933 3.60207 1.87157 3.68337C1.82382 3.76467 1.75522 3.83173 1.67287 3.87765C1.52668 3.95948 1.45358 4.00027 1.4353 4.03285C1.41703 4.06542 1.41915 4.11442 1.42338 4.21242C1.44404 4.70689 1.51079 5.01014 1.72505 5.22361C2.03598 5.53402 2.53655 5.53402 3.53795 5.53402H4.6C5.60113 5.53402 6.1017 5.53402 6.41289 5.22361C6.62742 5.01014 6.6939 4.70689 6.71482 4.21268C6.7188 4.11469 6.72091 4.06542 6.70264 4.03285C6.6841 4.00027 6.61127 3.95948 6.46507 3.87765C6.38272 3.83173 6.31412 3.76467 6.26637 3.68337C6.21861 3.60207 6.19344 3.5095 6.19344 3.41522C6.19344 3.32093 6.21861 3.22836 6.26637 3.14706C6.31412 3.06577 6.38272 2.9987 6.46507 2.95279C6.61127 2.87122 6.68437 2.83016 6.70264 2.79759C6.72091 2.76501 6.7188 2.71601 6.71456 2.61775C6.6939 2.12354 6.62716 1.82056 6.41289 1.60682C6.10196 1.29642 5.60139 1.29642 4.6 1.29642Z" stroke="#DC2626" stroke-width="0.397275"/>
<path d="M3.27441 4.20977L4.86351 2.62067" stroke="#DC2626" stroke-width="0.397275" stroke-linecap="round"/>
<path d="M4.99604 4.07735C4.99604 4.14759 4.96814 4.21496 4.91847 4.26463C4.8688 4.3143 4.80143 4.3422 4.73119 4.3422C4.66095 4.3422 4.59358 4.3143 4.54391 4.26463C4.49424 4.21496 4.46634 4.14759 4.46634 4.07735C4.46634 4.00711 4.49424 3.93974 4.54391 3.89007C4.59358 3.8404 4.66095 3.8125 4.73119 3.8125C4.80143 3.8125 4.8688 3.8404 4.91847 3.89007C4.96814 3.93974 4.99604 4.00711 4.99604 4.07735ZM3.67179 2.7531C3.67179 2.82334 3.64389 2.89071 3.59422 2.94038C3.54455 2.99005 3.47718 3.01795 3.40694 3.01795C3.3367 3.01795 3.26933 2.99005 3.21966 2.94038C3.16999 2.89071 3.14209 2.82334 3.14209 2.7531C3.14209 2.68286 3.16999 2.61549 3.21966 2.56582C3.26933 2.51615 3.3367 2.48825 3.40694 2.48825C3.47718 2.48825 3.54455 2.51615 3.59422 2.56582C3.64389 2.61549 3.67179 2.68286 3.67179 2.7531Z" fill="#DC2626"/>
</svg>
