<svg width="8" height="7" viewBox="0 0 8 7" fill="none" xmlns="http://www.w3.org/2000/svg">
<g clip-path="url(#clip0_1142_4194)">
<path d="M4.391 1.08771H3.32896C2.32783 1.08771 1.82726 1.08771 1.51606 1.39811C1.30154 1.61158 1.23506 1.91483 1.21414 2.40904C1.21016 2.50704 1.20804 2.5563 1.22632 2.58887C1.24486 2.62145 1.31769 2.6625 1.46389 2.74408C1.54624 2.78999 1.61484 2.85705 1.66259 2.93835C1.71034 3.01965 1.73552 3.11222 1.73552 3.2065C1.73552 3.30079 1.71034 3.39336 1.66259 3.47466C1.61484 3.55595 1.54624 3.62302 1.46389 3.66893C1.31769 3.75077 1.24459 3.79155 1.22632 3.82413C1.20804 3.85671 1.21016 3.90571 1.2144 4.0037C1.23506 4.49817 1.3018 4.80143 1.51606 5.01489C1.827 5.3253 2.32756 5.3253 3.32896 5.3253H4.391C5.39213 5.3253 5.8927 5.3253 6.2039 5.01489C6.41843 4.80143 6.4849 4.49817 6.50583 4.00396C6.5098 3.90597 6.51192 3.85671 6.49364 3.82413C6.4751 3.79155 6.40227 3.75077 6.25607 3.66893C6.17372 3.62302 6.10513 3.55595 6.05737 3.47466C6.00962 3.39336 5.98444 3.30079 5.98444 3.2065C5.98444 3.11222 6.00962 3.01965 6.05737 2.93835C6.10513 2.85705 6.17372 2.78999 6.25607 2.74408C6.40227 2.6625 6.47537 2.62145 6.49364 2.58887C6.51192 2.5563 6.5098 2.5073 6.50556 2.40904C6.4849 1.91483 6.41816 1.61184 6.2039 1.39811C5.89296 1.08771 5.3924 1.08771 4.391 1.08771Z" stroke="#9FA7C4" stroke-width="0.397274"/>
<path d="M3.06543 4.00105L4.65453 2.41196" stroke="#9FA7C4" stroke-width="0.397274" stroke-linecap="round"/>
<path d="M4.78705 3.86862C4.78705 3.93886 4.75915 4.00623 4.70948 4.0559C4.65981 4.10557 4.59244 4.13347 4.5222 4.13347C4.45196 4.13347 4.38459 4.10557 4.33492 4.0559C4.28526 4.00623 4.25735 3.93886 4.25735 3.86862C4.25735 3.79838 4.28526 3.73101 4.33492 3.68135C4.38459 3.63168 4.45196 3.60377 4.5222 3.60377C4.59244 3.60377 4.65981 3.63168 4.70948 3.68135C4.75915 3.73101 4.78705 3.79838 4.78705 3.86862ZM3.4628 2.54438C3.4628 2.61462 3.4349 2.68198 3.38523 2.73165C3.33556 2.78132 3.2682 2.80922 3.19795 2.80922C3.12771 2.80922 3.06035 2.78132 3.01068 2.73165C2.96101 2.68198 2.93311 2.61462 2.93311 2.54438C2.93311 2.47413 2.96101 2.40677 3.01068 2.3571C3.06035 2.30743 3.12771 2.27953 3.19795 2.27953C3.2682 2.27953 3.33556 2.30743 3.38523 2.3571C3.4349 2.40677 3.4628 2.47413 3.4628 2.54438Z" fill="#9FA7C4"/>
</g>
<defs>
<clipPath id="clip0_1142_4194">
<rect width="6.35639" height="6.35639" fill="white" transform="translate(0.681641 0.0286865)"/>
</clipPath>
</defs>
</svg>
