<svg width="8" height="7" viewBox="0 0 8 7" fill="none" xmlns="http://www.w3.org/2000/svg">
<g clip-path="url(#clip0_1142_4201)">
<path d="M1.21143 5.45349H6.50841V5.98319H1.21143V5.45349ZM1.74112 3.3347H2.27082V5.18864H1.74112V3.3347ZM3.06537 3.3347H3.59507V5.18864H3.06537V3.3347ZM4.12477 3.3347H4.65447V5.18864H4.12477V3.3347ZM5.44902 3.3347H5.97871V5.18864H5.44902V3.3347ZM1.21143 2.01045L3.85992 0.686203L6.50841 2.01045V3.06985H1.21143V2.01045ZM1.74112 2.3378V2.54015H5.97871V2.3378L3.85992 1.27841L1.74112 2.3378ZM3.85992 2.2753C3.78968 2.2753 3.72231 2.2474 3.67264 2.19773C3.62297 2.14806 3.59507 2.08069 3.59507 2.01045C3.59507 1.94021 3.62297 1.87284 3.67264 1.82317C3.72231 1.7735 3.78968 1.7456 3.85992 1.7456C3.93016 1.7456 3.99753 1.7735 4.0472 1.82317C4.09687 1.87284 4.12477 1.94021 4.12477 2.01045C4.12477 2.08069 4.09687 2.14806 4.0472 2.19773C3.99753 2.2474 3.93016 2.2753 3.85992 2.2753Z" fill="#9FA7C4"/>
</g>
<defs>
<clipPath id="clip0_1142_4201">
<rect width="6.35639" height="6.35639" fill="white" transform="translate(0.681641 0.156784)"/>
</clipPath>
</defs>
</svg>
