<svg width="8" height="7" viewBox="0 0 8 7" fill="none" xmlns="http://www.w3.org/2000/svg">
<g clip-path="url(#clip0_1189_8781)">
<path d="M1.42139 5.66262H6.71839V6.19232H1.42139V5.66262ZM1.95109 3.54382H2.48079V5.39777H1.95109V3.54382ZM3.27534 3.54382H3.80504V5.39777H3.27534V3.54382ZM4.33474 3.54382H4.86444V5.39777H4.33474V3.54382ZM5.65899 3.54382H6.18869V5.39777H5.65899V3.54382ZM1.42139 2.21957L4.06989 0.895325L6.71839 2.21957V3.27897H1.42139V2.21957ZM1.95109 2.54693V2.74927H6.18869V2.54693L4.06989 1.48753L1.95109 2.54693ZM4.06989 2.48442C3.99964 2.48442 3.93228 2.45652 3.88261 2.40685C3.83294 2.35718 3.80504 2.28982 3.80504 2.21957C3.80504 2.14933 3.83294 2.08197 3.88261 2.0323C3.93228 1.98263 3.99964 1.95472 4.06989 1.95472C4.14013 1.95472 4.20749 1.98263 4.25716 2.0323C4.30683 2.08197 4.33474 2.14933 4.33474 2.21957C4.33474 2.28982 4.30683 2.35718 4.25716 2.40685C4.20749 2.45652 4.14013 2.48442 4.06989 2.48442Z" fill="#9FA7C4"/>
</g>
<defs>
<clipPath id="clip0_1189_8781">
<rect width="6.3564" height="6.3564" fill="white" transform="translate(0.891602 0.365631)"/>
</clipPath>
</defs>
</svg>
