<svg width="7" height="8" viewBox="0 0 7 8" fill="none" xmlns="http://www.w3.org/2000/svg">
<path d="M1.58472 5.67504C1.48126 5.67504 1.39547 5.58925 1.39547 5.48578V4.04743C1.38285 3.36358 1.63772 2.71758 2.11212 2.23308C2.58653 1.75111 3.22243 1.48615 3.90628 1.48615C5.30426 1.48615 6.44233 2.62421 6.44233 4.02219V5.46055C6.44233 5.56401 6.35653 5.64981 6.25307 5.64981C6.14961 5.64981 6.06382 5.56401 6.06382 5.46055V4.02219C6.06382 2.83366 5.09734 1.86466 3.90628 1.86466C3.32337 1.86466 2.78335 2.08925 2.38213 2.49804C1.97838 2.90936 1.76389 3.45695 1.77398 4.04238V5.48326C1.77398 5.58925 1.69071 5.67504 1.58472 5.67504Z" fill="#9FA7C4"/>
<path d="M2.38974 4.1105H2.35694C1.82701 4.1105 1.39551 4.54201 1.39551 5.07193V5.54634C1.39551 6.07626 1.82701 6.50776 2.35694 6.50776H2.38974C2.91966 6.50776 3.35117 6.07626 3.35117 5.54634V5.07193C3.35117 4.54201 2.91966 4.1105 2.38974 4.1105Z" fill="#9FA7C4"/>
<path d="M5.48105 4.1105H5.44824C4.91832 4.1105 4.48682 4.54201 4.48682 5.07193V5.54634C4.48682 6.07626 4.91832 6.50776 5.44824 6.50776H5.48105C6.01097 6.50776 6.44248 6.07626 6.44248 5.54634V5.07193C6.44248 4.54201 6.01097 4.1105 5.48105 4.1105Z" fill="#9FA7C4"/>
</svg>
