<svg width="7" height="7" viewBox="0 0 7 7" fill="none" xmlns="http://www.w3.org/2000/svg">
<path d="M5.66345 5.65239C5.62373 5.65239 5.584 5.63694 5.55531 5.60825L5.14479 5.19773C5.0852 5.13814 5.0852 5.04103 5.14479 4.97923C5.20438 4.91964 5.30149 4.91964 5.36329 4.97923L5.77381 5.38975C5.8334 5.44934 5.8334 5.54645 5.77381 5.60825C5.74291 5.63694 5.70318 5.65239 5.66345 5.65239Z" fill="#5B5B5B"/>
<path d="M1.59307 3.33498C1.59307 2.28299 2.44855 1.42751 3.50053 1.42751C4.55252 1.42751 5.408 2.28299 5.408 3.33498C5.408 4.38696 4.55252 5.24244 3.50053 5.24244C2.44855 5.24244 1.59307 4.38696 1.59307 3.33498Z" stroke="#5B5B5B" stroke-width="0.378514"/>
</svg>
