<svg width="6" height="6" viewBox="0 0 6 6" fill="none" xmlns="http://www.w3.org/2000/svg">
<path d="M4.87293 4.86043C4.8332 4.86043 4.79347 4.84498 4.76478 4.81629L4.35426 4.40577C4.29467 4.34618 4.29467 4.24907 4.35426 4.18727C4.41385 4.12768 4.51097 4.12768 4.57276 4.18727L4.98328 4.59779C5.04287 4.65738 5.04287 4.75449 4.98328 4.81629C4.95238 4.84498 4.91266 4.86043 4.87293 4.86043Z" fill="#5B5B5B"/>
<path d="M0.802539 2.54302C0.802539 1.49103 1.65802 0.635546 2.71001 0.635546C3.762 0.635546 4.61748 1.49103 4.61748 2.54302C4.61748 3.59501 3.762 4.45049 2.71001 4.45049C1.65802 4.45049 0.802539 3.59501 0.802539 2.54302Z" stroke="#5B5B5B" stroke-width="0.378515"/>
</svg>
