<svg width="7" height="7" viewBox="0 0 7 7" fill="none" xmlns="http://www.w3.org/2000/svg">
<path d="M1.37574 5.46654C1.27228 5.46654 1.18648 5.38075 1.18648 5.27729L1.18648 3.83893C1.17387 3.15509 1.42873 2.50909 1.90314 2.02459C2.37754 1.54262 3.01344 1.27766 3.69729 1.27766C5.09527 1.27766 6.23333 2.41572 6.23333 3.8137V5.25205C6.23333 5.35551 6.14754 5.44131 6.04408 5.44131C5.94062 5.44131 5.85482 5.35551 5.85482 5.25205V3.8137C5.85482 2.62517 4.88835 1.65617 3.69729 1.65617C3.11438 1.65617 2.57437 1.88076 2.17314 2.28955C1.76939 2.70087 1.5549 3.24845 1.565 3.83389V5.27476C1.565 5.38075 1.48172 5.46654 1.37574 5.46654Z" fill="#9FA7C4"/>
<path d="M2.18027 3.90212H2.14746C1.61754 3.90212 1.18604 4.33363 1.18604 4.86355V5.33795C1.18604 5.86787 1.61754 6.29938 2.14746 6.29938H2.18027C2.71018 6.29938 3.14169 5.86787 3.14169 5.33795V4.86355C3.14169 4.33363 2.71018 3.90212 2.18027 3.90212Z" fill="#9FA7C4"/>
<path d="M5.27157 3.90212H5.23877C4.70885 3.90212 4.27734 4.33363 4.27734 4.86355V5.33795C4.27734 5.86787 4.70885 6.29938 5.23877 6.29938H5.27157C5.80149 6.29938 6.233 5.86787 6.233 5.33795V4.86355C6.233 4.33363 5.80149 3.90212 5.27157 3.90212Z" fill="#9FA7C4"/>
</svg>
