<svg width="8" height="7" viewBox="0 0 8 7" fill="none" xmlns="http://www.w3.org/2000/svg">
<g clip-path="url(#clip0_1189_8769)">
<path d="M1.95117 1.43264C1.95117 1.36239 1.97908 1.29503 2.02874 1.24536C2.07841 1.19569 2.14578 1.16779 2.21602 1.16779H3.27542C3.34566 1.16779 3.41303 1.19569 3.4627 1.24536C3.51237 1.29503 3.54027 1.36239 3.54027 1.43264V2.75689C3.54027 2.82713 3.51237 2.89449 3.4627 2.94416C3.41303 2.99383 3.34566 3.02174 3.27542 3.02174H2.21602C2.14578 3.02174 2.07841 2.99383 2.02874 2.94416C1.97908 2.89449 1.95117 2.82713 1.95117 2.75689V1.43264ZM4.59967 1.43264C4.59967 1.36239 4.62758 1.29503 4.67724 1.24536C4.72691 1.19569 4.79428 1.16779 4.86452 1.16779H5.92392C5.99416 1.16779 6.06153 1.19569 6.1112 1.24536C6.16087 1.29503 6.18877 1.36239 6.18877 1.43264V1.96234C6.18877 2.03258 6.16087 2.09994 6.1112 2.14961C6.06153 2.19928 5.99416 2.22719 5.92392 2.22719H4.86452C4.79428 2.22719 4.72691 2.19928 4.67724 2.14961C4.62758 2.09994 4.59967 2.03258 4.59967 1.96234V1.43264ZM1.95117 4.34599C1.95117 4.27574 1.97908 4.20838 2.02874 4.15871C2.07841 4.10904 2.14578 4.08114 2.21602 4.08114H3.27542C3.34566 4.08114 3.41303 4.10904 3.4627 4.15871C3.51237 4.20838 3.54027 4.27574 3.54027 4.34599V5.14054C3.54027 5.21078 3.51237 5.27814 3.4627 5.32781C3.41303 5.37748 3.34566 5.40539 3.27542 5.40539H2.21602C2.14578 5.40539 2.07841 5.37748 2.02874 5.32781C1.97908 5.27814 1.95117 5.21078 1.95117 5.14054V4.34599ZM4.59967 3.55144C4.59967 3.48119 4.62758 3.41383 4.67724 3.36416C4.72691 3.31449 4.79428 3.28659 4.86452 3.28659H5.92392C5.99416 3.28659 6.06153 3.31449 6.1112 3.36416C6.16087 3.41383 6.18877 3.48119 6.18877 3.55144V5.14054C6.18877 5.21078 6.16087 5.27814 6.1112 5.32781C6.06153 5.37748 5.99416 5.40539 5.92392 5.40539H4.86452C4.79428 5.40539 4.72691 5.37748 4.67724 5.32781C4.62758 5.27814 4.59967 5.21078 4.59967 5.14054V3.55144Z" stroke="#9FA7C4" stroke-width="0.5297"/>
</g>
<defs>
<clipPath id="clip0_1189_8769">
<rect width="6.3564" height="6.3564" fill="white" transform="translate(0.891602 0.108429)"/>
</clipPath>
</defs>
</svg>
