<svg width="8" height="8" viewBox="0 0 8 8" fill="none" xmlns="http://www.w3.org/2000/svg">
<path d="M1.74121 2.22371C1.74121 2.15347 1.76911 2.0861 1.81878 2.03643C1.86845 1.98677 1.93582 1.95886 2.00606 1.95886H3.06546C3.1357 1.95886 3.20307 1.98677 3.25273 2.03643C3.3024 2.0861 3.33031 2.15347 3.33031 2.22371V3.54796C3.33031 3.6182 3.3024 3.68557 3.25273 3.73524C3.20307 3.7849 3.1357 3.81281 3.06546 3.81281H2.00606C1.93582 3.81281 1.86845 3.7849 1.81878 3.73524C1.76911 3.68557 1.74121 3.6182 1.74121 3.54796V2.22371ZM4.3897 2.22371C4.3897 2.15347 4.41761 2.0861 4.46728 2.03643C4.51695 1.98677 4.58431 1.95886 4.65455 1.95886H5.71395C5.78419 1.95886 5.85156 1.98677 5.90123 2.03643C5.9509 2.0861 5.9788 2.15347 5.9788 2.22371V2.75341C5.9788 2.82365 5.9509 2.89102 5.90123 2.94069C5.85156 2.99036 5.78419 3.01826 5.71395 3.01826H4.65455C4.58431 3.01826 4.51695 2.99036 4.46728 2.94069C4.41761 2.89102 4.3897 2.82365 4.3897 2.75341V2.22371ZM1.74121 5.13706C1.74121 5.06681 1.76911 4.99945 1.81878 4.94978C1.86845 4.90011 1.93582 4.87221 2.00606 4.87221H3.06546C3.1357 4.87221 3.20307 4.90011 3.25273 4.94978C3.3024 4.99945 3.33031 5.06681 3.33031 5.13706V5.9316C3.33031 6.00185 3.3024 6.06921 3.25273 6.11888C3.20307 6.16855 3.1357 6.19645 3.06546 6.19645H2.00606C1.93582 6.19645 1.86845 6.16855 1.81878 6.11888C1.76911 6.06921 1.74121 6.00185 1.74121 5.9316V5.13706ZM4.3897 4.34251C4.3897 4.27226 4.41761 4.2049 4.46728 4.15523C4.51695 4.10556 4.58431 4.07766 4.65455 4.07766H5.71395C5.78419 4.07766 5.85156 4.10556 5.90123 4.15523C5.9509 4.2049 5.9788 4.27226 5.9788 4.34251V5.9316C5.9788 6.00185 5.9509 6.06921 5.90123 6.11888C5.85156 6.16855 5.78419 6.19645 5.71395 6.19645H4.65455C4.58431 6.19645 4.51695 6.16855 4.46728 6.11888C4.41761 6.06921 4.3897 6.00185 4.3897 5.9316V4.34251Z" stroke="#9FA7C4" stroke-width="0.529699"/>
</svg>
